<svg width="171" height="275" viewBox="0 0 171 275" fill="none" xmlns="http://www.w3.org/2000/svg">
<path d="M75.8337 200.448C83.329 199.091 85.008 203.652 84.9102 206.103H55.0458H25.1814C37.3614 198.186 41.968 196.018 42.7487 195.924C46.2622 194.567 48.3117 197.055 48.8973 198.469C55.4558 190.325 62.7557 194.51 65.586 197.62C72.8476 194.454 75.4437 198.186 75.8337 200.448Z" fill="#655D8A"/>
<path d="M75.6354 274.922C87.5808 271.111 93.0188 227.427 93.6987 206.025H82.6277H23.1932H16.2007C14.1029 231.59 20.571 266.713 33.6814 274.922H75.6354Z" fill="#EEAFED"/>
<path d="M16.6902 210.225H92.5275" stroke="black"/>
<path d="M16.9829 213.169H92.8202" stroke="black"/>
<path d="M64.7106 178.72C61.6654 180.369 60.5141 191.97 60.3185 197.564H57.0978C58.6594 188.338 60.3771 168.828 54.7554 164.588C56.6992 164.029 60.4339 162.729 60.6142 161.793C60.6136 161.742 60.6125 161.693 60.6113 161.643C60.6236 161.692 60.6242 161.742 60.6142 161.793C60.7167 166.847 61.0868 176.782 61.7825 177.248C63.6372 171.654 66.9945 158.522 65.589 150.749L71.5916 148.099C65.7395 147.805 52.8327 142.8 48.0208 125.134C48.0168 125.134 48.0119 125.133 48.0062 125.133C46.5358 125.032 43.3913 124.541 42.4573 123.367C38.1287 123.838 33.431 119.834 31.6233 117.773C39.3534 115.182 42.0669 120.423 42.4573 123.367C44.1848 123.946 47.6673 125.094 48.0062 125.133C48.0111 125.133 48.0159 125.133 48.0208 125.134L44.7997 119.54L45.6782 115.417C40.5247 112.12 41.3836 104.622 42.4573 101.285C47.3765 105.053 46.6542 112.277 45.6782 115.417V119.54L48.0208 125.134C47.0838 119.481 50.3632 117.871 52.1201 117.773C55.1653 120.128 52.2177 126.213 50.3632 128.961C50.3632 130.139 55.829 137.304 58.5616 140.739C59.0501 136.813 58.2688 127.489 61.7825 128.961C61.7825 128.933 61.7878 128.912 61.7995 128.9L62.661 125.723C62.5257 125.777 62.5333 125.723 62.661 125.581V122.189L60.0257 120.423C60.4145 115.342 61.4804 104.97 62.6457 103.948C62.651 103.939 62.6563 103.935 62.661 103.935C61.9588 103.228 62.3682 100.5 62.661 99.2237C61.0997 97.1627 58.7373 91.804 61.7825 86.8575C63.93 88.9185 67.1122 94.2772 62.661 99.2237V99.5181V103.935C64.125 100.205 67.2873 92.5106 68.2243 91.5684V85.9742C66.8581 83.8148 63.6571 79.3789 61.7825 78.9078C65.1012 78.0999 71.0353 78.382 68.2243 85.9742C68.3297 87.4464 68.5083 90.5674 68.3818 91.274L69.9812 87.1519L72.3236 83.9132V80.0856V76.2579C71.8358 74.1969 71.2695 68.956 72.9092 64.4806C74.888 59.0802 75.2295 77.8267 72.6164 76.4823L72.4449 80.0856C73.3291 79.6486 76.2028 71.02 77.5942 66.5417C77.3599 66.0706 77.1064 63.2046 77.0086 61.8307C73.9124 60.9475 72.9092 46.8147 76.4229 49.759C79.2339 52.1145 77.9848 58.7883 77.0086 61.8307C77.2036 62.4196 77.5942 64.1862 77.5942 66.5417C77.8284 67.0128 80.8151 56.9236 82.2791 51.82C78.9997 48.5224 81.6935 46.1277 83.4503 45.3425C84.6216 47.2269 83.1575 50.446 82.2791 51.82V55.9421C84.5583 48.6402 91.8176 47.9924 95.1627 48.5813C92.1175 50.9367 85.1094 56.2365 81.9863 58.592C81.0493 59.0631 79.6438 64.0879 79.0582 66.5417C101.604 54.7644 82.5719 68.6027 80.5223 69.486C78.8825 70.1926 77.1064 74.6874 76.4229 76.8468C82.5087 71.1937 85.2054 74.0986 85.7928 76.2579C81.1085 74.6091 74.8617 80.6744 72.3236 83.9132C69.2983 90.6851 63.13 104.17 62.661 103.935C62.6557 103.939 62.6504 103.943 62.6457 103.948C62.3693 104.371 60.9879 114.84 60.3185 120.128L62.6059 121.882C62.6053 121.869 62.6042 121.856 62.6042 121.842C61.8434 117.116 61.1553 108.028 64.125 106.879C63.4381 101.811 71.656 99.1465 76.1266 98.3887C76.2467 98.3463 76.3468 98.3292 76.4229 98.3404C76.3263 98.3557 76.2274 98.3716 76.1266 98.3887C74.4108 98.9934 68.5083 104.761 65.589 107.762C61.9682 108.9 62.0642 117.277 62.603 121.737C62.6592 119.533 67.0507 115.887 69.3955 114.24C68.6928 109.058 70.274 105.211 71.1524 103.935C73.0264 104.877 71.9336 110.608 71.1524 113.356L73.4949 111.59C89.1894 103.581 80.6201 109.823 74.3733 113.945C82.3377 113.474 81.4007 114.73 79.9366 115.417C76.7486 114.349 63.9159 124.19 62.661 125.581V125.723C63.8322 125.252 67.6387 127.489 69.3955 128.667C70.4356 128.651 71.4101 128.647 72.3236 128.655C76.2279 123.359 83.9188 112.296 83.4503 110.412C83.4966 109.576 83.5388 108.317 83.52 107.173C83.5031 106.131 83.4363 105.184 83.277 104.74C83.2348 104.661 83.195 104.589 83.1575 104.523C82.6697 103.836 80.3466 103.935 74.9589 109.823C73.007 109.725 71.0938 107.998 80.2295 101.874C79.0582 99.9109 76.0716 95.7494 73.4949 94.8072C76.6185 94.5128 83.1575 96.0438 84.3288 104.523H83.1575C83.202 104.568 83.2419 104.642 83.277 104.74C83.677 105.485 84.248 106.747 84.036 107.173H84.6216L85.7928 104.523L83.7432 97.1627C80.059 93.1584 80.4514 89.9979 81.1079 88.9185C83.6846 89.1541 84.5244 94.5128 84.6216 97.1627C85.5586 97.8693 85.7928 102.364 85.7928 104.523L87.8425 99.8125C86.6712 92.9817 92.4302 90.0963 95.4555 89.5074C95.6897 93.5117 91.454 98.046 89.3065 99.8125C89.5408 100.99 86.2812 105.211 84.6216 107.173C95.3969 98.2226 97.3101 100.107 96.9195 102.168L85.7928 110.412C85.0901 113.474 78.0826 123.882 74.6661 128.703C85.1053 129.051 85.8127 131.088 84.6216 132.2C64.8523 131.36 62.0291 128.656 61.7995 128.9L61.7825 128.961C61.7825 129.432 59.6357 137.009 58.5616 140.739L71.5916 148.099L77.5942 145.45C82.7675 141.426 95.5726 133.319 105.411 133.083L119.173 132.2C120.735 133.182 120.988 135.262 109.51 135.733L108.632 134.556L103.068 135.144C106.68 135.832 113.551 138.619 112.146 144.272C110.584 142.211 106.699 137.912 103.654 137.205L103.361 136.175H99.262C98.2863 139.07 95.2798 144.743 91.0634 144.272L89.8921 139.561L81.6935 145.45H86.6712C87.5497 146.235 86.8469 147.923 77.0086 148.394L75.8373 151.338C81.225 149.454 81.9863 155.068 81.6935 158.11C79.8195 155.048 77.0086 153.301 75.8373 152.81C74.1976 151.397 73.7877 153.399 73.7877 154.577C76.8329 157.168 75.0567 160.564 73.7877 161.938C72.3822 161.938 71.4452 158.797 71.1524 157.227L68.1704 164.588C68.8298 165.059 69.6526 166.354 69.9812 166.943C76.5401 164.823 75.8373 170.378 74.6661 173.421C70.6839 173.185 69.884 169.004 69.9812 166.943L67.9315 165.177L64.7106 178.72Z" fill="#655D8A"/>
<path d="M31.916 136.911C38.2407 136.205 48.2157 133.28 52.4126 131.906C51.5342 129.649 49.0746 124.368 46.2636 121.306C45.2876 118.166 45.5609 109.176 54.4623 98.3405C56.0239 95.2978 59.44 87.9765 60.6112 83.03L55.6335 81.8523C53.4862 86.5632 48.4304 95.6317 45.3852 94.2185C42.7499 97.5555 36.7181 103.994 33.6729 103.051C32.0137 102.266 30.5691 99.4005 38.065 94.2185C35.4297 94.709 28.8708 92.3341 23.7174 78.908H18.1541C20.5187 86.3671 26.2302 101.461 30.1592 102.168C27.1335 103.64 22.7804 108.94 29.5736 118.362C30.3544 123.466 31.916 134.32 31.916 136.911Z" fill="#655D8A"/>
<path d="M83.1575 139.447C84.1683 137.28 84.0166 136.113 83.4503 135.733C82.3745 135.151 81.2677 135.286 80.2294 135.804C76.7157 137.509 76.6179 133.131 77.0085 130.728H92.2345C97.6222 130.728 97.2123 133.672 96.3339 135.145C92.1174 133.731 85.695 137.425 83.1575 139.447Z" fill="black"/>
<path d="M76.1301 139.828L80.5223 143.361C82.1866 141.52 83.1862 140.02 83.7431 138.826C84.7539 136.659 84.3094 135.497 83.7431 135.117C82.6674 134.534 81.5605 134.669 80.5223 135.187C78.6208 136.136 76.9506 138.368 76.1301 139.828Z" fill="#EEAFED"/>
<path d="M39.6273 74.7859C34.2397 79.2612 36.6017 85.091 38.4561 87.4465V85.091C37.5191 79.4379 39.8226 80.3801 41.0914 81.5578C42.2626 79.4379 45.0931 78.7118 46.3619 78.6135C47.6245 80.6763 49.2238 82.4988 50.4612 83.739C51.0605 84.339 51.575 84.8031 51.9253 85.091C54.7362 78.5322 52.1205 75.2917 50.4612 74.4914C50.6955 69.545 47.0452 68.3083 45.1907 68.3083C40.74 68.3083 39.6273 72.6265 39.6273 74.7859Z" fill="black"/>
<path d="M54.4811 203.546C52.0444 204.399 48.9233 205.943 47.1472 207.244C46.5489 207.682 45.8523 208.003 45.1119 208.004C42.1772 208.005 37.7134 207.659 36.8938 206.217C34.5513 206.411 40.7979 201.783 44.214 199.445C44.6887 195.785 45.5464 194.786 46.2637 194.795C46.6082 194.799 46.9204 195.036 47.1421 195.323L48.3133 198.267C50.6765 199.307 52.155 198.528 52.9983 197.393C53.4925 196.727 53.7685 195.939 53.8767 195.323C55.2822 197.207 55.4383 200.034 55.3407 201.212C55.8934 202.045 55.4223 203.218 54.4811 203.546Z" fill="black"/>
<path d="M47.1421 195.209L48.3133 198.153C50.6765 199.192 52.155 198.414 52.9983 197.279C52.8031 195.509 51.9442 191.499 50.0702 189.615L46.2637 192.264V194.681C46.6082 194.685 46.9204 194.922 47.1421 195.209Z" fill="#EEAFED"/>
<path d="M46.2638 194.62L51.8271 191.97C46.8494 183.628 38.6508 163.822 46.8494 150.161C53.1936 156.933 66.8189 168.71 70.5669 161.643C73.7878 156.344 80.2881 145.214 80.5223 143.094L76.1302 139.561C72.7143 142.701 66.2333 149.748 67.6388 152.81C64.3201 150.651 56.6877 143.448 52.7056 131.906C48.5086 133.28 38.5336 136.204 32.209 136.911L32.7722 169.195C32.787 170.039 32.9821 170.866 33.3338 171.633C36.6111 178.778 41.8307 191.945 46.2638 194.62Z" fill="black"/>
<path d="M55.6335 82.2608L60.6113 83.4386L69.1027 58.4116L65.589 59.0007L60.6113 71.6613C58.2688 73.0745 56.3168 79.3165 55.6335 82.2608Z" fill="#EEAFED"/>
<path d="M23.7174 79.3165H18.1541C20.4965 73.9184 25.6499 62.1806 27.5239 58.4117V54.2896V51.6397C28.0119 51.149 28.9294 50.992 28.6951 54.2896C28.988 52.8174 29.6321 50.2264 29.8664 51.6397V54.2896C30.2568 52.9156 31.0962 50.6975 31.3304 52.8174V54.2896L33.0873 53.4063C33.2825 53.4063 33.5558 53.8185 33.0873 55.4673C32.7945 56.5469 32.6188 58.1761 34.2585 56.0562C35.4297 56.1544 36.6595 57.0573 32.2088 59.884C29.8664 62.9261 24.8886 71.0724 23.7174 79.3165Z" fill="#EEAFED"/>
<path d="M45.3853 94.2184C43.1756 97.7516 36.5855 103.994 33.5403 103.051C31.881 102.266 30.4365 99.4005 37.9324 94.2184C38.2252 93.5312 38.7522 91.1564 38.518 87.1521V84.7966C37.581 79.1435 39.8844 80.0857 41.1533 81.2634C42.3245 79.1435 45.155 78.4174 46.4238 78.3191C47.6864 80.3819 49.2856 82.2044 50.5231 83.4446C50.5231 85.0728 49.5861 89.0953 45.8382 92.1574C45.3697 93.5707 45.3853 94.1201 45.3853 94.2184Z" fill="#EEAFED"/>
<path d="M55.192 77.2685L26.9164 51.8503C26.5251 49.4228 28.6734 49.7069 29.7964 50.1525L57.3539 74.2877C57.684 77.1826 56.0502 77.4811 55.192 77.2685Z" fill="#655D8A"/>
<path d="M36.9834 19.7095C39.4164 30.0094 38.0743 38.4638 37.0991 41.4036L41.1174 37.7774C41.8263 35.9706 41.2697 29.0865 40.9028 25.8703C38.1886 14.1078 43.0156 9.71751 45.7684 8.99268C57.3318 9.09655 57.0399 18.4026 55.4485 23.0426L58.7186 22.8811C60.7284 12.9312 55.216 8.26237 52.2085 7.17173C40.5288 2.53854 37.1919 13.5998 36.9834 19.7095Z" stroke="#EEAFED"/>
<path d="M36.7919 40.7689C35.8693 44.2105 31.4777 48.2822 29.3972 49.8879L56.9546 74.0233L63.8679 66.3257L74.3721 53.7572C75.7951 52.6585 78.7185 49.8775 79.0242 47.5422L52.4752 24.728L40.8102 37.1428L36.7919 40.7689Z" fill="#C192EE"/>
<path d="M58.6823 22.432C61.4476 21.6099 67.2721 21.7862 68.4457 29.0687L78.0258 19.0509C79.3124 18.9974 81.8077 19.4895 81.4938 21.8853L73.328 32.3871L81.098 38.4631C81.0113 40.6295 80.5299 45.5153 79.2954 47.7277L52.7463 24.9136L55.4125 22.5935L58.6823 22.432Z" fill="#655D8A"/>
<path d="M101.177 52.0337L66.02 63.4201L76.5236 50.852L100.474 48.3771L106.517 40.5642L110.979 58.3786L101.177 52.0337Z" fill="#C192EE"/>
<path d="M107.553 38.9197L113.149 59.8535L110.646 58.2946L106.22 40.5744L107.553 38.9197Z" fill="#655D8A"/>
<path d="M117.174 46.0118C119.418 45.7174 124.025 46.0707 124.494 49.8394C123.713 50.232 121.156 50.0161 117.174 46.0118Z" fill="#EEAFED"/>
<path d="M129.764 53.7477C132.009 53.4532 136.616 53.8065 137.085 57.5753C136.304 57.9678 133.747 57.7519 129.764 53.7477Z" fill="#EEAFED"/>
<path d="M141.079 62.7183C143.304 63.134 147.579 64.8976 146.87 68.6281C146.006 68.76 143.64 67.7619 141.079 62.7183Z" fill="#EEAFED"/>
<path d="M149.873 75.2488C151.781 76.4742 155.084 79.7236 153.032 82.9129C152.184 82.7085 150.363 80.8901 149.873 75.2488Z" fill="#EEAFED"/>
<path d="M154.303 91.9983C156.055 93.4398 158.957 97.0543 156.55 99.9809C155.731 99.6789 154.134 97.6591 154.303 91.9983Z" fill="#EEAFED"/>
<path d="M157.179 107.748C158.478 109.611 160.301 113.88 157.198 116.044C156.49 115.53 155.495 113.151 157.179 107.748Z" fill="#EEAFED"/>
<path d="M156.64 121.462C157.685 123.481 158.936 127.953 155.577 129.689C154.942 129.086 154.267 126.597 156.64 121.462Z" fill="#EEAFED"/>
<path d="M154.55 134.958C155.596 136.977 156.847 141.449 153.487 143.185C152.852 142.583 152.177 140.093 154.55 134.958Z" fill="#EEAFED"/>
<path d="M150.971 146.252C151.751 148.389 152.423 152.986 148.87 154.275C148.317 153.596 147.964 151.041 150.971 146.252Z" fill="#EEAFED"/>
<path d="M113.287 52.5691C115.551 52.5701 120.074 53.5215 120.051 57.3195C119.227 57.6069 116.719 57.0591 113.287 52.5691Z" fill="#EEAFED"/>
<path d="M124.773 61.8821C127.037 61.8833 131.559 62.8349 131.538 66.633C130.713 66.9204 128.205 66.3722 124.773 61.8821Z" fill="#EEAFED"/>
<path d="M134.835 72.2537C136.988 72.9562 140.998 75.2628 139.814 78.869C138.941 78.8866 136.723 77.5888 134.835 72.2537Z" fill="#EEAFED"/>
<path d="M141.938 85.8252C143.671 87.2897 146.526 90.9424 144.081 93.8373C143.265 93.524 141.695 91.483 141.938 85.8252Z" fill="#EEAFED"/>
<path d="M144.168 103.012C145.72 104.67 148.131 108.632 145.366 111.22C144.593 110.813 143.27 108.602 144.168 103.012Z" fill="#EEAFED"/>
<path d="M144.987 119.003C146.035 121.021 147.292 125.491 143.935 127.231C143.3 126.63 142.62 124.141 144.987 119.003Z" fill="#EEAFED"/>
<path d="M142.684 132.531C143.46 134.669 144.122 139.267 140.568 140.55C140.016 139.87 139.667 137.313 142.684 132.531Z" fill="#EEAFED"/>
<path d="M138.87 145.64C139.645 147.779 140.309 152.376 136.754 153.66C136.202 152.979 135.854 150.423 138.87 145.64Z" fill="#EEAFED"/>
<path d="M134.277 156.137C134.774 158.358 134.847 163.003 131.158 163.818C130.697 163.072 130.677 160.492 134.277 156.137Z" fill="#EEAFED"/>
<path d="M129.592 164.97C130.089 167.191 130.162 171.836 126.473 172.651C126.012 171.905 125.992 169.325 129.592 164.97Z" fill="#EEAFED"/>
<path d="M125.492 173.803C125.99 176.024 126.063 180.669 122.374 181.484C121.913 180.738 121.893 178.158 125.492 173.803Z" fill="#EEAFED"/>
<path d="M120.697 183.573C120.447 185.836 119.008 190.25 115.256 189.81C115.064 188.954 115.881 186.508 120.697 183.573Z" fill="#EEAFED"/>
</svg>
