<svg width="310" height="157" viewBox="0 0 310 157" fill="none" xmlns="http://www.w3.org/2000/svg">
<g clip-path="url(#clip0_2334_5176)">
<mask id="mask0_2334_5176" style="mask-type:luminance" maskUnits="userSpaceOnUse" x="0" y="6" width="310" height="151">
<path d="M310 6.69189H0V156.548H310V6.69189Z" fill="white"/>
</mask>
<g mask="url(#mask0_2334_5176)">
<mask id="mask1_2334_5176" style="mask-type:luminance" maskUnits="userSpaceOnUse" x="86" y="68" width="38" height="59">
<path d="M123.957 68.76H86.1938V126.365H123.957V68.76Z" fill="white"/>
</mask>
<g mask="url(#mask1_2334_5176)">
<path d="M106.996 100.326C120.821 99.9856 123.993 102.664 123.851 104.045C123.663 105.114 122.945 105.973 121.824 106.654L118.517 123.814C106.825 128.405 95.8658 125.727 91.8477 123.814C91.2504 122.623 89.5367 112.406 88.7544 107.446C85.4261 105.236 86.1582 103.62 86.9409 103.089C88.9037 100.283 101.129 100.078 106.996 100.326Z" fill="#FFC8DD"/>
<path d="M98.0348 104.789C96.3282 103.174 92.3457 103.55 90.5674 103.939C87.0685 105.725 95.2969 106.88 99.8483 107.234C106.334 107.914 115.707 106.029 119.583 105.002C115.231 102.621 112.223 103.585 111.263 104.364C109.3 104.874 107.6 104.151 106.996 103.727C101.534 101.516 98.7462 103.514 98.0348 104.789Z" fill="black"/>
<path d="M103.926 104.683C104.104 103.124 104.459 99.794 104.459 98.9436C104.459 97.8811 102.005 90.2288 100.832 88.9532C99.2676 86.8278 96.1599 82.1513 96.2451 80.451C96.1738 78.9629 96.2239 75.6468 96.9917 74.2869" stroke="#C192EE"/>
<path d="M95.5817 70.4268C94.7282 71.3621 95.9372 73.2966 96.6481 74.1469C99.1229 75.422 100.595 74.1825 101.022 73.4031C102.729 71.1923 100.88 69.648 99.7419 69.1518C97.5228 68.0461 96.0436 69.5414 95.5817 70.4268Z" fill="#FFC8DD"/>
<path d="M104.804 73.084C99.5978 74.6143 100.356 84.8461 100.818 89.2385H100.857C103.929 85.8375 104.768 77.0517 104.804 73.084Z" fill="#FFC8DD"/>
<path d="M92.7436 83.0017C92.3938 86.0753 98.3143 88.2465 100.888 89.1082L100.897 89.0882C99.701 86.6487 94.9632 84.0142 92.7436 83.0017Z" fill="#FFC8DD"/>
</g>
<mask id="mask2_2334_5176" style="mask-type:luminance" maskUnits="userSpaceOnUse" x="142" y="87" width="33" height="46">
<path d="M174.816 87.4053H142.6V132.044H174.816V87.4053Z" fill="white"/>
</mask>
<g mask="url(#mask2_2334_5176)">
<path d="M160.362 108.307C172.215 107.997 174.934 110.44 174.812 111.7C174.651 112.675 174.036 113.458 173.075 114.08L170.239 129.732C160.216 133.919 150.82 131.476 147.375 129.732C146.863 128.645 145.394 119.326 144.722 114.803C141.869 112.786 142.497 111.313 143.168 110.828C144.851 108.268 155.332 108.081 160.362 108.307Z" fill="#C192EE"/>
<path d="M159.241 113.252L157.748 113.784C158.431 113.274 157.925 103.376 157.321 98.3809L155.294 92.209C156.404 93.9092 157.179 97.389 157.321 98.3809C157.919 99.0609 158.992 108.505 159.241 113.252Z" fill="#C192EE"/>
<path d="M157.321 98.3808C155.899 99.2307 151.966 99.7969 149.747 96.1411C150.885 95.1492 154.419 94.9798 157.321 98.3808C157.321 98.3808 156.404 93.9092 155.295 92.2089C151.966 94.4193 148.574 90.9334 147.72 88.914C151.731 87.2987 154.654 90.6147 155.295 92.2089C156.148 87.8726 159.49 87.0367 161.268 87.5324L160.735 89.4452C160.479 91.741 157.001 92.2444 155.295 92.2089C156.404 93.9092 157.321 98.3808 157.321 98.3808C158.104 96.6096 159.988 92.3999 163.402 93.5905C163.544 94.9721 162.185 98.0406 157.321 98.3808Z" fill="#C192EE"/>
<path d="M153.08 112.104C151.629 111.069 148.243 111.309 146.731 111.559C143.756 112.703 150.752 113.444 154.622 113.671C160.137 114.107 168.107 112.898 171.402 112.24C167.702 110.714 165.144 111.332 164.328 111.831C162.659 112.158 161.214 111.695 160.699 111.423C156.055 110.006 153.685 111.286 153.08 112.104Z" fill="black"/>
</g>
<mask id="mask3_2334_5176" style="mask-type:luminance" maskUnits="userSpaceOnUse" x="182" y="6" width="128" height="151">
<path d="M310 6.69189H182.629V156.548H310V6.69189Z" fill="white"/>
</mask>
<g mask="url(#mask3_2334_5176)">
<mask id="mask4_2334_5176" style="mask-type:luminance" maskUnits="userSpaceOnUse" x="182" y="59" width="37" height="28">
<path d="M218.472 59.8325H182.629V86.4026H218.472V59.8325Z" fill="white"/>
</mask>
<g mask="url(#mask4_2334_5176)">
<path d="M215.912 73.1172L218.472 76.3055C215.555 79.1398 208.21 85.1058 202.15 86.2964L199.804 82.6828C194.719 81.8325 184.165 79.9829 182.629 79.3879V77.3685L197.03 76.8373L192.657 68.3346C194.399 65.961 199.484 61.0225 205.884 60.2576C206.716 60.2684 207.383 60.4475 207.352 60.8948L208.444 62.0644L209.085 62.9142L214.205 70.5665L215.912 73.1172Z" fill="#FFC8DD"/>
<path d="M207.377 60.895V61.3202C207.634 62.1706 198.239 66.8826 193.51 69.1851L193.19 69.3977" stroke="black"/>
<path d="M207.698 61.5327V61.9579C207.953 62.8083 198.559 67.5198 193.83 69.8228L193.51 70.0354" stroke="black"/>
<path d="M208.338 62.1704V62.5956C208.594 63.446 199.199 68.1575 194.47 70.4605L194.15 70.6731" stroke="black"/>
<path d="M201.19 84.9143L201.511 84.7022C206.24 82.3992 215.634 77.6877 215.379 76.8373V76.4121C215.415 75.5618 215.656 73.8188 216.339 73.6489" stroke="black"/>
<path d="M212.925 60.3297C211.389 58.8843 209.369 60.9315 208.551 62.1365L209.191 62.9864L210.406 62.3265C211.102 61.9481 211.982 61.9667 212.476 62.5849C214.186 64.7283 214.433 68.6842 214.312 70.6387L216.019 73.1893C216.338 70.8513 214.845 62.1365 212.925 60.3297Z" fill="#FFC8DD"/>
</g>
<path d="M251.648 55.05C262.7 53.8671 268.966 48.7452 271.466 45.3782C274.959 49.6649 281.112 60.1301 277.784 67.697C277.001 69.8934 273.986 78.9629 268.183 97.6685C272.094 99.5814 282.883 103.238 294.745 102.557H299.012C301.743 108.764 299.582 109.82 298.159 109.572C297.536 109.71 297.243 109.991 297.143 110.316H295.065C285.891 111.237 267.265 112.803 266.156 111.698C264.733 120.802 262.017 139.139 262.529 139.649H253.888C253.106 134.902 251.499 125.11 251.328 123.92C251.158 122.729 249.978 111.662 249.408 106.277C248.625 99.5459 247.424 85.2336 248.875 81.8326C249.978 73.7906 252.075 57.1754 251.648 55.05Z" fill="black"/>
<path d="M272.52 44.9019C271.582 39.0352 265.232 31.4042 262.173 28.322C261.215 25.8375 254.505 21.1764 248.412 18.0924C244.339 16.0315 240.541 14.6749 238.917 15.1432C237.501 15.552 235.094 15.299 232.517 14.7693C232.602 16.7658 232.411 22.0148 232.304 24.3897C232.73 26.1752 230.847 25.6296 229.85 25.1336V31.6167C229.935 32.8071 231.023 35.6554 231.557 36.9308C231.386 39.3115 230.847 43.4494 230.597 45.2207C231.023 47.4313 222.669 55.7073 218.436 59.5685L219.182 60.2063L221.316 63.1821L222.169 64.3511L225.157 62.6508L227.077 64.3511L230.597 66.9022L231.45 67.646C236.229 63.65 243.611 54.857 246.705 50.9599L251.825 55.9549C264.541 54.5944 270.92 48.0195 272.52 44.9019Z" fill="#C192EE"/>
<path d="M229.993 24.3898V25.3463C230.989 25.8423 232.873 26.3879 232.447 24.6023C232.553 22.2274 232.745 16.9785 232.66 14.9819L229.246 15.0882C229.417 16.4486 227.397 20.6857 226.366 22.6342L229.993 24.3898Z" fill="black"/>
<path d="M222.526 12.6435C222.782 13.8338 216.799 16.3988 213.778 17.5325C213.607 18.7228 217.119 21.2169 218.899 22.3151C223.678 25.2909 227.22 23.555 228.393 22.3151C229.176 22.0041 230.505 20.1043 229.566 14.9934C228.465 14.6487 227.475 14.3122 226.686 14.0252C227.198 10.3691 224.694 9.80934 223.379 9.98647C221.459 9.98647 222.206 11.1556 222.526 12.6435Z" fill="#FFC8DD"/>
<path d="M229.85 31.4554L231.166 36.0254C229.673 35.1397 226.729 33.007 226.899 31.5616C226.65 30.0737 225.129 27.0766 221.032 26.9915C219.379 26.568 217.032 26.3132 215.592 25.6418C216.748 26.6009 218.611 27.6201 221.246 27.9481C222.383 27.8772 224.809 28.4582 225.406 31.3491C225.662 32.4684 226.272 34.5292 226.829 34.6691L227.006 34.6438C226.946 34.677 226.889 34.684 226.829 34.6691L226.26 34.7501C225.69 33.6974 224.531 31.3525 224.446 30.3926C224.126 29.7549 222.846 28.5858 219.432 28.5858C217.44 28.075 214.098 26.6727 213.778 25.5036C212.107 23.6968 209.191 19.4456 209.191 17.1074C208.337 14.7693 206.993 9.32764 209.297 6.69189L222.312 6.90444H239.807C243.562 10.3055 245.211 12.2185 245.568 12.7499C247.275 14.6204 247.915 16.4874 248.021 17.1871C248.277 17.931 247.808 17.8691 247.488 17.6388L244.607 16.3635C243.577 16.0092 241.407 15.3006 241.407 15.3006C241.407 15.3006 239.89 14.9397 238.741 15.1943C237.78 15.4069 237.78 15.5132 237.353 15.3006C236.927 15.6195 233.977 15.0881 232.553 14.7693V14.9818L229.566 15.0881L226.686 14.0253C226.686 13.3876 226.899 13.0688 226.579 11.7934C226.552 11.6871 225.513 10.518 225.086 10.1992C224.062 9.85907 222.846 10.1992 222.206 10.1992C222.206 10.8368 222.419 11.7934 222.419 12.2185C223.016 12.9837 221.992 13.8127 221.246 14.0253C221.246 14.3441 218.045 15.9383 217.619 16.0446C217.514 16.0704 216.232 16.7886 215.592 16.8949C214.419 17.5326 213.885 17.568 213.778 17.6388C213.778 18.319 215.165 19.5519 215.165 19.5519L220.179 22.9529L224.126 23.9094L227.433 23.0592L228.606 23.6968L229.993 24.3345C230.078 25.0147 230.136 25.1139 230.063 25.0785L229.85 31.4554Z" fill="black"/>
<path d="M231.023 67.1657C230.241 69.4331 226.757 74.0314 219.076 74.2868C217.333 73.7195 215.321 72.2458 221.209 70.8853C223.77 69.8933 227.269 68.2925 220.783 69.8228C219.396 69.8583 217.881 69.4826 222.916 67.6969C224.339 67.0241 227.247 65.4654 227.503 64.615L225.583 62.9143L222.596 64.615L221.743 63.446C219.609 65.1818 215.342 68.7387 215.342 69.079C213.885 69.1495 211.566 68.3563 213.955 64.615L214.807 63.3709C215.266 62.7012 216.065 62.3496 216.872 62.4639L217.049 62.4891L219.609 60.4697L221.743 63.446L222.596 64.615L225.583 62.9143L227.503 64.615L231.023 67.1657Z" fill="#FFC8DD"/>
<path d="M254.955 41.3395C255.544 41.3395 256.022 40.8635 256.022 40.2767C256.022 39.6898 255.544 39.2139 254.955 39.2139C254.366 39.2139 253.888 39.6898 253.888 40.2767C253.888 40.8635 254.366 41.3395 254.955 41.3395Z" fill="#FBFBFB"/>
<path d="M262.209 43.2526C262.798 43.2526 263.276 42.7766 263.276 42.1898C263.276 41.6028 262.798 41.127 262.209 41.127C261.62 41.127 261.142 41.6028 261.142 42.1898C261.142 42.7766 261.62 43.2526 262.209 43.2526Z" fill="#FBFBFB"/>
<path d="M252.395 33.0495C252.984 33.0495 253.461 32.5735 253.461 31.9866C253.461 31.3998 252.984 30.9238 252.395 30.9238C251.806 30.9238 251.328 31.3998 251.328 31.9866C251.328 32.5735 251.806 33.0495 252.395 33.0495Z" fill="#FBFBFB"/>
<path d="M260.075 31.9867C260.664 31.9867 261.142 31.5108 261.142 30.9239C261.142 30.337 260.664 29.8611 260.075 29.8611C259.487 29.8611 259.009 30.337 259.009 30.9239C259.009 31.5108 259.487 31.9867 260.075 31.9867Z" fill="#FBFBFB"/>
<path d="M247.701 26.035C248.29 26.035 248.768 25.5592 248.768 24.9722C248.768 24.3853 248.29 23.9094 247.701 23.9094C247.112 23.9094 246.634 24.3853 246.634 24.9722C246.634 25.5592 247.112 26.035 247.701 26.035Z" fill="#FBFBFB"/>
<path d="M247.701 26.035C248.29 26.035 248.768 25.5592 248.768 24.9722C248.768 24.3853 248.29 23.9094 247.701 23.9094C247.112 23.9094 246.634 24.3853 246.634 24.9722C246.634 25.5592 247.112 26.035 247.701 26.035Z" fill="#FBFBFB"/>
<path d="M243.647 50.6923C244.236 50.6923 244.714 50.2164 244.714 49.6295C244.714 49.0426 244.236 48.5667 243.647 48.5667C243.058 48.5667 242.581 49.0426 242.581 49.6295C242.581 50.2164 243.058 50.6923 243.647 50.6923Z" fill="#FBFBFB"/>
<path d="M237.46 57.7065C238.049 57.7065 238.527 57.2308 238.527 56.644C238.527 56.0567 238.049 55.5811 237.46 55.5811C236.871 55.5811 236.394 56.0567 236.394 56.644C236.394 57.2308 236.871 57.7065 237.46 57.7065Z" fill="#FBFBFB"/>
<path d="M231.06 64.2961C231.648 64.2961 232.126 63.8204 232.126 63.2336C232.126 62.6468 231.648 62.1707 231.06 62.1707C230.471 62.1707 229.993 62.6468 229.993 63.2336C229.993 63.8204 230.471 64.2961 231.06 64.2961Z" fill="#FBFBFB"/>
<path d="M237.46 41.1268C238.049 41.1268 238.527 40.6509 238.527 40.064C238.527 39.4772 238.049 39.0012 237.46 39.0012C236.871 39.0012 236.394 39.4772 236.394 40.064C236.394 40.6509 236.871 41.1268 237.46 41.1268Z" fill="#FBFBFB"/>
<path d="M237.46 31.349C238.049 31.349 238.527 30.8731 238.527 30.2862C238.527 29.6993 238.049 29.2234 237.46 29.2234C236.871 29.2234 236.394 29.6993 236.394 30.2862C236.394 30.8731 236.871 31.349 237.46 31.349Z" fill="#FBFBFB"/>
<path d="M238.527 22.6339C239.116 22.6339 239.594 22.1581 239.594 21.5711C239.594 20.9841 239.116 20.5083 238.527 20.5083C237.938 20.5083 237.46 20.9841 237.46 21.5711C237.46 22.1581 237.938 22.6339 238.527 22.6339Z" fill="#FBFBFB"/>
<path d="M233.834 49.6293C234.423 49.6293 234.9 49.1534 234.9 48.5665C234.9 47.9796 234.423 47.5037 233.834 47.5037C233.245 47.5037 232.767 47.9796 232.767 48.5665C232.767 49.1534 233.245 49.6293 233.834 49.6293Z" fill="#FBFBFB"/>
<path d="M230.633 54.9433C231.222 54.9433 231.7 54.4677 231.7 53.8803C231.7 53.2935 231.222 52.8179 230.633 52.8179C230.044 52.8179 229.566 53.2935 229.566 53.8803C229.566 54.4677 230.044 54.9433 230.633 54.9433Z" fill="#FBFBFB"/>
<path d="M225.299 59.8325C225.888 59.8325 226.366 59.3563 226.366 58.7695C226.366 58.1827 225.888 57.7065 225.299 57.7065C224.711 57.7065 224.233 58.1827 224.233 58.7695C224.233 59.3563 224.711 59.8325 225.299 59.8325Z" fill="#FBFBFB"/>
<path d="M308.234 101.885C300.894 100.185 299.06 101.531 299.06 102.417C301.79 108.624 299.627 109.68 298.206 109.432C297.583 109.569 297.291 109.851 297.19 110.176C297.043 110.652 297.312 111.22 297.566 111.557C298.505 111.387 301.939 120.485 303.54 125.055C304.564 129.986 307.948 128.101 309.514 126.543C310.538 115.15 309.087 105.357 308.234 101.885Z" fill="black"/>
<path d="M252.015 145.142C252.271 144.036 253.615 144.044 254.255 144.185C254.853 144.44 254.931 146.063 254.895 146.842C259.803 147.752 258.309 146.63 261.722 146.205C264.454 145.865 263.073 152.581 262.043 155.982C249.498 156.748 240.245 156.514 237.187 156.301C233.432 154.176 235.623 151.448 237.187 150.35C238.467 150.35 247.605 146.878 252.015 145.142Z" fill="black"/>
<path d="M237.46 155.167L261.783 154.635" stroke="#FBFBFB" stroke-width="3"/>
<path d="M240.874 149.959C240.27 150.738 239.423 152.382 240.874 152.722" stroke="#FBFBFB" stroke-width="3"/>
<path d="M243.81 149.959C243.204 150.738 242.359 152.382 243.81 152.722" stroke="#FBFBFB" stroke-width="3"/>
<path d="M246.797 149.534C246.191 150.313 245.346 151.957 246.797 152.297" stroke="#FBFBFB" stroke-width="3"/>
<path d="M308.837 126.074L306.356 101.962" stroke="#FBFBFB" stroke-width="3"/>
<path d="M303.354 123.101C304.182 123.639 305.895 124.348 306.119 122.88" stroke="#FBFBFB" stroke-width="3"/>
<path d="M303.119 120.187C303.947 120.724 305.658 121.433 305.882 119.965" stroke="#FBFBFB" stroke-width="3"/>
<path d="M302.453 117.254C303.281 117.792 304.994 118.501 305.219 117.033" stroke="#FBFBFB" stroke-width="3"/>
<path d="M261.83 139.543V146.239L260.823 146.345L259.222 146.876L258.475 147.196H257.729H256.982L256.342 147.089L254.848 146.876C254.763 145.601 254.524 144.49 254.362 144.147L254.315 139.543H261.83Z" fill="#FFC8DD"/>
</g>
<mask id="mask5_2334_5176" style="mask-type:luminance" maskUnits="userSpaceOnUse" x="0" y="16" width="73" height="131">
<path d="M72.9663 16.8948H0V146.558H72.9663V16.8948Z" fill="white"/>
</mask>
<g mask="url(#mask5_2334_5176)">
<path d="M31.4289 50.4796C31.8556 51.3298 36.4426 61.214 34.4158 68.3346C34.7715 68.5472 35.5893 68.9086 36.0159 68.6538C43.0209 66.847 57.3087 63.3606 58.418 63.8712L58.8447 64.615L61.085 69.7162L61.8316 71.3104C59.9824 72.4089 55.4311 74.9667 52.0175 76.4121C48.6037 77.8576 47.0392 78.5731 46.6835 78.7502L46.0435 78.9628C49.7771 79.1398 57.3299 79.3452 57.6714 78.7502V84.9143L44.55 86.9337C40.8394 87.2071 34.4149 87.5144 30.5755 87.2364L31.9623 89.4848C32.14 89.733 32.2396 90.2714 31.2155 90.4413C30.1914 90.6111 11.8005 97.2432 2.73309 100.538L3.20033 101.175L29.2293 91.7163C31.2774 91.0363 32.2872 90.1576 32.5362 89.8035L31.2155 87.9967L32.5362 87.5715L44.55 87.2529L55.4714 85.5521H61.3387C63.3015 85.8924 65.4989 84.8438 66.3524 84.2771C68.3152 84.8721 69.0195 85.6587 69.1259 85.9773C73.4783 89.3783 71.7216 97.4558 70.2992 101.069C66.8856 106.511 45.9063 120.837 35.8432 127.321L28.5892 118.925C17.8362 122.496 10.5254 120.129 8.2141 118.499C2.24025 115.438 2.07098 105.25 2.73309 100.538C1.80856 97.1367 0.0661876 89.6547 0.492892 86.9337C0.599574 83.037 0.940946 74.9878 1.45299 73.9676C2.98201 68.2641 6.36009 56.644 7.64018 55.7937C9.91595 52.003 15.7049 44.1877 20.6547 43.2525L24.6016 41.9771C25.5973 44.9174 27.8019 50.3733 28.442 50.7984L28.4439 50.8005C29.404 51.8635 30.9171 53.5385 31.4289 50.4796Z" fill="#C192EE"/>
<path fill-rule="evenodd" clip-rule="evenodd" d="M61.055 69.7164H65.8853H66.541C67.7484 69.6906 68.2976 69.5136 68.4273 69.2603C68.5162 68.9952 68.2052 68.6488 67.7407 68.3059C67.2509 67.9698 66.5849 67.6347 65.9918 67.3784L72.819 67.0597C72.9104 66.9048 72.9538 66.7498 72.9559 66.5954C72.9487 66.3185 72.8288 66.0503 72.6299 65.796C72.3338 65.428 71.8632 65.0769 71.3238 64.7603C70.4935 64.2862 69.5128 63.9187 68.806 63.7123C68.3793 63.372 66.139 63.4292 65.0721 63.4997L62.9388 63.8188L58.885 64.7752L61.055 69.7164Z" fill="#FFC8DD"/>
<path d="M45.7528 34.7744C45.947 37.9924 43.1151 41.769 41.5156 43.3947C33.7048 48.5272 30.0392 38.3995 30.0392 38.3995H25.4076C24.3409 37.7263 22.6127 36.04 24.2342 34.6796C25.8556 33.3192 22.7051 30.641 20.9272 29.4719C20.8205 28.409 21.1192 25.837 23.1674 24.0514L26.261 22.351C27.309 22.8465 29.8027 20.863 30.3147 19.1625C32.946 17.1786 38.9981 14.6775 42.1557 20.5442C45.8181 20.2253 52.1193 21.1818 48.0229 27.5587C48.8407 29.5782 50.0711 33.8294 48.4496 34.6796C47.9162 35.4236 46.6787 36.7627 45.996 36.1676L45.7528 34.7744Z" fill="black"/>
<path fill-rule="evenodd" clip-rule="evenodd" d="M30.077 38.7479C30.0585 38.6408 30.0762 38.5738 30.1392 38.5575C30.9569 38.3449 32.8079 37.6687 32.9786 35.7982C32.2675 35.2313 31.2505 33.6513 32.872 31.8658C34.8988 29.6339 35.9655 30.9092 35.9655 31.2281C36.1078 31.724 36.1789 32.8223 36.1789 33.0349C36.3923 33.5308 37.331 34.4165 39.3792 34.4165C41.3706 34.3764 45.3957 34.2537 45.5664 34.0837C45.6485 34.5209 45.7497 35.2551 45.7548 35.9009C45.721 36.2796 45.6524 36.6627 45.5548 37.0462C45.4465 37.2253 45.3577 37.5002 45.2431 37.8551C45.1452 38.1585 45.0283 38.5205 44.8643 38.9311C44.2794 40.178 43.4928 41.3507 42.7472 42.2954C42.6925 42.3566 42.6366 42.418 42.5795 42.4798C40.3679 44.8748 36.7695 46.2337 33.5813 43.754C33.1903 43.4425 32.8325 43.0967 32.5076 42.7362C31.9161 41.9019 30.9535 40.5113 30.4325 39.5644C30.2409 39.1626 30.1229 38.8671 30.077 38.7479Z" fill="#FFC8DD"/>
<path fill-rule="evenodd" clip-rule="evenodd" d="M24.49 42.1229L24.5489 42.104C25.6233 41.2939 27.3824 39.929 28.5597 38.9155H30.4566C31.0956 40.4719 32.7555 43.7513 34.2894 44.4387C34.0059 44.8934 33.666 45.4561 33.3196 46.0561C32.2991 47.7979 31.1835 49.8897 31.31 50.3939C31.5234 51.2441 30.7766 53.4759 29.0698 51.6693C28.1807 50.4294 26.4029 47.7794 26.4029 47.0992L24.49 42.1229Z" fill="#FFC8DD"/>
<path d="M57.6052 84.8949V78.7307C58.2025 79.666 60.4143 78.4826 61.4451 77.7743C65.8833 74.7985 64.2899 77.3846 62.9388 79.0499C63.536 79.8997 67.3837 78.27 69.2328 77.3491C70.5126 77.8593 68.1302 81.1753 66.7792 82.7695C66.0961 85.0653 60.3787 85.143 57.6052 84.8949Z" fill="#FFC8DD"/>
<path d="M25.8716 56.4314C25.0182 57.1114 28.8939 66.4573 31.6321 70.6731C32.5708 74.839 41.3547 77.6166 46.0841 78.9627H57.4984H57.6053M10.8302 61.32C9.72078 62.3403 14.5639 71.1688 17.1241 75.4557C21.6472 83.788 29.336 87.3589 32.963 87.0402L44.484 86.615L57.4984 84.8083H57.6053" stroke="#C192EE" stroke-width="3"/>
<path d="M7.14307 118.453C1.0472 115.34 1.67133 105.438 2.34695 100.644L2.56031 99.9005L2.66698 100.538L28.5873 91.2073C30.6775 90.5155 31.5104 89.8144 31.8962 89.3784L31.2561 88.3154L30.6161 87.253L32.4296 87.359L44.2211 86.6667L55.3655 84.9366H61.3527C63.3553 85.2825 65.5976 84.2159 66.4687 83.6394C68.4718 84.2448 69.19 85.0447 69.299 85.369C73.7403 88.8292 71.948 97.0462 70.4966 100.722C67.5258 106.277 46.1118 120.725 35.8432 127.321L34.6804 126.67L27.9491 119.137C16.9615 122.644 9.50155 120.111 7.14307 118.453Z" fill="black"/>
<path d="M27.5225 118.287L48.7509 103.62" stroke="black"/>
<path d="M35.6297 121.949C40.8924 117.13 53.1458 105.836 60.0583 99.2043C66.9708 92.5723 50.9199 96.4412 42.0302 99.2043C32.5361 102.155 16.3853 113.568 14.5078 107.446" stroke="black"/>
<path d="M32.5362 126.95L32.9629 127.693L34.563 127.375L38.0833 135.664C37.998 135.835 41.5323 137.578 43.3104 138.428C45.1879 139.278 44.6616 140.979 44.1638 141.723C44.0785 142.148 41.7813 142.183 40.6435 142.148C40.1982 142.049 39.8987 142.279 39.7118 142.573C39.5763 142.786 39.5 143.032 39.4701 143.211C39.0788 143.848 37.8913 144.996 36.2698 144.486C34.2073 144.486 29.9333 144.295 29.3359 143.529C27.9134 142.821 25.0688 141.191 25.0688 140.341C24.3931 139.03 22.9567 136.451 22.6153 136.621C21.5485 135.275 19.1163 132.434 17.9215 131.838C16.9886 130.492 15.3199 127.545 16.108 126.524L17.0681 124.824C17.3242 122.868 21.584 121.954 23.6821 121.742C24.0234 121.147 25.8866 120.573 26.7756 120.36C29.2505 119.595 29.0159 120.183 28.5891 120.573C27.4797 120.998 25.851 121.742 25.1755 122.06C26.7116 122.145 26.4556 123.796 26.1356 124.611C25.3675 125.121 27.3091 127.8 28.3758 129.075H29.9759L32.5362 126.95Z" fill="black"/>
<path d="M28.8025 119.987H29.0159L35.2031 127.002L35.8431 127.321H34.7764H34.4564L32.9629 127.639L32.6429 126.896H32.4295L32.3228 127.108L29.976 129.021H28.3758L26.8823 126.896C26.1143 126.045 26.0646 125.124 26.1357 124.77C26.477 124.26 26.4913 123.495 26.4557 123.175C26.4557 122.495 25.7445 122.113 25.3889 122.006L27.2024 121.157L28.2691 120.731C29.1226 120.476 28.9803 120.129 28.8025 119.987Z" fill="#FFC8DD"/>
<path d="M20.4738 132.795C17.2309 130.925 16.349 127.197 16.3135 125.568L15.3534 127.268C14.5652 128.289 16.234 131.236 17.1669 132.583C18.3617 133.178 20.7939 136.019 21.8606 137.365C22.202 137.195 23.6385 139.774 24.3142 141.085C24.3142 141.935 27.1588 143.565 28.5812 144.273C29.1786 145.039 33.4527 145.23 35.5151 145.23C37.1366 145.74 38.3244 144.592 38.7154 143.955L36.0485 144.273C32.2935 144.954 27.6567 142.077 25.8076 140.554C23.8448 135.792 21.4339 133.397 20.4738 132.795Z" fill="#C192EE"/>
<path d="M30.6159 136.886L28.3757 129.34L29.9758 129.128H30.1892L33.1761 136.142L30.6159 136.886Z" fill="black"/>
<path d="M35.7365 135.61C35.1813 134.867 33.8163 130.403 32.9629 127.746L33.3896 127.639L33.8163 127.533L34.563 127.321C35.2031 128.596 37.1232 133.485 38.0833 135.717L35.7365 136.248V135.61Z" fill="black"/>
<path d="M43.7373 141.881L40.6458 142.118C40.0273 142.166 39.5319 142.648 39.4702 143.263L42.3504 143.05C43.7159 142.54 43.8439 142.058 43.7373 141.881Z" fill="#C192EE"/>
<path d="M65.9256 78.6648L64.4324 79.196C65.1149 78.6859 64.6101 68.7882 64.0056 63.793L61.9788 57.6211C63.088 59.3213 63.863 62.8011 64.0056 63.793C64.6029 64.473 65.6765 73.9177 65.9256 78.6648Z" fill="#C192EE"/>
<path d="M64.0058 63.7929C62.5834 64.6433 58.6505 65.2096 56.4314 61.5533C57.5696 60.5613 61.1042 60.392 64.0058 63.7929C64.0058 63.7929 63.0882 59.3213 61.9789 57.621C58.6505 59.8314 55.2581 56.3455 54.4045 54.3261C58.4159 52.7108 61.3387 56.0269 61.9789 57.621C62.8324 53.2848 66.1747 52.4488 67.9526 52.9445L67.4194 54.8578C67.1631 57.1531 63.6854 57.6566 61.9789 57.621C63.0882 59.3213 64.0058 63.7929 64.0058 63.7929C64.788 62.0217 66.6723 57.8125 70.0859 59.0026C70.2285 60.3842 68.8702 63.4527 64.0058 63.7929Z" fill="#C192EE"/>
</g>
<mask id="mask6_2334_5176" style="mask-type:luminance" maskUnits="userSpaceOnUse" x="156" y="74" width="28" height="36">
<path d="M183.8 79.1395L163.756 74.1248L156.033 104.764L176.078 109.779L183.8 79.1395Z" fill="white"/>
</mask>
<g mask="url(#mask6_2334_5176)">
<path d="M172.436 79.0591C172.918 78.307 174.183 76.9949 175.39 77.7624C175.298 78.515 174.578 79.8276 172.436 79.0591Z" fill="#93AAFB"/>
<path d="M178.63 79.9636C179.112 79.2116 180.376 77.8995 181.584 78.667C181.491 79.4195 180.772 80.7322 178.63 79.9636Z" fill="#93AAFB"/>
<path d="M179.106 83.8633C179.588 83.1113 180.853 81.7991 182.06 82.5666C181.968 83.3192 181.248 84.6318 179.106 83.8633Z" fill="#93AAFB"/>
<path d="M174.164 82.627C174.646 81.8749 175.91 80.5628 177.118 81.3303C177.026 82.0829 176.306 83.3955 174.164 82.627Z" fill="#93AAFB"/>
<path d="M175.053 86.0484C175.535 85.2963 176.8 83.9842 178.007 84.7517C177.915 85.5037 177.195 86.8169 175.053 86.0484Z" fill="#93AAFB"/>
<path d="M178.621 88.1043C179.103 87.3522 180.368 86.0401 181.576 86.8076C181.483 87.5602 180.763 88.8728 178.621 88.1043Z" fill="#93AAFB"/>
<path d="M175.409 92.068C175.48 91.179 175.979 89.4289 177.407 89.5421C177.679 90.2494 177.662 91.7453 175.409 92.068Z" fill="#93AAFB"/>
<path d="M172.115 90.0809C172.186 89.1914 172.685 87.4418 174.113 87.5545C174.386 88.2623 174.369 89.7582 172.115 90.0809Z" fill="#93AAFB"/>
<path d="M170.114 85.0062C170.6 84.2572 171.872 82.9523 173.076 83.727C172.978 84.4785 172.251 85.787 170.114 85.0062Z" fill="#93AAFB"/>
<path d="M168.52 81.7786C168.822 80.939 169.764 79.3803 171.112 79.8627C171.19 80.6168 170.779 82.0555 168.52 81.7786Z" fill="#93AAFB"/>
<path d="M165.21 85.2789C165.512 84.4394 166.454 82.8807 167.802 83.3625C167.879 84.1166 167.469 85.5559 165.21 85.2789Z" fill="#93AAFB"/>
<path d="M166.991 88.6329C167.294 87.7934 168.235 86.2347 169.584 86.7165C169.661 87.4706 169.251 88.9093 166.991 88.6329Z" fill="#93AAFB"/>
<path d="M169.487 95.172C169.35 94.2903 169.43 92.4732 170.846 92.2544C171.275 92.8803 171.605 94.3397 169.487 95.172Z" fill="#93AAFB"/>
<path d="M164.82 94.0041C164.682 93.1228 164.762 91.3052 166.177 91.0864C166.607 91.7124 166.937 93.1717 164.82 94.0041Z" fill="#93AAFB"/>
<path d="M162.832 90.308C162.695 89.4262 162.775 87.6092 164.19 87.3904C164.62 88.0163 164.949 89.4756 162.832 90.308Z" fill="#93AAFB"/>
<path d="M159.53 96.4613C159.392 95.5796 159.473 93.762 160.888 93.5437C161.318 94.1691 161.647 95.629 159.53 96.4613Z" fill="#93AAFB"/>
<path d="M161.448 100.431C161.311 99.5495 161.391 97.7319 162.806 97.5137C163.236 98.1391 163.566 99.5989 161.448 100.431Z" fill="#93AAFB"/>
<path d="M165.98 100.983C165.842 100.101 165.922 98.2842 167.337 98.0654C167.767 98.6914 168.097 100.151 165.98 100.983Z" fill="#93AAFB"/>
<path d="M171.952 101.605C171.815 100.724 171.895 98.906 173.311 98.6873C173.74 99.3132 174.07 100.773 171.952 101.605Z" fill="#93AAFB"/>
<path d="M170.024 106.939C169.887 106.057 169.967 104.24 171.382 104.021C171.812 104.647 172.141 106.106 170.024 106.939Z" fill="#93AAFB"/>
<path d="M164.257 106.659C164.12 105.777 164.2 103.96 165.615 103.741C166.045 104.367 166.374 105.827 164.257 106.659Z" fill="#93AAFB"/>
<path d="M159.315 105.422C159.177 104.541 159.257 102.723 160.672 102.505C161.102 103.131 161.432 104.59 159.315 105.422Z" fill="#93AAFB"/>
<path d="M173.606 96.2025C173.469 95.3208 173.549 93.5032 174.964 93.2849C175.394 93.9103 175.723 95.3702 173.606 96.2025Z" fill="#93AAFB"/>
</g>
</g>
<path d="M239.992 6.94918C229.245 -4.78722 214.933 1.97322 209.25 6.6918L217.258 6.94918H225.008H239.992Z" fill="black"/>
</g>
<defs>
<clipPath id="clip0_2334_5176">
<rect width="310" height="157" fill="white"/>
</clipPath>
</defs>
</svg>
