<svg width="343" height="56" viewBox="0 0 343 56" fill="none" xmlns="http://www.w3.org/2000/svg">
<line y1="27.5" x2="72.5" y2="27.5" stroke="#E0E0E0"/>
<g clip-path="url(#clip0_2697_5855)">
<path d="M128.5 29V21H118.5V29C118.5 29.5304 118.711 30.0391 119.086 30.4142C119.461 30.7893 119.97 31 120.5 31H126.5C127.03 31 127.539 30.7893 127.914 30.4142C128.289 30.0391 128.5 29.5304 128.5 29ZM117.5 19H132.5C133.03 19 133.539 19.2107 133.914 19.5858C134.289 19.9609 134.5 20.4696 134.5 21V24C134.5 24.5304 134.289 25.0391 133.914 25.4142C133.539 25.7893 133.03 26 132.5 26H130.5V29C130.5 30.0609 130.079 31.0783 129.328 31.8284C128.578 32.5786 127.561 33 126.5 33H120.5C119.439 33 118.422 32.5786 117.672 31.8284C116.921 31.0783 116.5 30.0609 116.5 29V20C116.5 19.7348 116.605 19.4804 116.793 19.2929C116.98 19.1054 117.235 19 117.5 19ZM130.5 21V24H132.5V21H130.5ZM114.5 35H132.5V37H114.5V35Z" fill="#DB66E4"/>
</g>
<path d="M155.152 32.5H153.64L149.118 27.432V32.5H147.858V22.504H149.118V27.348L153.528 22.504H154.956L150.616 27.362L155.152 32.5ZM162.868 28.734C162.868 29.3593 162.784 29.9147 162.616 30.4C162.458 30.876 162.224 31.282 161.916 31.618C161.618 31.954 161.249 32.2107 160.81 32.388C160.381 32.556 159.9 32.64 159.368 32.64C158.874 32.64 158.416 32.556 157.996 32.388C157.576 32.2107 157.212 31.954 156.904 31.618C156.596 31.282 156.354 30.876 156.176 30.4C156.008 29.9147 155.924 29.3593 155.924 28.734C155.924 27.9033 156.064 27.2033 156.344 26.634C156.624 26.0553 157.026 25.6167 157.548 25.318C158.071 25.01 158.692 24.856 159.41 24.856C160.092 24.856 160.689 25.01 161.202 25.318C161.725 25.6167 162.131 26.0553 162.42 26.634C162.719 27.2033 162.868 27.9033 162.868 28.734ZM157.198 28.734C157.198 29.322 157.273 29.8353 157.422 30.274C157.581 30.7033 157.824 31.0347 158.15 31.268C158.477 31.5013 158.892 31.618 159.396 31.618C159.9 31.618 160.316 31.5013 160.642 31.268C160.969 31.0347 161.207 30.7033 161.356 30.274C161.515 29.8353 161.594 29.322 161.594 28.734C161.594 28.1367 161.515 27.628 161.356 27.208C161.198 26.788 160.955 26.466 160.628 26.242C160.311 26.0087 159.896 25.892 159.382 25.892C158.617 25.892 158.062 26.144 157.716 26.648C157.371 27.152 157.198 27.8473 157.198 28.734ZM169.301 24.884C170.048 24.9493 170.696 25.1453 171.247 25.472C171.807 25.7987 172.241 26.2373 172.549 26.788C172.857 27.3387 173.011 27.992 173.011 28.748C173.011 29.504 172.862 30.162 172.563 30.722C172.264 31.2727 171.84 31.7113 171.289 32.038C170.738 32.3553 170.076 32.5467 169.301 32.612V35.86H168.097V32.612C167.36 32.5467 166.711 32.3553 166.151 32.038C165.591 31.7113 165.157 31.2727 164.849 30.722C164.541 30.162 164.387 29.504 164.387 28.748C164.387 27.9827 164.536 27.3247 164.835 26.774C165.134 26.214 165.563 25.7753 166.123 25.458C166.683 25.1313 167.355 24.94 168.139 24.884V21.86H169.301V24.884ZM168.139 25.906C167.57 25.962 167.103 26.1067 166.739 26.34C166.375 26.5733 166.104 26.8907 165.927 27.292C165.759 27.6933 165.675 28.1787 165.675 28.748C165.675 29.308 165.759 29.7933 165.927 30.204C166.104 30.6053 166.375 30.9273 166.739 31.17C167.103 31.4033 167.57 31.548 168.139 31.604V25.906ZM169.301 31.604C169.861 31.5387 170.318 31.3893 170.673 31.156C171.037 30.9227 171.303 30.6053 171.471 30.204C171.648 29.7933 171.737 29.308 171.737 28.748C171.737 28.188 171.648 27.7073 171.471 27.306C171.294 26.9047 171.023 26.5873 170.659 26.354C170.304 26.1207 169.852 25.976 169.301 25.92V31.604ZM177.863 24.856C178.507 24.856 179.058 24.996 179.515 25.276C179.982 25.556 180.337 25.9527 180.579 26.466C180.831 26.97 180.957 27.5627 180.957 28.244V28.986H175.819C175.838 29.8353 176.053 30.484 176.463 30.932C176.883 31.3707 177.467 31.59 178.213 31.59C178.689 31.59 179.109 31.548 179.473 31.464C179.847 31.3707 180.229 31.24 180.621 31.072V32.15C180.239 32.318 179.861 32.4393 179.487 32.514C179.114 32.598 178.671 32.64 178.157 32.64C177.448 32.64 176.818 32.4953 176.267 32.206C175.726 31.9167 175.301 31.4873 174.993 30.918C174.695 30.3393 174.545 29.6347 174.545 28.804C174.545 27.9827 174.681 27.278 174.951 26.69C175.231 26.102 175.619 25.6493 176.113 25.332C176.617 25.0147 177.201 24.856 177.863 24.856ZM177.849 25.864C177.261 25.864 176.795 26.0553 176.449 26.438C176.113 26.8113 175.913 27.334 175.847 28.006H179.669C179.669 27.5767 179.604 27.2033 179.473 26.886C179.343 26.5687 179.142 26.3213 178.871 26.144C178.61 25.9573 178.269 25.864 177.849 25.864ZM183.183 28.881V28.006H187.691V28.881H183.183ZM189.995 27.992C189.995 26.9 190.103 25.9713 190.317 25.206C190.541 24.4313 190.882 23.8153 191.339 23.358C191.806 22.8913 192.403 22.5787 193.131 22.42C193.738 22.2893 194.331 22.1727 194.909 22.07C195.488 21.9673 196.029 21.874 196.533 21.79L196.743 22.868C196.501 22.9053 196.23 22.952 195.931 23.008C195.633 23.0547 195.329 23.106 195.021 23.162C194.713 23.2087 194.415 23.26 194.125 23.316C193.845 23.3627 193.598 23.4093 193.383 23.456C193.075 23.5213 192.8 23.6333 192.557 23.792C192.315 23.9413 192.105 24.1467 191.927 24.408C191.759 24.6693 191.624 24.9913 191.521 25.374C191.419 25.7567 191.358 26.2093 191.339 26.732H191.423C191.554 26.5547 191.731 26.3727 191.955 26.186C192.189 25.9993 192.464 25.8407 192.781 25.71C193.108 25.5793 193.477 25.514 193.887 25.514C194.541 25.514 195.082 25.6587 195.511 25.948C195.95 26.228 196.277 26.62 196.491 27.124C196.715 27.628 196.827 28.216 196.827 28.888C196.827 29.7187 196.683 30.414 196.393 30.974C196.104 31.534 195.703 31.954 195.189 32.234C194.676 32.5047 194.079 32.64 193.397 32.64C192.884 32.64 192.417 32.542 191.997 32.346C191.577 32.1407 191.218 31.842 190.919 31.45C190.621 31.058 190.392 30.5727 190.233 29.994C190.075 29.4153 189.995 28.748 189.995 27.992ZM193.495 31.618C193.906 31.618 194.261 31.534 194.559 31.366C194.867 31.198 195.105 30.9227 195.273 30.54C195.441 30.1573 195.525 29.6487 195.525 29.014C195.525 28.2487 195.381 27.6467 195.091 27.208C194.811 26.76 194.345 26.536 193.691 26.536C193.281 26.536 192.907 26.6293 192.571 26.816C192.235 26.9933 191.955 27.1987 191.731 27.432C191.507 27.6653 191.349 27.8613 191.255 28.02C191.255 28.4773 191.288 28.9207 191.353 29.35C191.419 29.7793 191.531 30.1667 191.689 30.512C191.857 30.848 192.086 31.1187 192.375 31.324C192.674 31.52 193.047 31.618 193.495 31.618ZM202.338 24.856C203.262 24.856 204.004 25.178 204.564 25.822C205.133 26.466 205.418 27.4367 205.418 28.734C205.418 29.5833 205.287 30.302 205.026 30.89C204.774 31.4687 204.415 31.9073 203.948 32.206C203.491 32.4953 202.949 32.64 202.324 32.64C201.941 32.64 201.601 32.5887 201.302 32.486C201.003 32.3833 200.747 32.2527 200.532 32.094C200.327 31.926 200.149 31.744 200 31.548H199.916C199.935 31.7067 199.953 31.9073 199.972 32.15C199.991 32.3927 200 32.6027 200 32.78V35.86H198.768V24.996H199.776L199.944 26.018H200C200.149 25.8033 200.327 25.6073 200.532 25.43C200.747 25.2527 200.999 25.1127 201.288 25.01C201.587 24.9073 201.937 24.856 202.338 24.856ZM202.114 25.892C201.61 25.892 201.204 25.99 200.896 26.186C200.588 26.3727 200.364 26.6573 200.224 27.04C200.084 27.4227 200.009 27.908 200 28.496V28.734C200 29.35 200.065 29.8727 200.196 30.302C200.327 30.7313 200.546 31.058 200.854 31.282C201.171 31.506 201.601 31.618 202.142 31.618C202.599 31.618 202.973 31.492 203.262 31.24C203.561 30.988 203.78 30.6473 203.92 30.218C204.069 29.7793 204.144 29.28 204.144 28.72C204.144 27.8613 203.976 27.1753 203.64 26.662C203.313 26.1487 202.805 25.892 202.114 25.892ZM210.279 24.856C210.923 24.856 211.474 24.996 211.931 25.276C212.398 25.556 212.753 25.9527 212.995 26.466C213.247 26.97 213.373 27.5627 213.373 28.244V28.986H208.235C208.254 29.8353 208.469 30.484 208.879 30.932C209.299 31.3707 209.883 31.59 210.629 31.59C211.105 31.59 211.525 31.548 211.889 31.464C212.263 31.3707 212.645 31.24 213.037 31.072V32.15C212.655 32.318 212.277 32.4393 211.903 32.514C211.53 32.598 211.087 32.64 210.573 32.64C209.864 32.64 209.234 32.4953 208.683 32.206C208.142 31.9167 207.717 31.4873 207.409 30.918C207.111 30.3393 206.961 29.6347 206.961 28.804C206.961 27.9827 207.097 27.278 207.367 26.69C207.647 26.102 208.035 25.6493 208.529 25.332C209.033 25.0147 209.617 24.856 210.279 24.856ZM210.265 25.864C209.677 25.864 209.211 26.0553 208.865 26.438C208.529 26.8113 208.329 27.334 208.263 28.006H212.085C212.085 27.5767 212.02 27.2033 211.889 26.886C211.759 26.5687 211.558 26.3213 211.287 26.144C211.026 25.9573 210.685 25.864 210.265 25.864ZM221.36 21.888C221.322 22.3547 221.206 22.7467 221.01 23.064C220.823 23.3813 220.543 23.6193 220.17 23.778C219.796 23.9367 219.311 24.016 218.714 24.016C218.107 24.016 217.617 23.9367 217.244 23.778C216.88 23.6193 216.614 23.386 216.446 23.078C216.278 22.7607 216.175 22.364 216.138 21.888H217.286C217.332 22.392 217.463 22.7327 217.678 22.91C217.902 23.078 218.256 23.162 218.742 23.162C219.171 23.162 219.507 23.0733 219.75 22.896C220.002 22.7093 220.151 22.3733 220.198 21.888H221.36ZM216.446 29.574C216.446 29.658 216.441 29.7793 216.432 29.938C216.432 30.0873 216.427 30.2507 216.418 30.428C216.408 30.596 216.399 30.7593 216.39 30.918C216.38 31.0673 216.371 31.1887 216.362 31.282L220.38 24.996H221.892V32.5H220.744V28.076C220.744 27.9267 220.744 27.7307 220.744 27.488C220.753 27.2453 220.762 27.0073 220.772 26.774C220.781 26.5313 220.79 26.3493 220.8 26.228L216.81 32.5H215.284V24.996H216.446V29.574ZM228.718 24.996H230.062L226.856 28.608L230.328 32.5H228.9L225.512 28.692V32.5H224.28V24.996H225.512V28.636L228.718 24.996Z" fill="#DB66E4"/>
<rect x="73" y="0.5" width="197" height="55" rx="27.5" stroke="#C192EE"/>
<line x1="270.5" y1="27.5" x2="343" y2="27.5" stroke="#E0E0E0"/>
<defs>
<clipPath id="clip0_2697_5855">
<rect width="24" height="24" fill="white" transform="translate(112.5 16)"/>
</clipPath>
</defs>
</svg>
