<svg width="313" height="340" viewBox="0 0 313 340" fill="none" xmlns="http://www.w3.org/2000/svg">
<g filter="url(#filter0_d_1383_2448)">
<rect x="4" width="305" height="332" rx="15" fill="white"/>
</g>
<g filter="url(#filter1_d_1383_2448)">
<path d="M124.28 183.408C124.28 184.736 124.112 185.944 123.776 187.032C123.44 188.104 122.936 189.032 122.264 189.816C121.608 190.6 120.784 191.2 119.792 191.616C118.816 192.032 117.68 192.24 116.384 192.24C115.04 192.24 113.872 192.032 112.88 191.616C111.888 191.184 111.064 190.584 110.408 189.816C109.752 189.032 109.264 188.096 108.944 187.008C108.624 185.92 108.464 184.712 108.464 183.384C108.464 181.624 108.752 180.088 109.328 178.776C109.904 177.464 110.776 176.44 111.944 175.704C113.128 174.968 114.616 174.6 116.408 174.6C118.12 174.6 119.56 174.968 120.728 175.704C121.896 176.424 122.776 177.448 123.368 178.776C123.976 180.088 124.28 181.632 124.28 183.408ZM110.744 183.408C110.744 184.848 110.944 186.088 111.344 187.128C111.744 188.168 112.36 188.968 113.192 189.528C114.04 190.088 115.104 190.368 116.384 190.368C117.68 190.368 118.736 190.088 119.552 189.528C120.384 188.968 121 188.168 121.4 187.128C121.8 186.088 122 184.848 122 183.408C122 181.248 121.552 179.56 120.656 178.344C119.76 177.112 118.344 176.496 116.408 176.496C115.112 176.496 114.04 176.776 113.192 177.336C112.36 177.88 111.744 178.672 111.344 179.712C110.944 180.736 110.744 181.968 110.744 183.408ZM144.998 179.136V192H127.55V179.136H129.662V190.224H135.206V179.136H137.318V190.224H142.886V179.136H144.998ZM150.865 186.984C150.865 187.128 150.857 187.336 150.841 187.608C150.841 187.864 150.833 188.144 150.817 188.448C150.801 188.736 150.785 189.016 150.769 189.288C150.753 189.544 150.737 189.752 150.721 189.912L157.609 179.136H160.201V192H158.233V184.416C158.233 184.16 158.233 183.824 158.233 183.408C158.249 182.992 158.265 182.584 158.281 182.184C158.297 181.768 158.313 181.456 158.329 181.248L151.489 192H148.873V179.136H150.865V186.984ZM163.382 184.272C163.382 182.4 163.566 180.808 163.934 179.496C164.318 178.168 164.902 177.112 165.686 176.328C166.486 175.528 167.51 174.992 168.758 174.72C169.798 174.496 170.814 174.296 171.806 174.12C172.798 173.944 173.726 173.784 174.59 173.64L174.95 175.488C174.534 175.552 174.07 175.632 173.558 175.728C173.046 175.808 172.526 175.896 171.998 175.992C171.47 176.072 170.958 176.16 170.462 176.256C169.982 176.336 169.558 176.416 169.19 176.496C168.662 176.608 168.19 176.8 167.774 177.072C167.358 177.328 166.998 177.68 166.694 178.128C166.406 178.576 166.174 179.128 165.998 179.784C165.822 180.44 165.718 181.216 165.686 182.112H165.83C166.054 181.808 166.358 181.496 166.742 181.176C167.142 180.856 167.614 180.584 168.158 180.36C168.718 180.136 169.35 180.024 170.054 180.024C171.174 180.024 172.102 180.272 172.838 180.768C173.59 181.248 174.15 181.92 174.518 182.784C174.902 183.648 175.094 184.656 175.094 185.808C175.094 187.232 174.846 188.424 174.35 189.384C173.854 190.344 173.166 191.064 172.286 191.544C171.406 192.008 170.382 192.24 169.214 192.24C168.334 192.24 167.534 192.072 166.814 191.736C166.094 191.384 165.478 190.872 164.966 190.2C164.454 189.528 164.062 188.696 163.79 187.704C163.518 186.712 163.382 185.568 163.382 184.272ZM169.382 190.488C170.086 190.488 170.694 190.344 171.206 190.056C171.734 189.768 172.142 189.296 172.43 188.64C172.718 187.984 172.862 187.112 172.862 186.024C172.862 184.712 172.614 183.68 172.118 182.928C171.638 182.16 170.838 181.776 169.718 181.776C169.014 181.776 168.374 181.936 167.798 182.256C167.222 182.56 166.742 182.912 166.358 183.312C165.974 183.712 165.702 184.048 165.542 184.32C165.542 185.104 165.598 185.864 165.71 186.6C165.822 187.336 166.014 188 166.286 188.592C166.574 189.168 166.966 189.632 167.462 189.984C167.974 190.32 168.614 190.488 169.382 190.488ZM185.79 179.136H188.094L182.598 185.328L188.55 192H186.102L180.294 185.472V192H178.182V179.136H180.294V185.376L185.79 179.136ZM195.517 178.92C197.085 178.92 198.245 179.264 198.997 179.952C199.749 180.64 200.125 181.736 200.125 183.24V192H198.589L198.181 190.176H198.085C197.717 190.64 197.333 191.032 196.933 191.352C196.549 191.656 196.101 191.88 195.589 192.024C195.093 192.168 194.485 192.24 193.765 192.24C192.997 192.24 192.301 192.104 191.677 191.832C191.069 191.56 190.589 191.144 190.237 190.584C189.885 190.008 189.709 189.288 189.709 188.424C189.709 187.144 190.213 186.16 191.221 185.472C192.229 184.768 193.781 184.384 195.877 184.32L198.061 184.248V183.48C198.061 182.408 197.829 181.664 197.365 181.248C196.901 180.832 196.245 180.624 195.397 180.624C194.725 180.624 194.085 180.728 193.477 180.936C192.869 181.128 192.301 181.352 191.773 181.608L191.125 180.024C191.685 179.72 192.349 179.464 193.117 179.256C193.885 179.032 194.685 178.92 195.517 178.92ZM196.141 185.784C194.541 185.848 193.429 186.104 192.805 186.552C192.197 187 191.893 187.632 191.893 188.448C191.893 189.168 192.109 189.696 192.541 190.032C192.989 190.368 193.557 190.536 194.245 190.536C195.333 190.536 196.237 190.24 196.957 189.648C197.677 189.04 198.037 188.112 198.037 186.864V185.712L196.141 185.784Z" fill="#E41717"/>
</g>
<path d="M52.0256 228.004C52.8563 228.004 53.5516 228.083 54.1116 228.242C54.6809 228.401 55.1056 228.662 55.3856 229.026C55.6749 229.39 55.8196 229.875 55.8196 230.482C55.8196 230.874 55.7449 231.224 55.5956 231.532C55.4556 231.831 55.2409 232.083 54.9516 232.288C54.6716 232.484 54.3263 232.619 53.9156 232.694V232.764C54.3356 232.829 54.7136 232.951 55.0496 233.128C55.3949 233.305 55.6656 233.557 55.8616 233.884C56.0576 234.211 56.1556 234.635 56.1556 235.158C56.1556 235.765 56.0156 236.283 55.7356 236.712C55.4556 237.132 55.0543 237.454 54.5316 237.678C54.0183 237.893 53.4023 238 52.6836 238H49.1696V228.004H52.0256ZM52.2776 232.26C53.1363 232.26 53.7243 232.125 54.0416 231.854C54.3589 231.574 54.5176 231.163 54.5176 230.622C54.5176 230.071 54.3216 229.679 53.9296 229.446C53.5469 229.203 52.9309 229.082 52.0816 229.082H50.4296V232.26H52.2776ZM50.4296 233.31V236.936H52.4456C53.3323 236.936 53.9483 236.763 54.2936 236.418C54.6389 236.073 54.8116 235.62 54.8116 235.06C54.8116 234.705 54.7323 234.397 54.5736 234.136C54.4243 233.875 54.1676 233.674 53.8036 233.534C53.4489 233.385 52.9636 233.31 52.3476 233.31H50.4296ZM57.8971 238V230.496H59.1291V233.576H61.0751C61.7284 233.576 62.2651 233.655 62.6851 233.814C63.1051 233.973 63.4177 234.211 63.6231 234.528C63.8284 234.836 63.9311 235.228 63.9311 235.704C63.9311 236.171 63.8284 236.577 63.6231 236.922C63.4271 237.267 63.1144 237.533 62.6851 237.72C62.2651 237.907 61.7097 238 61.0191 238H57.8971ZM60.9071 237.006C61.4391 237.006 61.8731 236.917 62.2091 236.74C62.5451 236.553 62.7131 236.231 62.7131 235.774C62.7131 235.317 62.5591 235.009 62.2511 234.85C61.9431 234.682 61.4997 234.598 60.9211 234.598H59.1291V237.006H60.9071ZM65.1771 238V230.496H66.4091V238H65.1771ZM73.8028 230.496V233.618H77.8768V230.496H79.1088V238H77.8768V234.654H73.8028V238H72.5708V230.496H73.8028ZM84.1729 230.356C84.8169 230.356 85.3675 230.496 85.8249 230.776C86.2915 231.056 86.6462 231.453 86.8889 231.966C87.1409 232.47 87.2669 233.063 87.2669 233.744V234.486H82.1289C82.1475 235.335 82.3622 235.984 82.7729 236.432C83.1929 236.871 83.7762 237.09 84.5229 237.09C84.9989 237.09 85.4189 237.048 85.7829 236.964C86.1562 236.871 86.5389 236.74 86.9309 236.572V237.65C86.5482 237.818 86.1702 237.939 85.7969 238.014C85.4235 238.098 84.9802 238.14 84.4669 238.14C83.7575 238.14 83.1275 237.995 82.5769 237.706C82.0355 237.417 81.6109 236.987 81.3029 236.418C81.0042 235.839 80.8549 235.135 80.8549 234.304C80.8549 233.483 80.9902 232.778 81.2609 232.19C81.5409 231.602 81.9282 231.149 82.4229 230.832C82.9269 230.515 83.5102 230.356 84.1729 230.356ZM84.1589 231.364C83.5709 231.364 83.1042 231.555 82.7589 231.938C82.4229 232.311 82.2222 232.834 82.1569 233.506H85.9789C85.9789 233.077 85.9135 232.703 85.7829 232.386C85.6522 232.069 85.4515 231.821 85.1809 231.644C84.9195 231.457 84.5789 231.364 84.1589 231.364ZM99.2965 230.496V238H98.0645V231.546H94.1865V238H92.9545V230.496H99.2965ZM105.051 230.356C105.975 230.356 106.717 230.678 107.277 231.322C107.846 231.966 108.131 232.937 108.131 234.234C108.131 235.083 108 235.802 107.739 236.39C107.487 236.969 107.127 237.407 106.661 237.706C106.203 237.995 105.662 238.14 105.037 238.14C104.654 238.14 104.313 238.089 104.015 237.986C103.716 237.883 103.459 237.753 103.245 237.594C103.039 237.426 102.862 237.244 102.713 237.048H102.629C102.647 237.207 102.666 237.407 102.685 237.65C102.703 237.893 102.713 238.103 102.713 238.28V241.36H101.481V230.496H102.489L102.657 231.518H102.713C102.862 231.303 103.039 231.107 103.245 230.93C103.459 230.753 103.711 230.613 104.001 230.51C104.299 230.407 104.649 230.356 105.051 230.356ZM104.827 231.392C104.323 231.392 103.917 231.49 103.609 231.686C103.301 231.873 103.077 232.157 102.937 232.54C102.797 232.923 102.722 233.408 102.713 233.996V234.234C102.713 234.85 102.778 235.373 102.909 235.802C103.039 236.231 103.259 236.558 103.567 236.782C103.884 237.006 104.313 237.118 104.855 237.118C105.312 237.118 105.685 236.992 105.975 236.74C106.273 236.488 106.493 236.147 106.633 235.718C106.782 235.279 106.857 234.78 106.857 234.22C106.857 233.361 106.689 232.675 106.353 232.162C106.026 231.649 105.517 231.392 104.827 231.392ZM112.726 230.37C113.641 230.37 114.317 230.571 114.756 230.972C115.195 231.373 115.414 232.013 115.414 232.89V238H114.518L114.28 236.936H114.224C114.009 237.207 113.785 237.435 113.552 237.622C113.328 237.799 113.067 237.93 112.768 238.014C112.479 238.098 112.124 238.14 111.704 238.14C111.256 238.14 110.85 238.061 110.486 237.902C110.131 237.743 109.851 237.501 109.646 237.174C109.441 236.838 109.338 236.418 109.338 235.914C109.338 235.167 109.632 234.593 110.22 234.192C110.808 233.781 111.713 233.557 112.936 233.52L114.21 233.478V233.03C114.21 232.405 114.075 231.971 113.804 231.728C113.533 231.485 113.151 231.364 112.656 231.364C112.264 231.364 111.891 231.425 111.536 231.546C111.181 231.658 110.85 231.789 110.542 231.938L110.164 231.014C110.491 230.837 110.878 230.687 111.326 230.566C111.774 230.435 112.241 230.37 112.726 230.37ZM113.09 234.374C112.157 234.411 111.508 234.561 111.144 234.822C110.789 235.083 110.612 235.452 110.612 235.928C110.612 236.348 110.738 236.656 110.99 236.852C111.251 237.048 111.583 237.146 111.984 237.146C112.619 237.146 113.146 236.973 113.566 236.628C113.986 236.273 114.196 235.732 114.196 235.004V234.332L113.09 234.374ZM123.556 232.386C123.556 232.853 123.416 233.217 123.136 233.478C122.856 233.739 122.496 233.917 122.058 234.01V234.066C122.524 234.131 122.93 234.299 123.276 234.57C123.621 234.831 123.794 235.242 123.794 235.802C123.794 236.119 123.733 236.413 123.612 236.684C123.5 236.955 123.322 237.188 123.08 237.384C122.837 237.58 122.524 237.734 122.142 237.846C121.759 237.949 121.297 238 120.756 238H117.522V230.496H120.742C121.274 230.496 121.75 230.557 122.17 230.678C122.599 230.79 122.935 230.986 123.178 231.266C123.43 231.537 123.556 231.91 123.556 232.386ZM122.52 235.802C122.52 235.373 122.356 235.065 122.03 234.878C121.703 234.691 121.222 234.598 120.588 234.598H118.754V237.006H120.616C121.232 237.006 121.703 236.917 122.03 236.74C122.356 236.553 122.52 236.241 122.52 235.802ZM122.31 232.54C122.31 232.185 122.179 231.929 121.918 231.77C121.666 231.602 121.25 231.518 120.672 231.518H118.754V233.576H120.448C121.054 233.576 121.516 233.492 121.834 233.324C122.151 233.156 122.31 232.895 122.31 232.54ZM126.54 235.074C126.54 235.158 126.535 235.279 126.526 235.438C126.526 235.587 126.521 235.751 126.512 235.928C126.503 236.096 126.493 236.259 126.484 236.418C126.475 236.567 126.465 236.689 126.456 236.782L130.474 230.496H131.986V238H130.838V233.576C130.838 233.427 130.838 233.231 130.838 232.988C130.847 232.745 130.857 232.507 130.866 232.274C130.875 232.031 130.885 231.849 130.894 231.728L126.904 238H125.378V230.496H126.54V235.074ZM139.876 238H138.63V231.518H136.418C136.325 232.703 136.208 233.716 136.068 234.556C135.928 235.387 135.751 236.063 135.536 236.586C135.322 237.109 135.065 237.491 134.766 237.734C134.468 237.977 134.118 238.098 133.716 238.098C133.595 238.098 133.474 238.089 133.352 238.07C133.24 238.061 133.147 238.037 133.072 238V237.076C133.128 237.095 133.189 237.109 133.254 237.118C133.32 237.127 133.385 237.132 133.45 237.132C133.656 237.132 133.842 237.048 134.01 236.88C134.178 236.712 134.328 236.455 134.458 236.11C134.598 235.765 134.724 235.331 134.836 234.808C134.948 234.276 135.046 233.651 135.13 232.932C135.214 232.213 135.289 231.401 135.354 230.496H139.876V238ZM145.506 233.576C146.159 233.576 146.701 233.655 147.13 233.814C147.559 233.973 147.881 234.211 148.096 234.528C148.32 234.836 148.432 235.228 148.432 235.704C148.432 236.171 148.325 236.577 148.11 236.922C147.905 237.267 147.583 237.533 147.144 237.72C146.705 237.907 146.141 238 145.45 238H142.048V230.496H143.28V233.576H145.506ZM147.2 235.774C147.2 235.317 147.037 235.009 146.71 234.85C146.393 234.682 145.945 234.598 145.366 234.598H143.28V237.006H145.394C145.917 237.006 146.346 236.913 146.682 236.726C147.027 236.539 147.2 236.222 147.2 235.774ZM151.383 230.496V233.618H155.457V230.496H156.689V238H155.457V234.654H151.383V238H150.151V230.496H151.383ZM165.379 234.234C165.379 234.859 165.295 235.415 165.127 235.9C164.968 236.376 164.735 236.782 164.427 237.118C164.128 237.454 163.759 237.711 163.321 237.888C162.891 238.056 162.411 238.14 161.879 238.14C161.384 238.14 160.927 238.056 160.507 237.888C160.087 237.711 159.723 237.454 159.415 237.118C159.107 236.782 158.864 236.376 158.687 235.9C158.519 235.415 158.435 234.859 158.435 234.234C158.435 233.403 158.575 232.703 158.855 232.134C159.135 231.555 159.536 231.117 160.059 230.818C160.581 230.51 161.202 230.356 161.921 230.356C162.602 230.356 163.199 230.51 163.713 230.818C164.235 231.117 164.641 231.555 164.931 232.134C165.229 232.703 165.379 233.403 165.379 234.234ZM159.709 234.234C159.709 234.822 159.783 235.335 159.933 235.774C160.091 236.203 160.334 236.535 160.661 236.768C160.987 237.001 161.403 237.118 161.907 237.118C162.411 237.118 162.826 237.001 163.153 236.768C163.479 236.535 163.717 236.203 163.867 235.774C164.025 235.335 164.105 234.822 164.105 234.234C164.105 233.637 164.025 233.128 163.867 232.708C163.708 232.288 163.465 231.966 163.139 231.742C162.821 231.509 162.406 231.392 161.893 231.392C161.127 231.392 160.572 231.644 160.227 232.148C159.881 232.652 159.709 233.347 159.709 234.234ZM177.142 232.386C177.142 232.853 177.002 233.217 176.722 233.478C176.442 233.739 176.083 233.917 175.644 234.01V234.066C176.111 234.131 176.517 234.299 176.862 234.57C177.208 234.831 177.38 235.242 177.38 235.802C177.38 236.119 177.32 236.413 177.198 236.684C177.086 236.955 176.909 237.188 176.666 237.384C176.424 237.58 176.111 237.734 175.728 237.846C175.346 237.949 174.884 238 174.342 238H171.108V230.496H174.328C174.86 230.496 175.336 230.557 175.756 230.678C176.186 230.79 176.522 230.986 176.764 231.266C177.016 231.537 177.142 231.91 177.142 232.386ZM176.106 235.802C176.106 235.373 175.943 235.065 175.616 234.878C175.29 234.691 174.809 234.598 174.174 234.598H172.34V237.006H174.202C174.818 237.006 175.29 236.917 175.616 236.74C175.943 236.553 176.106 236.241 176.106 235.802ZM175.896 232.54C175.896 232.185 175.766 231.929 175.504 231.77C175.252 231.602 174.837 231.518 174.258 231.518H172.34V233.576H174.034C174.641 233.576 175.103 233.492 175.42 233.324C175.738 233.156 175.896 232.895 175.896 232.54ZM184.999 232.386C184.999 232.853 184.859 233.217 184.579 233.478C184.299 233.739 183.939 233.917 183.501 234.01V234.066C183.967 234.131 184.373 234.299 184.719 234.57C185.064 234.831 185.237 235.242 185.237 235.802C185.237 236.119 185.176 236.413 185.055 236.684C184.943 236.955 184.765 237.188 184.523 237.384C184.28 237.58 183.967 237.734 183.585 237.846C183.202 237.949 182.74 238 182.199 238H178.965V230.496H182.185C182.717 230.496 183.193 230.557 183.613 230.678C184.042 230.79 184.378 230.986 184.621 231.266C184.873 231.537 184.999 231.91 184.999 232.386ZM183.963 235.802C183.963 235.373 183.799 235.065 183.473 234.878C183.146 234.691 182.665 234.598 182.031 234.598H180.197V237.006H182.059C182.675 237.006 183.146 236.917 183.473 236.74C183.799 236.553 183.963 236.241 183.963 235.802ZM183.753 232.54C183.753 232.185 183.622 231.929 183.361 231.77C183.109 231.602 182.693 231.518 182.115 231.518H180.197V233.576H181.891C182.497 233.576 182.959 233.492 183.277 233.324C183.594 233.156 183.753 232.895 183.753 232.54ZM189.719 230.356C190.363 230.356 190.914 230.496 191.371 230.776C191.838 231.056 192.193 231.453 192.435 231.966C192.687 232.47 192.813 233.063 192.813 233.744V234.486H187.675C187.694 235.335 187.909 235.984 188.319 236.432C188.739 236.871 189.323 237.09 190.069 237.09C190.545 237.09 190.965 237.048 191.329 236.964C191.703 236.871 192.085 236.74 192.477 236.572V237.65C192.095 237.818 191.717 237.939 191.343 238.014C190.97 238.098 190.527 238.14 190.013 238.14C189.304 238.14 188.674 237.995 188.123 237.706C187.582 237.417 187.157 236.987 186.849 236.418C186.551 235.839 186.401 235.135 186.401 234.304C186.401 233.483 186.537 232.778 186.807 232.19C187.087 231.602 187.475 231.149 187.969 230.832C188.473 230.515 189.057 230.356 189.719 230.356ZM189.705 231.364C189.117 231.364 188.651 231.555 188.305 231.938C187.969 232.311 187.769 232.834 187.703 233.506H191.525C191.525 233.077 191.46 232.703 191.329 232.386C191.199 232.069 190.998 231.821 190.727 231.644C190.466 231.457 190.125 231.364 189.705 231.364ZM200.226 238H198.98V231.518H196.768C196.674 232.703 196.558 233.716 196.418 234.556C196.278 235.387 196.1 236.063 195.886 236.586C195.671 237.109 195.414 237.491 195.116 237.734C194.817 237.977 194.467 238.098 194.066 238.098C193.944 238.098 193.823 238.089 193.702 238.07C193.59 238.061 193.496 238.037 193.422 238V237.076C193.478 237.095 193.538 237.109 193.604 237.118C193.669 237.127 193.734 237.132 193.8 237.132C194.005 237.132 194.192 237.048 194.36 236.88C194.528 236.712 194.677 236.455 194.808 236.11C194.948 235.765 195.074 235.331 195.186 234.808C195.298 234.276 195.396 233.651 195.48 232.932C195.564 232.213 195.638 231.401 195.704 230.496H200.226V238ZM203.559 235.074C203.559 235.158 203.555 235.279 203.545 235.438C203.545 235.587 203.541 235.751 203.531 235.928C203.522 236.096 203.513 236.259 203.503 236.418C203.494 236.567 203.485 236.689 203.475 236.782L207.493 230.496H209.005V238H207.857V233.576C207.857 233.427 207.857 233.231 207.857 232.988C207.867 232.745 207.876 232.507 207.885 232.274C207.895 232.031 207.904 231.849 207.913 231.728L203.923 238H202.397V230.496H203.559V235.074ZM221.513 230.496V238H220.281V231.546H216.403V238H215.171V230.496H221.513ZM226.539 230.37C227.454 230.37 228.13 230.571 228.569 230.972C229.008 231.373 229.227 232.013 229.227 232.89V238H228.331L228.093 236.936H228.037C227.822 237.207 227.598 237.435 227.365 237.622C227.141 237.799 226.88 237.93 226.581 238.014C226.292 238.098 225.937 238.14 225.517 238.14C225.069 238.14 224.663 238.061 224.299 237.902C223.944 237.743 223.664 237.501 223.459 237.174C223.254 236.838 223.151 236.418 223.151 235.914C223.151 235.167 223.445 234.593 224.033 234.192C224.621 233.781 225.526 233.557 226.749 233.52L228.023 233.478V233.03C228.023 232.405 227.888 231.971 227.617 231.728C227.346 231.485 226.964 231.364 226.469 231.364C226.077 231.364 225.704 231.425 225.349 231.546C224.994 231.658 224.663 231.789 224.355 231.938L223.977 231.014C224.304 230.837 224.691 230.687 225.139 230.566C225.587 230.435 226.054 230.37 226.539 230.37ZM226.903 234.374C225.97 234.411 225.321 234.561 224.957 234.822C224.602 235.083 224.425 235.452 224.425 235.928C224.425 236.348 224.551 236.656 224.803 236.852C225.064 237.048 225.396 237.146 225.797 237.146C226.432 237.146 226.959 236.973 227.379 236.628C227.799 236.273 228.009 235.732 228.009 235.004V234.332L226.903 234.374ZM234.905 230.356C235.829 230.356 236.571 230.678 237.131 231.322C237.7 231.966 237.985 232.937 237.985 234.234C237.985 235.083 237.854 235.802 237.593 236.39C237.341 236.969 236.981 237.407 236.515 237.706C236.057 237.995 235.516 238.14 234.891 238.14C234.508 238.14 234.167 238.089 233.869 237.986C233.57 237.883 233.313 237.753 233.099 237.594C232.893 237.426 232.716 237.244 232.567 237.048H232.483C232.501 237.207 232.52 237.407 232.539 237.65C232.557 237.893 232.567 238.103 232.567 238.28V241.36H231.335V230.496H232.343L232.511 231.518H232.567C232.716 231.303 232.893 231.107 233.099 230.93C233.313 230.753 233.565 230.613 233.855 230.51C234.153 230.407 234.503 230.356 234.905 230.356ZM234.681 231.392C234.177 231.392 233.771 231.49 233.463 231.686C233.155 231.873 232.931 232.157 232.791 232.54C232.651 232.923 232.576 233.408 232.567 233.996V234.234C232.567 234.85 232.632 235.373 232.763 235.802C232.893 236.231 233.113 236.558 233.421 236.782C233.738 237.006 234.167 237.118 234.709 237.118C235.166 237.118 235.539 236.992 235.829 236.74C236.127 236.488 236.347 236.147 236.487 235.718C236.636 235.279 236.711 234.78 236.711 234.22C236.711 233.361 236.543 232.675 236.207 232.162C235.88 231.649 235.371 231.392 234.681 231.392ZM246.262 234.234C246.262 234.859 246.178 235.415 246.01 235.9C245.851 236.376 245.618 236.782 245.31 237.118C245.011 237.454 244.643 237.711 244.204 237.888C243.775 238.056 243.294 238.14 242.762 238.14C242.267 238.14 241.81 238.056 241.39 237.888C240.97 237.711 240.606 237.454 240.298 237.118C239.99 236.782 239.747 236.376 239.57 235.9C239.402 235.415 239.318 234.859 239.318 234.234C239.318 233.403 239.458 232.703 239.738 232.134C240.018 231.555 240.419 231.117 240.942 230.818C241.465 230.51 242.085 230.356 242.804 230.356C243.485 230.356 244.083 230.51 244.596 230.818C245.119 231.117 245.525 231.555 245.814 232.134C246.113 232.703 246.262 233.403 246.262 234.234ZM240.592 234.234C240.592 234.822 240.667 235.335 240.816 235.774C240.975 236.203 241.217 236.535 241.544 236.768C241.871 237.001 242.286 237.118 242.79 237.118C243.294 237.118 243.709 237.001 244.036 236.768C244.363 236.535 244.601 236.203 244.75 235.774C244.909 235.335 244.988 234.822 244.988 234.234C244.988 233.637 244.909 233.128 244.75 232.708C244.591 232.288 244.349 231.966 244.022 231.742C243.705 231.509 243.289 231.392 242.776 231.392C242.011 231.392 241.455 231.644 241.11 232.148C240.765 232.652 240.592 233.347 240.592 234.234ZM253.716 238H252.47V231.518H250.258C250.165 232.703 250.048 233.716 249.908 234.556C249.768 235.387 249.591 236.063 249.376 236.586C249.162 237.109 248.905 237.491 248.606 237.734C248.308 237.977 247.958 238.098 247.556 238.098C247.435 238.098 247.314 238.089 247.192 238.07C247.08 238.061 246.987 238.037 246.912 238V237.076C246.968 237.095 247.029 237.109 247.094 237.118C247.16 237.127 247.225 237.132 247.29 237.132C247.496 237.132 247.682 237.048 247.85 236.88C248.018 236.712 248.168 236.455 248.298 236.11C248.438 235.765 248.564 235.331 248.676 234.808C248.788 234.276 248.886 233.651 248.97 232.932C249.054 232.213 249.129 231.401 249.194 230.496H253.716V238ZM259.346 233.576C260 233.576 260.541 233.655 260.97 233.814C261.4 233.973 261.722 234.211 261.936 234.528C262.16 234.836 262.272 235.228 262.272 235.704C262.272 236.171 262.165 236.577 261.95 236.922C261.745 237.267 261.423 237.533 260.984 237.72C260.546 237.907 259.981 238 259.29 238H255.888V230.496H257.12V233.576H259.346ZM261.04 235.774C261.04 235.317 260.877 235.009 260.55 234.85C260.233 234.682 259.785 234.598 259.206 234.598H257.12V237.006H259.234C259.757 237.006 260.186 236.913 260.522 236.726C260.868 236.539 261.04 236.222 261.04 235.774ZM264.649 237.062C264.77 237.557 264.831 238.009 264.831 238.42C264.831 239.475 264.35 240.002 263.389 240.002V239.386C263.622 239.386 263.79 239.33 263.893 239.218C264.005 239.106 264.061 238.929 264.061 238.686V238.364H263.347V237.062H264.649ZM52.9032 251.496V259H51.6712V252.546H47.7932V259H46.5612V251.496H52.9032ZM61.6115 255.234C61.6115 255.859 61.5275 256.415 61.3595 256.9C61.2008 257.376 60.9675 257.782 60.6595 258.118C60.3608 258.454 59.9922 258.711 59.5535 258.888C59.1242 259.056 58.6435 259.14 58.1115 259.14C57.6168 259.14 57.1595 259.056 56.7395 258.888C56.3195 258.711 55.9555 258.454 55.6475 258.118C55.3395 257.782 55.0968 257.376 54.9195 256.9C54.7515 256.415 54.6675 255.859 54.6675 255.234C54.6675 254.403 54.8075 253.703 55.0875 253.134C55.3675 252.555 55.7688 252.117 56.2915 251.818C56.8142 251.51 57.4348 251.356 58.1535 251.356C58.8348 251.356 59.4322 251.51 59.9455 251.818C60.4682 252.117 60.8742 252.555 61.1635 253.134C61.4622 253.703 61.6115 254.403 61.6115 255.234ZM55.9415 255.234C55.9415 255.822 56.0162 256.335 56.1655 256.774C56.3242 257.203 56.5668 257.535 56.8935 257.768C57.2202 258.001 57.6355 258.118 58.1395 258.118C58.6435 258.118 59.0588 258.001 59.3855 257.768C59.7122 257.535 59.9502 257.203 60.0995 256.774C60.2582 256.335 60.3375 255.822 60.3375 255.234C60.3375 254.637 60.2582 254.128 60.0995 253.708C59.9408 253.288 59.6982 252.966 59.3715 252.742C59.0542 252.509 58.6388 252.392 58.1255 252.392C57.3602 252.392 56.8048 252.644 56.4595 253.148C56.1142 253.652 55.9415 254.347 55.9415 255.234ZM72.0826 251.496L68.9886 255.136L72.3486 259H70.9486L67.7006 255.192V259H66.5526V255.192L63.3046 259H61.9046L65.2646 255.136L62.1706 251.496H63.5146L66.5526 255.136V251.496H67.7006V255.136L70.7526 251.496H72.0826ZM76.2126 251.37C77.1273 251.37 77.804 251.571 78.2426 251.972C78.6813 252.373 78.9006 253.013 78.9006 253.89V259H78.0046L77.7666 257.936H77.7106C77.496 258.207 77.272 258.435 77.0386 258.622C76.8146 258.799 76.5533 258.93 76.2546 259.014C75.9653 259.098 75.6106 259.14 75.1906 259.14C74.7426 259.14 74.3366 259.061 73.9726 258.902C73.618 258.743 73.338 258.501 73.1326 258.174C72.9273 257.838 72.8246 257.418 72.8246 256.914C72.8246 256.167 73.1186 255.593 73.7066 255.192C74.2946 254.781 75.2 254.557 76.4226 254.52L77.6966 254.478V254.03C77.6966 253.405 77.5613 252.971 77.2906 252.728C77.02 252.485 76.6373 252.364 76.1426 252.364C75.7506 252.364 75.3773 252.425 75.0226 252.546C74.668 252.658 74.3366 252.789 74.0286 252.938L73.6506 252.014C73.9773 251.837 74.3646 251.687 74.8126 251.566C75.2606 251.435 75.7273 251.37 76.2126 251.37ZM76.5766 255.374C75.6433 255.411 74.9946 255.561 74.6306 255.822C74.276 256.083 74.0986 256.452 74.0986 256.928C74.0986 257.348 74.2246 257.656 74.4766 257.852C74.738 258.048 75.0693 258.146 75.4706 258.146C76.1053 258.146 76.6326 257.973 77.0526 257.628C77.4726 257.273 77.6826 256.732 77.6826 256.004V255.332L76.5766 255.374ZM86.7203 259H85.4743V252.518H83.2623C83.1689 253.703 83.0523 254.716 82.9123 255.556C82.7723 256.387 82.5949 257.063 82.3803 257.586C82.1656 258.109 81.9089 258.491 81.6103 258.734C81.3116 258.977 80.9616 259.098 80.5603 259.098C80.4389 259.098 80.3176 259.089 80.1963 259.07C80.0843 259.061 79.9909 259.037 79.9163 259V258.076C79.9723 258.095 80.0329 258.109 80.0983 258.118C80.1636 258.127 80.2289 258.132 80.2943 258.132C80.4996 258.132 80.6863 258.048 80.8543 257.88C81.0223 257.712 81.1716 257.455 81.3023 257.11C81.4423 256.765 81.5683 256.331 81.6803 255.808C81.7923 255.276 81.8903 254.651 81.9743 253.932C82.0583 253.213 82.1329 252.401 82.1983 251.496H86.7203V259ZM87.716 251.496H89.032L90.656 255.766C90.7494 256.018 90.8334 256.261 90.908 256.494C90.992 256.727 91.0667 256.956 91.132 257.18C91.1974 257.395 91.2487 257.605 91.286 257.81H91.342C91.398 257.577 91.4867 257.273 91.608 256.9C91.7294 256.517 91.8554 256.135 91.986 255.752L93.512 251.496H94.842L91.608 260.036C91.4307 260.503 91.2207 260.909 90.978 261.254C90.7447 261.609 90.4554 261.879 90.11 262.066C89.774 262.262 89.3634 262.36 88.878 262.36C88.654 262.36 88.458 262.346 88.29 262.318C88.122 262.299 87.9774 262.276 87.856 262.248V261.268C87.9587 261.287 88.08 261.305 88.22 261.324C88.3694 261.343 88.5234 261.352 88.682 261.352C88.9714 261.352 89.2187 261.296 89.424 261.184C89.6387 261.081 89.8207 260.927 89.97 260.722C90.1194 260.526 90.2454 260.293 90.348 260.022L90.74 259.028L87.716 251.496ZM101.895 248.388C101.857 248.855 101.741 249.247 101.545 249.564C101.358 249.881 101.078 250.119 100.705 250.278C100.331 250.437 99.8461 250.516 99.2488 250.516C98.6421 250.516 98.1521 250.437 97.7788 250.278C97.4148 250.119 97.1488 249.886 96.9808 249.578C96.8128 249.261 96.7101 248.864 96.6728 248.388H97.8208C97.8674 248.892 97.9981 249.233 98.2128 249.41C98.4368 249.578 98.7914 249.662 99.2768 249.662C99.7061 249.662 100.042 249.573 100.285 249.396C100.537 249.209 100.686 248.873 100.733 248.388H101.895ZM96.9808 256.074C96.9808 256.158 96.9761 256.279 96.9668 256.438C96.9668 256.587 96.9621 256.751 96.9528 256.928C96.9434 257.096 96.9341 257.259 96.9248 257.418C96.9154 257.567 96.9061 257.689 96.8968 257.782L100.915 251.496H102.427V259H101.279V254.576C101.279 254.427 101.279 254.231 101.279 253.988C101.288 253.745 101.297 253.507 101.307 253.274C101.316 253.031 101.325 252.849 101.335 252.728L97.3448 259H95.8188V251.496H96.9808V256.074ZM107.615 259.14C106.952 259.14 106.36 259.005 105.837 258.734C105.324 258.463 104.918 258.043 104.619 257.474C104.33 256.905 104.185 256.177 104.185 255.29C104.185 254.366 104.339 253.615 104.647 253.036C104.955 252.457 105.37 252.033 105.893 251.762C106.425 251.491 107.027 251.356 107.699 251.356C108.082 251.356 108.45 251.398 108.805 251.482C109.16 251.557 109.449 251.65 109.673 251.762L109.295 252.784C109.071 252.7 108.81 252.621 108.511 252.546C108.212 252.471 107.932 252.434 107.671 252.434C107.167 252.434 106.752 252.541 106.425 252.756C106.098 252.971 105.856 253.288 105.697 253.708C105.538 254.128 105.459 254.651 105.459 255.276C105.459 255.873 105.538 256.382 105.697 256.802C105.856 257.222 106.094 257.539 106.411 257.754C106.728 257.969 107.125 258.076 107.601 258.076C108.012 258.076 108.371 258.034 108.679 257.95C108.996 257.866 109.286 257.763 109.547 257.642V258.734C109.295 258.865 109.015 258.963 108.707 259.028C108.408 259.103 108.044 259.14 107.615 259.14ZM116.301 252.532H113.851V259H112.633V252.532H110.211V251.496H116.301V252.532ZM120.412 251.37C121.326 251.37 122.003 251.571 122.442 251.972C122.88 252.373 123.1 253.013 123.1 253.89V259H122.204L121.966 257.936H121.91C121.695 258.207 121.471 258.435 121.238 258.622C121.014 258.799 120.752 258.93 120.454 259.014C120.164 259.098 119.81 259.14 119.39 259.14C118.942 259.14 118.536 259.061 118.172 258.902C117.817 258.743 117.537 258.501 117.332 258.174C117.126 257.838 117.024 257.418 117.024 256.914C117.024 256.167 117.318 255.593 117.906 255.192C118.494 254.781 119.399 254.557 120.622 254.52L121.896 254.478V254.03C121.896 253.405 121.76 252.971 121.49 252.728C121.219 252.485 120.836 252.364 120.342 252.364C119.95 252.364 119.576 252.425 119.222 252.546C118.867 252.658 118.536 252.789 118.228 252.938L117.85 252.014C118.176 251.837 118.564 251.687 119.012 251.566C119.46 251.435 119.926 251.37 120.412 251.37ZM120.776 255.374C119.842 255.411 119.194 255.561 118.83 255.822C118.475 256.083 118.298 256.452 118.298 256.928C118.298 257.348 118.424 257.656 118.676 257.852C118.937 258.048 119.268 258.146 119.67 258.146C120.304 258.146 120.832 257.973 121.252 257.628C121.672 257.273 121.882 256.732 121.882 256.004V255.332L120.776 255.374ZM135.229 253.386C135.229 253.853 135.089 254.217 134.809 254.478C134.529 254.739 134.169 254.917 133.731 255.01V255.066C134.197 255.131 134.603 255.299 134.949 255.57C135.294 255.831 135.467 256.242 135.467 256.802C135.467 257.119 135.406 257.413 135.285 257.684C135.173 257.955 134.995 258.188 134.753 258.384C134.51 258.58 134.197 258.734 133.815 258.846C133.432 258.949 132.97 259 132.429 259H129.195V251.496H132.415C132.947 251.496 133.423 251.557 133.843 251.678C134.272 251.79 134.608 251.986 134.851 252.266C135.103 252.537 135.229 252.91 135.229 253.386ZM134.193 256.802C134.193 256.373 134.029 256.065 133.703 255.878C133.376 255.691 132.895 255.598 132.261 255.598H130.427V258.006H132.289C132.905 258.006 133.376 257.917 133.703 257.74C134.029 257.553 134.193 257.241 134.193 256.802ZM133.983 253.54C133.983 253.185 133.852 252.929 133.591 252.77C133.339 252.602 132.923 252.518 132.345 252.518H130.427V254.576H132.121C132.727 254.576 133.189 254.492 133.507 254.324C133.824 254.156 133.983 253.895 133.983 253.54ZM143.085 253.386C143.085 253.853 142.945 254.217 142.665 254.478C142.385 254.739 142.026 254.917 141.587 255.01V255.066C142.054 255.131 142.46 255.299 142.805 255.57C143.15 255.831 143.323 256.242 143.323 256.802C143.323 257.119 143.262 257.413 143.141 257.684C143.029 257.955 142.852 258.188 142.609 258.384C142.366 258.58 142.054 258.734 141.671 258.846C141.288 258.949 140.826 259 140.285 259H137.051V251.496H140.271C140.803 251.496 141.279 251.557 141.699 251.678C142.128 251.79 142.464 251.986 142.707 252.266C142.959 252.537 143.085 252.91 143.085 253.386ZM142.049 256.802C142.049 256.373 141.886 256.065 141.559 255.878C141.232 255.691 140.752 255.598 140.117 255.598H138.283V258.006H140.145C140.761 258.006 141.232 257.917 141.559 257.74C141.886 257.553 142.049 257.241 142.049 256.802ZM141.839 253.54C141.839 253.185 141.708 252.929 141.447 252.77C141.195 252.602 140.78 252.518 140.201 252.518H138.283V254.576H139.977C140.584 254.576 141.046 254.492 141.363 254.324C141.68 254.156 141.839 253.895 141.839 253.54ZM147.805 251.356C148.449 251.356 149 251.496 149.457 251.776C149.924 252.056 150.279 252.453 150.521 252.966C150.773 253.47 150.899 254.063 150.899 254.744V255.486H145.761C145.78 256.335 145.995 256.984 146.405 257.432C146.825 257.871 147.409 258.09 148.155 258.09C148.631 258.09 149.051 258.048 149.415 257.964C149.789 257.871 150.171 257.74 150.563 257.572V258.65C150.181 258.818 149.803 258.939 149.429 259.014C149.056 259.098 148.613 259.14 148.099 259.14C147.39 259.14 146.76 258.995 146.209 258.706C145.668 258.417 145.243 257.987 144.935 257.418C144.637 256.839 144.487 256.135 144.487 255.304C144.487 254.483 144.623 253.778 144.893 253.19C145.173 252.602 145.561 252.149 146.055 251.832C146.559 251.515 147.143 251.356 147.805 251.356ZM147.791 252.364C147.203 252.364 146.737 252.555 146.391 252.938C146.055 253.311 145.855 253.834 145.789 254.506H149.611C149.611 254.077 149.546 253.703 149.415 253.386C149.285 253.069 149.084 252.821 148.813 252.644C148.552 252.457 148.211 252.364 147.791 252.364ZM158.172 251.496V257.964H159.264V261.604H158.074V259H152.852V261.604H151.676V257.964H152.278C152.707 257.367 153.062 256.718 153.342 256.018C153.631 255.309 153.846 254.571 153.986 253.806C154.135 253.031 154.214 252.261 154.224 251.496H158.172ZM155.316 252.462C155.278 253.097 155.18 253.755 155.022 254.436C154.863 255.108 154.658 255.752 154.406 256.368C154.163 256.984 153.878 257.516 153.552 257.964H156.982V252.462H155.316ZM161.686 256.074C161.686 256.158 161.682 256.279 161.672 256.438C161.672 256.587 161.668 256.751 161.658 256.928C161.649 257.096 161.64 257.259 161.63 257.418C161.621 257.567 161.612 257.689 161.602 257.782L165.62 251.496H167.132V259H165.984V254.576C165.984 254.427 165.984 254.231 165.984 253.988C165.994 253.745 166.003 253.507 166.012 253.274C166.022 253.031 166.031 252.849 166.04 252.728L162.05 259H160.524V251.496H161.686V256.074ZM174.491 252.532H172.041V259H170.823V252.532H168.401V251.496H174.491V252.532ZM178.52 251.356C179.164 251.356 179.715 251.496 180.172 251.776C180.639 252.056 180.993 252.453 181.236 252.966C181.488 253.47 181.614 254.063 181.614 254.744V255.486H176.476C176.495 256.335 176.709 256.984 177.12 257.432C177.54 257.871 178.123 258.09 178.87 258.09C179.346 258.09 179.766 258.048 180.13 257.964C180.503 257.871 180.886 257.74 181.278 257.572V258.65C180.895 258.818 180.517 258.939 180.144 259.014C179.771 259.098 179.327 259.14 178.814 259.14C178.105 259.14 177.475 258.995 176.924 258.706C176.383 258.417 175.958 257.987 175.65 257.418C175.351 256.839 175.202 256.135 175.202 255.304C175.202 254.483 175.337 253.778 175.608 253.19C175.888 252.602 176.275 252.149 176.77 251.832C177.274 251.515 177.857 251.356 178.52 251.356ZM178.506 252.364C177.918 252.364 177.451 252.555 177.106 252.938C176.77 253.311 176.569 253.834 176.504 254.506H180.326C180.326 254.077 180.261 253.703 180.13 253.386C179.999 253.069 179.799 252.821 179.528 252.644C179.267 252.457 178.926 252.364 178.506 252.364ZM191.74 251.496H193.084L189.878 255.108L193.35 259H191.922L188.534 255.192V259H187.302V251.496H188.534V255.136L191.74 251.496ZM200.752 255.234C200.752 255.859 200.668 256.415 200.5 256.9C200.342 257.376 200.108 257.782 199.8 258.118C199.502 258.454 199.133 258.711 198.694 258.888C198.265 259.056 197.784 259.14 197.252 259.14C196.758 259.14 196.3 259.056 195.88 258.888C195.46 258.711 195.096 258.454 194.788 258.118C194.48 257.782 194.238 257.376 194.06 256.9C193.892 256.415 193.808 255.859 193.808 255.234C193.808 254.403 193.948 253.703 194.228 253.134C194.508 252.555 194.91 252.117 195.432 251.818C195.955 251.51 196.576 251.356 197.294 251.356C197.976 251.356 198.573 251.51 199.086 251.818C199.609 252.117 200.015 252.555 200.304 253.134C200.603 253.703 200.752 254.403 200.752 255.234ZM195.082 255.234C195.082 255.822 195.157 256.335 195.306 256.774C195.465 257.203 195.708 257.535 196.034 257.768C196.361 258.001 196.776 258.118 197.28 258.118C197.784 258.118 198.2 258.001 198.526 257.768C198.853 257.535 199.091 257.203 199.24 256.774C199.399 256.335 199.478 255.822 199.478 255.234C199.478 254.637 199.399 254.128 199.24 253.708C199.082 253.288 198.839 252.966 198.512 252.742C198.195 252.509 197.78 252.392 197.266 252.392C196.501 252.392 195.946 252.644 195.6 253.148C195.255 253.652 195.082 254.347 195.082 255.234ZM206.065 251.356C206.989 251.356 207.731 251.678 208.291 252.322C208.86 252.966 209.145 253.937 209.145 255.234C209.145 256.083 209.014 256.802 208.753 257.39C208.501 257.969 208.142 258.407 207.675 258.706C207.218 258.995 206.676 259.14 206.051 259.14C205.668 259.14 205.328 259.089 205.029 258.986C204.73 258.883 204.474 258.753 204.259 258.594C204.054 258.426 203.876 258.244 203.727 258.048H203.643C203.662 258.207 203.68 258.407 203.699 258.65C203.718 258.893 203.727 259.103 203.727 259.28V262.36H202.495V251.496H203.503L203.671 252.518H203.727C203.876 252.303 204.054 252.107 204.259 251.93C204.474 251.753 204.726 251.613 205.015 251.51C205.314 251.407 205.664 251.356 206.065 251.356ZM205.841 252.392C205.337 252.392 204.931 252.49 204.623 252.686C204.315 252.873 204.091 253.157 203.951 253.54C203.811 253.923 203.736 254.408 203.727 254.996V255.234C203.727 255.85 203.792 256.373 203.923 256.802C204.054 257.231 204.273 257.558 204.581 257.782C204.898 258.006 205.328 258.118 205.869 258.118C206.326 258.118 206.7 257.992 206.989 257.74C207.288 257.488 207.507 257.147 207.647 256.718C207.796 256.279 207.871 255.78 207.871 255.22C207.871 254.361 207.703 253.675 207.367 253.162C207.04 252.649 206.532 252.392 205.841 252.392ZM214.468 251.356C215.392 251.356 216.134 251.678 216.694 252.322C217.264 252.966 217.548 253.937 217.548 255.234C217.548 256.083 217.418 256.802 217.156 257.39C216.904 257.969 216.545 258.407 216.078 258.706C215.621 258.995 215.08 259.14 214.454 259.14C214.072 259.14 213.731 259.089 213.432 258.986C213.134 258.883 212.877 258.753 212.662 258.594C212.457 258.426 212.28 258.244 212.13 258.048H212.046C212.065 258.207 212.084 258.407 212.102 258.65C212.121 258.893 212.13 259.103 212.13 259.28V262.36H210.898V251.496H211.906L212.074 252.518H212.13C212.28 252.303 212.457 252.107 212.662 251.93C212.877 251.753 213.129 251.613 213.418 251.51C213.717 251.407 214.067 251.356 214.468 251.356ZM214.244 252.392C213.74 252.392 213.334 252.49 213.026 252.686C212.718 252.873 212.494 253.157 212.354 253.54C212.214 253.923 212.14 254.408 212.13 254.996V255.234C212.13 255.85 212.196 256.373 212.326 256.802C212.457 257.231 212.676 257.558 212.984 257.782C213.302 258.006 213.731 258.118 214.272 258.118C214.73 258.118 215.103 257.992 215.392 257.74C215.691 257.488 215.91 257.147 216.05 256.718C216.2 256.279 216.274 255.78 216.274 255.22C216.274 254.361 216.106 253.675 215.77 253.162C215.444 252.649 214.935 252.392 214.244 252.392ZM222.199 251.356C222.843 251.356 223.394 251.496 223.851 251.776C224.318 252.056 224.673 252.453 224.915 252.966C225.167 253.47 225.293 254.063 225.293 254.744V255.486H220.155C220.174 256.335 220.389 256.984 220.799 257.432C221.219 257.871 221.803 258.09 222.549 258.09C223.025 258.09 223.445 258.048 223.809 257.964C224.183 257.871 224.565 257.74 224.957 257.572V258.65C224.575 258.818 224.197 258.939 223.823 259.014C223.45 259.098 223.007 259.14 222.493 259.14C221.784 259.14 221.154 258.995 220.603 258.706C220.062 258.417 219.637 257.987 219.329 257.418C219.031 256.839 218.881 256.135 218.881 255.304C218.881 254.483 219.017 253.778 219.287 253.19C219.567 252.602 219.955 252.149 220.449 251.832C220.953 251.515 221.537 251.356 222.199 251.356ZM222.185 252.364C221.597 252.364 221.131 252.555 220.785 252.938C220.449 253.311 220.249 253.834 220.183 254.506H224.005C224.005 254.077 223.94 253.703 223.809 253.386C223.679 253.069 223.478 252.821 223.207 252.644C222.946 252.457 222.605 252.364 222.185 252.364ZM231.432 251.496H232.776L229.57 255.108L233.042 259H231.614L228.226 255.192V259H226.994V251.496H228.226V255.136L231.432 251.496ZM239.374 252.532H236.924V259H235.706V252.532H233.284V251.496H239.374V252.532ZM241.874 251.496V254.618H245.948V251.496H247.18V259H245.948V255.654H241.874V259H240.642V251.496H241.874ZM249.346 259V251.496H250.578V254.576H252.524C253.178 254.576 253.714 254.655 254.134 254.814C254.554 254.973 254.867 255.211 255.072 255.528C255.278 255.836 255.38 256.228 255.38 256.704C255.38 257.171 255.278 257.577 255.072 257.922C254.876 258.267 254.564 258.533 254.134 258.72C253.714 258.907 253.159 259 252.468 259H249.346ZM252.356 258.006C252.888 258.006 253.322 257.917 253.658 257.74C253.994 257.553 254.162 257.231 254.162 256.774C254.162 256.317 254.008 256.009 253.7 255.85C253.392 255.682 252.949 255.598 252.37 255.598H250.578V258.006H252.356ZM256.626 259V251.496H257.858V259H256.626ZM266.109 248.388C266.071 248.855 265.955 249.247 265.759 249.564C265.572 249.881 265.292 250.119 264.919 250.278C264.545 250.437 264.06 250.516 263.463 250.516C262.856 250.516 262.366 250.437 261.993 250.278C261.629 250.119 261.363 249.886 261.195 249.578C261.027 249.261 260.924 248.864 260.887 248.388H262.035C262.081 248.892 262.212 249.233 262.427 249.41C262.651 249.578 263.005 249.662 263.491 249.662C263.92 249.662 264.256 249.573 264.499 249.396C264.751 249.209 264.9 248.873 264.947 248.388H266.109ZM261.195 256.074C261.195 256.158 261.19 256.279 261.181 256.438C261.181 256.587 261.176 256.751 261.167 256.928C261.157 257.096 261.148 257.259 261.139 257.418C261.129 257.567 261.12 257.689 261.111 257.782L265.129 251.496H266.641V259H265.493V254.576C265.493 254.427 265.493 254.231 265.493 253.988C265.502 253.745 265.511 253.507 265.521 253.274C265.53 253.031 265.539 252.849 265.549 252.728L261.559 259H260.033V251.496H261.195V256.074ZM139.517 272.496V280H138.285V273.546H134.407V280H133.175V272.496H139.517ZM144.543 272.37C145.458 272.37 146.135 272.571 146.573 272.972C147.012 273.373 147.231 274.013 147.231 274.89V280H146.335L146.097 278.936H146.041C145.827 279.207 145.603 279.435 145.369 279.622C145.145 279.799 144.884 279.93 144.585 280.014C144.296 280.098 143.941 280.14 143.521 280.14C143.073 280.14 142.667 280.061 142.303 279.902C141.949 279.743 141.669 279.501 141.463 279.174C141.258 278.838 141.155 278.418 141.155 277.914C141.155 277.167 141.449 276.593 142.037 276.192C142.625 275.781 143.531 275.557 144.753 275.52L146.027 275.478V275.03C146.027 274.405 145.892 273.971 145.621 273.728C145.351 273.485 144.968 273.364 144.473 273.364C144.081 273.364 143.708 273.425 143.353 273.546C142.999 273.658 142.667 273.789 142.359 273.938L141.981 273.014C142.308 272.837 142.695 272.687 143.143 272.566C143.591 272.435 144.058 272.37 144.543 272.37ZM144.907 276.374C143.974 276.411 143.325 276.561 142.961 276.822C142.607 277.083 142.429 277.452 142.429 277.928C142.429 278.348 142.555 278.656 142.807 278.852C143.069 279.048 143.4 279.146 143.801 279.146C144.436 279.146 144.963 278.973 145.383 278.628C145.803 278.273 146.013 277.732 146.013 277.004V276.332L144.907 276.374ZM152.909 272.356C153.833 272.356 154.575 272.678 155.135 273.322C155.704 273.966 155.989 274.937 155.989 276.234C155.989 277.083 155.858 277.802 155.597 278.39C155.345 278.969 154.986 279.407 154.519 279.706C154.062 279.995 153.52 280.14 152.895 280.14C152.512 280.14 152.172 280.089 151.873 279.986C151.574 279.883 151.318 279.753 151.103 279.594C150.898 279.426 150.72 279.244 150.571 279.048H150.487C150.506 279.207 150.524 279.407 150.543 279.65C150.562 279.893 150.571 280.103 150.571 280.28V283.36H149.339V272.496H150.347L150.515 273.518H150.571C150.72 273.303 150.898 273.107 151.103 272.93C151.318 272.753 151.57 272.613 151.859 272.51C152.158 272.407 152.508 272.356 152.909 272.356ZM152.685 273.392C152.181 273.392 151.775 273.49 151.467 273.686C151.159 273.873 150.935 274.157 150.795 274.54C150.655 274.923 150.58 275.408 150.571 275.996V276.234C150.571 276.85 150.636 277.373 150.767 277.802C150.898 278.231 151.117 278.558 151.425 278.782C151.742 279.006 152.172 279.118 152.713 279.118C153.17 279.118 153.544 278.992 153.833 278.74C154.132 278.488 154.351 278.147 154.491 277.718C154.64 277.279 154.715 276.78 154.715 276.22C154.715 275.361 154.547 274.675 154.211 274.162C153.884 273.649 153.376 273.392 152.685 273.392ZM164.266 276.234C164.266 276.859 164.182 277.415 164.014 277.9C163.856 278.376 163.622 278.782 163.314 279.118C163.016 279.454 162.647 279.711 162.208 279.888C161.779 280.056 161.298 280.14 160.766 280.14C160.272 280.14 159.814 280.056 159.394 279.888C158.974 279.711 158.61 279.454 158.302 279.118C157.994 278.782 157.752 278.376 157.574 277.9C157.406 277.415 157.322 276.859 157.322 276.234C157.322 275.403 157.462 274.703 157.742 274.134C158.022 273.555 158.424 273.117 158.946 272.818C159.469 272.51 160.09 272.356 160.808 272.356C161.49 272.356 162.087 272.51 162.6 272.818C163.123 273.117 163.529 273.555 163.818 274.134C164.117 274.703 164.266 275.403 164.266 276.234ZM158.596 276.234C158.596 276.822 158.671 277.335 158.82 277.774C158.979 278.203 159.222 278.535 159.548 278.768C159.875 279.001 160.29 279.118 160.794 279.118C161.298 279.118 161.714 279.001 162.04 278.768C162.367 278.535 162.605 278.203 162.754 277.774C162.913 277.335 162.992 276.822 162.992 276.234C162.992 275.637 162.913 275.128 162.754 274.708C162.596 274.288 162.353 273.966 162.026 273.742C161.709 273.509 161.294 273.392 160.78 273.392C160.015 273.392 159.46 273.644 159.114 274.148C158.769 274.652 158.596 275.347 158.596 276.234ZM171.721 280H170.475V273.518H168.263C168.169 274.703 168.053 275.716 167.913 276.556C167.773 277.387 167.595 278.063 167.381 278.586C167.166 279.109 166.909 279.491 166.611 279.734C166.312 279.977 165.962 280.098 165.561 280.098C165.439 280.098 165.318 280.089 165.197 280.07C165.085 280.061 164.991 280.037 164.917 280V279.076C164.973 279.095 165.033 279.109 165.099 279.118C165.164 279.127 165.229 279.132 165.295 279.132C165.5 279.132 165.687 279.048 165.855 278.88C166.023 278.712 166.172 278.455 166.303 278.11C166.443 277.765 166.569 277.331 166.681 276.808C166.793 276.276 166.891 275.651 166.975 274.932C167.059 274.213 167.133 273.401 167.199 272.496H171.721V280ZM177.351 275.576C178.004 275.576 178.545 275.655 178.975 275.814C179.404 275.973 179.726 276.211 179.941 276.528C180.165 276.836 180.277 277.228 180.277 277.704C180.277 278.171 180.169 278.577 179.955 278.922C179.749 279.267 179.427 279.533 178.989 279.72C178.55 279.907 177.985 280 177.295 280H173.893V272.496H175.125V275.576H177.351ZM179.045 277.774C179.045 277.317 178.881 277.009 178.555 276.85C178.237 276.682 177.789 276.598 177.211 276.598H175.125V279.006H177.239C177.761 279.006 178.191 278.913 178.527 278.726C178.872 278.539 179.045 278.222 179.045 277.774Z" fill="black"/>
<path d="M193.506 93.0001C193.506 71.1814 175.818 53.4939 153.999 53.4939C132.181 53.4939 114.493 71.1814 114.493 93.0001C114.493 114.819 132.181 132.506 153.999 132.506C175.818 132.506 193.506 114.819 193.506 93.0001Z" stroke="#E41717" stroke-width="3" stroke-miterlimit="10"/>
<path d="M140.562 79.5625L167.438 106.438" stroke="#E41717" stroke-width="3" stroke-linecap="round"/>
<path d="M167.438 79.5625L140.562 106.438" stroke="#E41717" stroke-width="3" stroke-linecap="round"/>
<defs>
<filter id="filter0_d_1383_2448" x="0" y="0" width="313" height="340" filterUnits="userSpaceOnUse" color-interpolation-filters="sRGB">
<feFlood flood-opacity="0" result="BackgroundImageFix"/>
<feColorMatrix in="SourceAlpha" type="matrix" values="0 0 0 0 0 0 0 0 0 0 0 0 0 0 0 0 0 0 127 0" result="hardAlpha"/>
<feOffset dy="4"/>
<feGaussianBlur stdDeviation="2"/>
<feComposite in2="hardAlpha" operator="out"/>
<feColorMatrix type="matrix" values="0 0 0 0 0 0 0 0 0 0 0 0 0 0 0 0 0 0 0.05 0"/>
<feBlend mode="normal" in2="BackgroundImageFix" result="effect1_dropShadow_1383_2448"/>
<feBlend mode="normal" in="SourceGraphic" in2="effect1_dropShadow_1383_2448" result="shape"/>
</filter>
<filter id="filter1_d_1383_2448" x="104.464" y="173.64" width="99.6607" height="26.6001" filterUnits="userSpaceOnUse" color-interpolation-filters="sRGB">
<feFlood flood-opacity="0" result="BackgroundImageFix"/>
<feColorMatrix in="SourceAlpha" type="matrix" values="0 0 0 0 0 0 0 0 0 0 0 0 0 0 0 0 0 0 127 0" result="hardAlpha"/>
<feOffset dy="4"/>
<feGaussianBlur stdDeviation="2"/>
<feComposite in2="hardAlpha" operator="out"/>
<feColorMatrix type="matrix" values="0 0 0 0 0 0 0 0 0 0 0 0 0 0 0 0 0 0 0.08 0"/>
<feBlend mode="normal" in2="BackgroundImageFix" result="effect1_dropShadow_1383_2448"/>
<feBlend mode="normal" in="SourceGraphic" in2="effect1_dropShadow_1383_2448" result="shape"/>
</filter>
</defs>
</svg>
