<svg width="19" height="19" viewBox="0 0 19 19" fill="none" xmlns="http://www.w3.org/2000/svg">
<path d="M10.7 0.65C10.3538 0.390356 9.93274 0.25 9.5 0.25C9.06726 0.25 8.64619 0.390356 8.3 0.65L1.3 5.9C1.05161 6.08629 0.850001 6.32786 0.711146 6.60557C0.57229 6.88328 0.5 7.18951 0.5 7.5V17C0.5 17.5304 0.710714 18.0391 1.08579 18.4142C1.46086 18.7893 1.96957 19 2.5 19H6.4C6.69174 19 6.97153 18.8841 7.17782 18.6778C7.38411 18.4715 7.5 18.1917 7.5 17.9V13C7.5 12.4696 7.71071 11.9609 8.08579 11.5858C8.46086 11.2107 8.96957 11 9.5 11C10.0304 11 10.5391 11.2107 10.9142 11.5858C11.2893 11.9609 11.5 12.4696 11.5 13V17.9C11.5 18.1917 11.6159 18.4715 11.8222 18.6778C12.0285 18.8841 12.3083 19 12.6 19H16.5C17.0304 19 17.5391 18.7893 17.9142 18.4142C18.2893 18.0391 18.5 17.5304 18.5 17V7.5C18.5 7.18951 18.4277 6.88328 18.2889 6.60557C18.15 6.32786 17.9484 6.08629 17.7 5.9L10.7 0.65Z" fill="#DB66E4"/>
</svg>
