<svg width="290" height="38" viewBox="0 0 290 38" fill="none" xmlns="http://www.w3.org/2000/svg">
<path fill-rule="evenodd" clip-rule="evenodd" d="M29.4129 13.3371C29.7791 13.7032 29.7791 14.2968 29.4129 14.6629L25.0379 19.0379C24.6718 19.404 24.0782 19.404 23.7121 19.0379L21.2121 16.5379C20.846 16.1718 20.846 15.5782 21.2121 15.2121C21.5782 14.846 22.1718 14.846 22.5379 15.2121L24.375 17.0492L28.0871 13.3371C28.4532 12.971 29.0468 12.971 29.4129 13.3371Z" fill="black"/>
<path fill-rule="evenodd" clip-rule="evenodd" d="M14.4055 15.0711C14.8484 9.6978 19.3386 5.5625 24.7301 5.5625H25.27C30.6615 5.5625 35.1517 9.6978 35.5946 15.0711C35.8325 17.9575 34.9409 20.8236 33.1076 23.0657L27.1163 30.3929C26.0225 31.7306 23.9776 31.7306 22.8838 30.393L16.8925 23.0657C15.0592 20.8236 14.1676 17.9575 14.4055 15.0711ZM24.7301 7.4375C20.3144 7.4375 16.6369 10.8243 16.2741 15.2251C16.0761 17.6274 16.8182 20.0128 18.344 21.8788L24.3353 29.2061C24.6789 29.6262 25.3212 29.6262 25.6647 29.2061L31.6561 21.8788C33.1819 20.0128 33.9239 17.6274 33.7259 15.2251C33.3632 10.8243 29.6857 7.4375 25.27 7.4375H24.7301Z" fill="black"/>
<path d="M55.112 18.692C55.416 18.74 55.692 18.864 55.94 19.064C56.196 19.264 56.396 19.512 56.54 19.808C56.692 20.104 56.768 20.42 56.768 20.756C56.768 21.18 56.66 21.564 56.444 21.908C56.228 22.244 55.912 22.512 55.496 22.712C55.088 22.904 54.604 23 54.044 23H50.924V14.636H53.924C54.492 14.636 54.976 14.732 55.376 14.924C55.776 15.108 56.076 15.36 56.276 15.68C56.476 16 56.576 16.36 56.576 16.76C56.576 17.256 56.44 17.668 56.168 17.996C55.904 18.316 55.552 18.548 55.112 18.692ZM52.016 18.248H53.852C54.364 18.248 54.76 18.128 55.04 17.888C55.32 17.648 55.46 17.316 55.46 16.892C55.46 16.468 55.32 16.136 55.04 15.896C54.76 15.656 54.356 15.536 53.828 15.536H52.016V18.248ZM53.948 22.1C54.492 22.1 54.916 21.972 55.22 21.716C55.524 21.46 55.676 21.104 55.676 20.648C55.676 20.184 55.516 19.82 55.196 19.556C54.876 19.284 54.448 19.148 53.912 19.148H52.016V22.1H53.948ZM58.8474 15.356C58.6394 15.356 58.4634 15.284 58.3194 15.14C58.1754 14.996 58.1034 14.82 58.1034 14.612C58.1034 14.404 58.1754 14.228 58.3194 14.084C58.4634 13.94 58.6394 13.868 58.8474 13.868C59.0474 13.868 59.2154 13.94 59.3514 14.084C59.4954 14.228 59.5674 14.404 59.5674 14.612C59.5674 14.82 59.4954 14.996 59.3514 15.14C59.2154 15.284 59.0474 15.356 58.8474 15.356ZM59.3754 16.424V23H58.2834V16.424H59.3754ZM63.5645 23.108C63.0605 23.108 62.6085 23.024 62.2085 22.856C61.8085 22.68 61.4925 22.44 61.2605 22.136C61.0285 21.824 60.9005 21.468 60.8765 21.068H62.0045C62.0365 21.396 62.1885 21.664 62.4605 21.872C62.7405 22.08 63.1045 22.184 63.5525 22.184C63.9685 22.184 64.2965 22.092 64.5365 21.908C64.7765 21.724 64.8965 21.492 64.8965 21.212C64.8965 20.924 64.7685 20.712 64.5125 20.576C64.2565 20.432 63.8605 20.292 63.3245 20.156C62.8365 20.028 62.4365 19.9 62.1245 19.772C61.8205 19.636 61.5565 19.44 61.3325 19.184C61.1165 18.92 61.0085 18.576 61.0085 18.152C61.0085 17.816 61.1085 17.508 61.3085 17.228C61.5085 16.948 61.7925 16.728 62.1605 16.568C62.5285 16.4 62.9485 16.316 63.4205 16.316C64.1485 16.316 64.7365 16.5 65.1845 16.868C65.6325 17.236 65.8725 17.74 65.9045 18.38H64.8125C64.7885 18.036 64.6485 17.76 64.3925 17.552C64.1445 17.344 63.8085 17.24 63.3845 17.24C62.9925 17.24 62.6805 17.324 62.4485 17.492C62.2165 17.66 62.1005 17.88 62.1005 18.152C62.1005 18.368 62.1685 18.548 62.3045 18.692C62.4485 18.828 62.6245 18.94 62.8325 19.028C63.0485 19.108 63.3445 19.2 63.7205 19.304C64.1925 19.432 64.5765 19.56 64.8725 19.688C65.1685 19.808 65.4205 19.992 65.6285 20.24C65.8445 20.488 65.9565 20.812 65.9645 21.212C65.9645 21.572 65.8645 21.896 65.6645 22.184C65.4645 22.472 65.1805 22.7 64.8125 22.868C64.4525 23.028 64.0365 23.108 63.5645 23.108ZM70.77 16.304C71.266 16.304 71.714 16.412 72.114 16.628C72.514 16.836 72.826 17.152 73.05 17.576C73.282 18 73.398 18.516 73.398 19.124V23H72.318V19.28C72.318 18.624 72.154 18.124 71.826 17.78C71.498 17.428 71.05 17.252 70.482 17.252C69.906 17.252 69.446 17.432 69.102 17.792C68.766 18.152 68.598 18.676 68.598 19.364V23H67.506V14.12H68.598V17.36C68.814 17.024 69.11 16.764 69.486 16.58C69.87 16.396 70.298 16.304 70.77 16.304ZM78.8538 23L76.2738 20.096V23H75.1818V14.12H76.2738V19.34L78.8058 16.424H80.3298L77.2338 19.7L80.3418 23H78.8538ZM87.3576 19.46C87.3576 19.668 87.3456 19.888 87.3216 20.12H82.0656C82.1056 20.768 82.3256 21.276 82.7256 21.644C83.1336 22.004 83.6256 22.184 84.2016 22.184C84.6736 22.184 85.0656 22.076 85.3776 21.86C85.6976 21.636 85.9216 21.34 86.0496 20.972H87.2256C87.0496 21.604 86.6976 22.12 86.1696 22.52C85.6416 22.912 84.9856 23.108 84.2016 23.108C83.5776 23.108 83.0176 22.968 82.5216 22.688C82.0336 22.408 81.6496 22.012 81.3696 21.5C81.0896 20.98 80.9496 20.38 80.9496 19.7C80.9496 19.02 81.0856 18.424 81.3576 17.912C81.6296 17.4 82.0096 17.008 82.4976 16.736C82.9936 16.456 83.5616 16.316 84.2016 16.316C84.8256 16.316 85.3776 16.452 85.8576 16.724C86.3376 16.996 86.7056 17.372 86.9616 17.852C87.2256 18.324 87.3576 18.86 87.3576 19.46ZM86.2296 19.232C86.2296 18.816 86.1376 18.46 85.9536 18.164C85.7696 17.86 85.5176 17.632 85.1976 17.48C84.8856 17.32 84.5376 17.24 84.1536 17.24C83.6016 17.24 83.1296 17.416 82.7376 17.768C82.3536 18.12 82.1336 18.608 82.0776 19.232H86.2296ZM92.471 23L89.891 20.096V23H88.799V14.12H89.891V19.34L92.423 16.424H93.947L90.851 19.7L93.959 23H92.471ZM102.734 18.14V19.064H97.946V18.14H102.734ZM113.143 15.176L109.807 23H108.703L112.087 15.284H107.455V14.348H113.143V15.176ZM114.221 22.124C115.237 21.308 116.033 20.64 116.609 20.12C117.185 19.592 117.669 19.044 118.061 18.476C118.461 17.9 118.661 17.336 118.661 16.784C118.661 16.264 118.533 15.856 118.277 15.56C118.029 15.256 117.625 15.104 117.065 15.104C116.521 15.104 116.097 15.276 115.793 15.62C115.497 15.956 115.337 16.408 115.313 16.976H114.257C114.289 16.08 114.561 15.388 115.073 14.9C115.585 14.412 116.245 14.168 117.053 14.168C117.877 14.168 118.529 14.396 119.009 14.852C119.497 15.308 119.741 15.936 119.741 16.736C119.741 17.4 119.541 18.048 119.141 18.68C118.749 19.304 118.301 19.856 117.797 20.336C117.293 20.808 116.649 21.36 115.865 21.992H119.993V22.904H114.221V22.124ZM121.256 18.572C121.256 17.196 121.48 16.124 121.928 15.356C122.376 14.58 123.16 14.192 124.28 14.192C125.392 14.192 126.172 14.58 126.62 15.356C127.068 16.124 127.292 17.196 127.292 18.572C127.292 19.972 127.068 21.06 126.62 21.836C126.172 22.612 125.392 23 124.28 23C123.16 23 122.376 22.612 121.928 21.836C121.48 21.06 121.256 19.972 121.256 18.572ZM126.212 18.572C126.212 17.876 126.164 17.288 126.068 16.808C125.98 16.32 125.792 15.928 125.504 15.632C125.224 15.336 124.816 15.188 124.28 15.188C123.736 15.188 123.32 15.336 123.032 15.632C122.752 15.928 122.564 16.32 122.468 16.808C122.38 17.288 122.336 17.876 122.336 18.572C122.336 19.292 122.38 19.896 122.468 20.384C122.564 20.872 122.752 21.264 123.032 21.56C123.32 21.856 123.736 22.004 124.28 22.004C124.816 22.004 125.224 21.856 125.504 21.56C125.792 21.264 125.98 20.872 126.068 20.384C126.164 19.896 126.212 19.292 126.212 18.572ZM128.791 18.572C128.791 17.196 129.015 16.124 129.463 15.356C129.911 14.58 130.695 14.192 131.815 14.192C132.927 14.192 133.707 14.58 134.155 15.356C134.603 16.124 134.827 17.196 134.827 18.572C134.827 19.972 134.603 21.06 134.155 21.836C133.707 22.612 132.927 23 131.815 23C130.695 23 129.911 22.612 129.463 21.836C129.015 21.06 128.791 19.972 128.791 18.572ZM133.747 18.572C133.747 17.876 133.699 17.288 133.603 16.808C133.515 16.32 133.327 15.928 133.039 15.632C132.759 15.336 132.351 15.188 131.815 15.188C131.271 15.188 130.855 15.336 130.567 15.632C130.287 15.928 130.099 16.32 130.003 16.808C129.915 17.288 129.871 17.876 129.871 18.572C129.871 19.292 129.915 19.896 130.003 20.384C130.099 20.872 130.287 21.264 130.567 21.56C130.855 21.856 131.271 22.004 131.815 22.004C132.351 22.004 132.759 21.856 133.039 21.56C133.327 21.264 133.515 20.872 133.603 20.384C133.699 19.896 133.747 19.292 133.747 18.572ZM141.666 15.176L138.33 23H137.226L140.61 15.284H135.978V14.348H141.666V15.176ZM148.409 15.272H144.197V18.008C144.381 17.752 144.653 17.544 145.013 17.384C145.373 17.216 145.761 17.132 146.177 17.132C146.841 17.132 147.381 17.272 147.797 17.552C148.213 17.824 148.509 18.18 148.685 18.62C148.869 19.052 148.961 19.512 148.961 20C148.961 20.576 148.853 21.092 148.637 21.548C148.421 22.004 148.089 22.364 147.641 22.628C147.201 22.892 146.653 23.024 145.997 23.024C145.157 23.024 144.477 22.808 143.957 22.376C143.437 21.944 143.121 21.368 143.009 20.648H144.077C144.181 21.104 144.401 21.46 144.737 21.716C145.073 21.972 145.497 22.1 146.009 22.1C146.641 22.1 147.117 21.912 147.437 21.536C147.757 21.152 147.917 20.648 147.917 20.024C147.917 19.4 147.757 18.92 147.437 18.584C147.117 18.24 146.645 18.068 146.021 18.068C145.597 18.068 145.225 18.172 144.905 18.38C144.593 18.58 144.365 18.856 144.221 19.208H143.189V14.312H148.409V15.272Z" fill="black"/>
<rect x="0.5" y="0.5" width="289" height="37" stroke="black" stroke-opacity="0.3"/>
</svg>
