<svg width="375" height="190" viewBox="0 0 375 190" fill="none" xmlns="http://www.w3.org/2000/svg">
<g filter="url(#filter0_d_2605_5475)">
<rect x="24" y="20" width="327" height="50" rx="10" fill="#FDFDFD" shape-rendering="crispEdges"/>
<path d="M89.27 50H87.65L82.805 44.57V50H81.455V39.29H82.805V44.48L87.53 39.29H89.06L84.41 44.495L89.27 50ZM97.5375 45.965C97.5375 46.635 97.4475 47.23 97.2675 47.75C97.0975 48.26 96.8475 48.695 96.5175 49.055C96.1975 49.415 95.8025 49.69 95.3325 49.88C94.8725 50.06 94.3575 50.15 93.7875 50.15C93.2575 50.15 92.7675 50.06 92.3175 49.88C91.8675 49.69 91.4775 49.415 91.1475 49.055C90.8175 48.695 90.5575 48.26 90.3675 47.75C90.1875 47.23 90.0975 46.635 90.0975 45.965C90.0975 45.075 90.2475 44.325 90.5475 43.715C90.8475 43.095 91.2775 42.625 91.8375 42.305C92.3975 41.975 93.0625 41.81 93.8325 41.81C94.5625 41.81 95.2025 41.975 95.7525 42.305C96.3125 42.625 96.7475 43.095 97.0575 43.715C97.3775 44.325 97.5375 45.075 97.5375 45.965ZM91.4625 45.965C91.4625 46.595 91.5425 47.145 91.7025 47.615C91.8725 48.075 92.1325 48.43 92.4825 48.68C92.8325 48.93 93.2775 49.055 93.8175 49.055C94.3575 49.055 94.8025 48.93 95.1525 48.68C95.5025 48.43 95.7575 48.075 95.9175 47.615C96.0875 47.145 96.1725 46.595 96.1725 45.965C96.1725 45.325 96.0875 44.78 95.9175 44.33C95.7475 43.88 95.4875 43.535 95.1375 43.295C94.7975 43.045 94.3525 42.92 93.8025 42.92C92.9825 42.92 92.3875 43.19 92.0175 43.73C91.6475 44.27 91.4625 45.015 91.4625 45.965ZM100.949 41.96V45.305H105.314V41.96H106.634V50H105.314V46.415H100.949V50H99.6295V41.96H100.949ZM113.98 41.84C114.78 41.91 115.475 42.12 116.065 42.47C116.665 42.82 117.13 43.29 117.46 43.88C117.79 44.47 117.955 45.17 117.955 45.98C117.955 46.79 117.795 47.495 117.475 48.095C117.155 48.685 116.7 49.155 116.11 49.505C115.52 49.845 114.81 50.05 113.98 50.12V53.6H112.69V50.12C111.9 50.05 111.205 49.845 110.605 49.505C110.005 49.155 109.54 48.685 109.21 48.095C108.88 47.495 108.715 46.79 108.715 45.98C108.715 45.16 108.875 44.455 109.195 43.865C109.515 43.265 109.975 42.795 110.575 42.455C111.175 42.105 111.895 41.9 112.735 41.84V38.6H113.98V41.84ZM112.735 42.935C112.125 42.995 111.625 43.15 111.235 43.4C110.845 43.65 110.555 43.99 110.365 44.42C110.185 44.85 110.095 45.37 110.095 45.98C110.095 46.58 110.185 47.1 110.365 47.54C110.555 47.97 110.845 48.315 111.235 48.575C111.625 48.825 112.125 48.98 112.735 49.04V42.935ZM113.98 49.04C114.58 48.97 115.07 48.81 115.45 48.56C115.84 48.31 116.125 47.97 116.305 47.54C116.495 47.1 116.59 46.58 116.59 45.98C116.59 45.38 116.495 44.865 116.305 44.435C116.115 44.005 115.825 43.665 115.435 43.415C115.055 43.165 114.57 43.01 113.98 42.95V49.04ZM123.154 41.81C123.844 41.81 124.434 41.96 124.924 42.26C125.424 42.56 125.804 42.985 126.064 43.535C126.334 44.075 126.469 44.71 126.469 45.44V46.235H120.964C120.984 47.145 121.214 47.84 121.654 48.32C122.104 48.79 122.729 49.025 123.529 49.025C124.039 49.025 124.489 48.98 124.879 48.89C125.279 48.79 125.689 48.65 126.109 48.47V49.625C125.699 49.805 125.294 49.935 124.894 50.015C124.494 50.105 124.019 50.15 123.469 50.15C122.709 50.15 122.034 49.995 121.444 49.685C120.864 49.375 120.409 48.915 120.079 48.305C119.759 47.685 119.599 46.93 119.599 46.04C119.599 45.16 119.744 44.405 120.034 43.775C120.334 43.145 120.749 42.66 121.279 42.32C121.819 41.98 122.444 41.81 123.154 41.81ZM123.139 42.89C122.509 42.89 122.009 43.095 121.639 43.505C121.279 43.905 121.064 44.465 120.994 45.185H125.089C125.089 44.725 125.019 44.325 124.879 43.985C124.739 43.645 124.524 43.38 124.234 43.19C123.954 42.99 123.589 42.89 123.139 42.89ZM132.341 41.81C133.331 41.81 134.126 42.155 134.726 42.845C135.336 43.535 135.641 44.575 135.641 45.965C135.641 46.875 135.501 47.645 135.221 48.275C134.951 48.895 134.566 49.365 134.066 49.685C133.576 49.995 132.996 50.15 132.326 50.15C131.916 50.15 131.551 50.095 131.231 49.985C130.911 49.875 130.636 49.735 130.406 49.565C130.186 49.385 129.996 49.19 129.836 48.98H129.746C129.766 49.15 129.786 49.365 129.806 49.625C129.826 49.885 129.836 50.11 129.836 50.3V53.6H128.516V41.96H129.596L129.776 43.055H129.836C129.996 42.825 130.186 42.615 130.406 42.425C130.636 42.235 130.906 42.085 131.216 41.975C131.536 41.865 131.911 41.81 132.341 41.81ZM132.101 42.92C131.561 42.92 131.126 43.025 130.796 43.235C130.466 43.435 130.226 43.74 130.076 44.15C129.926 44.56 129.846 45.08 129.836 45.71V45.965C129.836 46.625 129.906 47.185 130.046 47.645C130.186 48.105 130.421 48.455 130.751 48.695C131.091 48.935 131.551 49.055 132.131 49.055C132.621 49.055 133.021 48.92 133.331 48.65C133.651 48.38 133.886 48.015 134.036 47.555C134.196 47.085 134.276 46.55 134.276 45.95C134.276 45.03 134.096 44.295 133.736 43.745C133.386 43.195 132.841 42.92 132.101 42.92ZM140.85 41.81C141.54 41.81 142.13 41.96 142.62 42.26C143.12 42.56 143.5 42.985 143.76 43.535C144.03 44.075 144.165 44.71 144.165 45.44V46.235H138.66C138.68 47.145 138.91 47.84 139.35 48.32C139.8 48.79 140.425 49.025 141.225 49.025C141.735 49.025 142.185 48.98 142.575 48.89C142.975 48.79 143.385 48.65 143.805 48.47V49.625C143.395 49.805 142.99 49.935 142.59 50.015C142.19 50.105 141.715 50.15 141.165 50.15C140.405 50.15 139.73 49.995 139.14 49.685C138.56 49.375 138.105 48.915 137.775 48.305C137.455 47.685 137.295 46.93 137.295 46.04C137.295 45.16 137.44 44.405 137.73 43.775C138.03 43.145 138.445 42.66 138.975 42.32C139.515 41.98 140.14 41.81 140.85 41.81ZM140.835 42.89C140.205 42.89 139.705 43.095 139.335 43.505C138.975 43.905 138.76 44.465 138.69 45.185H142.785C142.785 44.725 142.715 44.325 142.575 43.985C142.435 43.645 142.22 43.38 141.93 43.19C141.65 42.99 141.285 42.89 140.835 42.89ZM147.532 41.96V45.305H151.897V41.96H153.217V50H151.897V46.415H147.532V50H146.212V41.96H147.532ZM163.697 52.79H162.407V50H155.762V41.96H157.082V48.89H161.237V41.96H162.557V48.905H163.697V52.79ZM166.485 46.865C166.485 46.955 166.48 47.085 166.47 47.255C166.47 47.415 166.465 47.59 166.455 47.78C166.445 47.96 166.435 48.135 166.425 48.305C166.415 48.465 166.405 48.595 166.395 48.695L170.7 41.96H172.32V50H171.09V45.26C171.09 45.1 171.09 44.89 171.09 44.63C171.1 44.37 171.11 44.115 171.12 43.865C171.13 43.605 171.14 43.41 171.15 43.28L166.875 50H165.24V41.96H166.485V46.865ZM176.124 46.865C176.124 46.955 176.119 47.085 176.109 47.255C176.109 47.415 176.104 47.59 176.094 47.78C176.084 47.96 176.074 48.135 176.064 48.305C176.054 48.465 176.044 48.595 176.034 48.695L180.339 41.96H181.959V50H180.729V45.26C180.729 45.1 180.729 44.89 180.729 44.63C180.739 44.37 180.749 44.115 180.759 43.865C180.769 43.605 180.779 43.41 180.789 43.28L176.514 50H174.879V41.96H176.124V46.865Z" fill="black"/>
<path d="M55.9998 55H63.9998C68.0198 55 68.7398 53.39 68.9498 51.43L69.6998 43.43C69.9698 40.99 69.2698 39 64.9998 39H54.9998C50.7298 39 50.0298 40.99 50.2998 43.43L51.0498 51.43C51.2598 53.39 51.9798 55 55.9998 55Z" stroke="#DB66E4" stroke-width="1.5" stroke-miterlimit="10" stroke-linecap="round" stroke-linejoin="round"/>
<path d="M56 39V38.2C56 36.43 56 35 59.2 35H60.8C64 35 64 36.43 64 38.2V39" stroke="#DB66E4" stroke-width="1.5" stroke-miterlimit="10" stroke-linecap="round" stroke-linejoin="round"/>
<path d="M62 46V47C62 47.01 62 47.01 62 47.02C62 48.11 61.99 49 60 49C58.02 49 58 48.12 58 47.03V46C58 45 58 45 59 45H61C62 45 62 45 62 46Z" stroke="#DB66E4" stroke-width="1.5" stroke-miterlimit="10" stroke-linecap="round" stroke-linejoin="round"/>
<path d="M69.65 44C67.34 45.68 64.7 46.68 62 47.02" stroke="#DB66E4" stroke-width="1.5" stroke-miterlimit="10" stroke-linecap="round" stroke-linejoin="round"/>
<path d="M50.6201 44.27C52.8701 45.81 55.4101 46.74 58.0001 47.03" stroke="#DB66E4" stroke-width="1.5" stroke-miterlimit="10" stroke-linecap="round" stroke-linejoin="round"/>
<path d="M320.382 41.2092L319.454 42.0489L323.392 45.6113H306.278V46.7988H323.392L319.454 50.3611L320.382 51.2008L325.904 46.205L320.382 41.2092Z" fill="black"/>
<rect x="24.5" y="20.5" width="326" height="49" rx="9.5" stroke="#DB66E4" shape-rendering="crispEdges"/>
</g>
<defs>
<filter id="filter0_d_2605_5475" x="-46" y="0" width="467" height="190" filterUnits="userSpaceOnUse" color-interpolation-filters="sRGB">
<feFlood flood-opacity="0" result="BackgroundImageFix"/>
<feColorMatrix in="SourceAlpha" type="matrix" values="0 0 0 0 0 0 0 0 0 0 0 0 0 0 0 0 0 0 127 0" result="hardAlpha"/>
<feOffset dy="50"/>
<feGaussianBlur stdDeviation="35"/>
<feComposite in2="hardAlpha" operator="out"/>
<feColorMatrix type="matrix" values="0 0 0 0 0 0 0 0 0 0 0 0 0 0 0 0 0 0 0.05 0"/>
<feBlend mode="normal" in2="BackgroundImageFix" result="effect1_dropShadow_2605_5475"/>
<feBlend mode="normal" in="SourceGraphic" in2="effect1_dropShadow_2605_5475" result="shape"/>
</filter>
</defs>
</svg>
