<svg width="351" height="58" viewBox="0 0 351 58" fill="none" xmlns="http://www.w3.org/2000/svg">
<g filter="url(#filter0_d_2843_5544)">
<path d="M91.3153 19.0909V30H89.3551V20.7315H84.5823V30H82.6221V19.0909H91.3153ZM93.5938 33.0682V21.8182H95.4901V23.1712H95.602C95.7014 22.9723 95.8417 22.761 96.0228 22.5373C96.2039 22.31 96.4489 22.1165 96.7579 21.9567C97.0668 21.7933 97.461 21.7116 97.9404 21.7116C98.5725 21.7116 99.1424 21.8732 99.6503 22.1964C100.162 22.516 100.566 22.9901 100.865 23.6186C101.167 24.2436 101.318 25.0107 101.318 25.9197C101.318 26.8182 101.17 27.5817 100.875 28.2102C100.581 28.8388 100.179 29.3182 99.6716 29.6484C99.1638 29.9787 98.5885 30.1438 97.9457 30.1438C97.477 30.1438 97.0881 30.0657 96.7792 29.9094C96.4702 29.7532 96.2216 29.565 96.0334 29.3448C95.8488 29.1211 95.7049 28.9098 95.602 28.7109H95.5221V33.0682H93.5938ZM95.4848 25.9091C95.4848 26.4382 95.5593 26.9016 95.7085 27.2994C95.8612 27.6971 96.0796 28.0078 96.3637 28.2315C96.6513 28.4517 96.9993 28.5618 97.4077 28.5618C97.8339 28.5618 98.1907 28.4482 98.4784 28.2209C98.766 27.9901 98.9826 27.6758 99.1282 27.2781C99.2774 26.8768 99.352 26.4205 99.352 25.9091C99.352 25.4013 99.2792 24.9503 99.1336 24.5561C98.988 24.1619 98.7714 23.853 98.4837 23.6293C98.1961 23.4055 97.8374 23.2937 97.4077 23.2937C96.9958 23.2937 96.646 23.402 96.3584 23.6186C96.0707 23.8352 95.8523 24.1388 95.7032 24.5295C95.5576 24.9201 95.4848 25.38 95.4848 25.9091ZM106.538 30.1598C105.739 30.1598 105.046 29.984 104.46 29.6325C103.874 29.2809 103.42 28.7891 103.097 28.157C102.777 27.5249 102.617 26.7862 102.617 25.9411C102.617 25.0959 102.777 24.3555 103.097 23.7198C103.42 23.0842 103.874 22.5906 104.46 22.239C105.046 21.8874 105.739 21.7116 106.538 21.7116C107.337 21.7116 108.029 21.8874 108.615 22.239C109.201 22.5906 109.654 23.0842 109.973 23.7198C110.297 24.3555 110.458 25.0959 110.458 25.9411C110.458 26.7862 110.297 27.5249 109.973 28.157C109.654 28.7891 109.201 29.2809 108.615 29.6325C108.029 29.984 107.337 30.1598 106.538 30.1598ZM106.548 28.6151C106.982 28.6151 107.344 28.4961 107.635 28.2582C107.926 28.0167 108.143 27.6935 108.285 27.2887C108.43 26.8839 108.503 26.4329 108.503 25.9357C108.503 25.435 108.43 24.9822 108.285 24.5774C108.143 24.169 107.926 23.8441 107.635 23.6026C107.344 23.3612 106.982 23.2404 106.548 23.2404C106.104 23.2404 105.735 23.3612 105.44 23.6026C105.149 23.8441 104.931 24.169 104.785 24.5774C104.643 24.9822 104.572 25.435 104.572 25.9357C104.572 26.4329 104.643 26.8839 104.785 27.2887C104.931 27.6935 105.149 28.0167 105.44 28.2582C105.735 28.4961 106.104 28.6151 106.548 28.6151ZM117.507 21.8182V23.4002H113.98V30H112.095V21.8182H117.507ZM119.053 33.0682V21.8182H120.949V23.1712H121.061C121.16 22.9723 121.301 22.761 121.482 22.5373C121.663 22.31 121.908 22.1165 122.217 21.9567C122.526 21.7933 122.92 21.7116 123.399 21.7116C124.031 21.7116 124.601 21.8732 125.109 22.1964C125.621 22.516 126.025 22.9901 126.324 23.6186C126.626 24.2436 126.777 25.0107 126.777 25.9197C126.777 26.8182 126.629 27.5817 126.334 28.2102C126.04 28.8388 125.638 29.3182 125.131 29.6484C124.623 29.9787 124.047 30.1438 123.405 30.1438C122.936 30.1438 122.547 30.0657 122.238 29.9094C121.929 29.7532 121.681 29.565 121.492 29.3448C121.308 29.1211 121.164 28.9098 121.061 28.7109H120.981V33.0682H119.053ZM120.944 25.9091C120.944 26.4382 121.018 26.9016 121.167 27.2994C121.32 27.6971 121.539 28.0078 121.823 28.2315C122.11 28.4517 122.458 28.5618 122.867 28.5618C123.293 28.5618 123.65 28.4482 123.937 28.2209C124.225 27.9901 124.442 27.6758 124.587 27.2781C124.736 26.8768 124.811 26.4205 124.811 25.9091C124.811 25.4013 124.738 24.9503 124.593 24.5561C124.447 24.1619 124.23 23.853 123.943 23.6293C123.655 23.4055 123.296 23.2937 122.867 23.2937C122.455 23.2937 122.105 23.402 121.817 23.6186C121.53 23.8352 121.311 24.1388 121.162 24.5295C121.017 24.9201 120.944 25.38 120.944 25.9091ZM130.782 30.1651C130.264 30.1651 129.797 30.0728 129.381 29.8881C128.969 29.6999 128.643 29.4229 128.401 29.0572C128.163 28.6914 128.044 28.2404 128.044 27.7042C128.044 27.2425 128.129 26.8608 128.3 26.5589C128.47 26.2571 128.703 26.0156 128.998 25.8345C129.292 25.6534 129.625 25.5167 129.994 25.4244C130.367 25.3285 130.752 25.2592 131.15 25.2166C131.629 25.1669 132.018 25.1225 132.316 25.0835C132.615 25.0408 132.831 24.9769 132.966 24.8917C133.105 24.8029 133.174 24.6662 133.174 24.4815V24.4496C133.174 24.0483 133.055 23.7376 132.817 23.5174C132.579 23.2972 132.236 23.1871 131.789 23.1871C131.317 23.1871 130.942 23.2901 130.665 23.4961C130.392 23.7021 130.207 23.9453 130.111 24.2259L128.311 23.9702C128.453 23.473 128.687 23.0575 129.014 22.7237C129.34 22.3864 129.74 22.1342 130.212 21.9673C130.685 21.7969 131.207 21.7116 131.778 21.7116C132.172 21.7116 132.565 21.7578 132.955 21.8501C133.346 21.9425 133.703 22.0952 134.026 22.3082C134.349 22.5178 134.609 22.8036 134.804 23.1658C135.003 23.5281 135.102 23.9808 135.102 24.5241V30H133.248V28.8761H133.185C133.067 29.1033 132.902 29.3164 132.689 29.5153C132.48 29.7106 132.215 29.8686 131.895 29.9893C131.579 30.1065 131.208 30.1651 130.782 30.1651ZM131.283 28.7482C131.67 28.7482 132.006 28.6719 132.29 28.5192C132.574 28.3629 132.792 28.157 132.945 27.9013C133.101 27.6456 133.179 27.3668 133.179 27.065V26.1009C133.119 26.1506 133.016 26.1967 132.87 26.2393C132.728 26.282 132.568 26.3192 132.391 26.3512C132.213 26.3832 132.038 26.4116 131.864 26.4364C131.689 26.4613 131.539 26.4826 131.411 26.5004C131.123 26.5394 130.866 26.6033 130.638 26.6921C130.411 26.7809 130.232 26.9052 130.1 27.065C129.969 27.2212 129.903 27.4237 129.903 27.6722C129.903 28.0273 130.033 28.2955 130.292 28.4766C130.551 28.6577 130.882 28.7482 131.283 28.7482ZM141.75 27.7575L144.179 21.8182H145.734L142.426 30H141.079L137.845 21.8182H139.385L141.75 27.7575ZM138.9 21.8182V30H137.041V21.8182H138.9ZM144.68 30V21.8182H146.523V30H144.68ZM153.176 27.7575L155.605 21.8182H157.16L153.852 30H152.504L149.271 21.8182H150.811L153.176 27.7575ZM150.326 21.8182V30H148.467V21.8182H150.326ZM156.105 30V21.8182H157.948V30H156.105ZM162.247 30.1651C161.729 30.1651 161.262 30.0728 160.846 29.8881C160.434 29.6999 160.107 29.4229 159.866 29.0572C159.628 28.6914 159.509 28.2404 159.509 27.7042C159.509 27.2425 159.594 26.8608 159.765 26.5589C159.935 26.2571 160.168 26.0156 160.463 25.8345C160.757 25.6534 161.089 25.5167 161.459 25.4244C161.832 25.3285 162.217 25.2592 162.615 25.2166C163.094 25.1669 163.483 25.1225 163.781 25.0835C164.079 25.0408 164.296 24.9769 164.431 24.8917C164.569 24.8029 164.639 24.6662 164.639 24.4815V24.4496C164.639 24.0483 164.52 23.7376 164.282 23.5174C164.044 23.2972 163.701 23.1871 163.254 23.1871C162.781 23.1871 162.407 23.2901 162.13 23.4961C161.856 23.7021 161.672 23.9453 161.576 24.2259L159.775 23.9702C159.917 23.473 160.152 23.0575 160.479 22.7237C160.805 22.3864 161.205 22.1342 161.677 21.9673C162.149 21.7969 162.671 21.7116 163.243 21.7116C163.637 21.7116 164.03 21.7578 164.42 21.8501C164.811 21.9425 165.168 22.0952 165.491 22.3082C165.814 22.5178 166.073 22.8036 166.269 23.1658C166.468 23.5281 166.567 23.9808 166.567 24.5241V30H164.713V28.8761H164.649C164.532 29.1033 164.367 29.3164 164.154 29.5153C163.944 29.7106 163.68 29.8686 163.36 29.9893C163.044 30.1065 162.673 30.1651 162.247 30.1651ZM162.748 28.7482C163.135 28.7482 163.47 28.6719 163.754 28.5192C164.039 28.3629 164.257 28.157 164.41 27.9013C164.566 27.6456 164.644 27.3668 164.644 27.065V26.1009C164.584 26.1506 164.481 26.1967 164.335 26.2393C164.193 26.282 164.033 26.3192 163.856 26.3512C163.678 26.3832 163.502 26.4116 163.328 26.4364C163.154 26.4613 163.003 26.4826 162.876 26.5004C162.588 26.5394 162.33 26.6033 162.103 26.6921C161.876 26.7809 161.697 26.9052 161.565 27.065C161.434 27.2212 161.368 27.4237 161.368 27.6722C161.368 28.0273 161.498 28.2955 161.757 28.4766C162.016 28.6577 162.346 28.7482 162.748 28.7482ZM172.227 30V21.8182H174.155V25.1207H174.858L177.319 21.8182H179.641L176.61 25.8345L179.673 30H177.34L175.098 26.9158H174.155V30H172.227ZM183.999 30.1598C183.2 30.1598 182.507 29.984 181.921 29.6325C181.335 29.2809 180.881 28.7891 180.558 28.157C180.238 27.5249 180.078 26.7862 180.078 25.9411C180.078 25.0959 180.238 24.3555 180.558 23.7198C180.881 23.0842 181.335 22.5906 181.921 22.239C182.507 21.8874 183.2 21.7116 183.999 21.7116C184.798 21.7116 185.49 21.8874 186.076 22.239C186.662 22.5906 187.115 23.0842 187.434 23.7198C187.758 24.3555 187.919 25.0959 187.919 25.9411C187.919 26.7862 187.758 27.5249 187.434 28.157C187.115 28.7891 186.662 29.2809 186.076 29.6325C185.49 29.984 184.798 30.1598 183.999 30.1598ZM184.009 28.6151C184.443 28.6151 184.805 28.4961 185.096 28.2582C185.387 28.0167 185.604 27.6935 185.746 27.2887C185.891 26.8839 185.964 26.4329 185.964 25.9357C185.964 25.435 185.891 24.9822 185.746 24.5774C185.604 24.169 185.387 23.8441 185.096 23.6026C184.805 23.3612 184.443 23.2404 184.009 23.2404C183.565 23.2404 183.196 23.3612 182.901 23.6026C182.61 23.8441 182.392 24.169 182.246 24.5774C182.104 24.9822 182.033 25.435 182.033 25.9357C182.033 26.4329 182.104 26.8839 182.246 27.2887C182.392 27.6935 182.61 28.0167 182.901 28.2582C183.196 28.4961 183.565 28.6151 184.009 28.6151ZM195.175 25.1101V26.6921H190.818V25.1101H195.175ZM191.415 21.8182V30H189.556V21.8182H191.415ZM196.438 21.8182V30H194.584V21.8182H196.438ZM202.101 32.7805V19.0909H204.035V32.7805H202.101ZM202.101 30.1598C201.501 30.1598 200.953 30.0586 200.455 29.8562C199.958 29.6538 199.529 29.3661 199.166 28.9933C198.808 28.6204 198.529 28.1765 198.33 27.6616C198.135 27.1431 198.037 26.5696 198.037 25.9411C198.037 25.3125 198.135 24.739 198.33 24.2205C198.529 23.7021 198.808 23.2564 199.166 22.8835C199.529 22.5071 199.958 22.2177 200.455 22.0153C200.953 21.8129 201.501 21.7116 202.101 21.7116H202.512V30.1598H202.101ZM202.101 28.6044H202.341V23.267H202.101C201.761 23.267 201.459 23.3381 201.196 23.4801C200.937 23.6186 200.718 23.8121 200.541 24.0607C200.367 24.3058 200.234 24.5898 200.141 24.913C200.052 25.2326 200.008 25.5753 200.008 25.9411C200.008 26.4276 200.088 26.8732 200.248 27.2781C200.408 27.6793 200.642 28.0007 200.951 28.2422C201.263 28.4837 201.647 28.6044 202.101 28.6044ZM204.035 30.1598H203.625V21.7116H204.035C204.635 21.7116 205.184 21.8129 205.681 22.0153C206.178 22.2177 206.606 22.5071 206.965 22.8835C207.327 23.2564 207.606 23.7021 207.801 24.2205C208 24.739 208.099 25.3125 208.099 25.9411C208.099 26.5696 208 27.1431 207.801 27.6616C207.606 28.1765 207.327 28.6204 206.965 28.9933C206.606 29.3661 206.178 29.6538 205.681 29.8562C205.184 30.0586 204.635 30.1598 204.035 30.1598ZM204.035 28.6044C204.379 28.6044 204.681 28.5352 204.941 28.3967C205.2 28.2582 205.416 28.0664 205.59 27.8214C205.768 27.5763 205.901 27.294 205.99 26.9744C206.079 26.6513 206.123 26.3068 206.123 25.9411C206.123 25.4545 206.045 25.0089 205.889 24.604C205.732 24.1992 205.498 23.8761 205.186 23.6346C204.877 23.3896 204.493 23.267 204.035 23.267H203.795V28.6044H204.035ZM213.349 30.1598C212.528 30.1598 211.82 29.9893 211.223 29.6484C210.63 29.304 210.174 28.8175 209.854 28.1889C209.535 27.5568 209.375 26.8129 209.375 25.957C209.375 25.1154 209.535 24.3768 209.854 23.7411C210.178 23.1019 210.629 22.6048 211.207 22.2496C211.786 21.891 212.466 21.7116 213.248 21.7116C213.752 21.7116 214.228 21.7933 214.675 21.9567C215.126 22.1165 215.524 22.3651 215.868 22.7024C216.216 23.0398 216.49 23.4695 216.689 23.9915C216.887 24.5099 216.987 25.1278 216.987 25.8452V26.4364H210.281V25.1367H215.139C215.135 24.7674 215.055 24.4389 214.899 24.1513C214.743 23.8601 214.524 23.631 214.244 23.4641C213.967 23.2972 213.644 23.2138 213.274 23.2138C212.88 23.2138 212.534 23.3097 212.235 23.5014C211.937 23.6896 211.705 23.9382 211.538 24.2472C211.374 24.5526 211.291 24.8881 211.287 25.2539V26.3885C211.287 26.8643 211.374 27.2727 211.548 27.6136C211.722 27.951 211.966 28.2102 212.278 28.3913C212.591 28.5689 212.956 28.6577 213.375 28.6577C213.656 28.6577 213.91 28.6186 214.137 28.5405C214.364 28.4588 214.561 28.3398 214.728 28.1836C214.895 28.0273 215.021 27.8338 215.107 27.603L216.907 27.8054C216.793 28.2812 216.577 28.6967 216.257 29.0518C215.941 29.4034 215.536 29.6768 215.043 29.8722C214.549 30.0639 213.984 30.1598 213.349 30.1598ZM218.618 33.0682V21.8182H220.515V23.1712H220.626C220.726 22.9723 220.866 22.761 221.047 22.5373C221.228 22.31 221.473 22.1165 221.782 21.9567C222.091 21.7933 222.485 21.7116 222.965 21.7116C223.597 21.7116 224.167 21.8732 224.675 22.1964C225.186 22.516 225.591 22.9901 225.889 23.6186C226.191 24.2436 226.342 25.0107 226.342 25.9197C226.342 26.8182 226.195 27.5817 225.9 28.2102C225.605 28.8388 225.204 29.3182 224.696 29.6484C224.188 29.9787 223.613 30.1438 222.97 30.1438C222.501 30.1438 222.113 30.0657 221.804 29.9094C221.495 29.7532 221.246 29.565 221.058 29.3448C220.873 29.1211 220.729 28.9098 220.626 28.7109H220.546V33.0682H218.618ZM220.509 25.9091C220.509 26.4382 220.584 26.9016 220.733 27.2994C220.886 27.6971 221.104 28.0078 221.388 28.2315C221.676 28.4517 222.024 28.5618 222.432 28.5618C222.858 28.5618 223.215 28.4482 223.503 28.2209C223.79 27.9901 224.007 27.6758 224.153 27.2781C224.302 26.8768 224.376 26.4205 224.376 25.9091C224.376 25.4013 224.304 24.9503 224.158 24.5561C224.012 24.1619 223.796 23.853 223.508 23.6293C223.22 23.4055 222.862 23.2937 222.432 23.2937C222.02 23.2937 221.67 23.402 221.383 23.6186C221.095 23.8352 220.877 24.1388 220.728 24.5295C220.582 24.9201 220.509 25.38 220.509 25.9091ZM231.615 30.1598C230.795 30.1598 230.087 29.9893 229.49 29.6484C228.897 29.304 228.441 28.8175 228.121 28.1889C227.801 27.5568 227.642 26.8129 227.642 25.957C227.642 25.1154 227.801 24.3768 228.121 23.7411C228.444 23.1019 228.895 22.6048 229.474 22.2496C230.053 21.891 230.733 21.7116 231.514 21.7116C232.018 21.7116 232.494 21.7933 232.942 21.9567C233.393 22.1165 233.79 22.3651 234.135 22.7024C234.483 23.0398 234.756 23.4695 234.955 23.9915C235.154 24.5099 235.254 25.1278 235.254 25.8452V26.4364H228.547V25.1367H233.405C233.402 24.7674 233.322 24.4389 233.165 24.1513C233.009 23.8601 232.791 23.631 232.51 23.4641C232.233 23.2972 231.91 23.2138 231.541 23.2138C231.147 23.2138 230.8 23.3097 230.502 23.5014C230.204 23.6896 229.971 23.9382 229.804 24.2472C229.641 24.5526 229.557 24.8881 229.554 25.2539V26.3885C229.554 26.8643 229.641 27.2727 229.815 27.6136C229.989 27.951 230.232 28.2102 230.545 28.3913C230.857 28.5689 231.223 28.6577 231.642 28.6577C231.923 28.6577 232.176 28.6186 232.404 28.5405C232.631 28.4588 232.828 28.3398 232.995 28.1836C233.162 28.0273 233.288 27.8338 233.373 27.603L235.174 27.8054C235.06 28.2812 234.843 28.6967 234.524 29.0518C234.208 29.4034 233.803 29.6768 233.309 29.8722C232.816 30.0639 232.251 30.1598 231.615 30.1598ZM242.504 25.1101V26.6921H238.147V25.1101H242.504ZM238.744 21.8182V30H236.885V21.8182H238.744ZM243.767 21.8182V30H241.913V21.8182H243.767ZM252.627 21.8182V28.5618H253.878V32.6314H251.993V30H245.718V21.8182H247.577V28.418H250.784V21.8182H252.627ZM257.318 27.3899L260.594 21.8182H262.576V30H260.711V24.4229L257.446 30H255.459V21.8182H257.318V27.3899ZM266.415 27.3899L269.691 21.8182H271.672V30H269.808V24.4229L266.543 30H264.556V21.8182H266.415V27.3899Z" fill="#DB66E4"/>
<rect x="4.5" y="0.5" width="342" height="49" rx="9.5" stroke="#DB66E4" shape-rendering="crispEdges"/>
</g>
<defs>
<filter id="filter0_d_2843_5544" x="0" y="0" width="351" height="58" filterUnits="userSpaceOnUse" color-interpolation-filters="sRGB">
<feFlood flood-opacity="0" result="BackgroundImageFix"/>
<feColorMatrix in="SourceAlpha" type="matrix" values="0 0 0 0 0 0 0 0 0 0 0 0 0 0 0 0 0 0 127 0" result="hardAlpha"/>
<feOffset dy="4"/>
<feGaussianBlur stdDeviation="2"/>
<feComposite in2="hardAlpha" operator="out"/>
<feColorMatrix type="matrix" values="0 0 0 0 0 0 0 0 0 0 0 0 0 0 0 0 0 0 0.1 0"/>
<feBlend mode="normal" in2="BackgroundImageFix" result="effect1_dropShadow_2843_5544"/>
<feBlend mode="normal" in="SourceGraphic" in2="effect1_dropShadow_2843_5544" result="shape"/>
</filter>
</defs>
</svg>
