<svg width="375" height="190" viewBox="0 0 375 190" fill="none" xmlns="http://www.w3.org/2000/svg">
<g filter="url(#filter0_d_2600_6111)">
<rect x="24" y="20" width="327" height="50" rx="10" fill="#FDFDFD" shape-rendering="crispEdges"/>
<path d="M81.47 39.29H82.73V45.17C82.73 45.42 82.725 45.695 82.715 45.995C82.715 46.285 82.71 46.575 82.7 46.865C82.69 47.155 82.675 47.415 82.655 47.645C82.645 47.865 82.635 48.035 82.625 48.155H82.685L88.58 39.29H90.08V50H88.82V44.18C88.82 43.91 88.825 43.62 88.835 43.31C88.845 42.99 88.855 42.685 88.865 42.395C88.885 42.095 88.9 41.83 88.91 41.6C88.92 41.37 88.93 41.2 88.94 41.09H88.88L82.97 50H81.47V39.29ZM96.0137 50.15C95.3037 50.15 94.6687 50.005 94.1087 49.715C93.5587 49.425 93.1237 48.975 92.8037 48.365C92.4937 47.755 92.3387 46.975 92.3387 46.025C92.3387 45.035 92.5037 44.23 92.8337 43.61C93.1637 42.99 93.6087 42.535 94.1687 42.245C94.7387 41.955 95.3837 41.81 96.1037 41.81C96.5137 41.81 96.9087 41.855 97.2887 41.945C97.6687 42.025 97.9787 42.125 98.2187 42.245L97.8137 43.34C97.5737 43.25 97.2937 43.165 96.9737 43.085C96.6537 43.005 96.3537 42.965 96.0737 42.965C95.5337 42.965 95.0887 43.08 94.7387 43.31C94.3887 43.54 94.1287 43.88 93.9587 44.33C93.7887 44.78 93.7037 45.34 93.7037 46.01C93.7037 46.65 93.7887 47.195 93.9587 47.645C94.1287 48.095 94.3837 48.435 94.7237 48.665C95.0637 48.895 95.4887 49.01 95.9987 49.01C96.4387 49.01 96.8237 48.965 97.1537 48.875C97.4937 48.785 97.8037 48.675 98.0837 48.545V49.715C97.8137 49.855 97.5137 49.96 97.1837 50.03C96.8637 50.11 96.4737 50.15 96.0137 50.15ZM105.546 43.07H102.921V50H101.616V43.07H99.0207V41.96H105.546V43.07ZM113.973 45.965C113.973 46.635 113.883 47.23 113.703 47.75C113.533 48.26 113.283 48.695 112.953 49.055C112.633 49.415 112.238 49.69 111.768 49.88C111.308 50.06 110.793 50.15 110.223 50.15C109.693 50.15 109.203 50.06 108.753 49.88C108.303 49.69 107.913 49.415 107.583 49.055C107.253 48.695 106.993 48.26 106.803 47.75C106.623 47.23 106.533 46.635 106.533 45.965C106.533 45.075 106.683 44.325 106.983 43.715C107.283 43.095 107.713 42.625 108.273 42.305C108.833 41.975 109.498 41.81 110.268 41.81C110.998 41.81 111.638 41.975 112.188 42.305C112.748 42.625 113.183 43.095 113.493 43.715C113.813 44.325 113.973 45.075 113.973 45.965ZM107.898 45.965C107.898 46.595 107.978 47.145 108.138 47.615C108.308 48.075 108.568 48.43 108.918 48.68C109.268 48.93 109.713 49.055 110.253 49.055C110.793 49.055 111.238 48.93 111.588 48.68C111.938 48.43 112.193 48.075 112.353 47.615C112.523 47.145 112.608 46.595 112.608 45.965C112.608 45.325 112.523 44.78 112.353 44.33C112.183 43.88 111.923 43.535 111.573 43.295C111.233 43.045 110.788 42.92 110.238 42.92C109.418 42.92 108.823 43.19 108.453 43.73C108.083 44.27 107.898 45.015 107.898 45.965ZM119.89 41.81C120.88 41.81 121.675 42.155 122.275 42.845C122.885 43.535 123.19 44.575 123.19 45.965C123.19 46.875 123.05 47.645 122.77 48.275C122.5 48.895 122.115 49.365 121.615 49.685C121.125 49.995 120.545 50.15 119.875 50.15C119.465 50.15 119.1 50.095 118.78 49.985C118.46 49.875 118.185 49.735 117.955 49.565C117.735 49.385 117.545 49.19 117.385 48.98H117.295C117.315 49.15 117.335 49.365 117.355 49.625C117.375 49.885 117.385 50.11 117.385 50.3V53.6H116.065V41.96H117.145L117.325 43.055H117.385C117.545 42.825 117.735 42.615 117.955 42.425C118.185 42.235 118.455 42.085 118.765 41.975C119.085 41.865 119.46 41.81 119.89 41.81ZM119.65 42.92C119.11 42.92 118.675 43.025 118.345 43.235C118.015 43.435 117.775 43.74 117.625 44.15C117.475 44.56 117.395 45.08 117.385 45.71V45.965C117.385 46.625 117.455 47.185 117.595 47.645C117.735 48.105 117.97 48.455 118.3 48.695C118.64 48.935 119.1 49.055 119.68 49.055C120.17 49.055 120.57 48.92 120.88 48.65C121.2 48.38 121.435 48.015 121.585 47.555C121.745 47.085 121.825 46.55 121.825 45.95C121.825 45.03 121.645 44.295 121.285 43.745C120.935 43.195 120.39 42.92 119.65 42.92ZM126.539 46.865C126.539 46.955 126.534 47.085 126.524 47.255C126.524 47.415 126.519 47.59 126.509 47.78C126.499 47.96 126.489 48.135 126.479 48.305C126.469 48.465 126.459 48.595 126.449 48.695L130.754 41.96H132.374V50H131.144V45.26C131.144 45.1 131.144 44.89 131.144 44.63C131.154 44.37 131.164 44.115 131.174 43.865C131.184 43.605 131.194 43.41 131.204 43.28L126.929 50H125.294V41.96H126.539V46.865ZM135.427 50H133.897L136.192 46.625C135.882 46.545 135.582 46.42 135.292 46.25C135.002 46.07 134.767 45.825 134.587 45.515C134.407 45.195 134.317 44.8 134.317 44.33C134.317 43.56 134.577 42.975 135.097 42.575C135.617 42.165 136.307 41.96 137.167 41.96H140.767V50H139.447V46.805H137.497L135.427 50ZM135.592 44.345C135.592 44.805 135.762 45.15 136.102 45.38C136.452 45.6 136.937 45.71 137.557 45.71H139.447V43.055H137.302C136.692 43.055 136.252 43.175 135.982 43.415C135.722 43.655 135.592 43.965 135.592 44.345ZM149.923 41.81C150.533 41.81 151.063 41.895 151.513 42.065C151.963 42.225 152.313 42.465 152.563 42.785C152.813 43.095 152.938 43.475 152.938 43.925C152.938 44.415 152.803 44.805 152.533 45.095C152.263 45.375 151.893 45.58 151.423 45.71V45.77C151.743 45.86 152.038 45.985 152.308 46.145C152.578 46.305 152.793 46.515 152.953 46.775C153.123 47.035 153.208 47.37 153.208 47.78C153.208 48.22 153.083 48.62 152.833 48.98C152.593 49.34 152.218 49.625 151.708 49.835C151.208 50.045 150.563 50.15 149.773 50.15C149.393 50.15 149.028 50.13 148.678 50.09C148.338 50.05 148.028 49.99 147.748 49.91C147.478 49.83 147.238 49.735 147.028 49.625V48.44C147.368 48.6 147.768 48.745 148.228 48.875C148.698 49.005 149.208 49.07 149.758 49.07C150.158 49.07 150.518 49.025 150.838 48.935C151.168 48.845 151.428 48.705 151.618 48.515C151.808 48.315 151.903 48.045 151.903 47.705C151.903 47.395 151.818 47.145 151.648 46.955C151.478 46.755 151.223 46.605 150.883 46.505C150.553 46.405 150.128 46.355 149.608 46.355H148.528V45.275H149.398C150.088 45.275 150.638 45.185 151.048 45.005C151.468 44.815 151.678 44.495 151.678 44.045C151.678 43.665 151.518 43.38 151.198 43.19C150.888 43 150.438 42.905 149.848 42.905C149.408 42.905 149.018 42.95 148.678 43.04C148.348 43.12 147.983 43.245 147.583 43.415L147.118 42.365C147.548 42.175 147.998 42.035 148.468 41.945C148.938 41.855 149.423 41.81 149.923 41.81ZM158.207 41.825C159.187 41.825 159.912 42.04 160.382 42.47C160.852 42.9 161.087 43.585 161.087 44.525V50H160.127L159.872 48.86H159.812C159.582 49.15 159.342 49.395 159.092 49.595C158.852 49.785 158.572 49.925 158.252 50.015C157.942 50.105 157.562 50.15 157.112 50.15C156.632 50.15 156.197 50.065 155.807 49.895C155.427 49.725 155.127 49.465 154.907 49.115C154.687 48.755 154.577 48.305 154.577 47.765C154.577 46.965 154.892 46.35 155.522 45.92C156.152 45.48 157.122 45.24 158.432 45.2L159.797 45.155V44.675C159.797 44.005 159.652 43.54 159.362 43.28C159.072 43.02 158.662 42.89 158.132 42.89C157.712 42.89 157.312 42.955 156.932 43.085C156.552 43.205 156.197 43.345 155.867 43.505L155.462 42.515C155.812 42.325 156.227 42.165 156.707 42.035C157.187 41.895 157.687 41.825 158.207 41.825ZM158.597 46.115C157.597 46.155 156.902 46.315 156.512 46.595C156.132 46.875 155.942 47.27 155.942 47.78C155.942 48.23 156.077 48.56 156.347 48.77C156.627 48.98 156.982 49.085 157.412 49.085C158.092 49.085 158.657 48.9 159.107 48.53C159.557 48.15 159.782 47.57 159.782 46.79V46.07L158.597 46.115ZM168.325 41.96H169.765L166.33 45.83L170.05 50H168.52L164.89 45.92V50H163.57V41.96H164.89V45.86L168.325 41.96ZM174.554 41.825C175.534 41.825 176.259 42.04 176.729 42.47C177.199 42.9 177.434 43.585 177.434 44.525V50H176.474L176.219 48.86H176.159C175.929 49.15 175.689 49.395 175.439 49.595C175.199 49.785 174.919 49.925 174.599 50.015C174.289 50.105 173.909 50.15 173.459 50.15C172.979 50.15 172.544 50.065 172.154 49.895C171.774 49.725 171.474 49.465 171.254 49.115C171.034 48.755 170.924 48.305 170.924 47.765C170.924 46.965 171.239 46.35 171.869 45.92C172.499 45.48 173.469 45.24 174.779 45.2L176.144 45.155V44.675C176.144 44.005 175.999 43.54 175.709 43.28C175.419 43.02 175.009 42.89 174.479 42.89C174.059 42.89 173.659 42.955 173.279 43.085C172.899 43.205 172.544 43.345 172.214 43.505L171.809 42.515C172.159 42.325 172.574 42.165 173.054 42.035C173.534 41.895 174.034 41.825 174.554 41.825ZM174.944 46.115C173.944 46.155 173.249 46.315 172.859 46.595C172.479 46.875 172.289 47.27 172.289 47.78C172.289 48.23 172.424 48.56 172.694 48.77C172.974 48.98 173.329 49.085 173.759 49.085C174.439 49.085 175.004 48.9 175.454 48.53C175.904 48.15 176.129 47.57 176.129 46.79V46.07L174.944 46.115ZM182.033 41.81C182.643 41.81 183.173 41.895 183.623 42.065C184.073 42.225 184.423 42.465 184.673 42.785C184.923 43.095 185.048 43.475 185.048 43.925C185.048 44.415 184.913 44.805 184.643 45.095C184.373 45.375 184.003 45.58 183.533 45.71V45.77C183.853 45.86 184.148 45.985 184.418 46.145C184.688 46.305 184.903 46.515 185.063 46.775C185.233 47.035 185.318 47.37 185.318 47.78C185.318 48.22 185.193 48.62 184.943 48.98C184.703 49.34 184.328 49.625 183.818 49.835C183.318 50.045 182.673 50.15 181.883 50.15C181.503 50.15 181.138 50.13 180.788 50.09C180.448 50.05 180.138 49.99 179.858 49.91C179.588 49.83 179.348 49.735 179.138 49.625V48.44C179.478 48.6 179.878 48.745 180.338 48.875C180.808 49.005 181.318 49.07 181.868 49.07C182.268 49.07 182.628 49.025 182.948 48.935C183.278 48.845 183.538 48.705 183.728 48.515C183.918 48.315 184.013 48.045 184.013 47.705C184.013 47.395 183.928 47.145 183.758 46.955C183.588 46.755 183.333 46.605 182.993 46.505C182.663 46.405 182.238 46.355 181.718 46.355H180.638V45.275H181.508C182.198 45.275 182.748 45.185 183.158 45.005C183.578 44.815 183.788 44.495 183.788 44.045C183.788 43.665 183.628 43.38 183.308 43.19C182.998 43 182.548 42.905 181.958 42.905C181.518 42.905 181.128 42.95 180.788 43.04C180.458 43.12 180.093 43.245 179.693 43.415L179.228 42.365C179.658 42.175 180.108 42.035 180.578 41.945C181.048 41.855 181.533 41.81 182.033 41.81ZM194.261 45.965C194.261 46.635 194.171 47.23 193.991 47.75C193.821 48.26 193.571 48.695 193.241 49.055C192.921 49.415 192.526 49.69 192.056 49.88C191.596 50.06 191.081 50.15 190.511 50.15C189.981 50.15 189.491 50.06 189.041 49.88C188.591 49.69 188.201 49.415 187.871 49.055C187.541 48.695 187.281 48.26 187.091 47.75C186.911 47.23 186.821 46.635 186.821 45.965C186.821 45.075 186.971 44.325 187.271 43.715C187.571 43.095 188.001 42.625 188.561 42.305C189.121 41.975 189.786 41.81 190.556 41.81C191.286 41.81 191.926 41.975 192.476 42.305C193.036 42.625 193.471 43.095 193.781 43.715C194.101 44.325 194.261 45.075 194.261 45.965ZM188.186 45.965C188.186 46.595 188.266 47.145 188.426 47.615C188.596 48.075 188.856 48.43 189.206 48.68C189.556 48.93 190.001 49.055 190.541 49.055C191.081 49.055 191.526 48.93 191.876 48.68C192.226 48.43 192.481 48.075 192.641 47.615C192.811 47.145 192.896 46.595 192.896 45.965C192.896 45.325 192.811 44.78 192.641 44.33C192.471 43.88 192.211 43.535 191.861 43.295C191.521 43.045 191.076 42.92 190.526 42.92C189.706 42.92 189.111 43.19 188.741 43.73C188.371 44.27 188.186 45.015 188.186 45.965ZM202.818 43.985C202.818 44.485 202.668 44.875 202.368 45.155C202.068 45.435 201.683 45.625 201.213 45.725V45.785C201.713 45.855 202.148 46.035 202.518 46.325C202.888 46.605 203.073 47.045 203.073 47.645C203.073 47.985 203.008 48.3 202.878 48.59C202.758 48.88 202.568 49.13 202.308 49.34C202.048 49.55 201.713 49.715 201.303 49.835C200.893 49.945 200.398 50 199.818 50H196.353V41.96H199.803C200.373 41.96 200.883 42.025 201.333 42.155C201.793 42.275 202.153 42.485 202.413 42.785C202.683 43.075 202.818 43.475 202.818 43.985ZM201.708 47.645C201.708 47.185 201.533 46.855 201.183 46.655C200.833 46.455 200.318 46.355 199.638 46.355H197.673V48.935H199.668C200.328 48.935 200.833 48.84 201.183 48.65C201.533 48.45 201.708 48.115 201.708 47.645ZM201.483 44.15C201.483 43.77 201.343 43.495 201.063 43.325C200.793 43.145 200.348 43.055 199.728 43.055H197.673V45.26H199.488C200.138 45.26 200.633 45.17 200.973 44.99C201.313 44.81 201.483 44.53 201.483 44.15Z" fill="black"/>
<path d="M71.0246 44.9999C71.0246 38.9109 66.0885 33.9749 59.9996 33.9749C53.9107 33.9749 48.9746 38.9109 48.9746 44.9999C48.9746 51.0888 53.9107 56.0249 59.9996 56.0249C66.0885 56.0249 71.0246 51.0888 71.0246 44.9999Z" stroke="#DB66E4" stroke-width="1.5" stroke-miterlimit="10"/>
<path d="M59.2041 38.6343V46.4553L64.5002 49.5002" stroke="#DB66E4" stroke-width="1.5" stroke-linecap="round" stroke-linejoin="round"/>
<path d="M320.382 41.2092L319.454 42.0489L323.392 45.6113H306.278V46.7988H323.392L319.454 50.3611L320.382 51.2008L325.904 46.205L320.382 41.2092Z" fill="black"/>
<rect x="24.5" y="20.5" width="326" height="49" rx="9.5" stroke="#DB66E4" shape-rendering="crispEdges"/>
</g>
<defs>
<filter id="filter0_d_2600_6111" x="-46" y="0" width="467" height="190" filterUnits="userSpaceOnUse" color-interpolation-filters="sRGB">
<feFlood flood-opacity="0" result="BackgroundImageFix"/>
<feColorMatrix in="SourceAlpha" type="matrix" values="0 0 0 0 0 0 0 0 0 0 0 0 0 0 0 0 0 0 127 0" result="hardAlpha"/>
<feOffset dy="50"/>
<feGaussianBlur stdDeviation="35"/>
<feComposite in2="hardAlpha" operator="out"/>
<feColorMatrix type="matrix" values="0 0 0 0 0 0 0 0 0 0 0 0 0 0 0 0 0 0 0.05 0"/>
<feBlend mode="normal" in2="BackgroundImageFix" result="effect1_dropShadow_2600_6111"/>
<feBlend mode="normal" in="SourceGraphic" in2="effect1_dropShadow_2600_6111" result="shape"/>
</filter>
</defs>
</svg>
