<svg width="25" height="24" viewBox="0 0 25 24" fill="none" xmlns="http://www.w3.org/2000/svg">
<path d="M18.03 7.77C17.96 7.76 17.89 7.76 17.82 7.77C16.27 7.72 15.04 6.45 15.04 4.89C15.04 3.3 16.33 2 17.93 2C19.52 2 20.82 3.29 20.82 4.89C20.81 6.45 19.58 7.72 18.03 7.77Z" fill="black"/>
<path d="M21.2901 14.6999C20.1701 15.4499 18.6001 15.7299 17.1501 15.5399C17.5301 14.7199 17.7301 13.8099 17.7401 12.8499C17.7401 11.8499 17.5201 10.8999 17.1001 10.0699C18.5801 9.86991 20.1501 10.1499 21.2801 10.8999C22.8601 11.9399 22.8601 13.6499 21.2901 14.6999Z" fill="black"/>
<path d="M6.93991 7.77C7.00991 7.76 7.07991 7.76 7.14991 7.77C8.69991 7.72 9.92991 6.45 9.92991 4.89C9.92991 3.29 8.63991 2 7.03991 2C5.44991 2 4.15991 3.29 4.15991 4.89C4.15991 6.45 5.38991 7.72 6.93991 7.77Z" fill="black"/>
<path d="M7.05012 12.8501C7.05012 13.8201 7.26012 14.7401 7.64012 15.5701C6.23012 15.7201 4.76012 15.4201 3.68012 14.7101C2.10012 13.6601 2.10012 11.9501 3.68012 10.9001C4.75012 10.1801 6.26012 9.8901 7.68012 10.0501C7.27012 10.8901 7.05012 11.8401 7.05012 12.8501Z" fill="black"/>
<path d="M12.62 15.87C12.54 15.86 12.45 15.86 12.36 15.87C10.52 15.81 9.05005 14.3 9.05005 12.44C9.06005 10.54 10.59 9 12.5 9C14.4 9 15.94 10.54 15.94 12.44C15.93 14.3 14.47 15.81 12.62 15.87Z" fill="black"/>
<path d="M9.37005 17.9399C7.86005 18.9499 7.86005 20.6099 9.37005 21.6099C11.09 22.7599 13.91 22.7599 15.63 21.6099C17.14 20.5999 17.14 18.9399 15.63 17.9399C13.92 16.7899 11.1 16.7899 9.37005 17.9399Z" fill="black"/>
</svg>
