<svg width="310" height="151" viewBox="0 0 310 151" fill="none" xmlns="http://www.w3.org/2000/svg">
<mask id="mask0_2348_1184" style="mask-type:luminance" maskUnits="userSpaceOnUse" x="0" y="0" width="310" height="151">
<path d="M310 0.691895H0V150.548H310V0.691895Z" fill="white"/>
</mask>
<g mask="url(#mask0_2348_1184)">
<mask id="mask1_2348_1184" style="mask-type:luminance" maskUnits="userSpaceOnUse" x="86" y="62" width="38" height="59">
<path d="M123.957 62.76H86.1938V120.365H123.957V62.76Z" fill="white"/>
</mask>
<g mask="url(#mask1_2348_1184)">
<path d="M106.996 94.3259C120.821 93.9856 123.993 96.6639 123.851 98.0455C123.663 99.1136 122.945 99.9727 121.824 100.654L118.517 117.814C106.825 122.405 95.8658 119.727 91.8477 117.814C91.2504 116.623 89.5367 106.406 88.7544 101.446C85.4261 99.2356 86.1582 97.6203 86.9409 97.0891C88.9037 94.2832 101.129 94.0778 106.996 94.3259Z" fill="#FFC8DD"/>
<path d="M98.0348 98.7892C96.3282 97.1739 92.3457 97.5497 90.5674 97.9388C87.0685 99.7245 95.2969 100.88 99.8483 101.234C106.334 101.914 115.707 100.029 119.583 99.0018C115.231 96.621 112.223 97.5847 111.263 98.364C109.3 98.8741 107.6 98.1514 106.996 97.7267C101.534 95.5159 98.7462 97.5141 98.0348 98.7892Z" fill="black"/>
<path d="M103.926 98.6831C104.104 97.1244 104.459 93.794 104.459 92.9436C104.459 91.8811 102.005 84.2288 100.832 82.9532C99.2676 80.8278 96.1599 76.1513 96.2451 74.451C96.1738 72.9629 96.2239 69.6468 96.9917 68.2869" stroke="#C192EE"/>
<path d="M95.5817 64.4268C94.7282 65.3621 95.9372 67.2966 96.6481 68.1469C99.1229 69.422 100.595 68.1825 101.022 67.4031C102.729 65.1923 100.88 63.648 99.7419 63.1518C97.5228 62.0461 96.0436 63.5414 95.5817 64.4268Z" fill="#FFC8DD"/>
<path d="M104.804 67.084C99.5978 68.6143 100.356 78.8461 100.818 83.2385H100.857C103.929 79.8375 104.768 71.0517 104.804 67.084Z" fill="#FFC8DD"/>
<path d="M92.7436 77.0017C92.3938 80.0753 98.3143 82.2465 100.888 83.1082L100.897 83.0882C99.701 80.6487 94.9632 78.0142 92.7436 77.0017Z" fill="#FFC8DD"/>
</g>
<mask id="mask2_2348_1184" style="mask-type:luminance" maskUnits="userSpaceOnUse" x="142" y="81" width="33" height="46">
<path d="M174.816 81.4053H142.6V126.044H174.816V81.4053Z" fill="white"/>
</mask>
<g mask="url(#mask2_2348_1184)">
<path d="M160.362 102.307C172.215 101.997 174.934 104.44 174.812 105.7C174.651 106.675 174.036 107.458 173.075 108.08L170.239 123.732C160.216 127.919 150.82 125.476 147.375 123.732C146.863 122.645 145.394 113.326 144.722 108.803C141.869 106.786 142.497 105.313 143.168 104.828C144.851 102.268 155.332 102.081 160.362 102.307Z" fill="#C192EE"/>
<path d="M159.241 107.252L157.748 107.784C158.431 107.274 157.925 97.3761 157.321 92.3809L155.294 86.209C156.404 87.9092 157.179 91.389 157.321 92.3809C157.919 93.0609 158.992 102.505 159.241 107.252Z" fill="#C192EE"/>
<path d="M157.321 92.3808C155.899 93.2307 151.966 93.7969 149.747 90.1411C150.885 89.1492 154.419 88.9798 157.321 92.3808C157.321 92.3808 156.404 87.9092 155.295 86.2089C151.966 88.4193 148.574 84.9334 147.72 82.914C151.731 81.2987 154.654 84.6147 155.295 86.2089C156.148 81.8726 159.49 81.0367 161.268 81.5324L160.735 83.4452C160.479 85.741 157.001 86.2444 155.295 86.2089C156.404 87.9092 157.321 92.3808 157.321 92.3808C158.104 90.6096 159.988 86.3999 163.402 87.5905C163.544 88.9721 162.185 92.0406 157.321 92.3808Z" fill="#C192EE"/>
<path d="M153.08 106.104C151.629 105.069 148.243 105.309 146.731 105.559C143.756 106.703 150.752 107.444 154.622 107.671C160.137 108.107 168.107 106.898 171.402 106.24C167.702 104.714 165.144 105.332 164.328 105.831C162.659 106.158 161.214 105.695 160.699 105.423C156.055 104.006 153.685 105.286 153.08 106.104Z" fill="black"/>
</g>
<mask id="mask3_2348_1184" style="mask-type:luminance" maskUnits="userSpaceOnUse" x="182" y="0" width="128" height="151">
<path d="M310 0.691895H182.629V150.548H310V0.691895Z" fill="white"/>
</mask>
<g mask="url(#mask3_2348_1184)">
<mask id="mask4_2348_1184" style="mask-type:luminance" maskUnits="userSpaceOnUse" x="182" y="53" width="37" height="28">
<path d="M218.472 53.8325H182.629V80.4026H218.472V53.8325Z" fill="white"/>
</mask>
<g mask="url(#mask4_2348_1184)">
<path d="M215.912 67.1172L218.472 70.3055C215.555 73.1398 208.21 79.1058 202.15 80.2964L199.804 76.6828C194.719 75.8325 184.165 73.9829 182.629 73.3879V71.3685L197.03 70.8373L192.657 62.3346C194.399 59.961 199.484 55.0225 205.884 54.2576C206.716 54.2684 207.383 54.4475 207.352 54.8948L208.444 56.0644L209.085 56.9142L214.205 64.5665L215.912 67.1172Z" fill="#FFC8DD"/>
<path d="M207.377 54.895V55.3202C207.634 56.1706 198.239 60.8826 193.51 63.1851L193.19 63.3977" stroke="black"/>
<path d="M207.698 55.5327V55.9579C207.953 56.8083 198.559 61.5198 193.83 63.8228L193.51 64.0354" stroke="black"/>
<path d="M208.338 56.1704V56.5956C208.594 57.446 199.199 62.1575 194.47 64.4605L194.15 64.6731" stroke="black"/>
<path d="M201.19 78.9143L201.511 78.7022C206.24 76.3992 215.634 71.6877 215.379 70.8373V70.4121C215.415 69.5618 215.656 67.8188 216.339 67.6489" stroke="black"/>
<path d="M212.925 54.3297C211.389 52.8843 209.369 54.9315 208.551 56.1365L209.191 56.9864L210.406 56.3265C211.102 55.9481 211.982 55.9667 212.476 56.5849C214.186 58.7283 214.433 62.6842 214.312 64.6387L216.019 67.1893C216.338 64.8513 214.845 56.1365 212.925 54.3297Z" fill="#FFC8DD"/>
</g>
<path d="M251.648 49.05C262.7 47.8671 268.966 42.7452 271.466 39.3782C274.959 43.6649 281.112 54.1301 277.784 61.697C277.001 63.8934 273.986 72.9629 268.183 91.6685C272.094 93.5814 282.883 97.2377 294.745 96.5572H299.012C301.743 102.764 299.582 103.82 298.159 103.572C297.536 103.71 297.243 103.991 297.143 104.316H295.065C285.891 105.237 267.265 106.803 266.156 105.698C264.733 114.802 262.017 133.139 262.529 133.649H253.888C253.106 128.902 251.499 119.11 251.328 117.92C251.158 116.729 249.978 105.662 249.408 100.277C248.625 93.5459 247.424 79.2336 248.875 75.8326C249.978 67.7906 252.075 51.1754 251.648 49.05Z" fill="black"/>
<path d="M272.52 38.9019C271.582 33.0352 265.232 25.4042 262.173 22.322C261.215 19.8375 254.505 15.1764 248.412 12.0924C244.339 10.0315 240.541 8.67488 238.917 9.1432C237.501 9.55197 235.094 9.29897 232.517 8.76929C232.602 10.7658 232.411 16.0148 232.304 18.3897C232.73 20.1752 230.847 19.6296 229.85 19.1336V25.6167C229.935 26.8071 231.023 29.6554 231.557 30.9308C231.386 33.3115 230.847 37.4494 230.597 39.2207C231.023 41.4313 222.669 49.7073 218.436 53.5685L219.182 54.2063L221.316 57.1821L222.169 58.3511L225.157 56.6508L227.077 58.3511L230.597 60.9022L231.45 61.646C236.229 57.65 243.611 48.857 246.705 44.9599L251.825 49.9549C264.541 48.5944 270.92 42.0195 272.52 38.9019Z" fill="#C192EE"/>
<path d="M229.993 18.3898V19.3463C230.989 19.8423 232.873 20.3879 232.447 18.6023C232.553 16.2274 232.745 10.9785 232.66 8.98193L229.246 9.08823C229.417 10.4486 227.397 14.6857 226.366 16.6342L229.993 18.3898Z" fill="black"/>
<path d="M222.526 6.64352C222.782 7.83384 216.799 10.3988 213.778 11.5325C213.607 12.7228 217.119 15.2169 218.899 16.3151C223.678 19.2909 227.22 17.555 228.393 16.3151C229.176 16.0041 230.505 14.1043 229.566 8.99343C228.465 8.6487 227.475 8.31215 226.686 8.02518C227.198 4.36908 224.694 3.80934 223.379 3.98647C221.459 3.98647 222.206 5.15558 222.526 6.64352Z" fill="#FFC8DD"/>
<path d="M229.85 25.4554L231.166 30.0254C229.673 29.1397 226.729 27.007 226.899 25.5616C226.65 24.0737 225.129 21.0766 221.032 20.9915C219.379 20.568 217.032 20.3132 215.592 19.6418C216.748 20.6009 218.611 21.6201 221.246 21.9481C222.383 21.8772 224.809 22.4582 225.406 25.3491C225.662 26.4684 226.272 28.5292 226.829 28.6691L227.006 28.6438C226.946 28.677 226.889 28.684 226.829 28.6691L226.26 28.7501C225.69 27.6974 224.531 25.3525 224.446 24.3926C224.126 23.7549 222.846 22.5858 219.432 22.5858C217.44 22.075 214.098 20.6727 213.778 19.5036C212.107 17.6968 209.191 13.4456 209.191 11.1074C208.337 8.76926 206.993 3.32764 209.297 0.691895L222.312 0.904436H239.807C243.562 4.30547 245.211 6.2185 245.568 6.74988C247.275 8.62044 247.915 10.4874 248.021 11.1871C248.277 11.931 247.808 11.8691 247.488 11.6388L244.607 10.3635C243.577 10.0092 241.407 9.30064 241.407 9.30064C241.407 9.30064 239.89 8.9397 238.741 9.19434C237.78 9.40694 237.78 9.51324 237.353 9.30064C236.927 9.61948 233.977 9.0881 232.553 8.76926V8.9818L229.566 9.0881L226.686 8.02529C226.686 7.38761 226.899 7.06877 226.579 5.79336C226.552 5.68712 225.513 4.51801 225.086 4.19917C224.062 3.85907 222.846 4.19917 222.206 4.19917C222.206 4.83685 222.419 5.79337 222.419 6.2185C223.016 6.98373 221.992 7.81269 221.246 8.02529C221.246 8.34413 218.045 9.93832 217.619 10.0446C217.514 10.0704 216.232 10.7886 215.592 10.8949C214.419 11.5326 213.885 11.568 213.778 11.6388C213.778 12.319 215.165 13.5519 215.165 13.5519L220.179 16.9529L224.126 17.9094L227.433 17.0592L228.606 17.6968L229.993 18.3345C230.078 19.0147 230.136 19.1139 230.063 19.0785L229.85 25.4554Z" fill="black"/>
<path d="M231.023 61.1657C230.241 63.4331 226.757 68.0314 219.076 68.2868C217.333 67.7195 215.321 66.2458 221.209 64.8853C223.77 63.8933 227.269 62.2925 220.783 63.8228C219.396 63.8583 217.881 63.4826 222.916 61.6969C224.339 61.0241 227.247 59.4654 227.503 58.615L225.583 56.9143L222.596 58.615L221.743 57.446C219.609 59.1818 215.342 62.7387 215.342 63.079C213.885 63.1495 211.566 62.3563 213.955 58.615L214.807 57.3709C215.266 56.7012 216.065 56.3496 216.872 56.4639L217.049 56.4891L219.609 54.4697L221.743 57.446L222.596 58.615L225.583 56.9143L227.503 58.615L231.023 61.1657Z" fill="#FFC8DD"/>
<path d="M254.955 35.3395C255.544 35.3395 256.022 34.8635 256.022 34.2767C256.022 33.6898 255.544 33.2139 254.955 33.2139C254.366 33.2139 253.888 33.6898 253.888 34.2767C253.888 34.8635 254.366 35.3395 254.955 35.3395Z" fill="#FBFBFB"/>
<path d="M262.209 37.2526C262.798 37.2526 263.276 36.7766 263.276 36.1898C263.276 35.6028 262.798 35.127 262.209 35.127C261.62 35.127 261.142 35.6028 261.142 36.1898C261.142 36.7766 261.62 37.2526 262.209 37.2526Z" fill="#FBFBFB"/>
<path d="M252.395 27.0495C252.984 27.0495 253.461 26.5735 253.461 25.9866C253.461 25.3998 252.984 24.9238 252.395 24.9238C251.806 24.9238 251.328 25.3998 251.328 25.9866C251.328 26.5735 251.806 27.0495 252.395 27.0495Z" fill="#FBFBFB"/>
<path d="M260.075 25.9867C260.664 25.9867 261.142 25.5108 261.142 24.9239C261.142 24.337 260.664 23.8611 260.075 23.8611C259.487 23.8611 259.009 24.337 259.009 24.9239C259.009 25.5108 259.487 25.9867 260.075 25.9867Z" fill="#FBFBFB"/>
<path d="M247.701 20.035C248.29 20.035 248.768 19.5592 248.768 18.9722C248.768 18.3853 248.29 17.9094 247.701 17.9094C247.112 17.9094 246.634 18.3853 246.634 18.9722C246.634 19.5592 247.112 20.035 247.701 20.035Z" fill="#FBFBFB"/>
<path d="M247.701 20.035C248.29 20.035 248.768 19.5592 248.768 18.9722C248.768 18.3853 248.29 17.9094 247.701 17.9094C247.112 17.9094 246.634 18.3853 246.634 18.9722C246.634 19.5592 247.112 20.035 247.701 20.035Z" fill="#FBFBFB"/>
<path d="M243.647 44.6923C244.236 44.6923 244.714 44.2164 244.714 43.6295C244.714 43.0426 244.236 42.5667 243.647 42.5667C243.058 42.5667 242.581 43.0426 242.581 43.6295C242.581 44.2164 243.058 44.6923 243.647 44.6923Z" fill="#FBFBFB"/>
<path d="M237.46 51.7065C238.049 51.7065 238.527 51.2308 238.527 50.644C238.527 50.0567 238.049 49.5811 237.46 49.5811C236.871 49.5811 236.394 50.0567 236.394 50.644C236.394 51.2308 236.871 51.7065 237.46 51.7065Z" fill="#FBFBFB"/>
<path d="M231.06 58.2961C231.648 58.2961 232.126 57.8204 232.126 57.2336C232.126 56.6468 231.648 56.1707 231.06 56.1707C230.471 56.1707 229.993 56.6468 229.993 57.2336C229.993 57.8204 230.471 58.2961 231.06 58.2961Z" fill="#FBFBFB"/>
<path d="M237.46 35.1268C238.049 35.1268 238.527 34.6509 238.527 34.064C238.527 33.4772 238.049 33.0012 237.46 33.0012C236.871 33.0012 236.394 33.4772 236.394 34.064C236.394 34.6509 236.871 35.1268 237.46 35.1268Z" fill="#FBFBFB"/>
<path d="M237.46 25.349C238.049 25.349 238.527 24.8731 238.527 24.2862C238.527 23.6993 238.049 23.2234 237.46 23.2234C236.871 23.2234 236.394 23.6993 236.394 24.2862C236.394 24.8731 236.871 25.349 237.46 25.349Z" fill="#FBFBFB"/>
<path d="M238.527 16.6339C239.116 16.6339 239.594 16.1581 239.594 15.5711C239.594 14.9841 239.116 14.5083 238.527 14.5083C237.938 14.5083 237.46 14.9841 237.46 15.5711C237.46 16.1581 237.938 16.6339 238.527 16.6339Z" fill="#FBFBFB"/>
<path d="M233.834 43.6293C234.423 43.6293 234.9 43.1534 234.9 42.5665C234.9 41.9796 234.423 41.5037 233.834 41.5037C233.245 41.5037 232.767 41.9796 232.767 42.5665C232.767 43.1534 233.245 43.6293 233.834 43.6293Z" fill="#FBFBFB"/>
<path d="M230.633 48.9433C231.222 48.9433 231.7 48.4677 231.7 47.8803C231.7 47.2935 231.222 46.8179 230.633 46.8179C230.044 46.8179 229.566 47.2935 229.566 47.8803C229.566 48.4677 230.044 48.9433 230.633 48.9433Z" fill="#FBFBFB"/>
<path d="M225.299 53.8325C225.888 53.8325 226.366 53.3563 226.366 52.7695C226.366 52.1827 225.888 51.7065 225.299 51.7065C224.711 51.7065 224.233 52.1827 224.233 52.7695C224.233 53.3563 224.711 53.8325 225.299 53.8325Z" fill="#FBFBFB"/>
<path d="M308.234 95.8854C300.894 94.1852 299.06 95.5313 299.06 96.4171C301.79 102.624 299.627 103.68 298.206 103.432C297.583 103.569 297.291 103.851 297.19 104.176C297.043 104.652 297.312 105.22 297.566 105.557C298.505 105.387 301.939 114.485 303.54 119.055C304.564 123.986 307.948 122.101 309.514 120.543C310.538 109.15 309.087 99.3574 308.234 95.8854Z" fill="black"/>
<path d="M252.015 139.142C252.271 138.036 253.615 138.044 254.255 138.185C254.853 138.44 254.931 140.063 254.895 140.842C259.803 141.752 258.309 140.63 261.722 140.205C264.454 139.865 263.073 146.581 262.043 149.982C249.498 150.748 240.245 150.514 237.187 150.301C233.432 148.176 235.623 145.448 237.187 144.35C238.467 144.35 247.605 140.878 252.015 139.142Z" fill="black"/>
<path d="M237.46 149.167L261.783 148.635" stroke="#FBFBFB" stroke-width="3"/>
<path d="M240.874 143.959C240.27 144.738 239.423 146.382 240.874 146.722" stroke="#FBFBFB" stroke-width="3"/>
<path d="M243.81 143.959C243.204 144.738 242.359 146.382 243.81 146.722" stroke="#FBFBFB" stroke-width="3"/>
<path d="M246.797 143.534C246.191 144.313 245.346 145.957 246.797 146.297" stroke="#FBFBFB" stroke-width="3"/>
<path d="M308.837 120.074L306.356 95.9622" stroke="#FBFBFB" stroke-width="3"/>
<path d="M303.354 117.101C304.182 117.639 305.895 118.348 306.119 116.88" stroke="#FBFBFB" stroke-width="3"/>
<path d="M303.119 114.187C303.947 114.724 305.658 115.433 305.882 113.965" stroke="#FBFBFB" stroke-width="3"/>
<path d="M302.453 111.254C303.281 111.792 304.994 112.501 305.219 111.033" stroke="#FBFBFB" stroke-width="3"/>
<path d="M261.83 133.543V140.239L260.823 140.345L259.222 140.876L258.475 141.196H257.729H256.982L256.342 141.089L254.848 140.876C254.763 139.601 254.524 138.49 254.362 138.147L254.315 133.543H261.83Z" fill="#FFC8DD"/>
</g>
<mask id="mask5_2348_1184" style="mask-type:luminance" maskUnits="userSpaceOnUse" x="0" y="10" width="73" height="131">
<path d="M72.9663 10.8948H0V140.558H72.9663V10.8948Z" fill="white"/>
</mask>
<g mask="url(#mask5_2348_1184)">
<path d="M31.4289 44.4796C31.8556 45.3298 36.4426 55.214 34.4158 62.3346C34.7715 62.5472 35.5893 62.9086 36.0159 62.6538C43.0209 60.847 57.3087 57.3606 58.418 57.8712L58.8447 58.615L61.085 63.7162L61.8316 65.3104C59.9824 66.4089 55.4311 68.9667 52.0175 70.4121C48.6037 71.8576 47.0392 72.5731 46.6835 72.7502L46.0435 72.9628C49.7771 73.1398 57.3299 73.3452 57.6714 72.7502V78.9143L44.55 80.9337C40.8394 81.2071 34.4149 81.5144 30.5755 81.2364L31.9623 83.4848C32.14 83.733 32.2396 84.2714 31.2155 84.4413C30.1914 84.6111 11.8005 91.2432 2.73309 94.5376L3.20033 95.1754L29.2293 85.7163C31.2774 85.0363 32.2872 84.1576 32.5362 83.8035L31.2155 81.9967L32.5362 81.5715L44.55 81.2529L55.4714 79.5521H61.3387C63.3015 79.8924 65.4989 78.8438 66.3524 78.2771C68.3152 78.8721 69.0195 79.6587 69.1259 79.9773C73.4783 83.3783 71.7216 91.4558 70.2992 95.0694C66.8856 100.511 45.9063 114.837 35.8432 121.321L28.5892 112.925C17.8362 116.496 10.5254 114.129 8.2141 112.499C2.24025 109.438 2.07098 99.2497 2.73309 94.5376C1.80856 91.1367 0.0661876 83.6547 0.492892 80.9337C0.599574 77.037 0.940946 68.9878 1.45299 67.9676C2.98201 62.2641 6.36009 50.644 7.64018 49.7937C9.91595 46.003 15.7049 38.1877 20.6547 37.2525L24.6016 35.9771C25.5973 38.9174 27.8019 44.3733 28.442 44.7984L28.4439 44.8005C29.404 45.8635 30.9171 47.5385 31.4289 44.4796Z" fill="#C192EE"/>
<path fill-rule="evenodd" clip-rule="evenodd" d="M61.055 63.7164H65.8853H66.541C67.7484 63.6906 68.2976 63.5136 68.4273 63.2603C68.5162 62.9952 68.2052 62.6488 67.7407 62.3059C67.2509 61.9698 66.5849 61.6347 65.9918 61.3784L72.819 61.0597C72.9104 60.9048 72.9538 60.7498 72.9559 60.5954C72.9487 60.3185 72.8288 60.0503 72.6299 59.796C72.3338 59.428 71.8632 59.0769 71.3238 58.7603C70.4935 58.2862 69.5128 57.9187 68.806 57.7123C68.3793 57.372 66.139 57.4292 65.0721 57.4997L62.9388 57.8188L58.885 58.7752L61.055 63.7164Z" fill="#FFC8DD"/>
<path d="M45.7528 28.7744C45.947 31.9924 43.1151 35.769 41.5156 37.3947C33.7048 42.5272 30.0392 32.3995 30.0392 32.3995H25.4076C24.3409 31.7263 22.6127 30.04 24.2342 28.6796C25.8556 27.3192 22.7051 24.641 20.9272 23.4719C20.8205 22.409 21.1192 19.837 23.1674 18.0514L26.261 16.351C27.309 16.8465 29.8027 14.863 30.3147 13.1625C32.946 11.1786 38.9981 8.67746 42.1557 14.5442C45.8181 14.2253 52.1193 15.1818 48.0229 21.5587C48.8407 23.5782 50.0711 27.8294 48.4496 28.6796C47.9162 29.4236 46.6787 30.7627 45.996 30.1676L45.7528 28.7744Z" fill="black"/>
<path fill-rule="evenodd" clip-rule="evenodd" d="M30.077 32.7479C30.0585 32.6408 30.0762 32.5738 30.1392 32.5575C30.9569 32.3449 32.8079 31.6687 32.9786 29.7982C32.2675 29.2313 31.2505 27.6513 32.872 25.8658C34.8988 23.6339 35.9655 24.9092 35.9655 25.2281C36.1078 25.724 36.1789 26.8223 36.1789 27.0349C36.3923 27.5308 37.331 28.4165 39.3792 28.4165C41.3706 28.3764 45.3957 28.2537 45.5664 28.0837C45.6485 28.5209 45.7497 29.2551 45.7548 29.9009C45.721 30.2796 45.6524 30.6627 45.5548 31.0462C45.4465 31.2253 45.3577 31.5002 45.2431 31.8551C45.1452 32.1585 45.0283 32.5205 44.8643 32.9311C44.2794 34.178 43.4928 35.3507 42.7472 36.2954C42.6925 36.3566 42.6366 36.418 42.5795 36.4798C40.3679 38.8748 36.7695 40.2337 33.5813 37.754C33.1903 37.4425 32.8325 37.0967 32.5076 36.7362C31.9161 35.9019 30.9535 34.5113 30.4325 33.5644C30.2409 33.1626 30.1229 32.8671 30.077 32.7479Z" fill="#FFC8DD"/>
<path fill-rule="evenodd" clip-rule="evenodd" d="M24.49 36.1229L24.5489 36.104C25.6233 35.2939 27.3824 33.929 28.5597 32.9155H30.4566C31.0956 34.4719 32.7555 37.7513 34.2894 38.4387C34.0059 38.8934 33.666 39.4561 33.3196 40.0561C32.2991 41.7979 31.1835 43.8897 31.31 44.3939C31.5234 45.2441 30.7766 47.4759 29.0698 45.6693C28.1807 44.4294 26.4029 41.7794 26.4029 41.0992L24.49 36.1229Z" fill="#FFC8DD"/>
<path d="M57.6052 78.8949V72.7307C58.2025 73.666 60.4143 72.4826 61.4451 71.7743C65.8833 68.7985 64.2899 71.3846 62.9388 73.0499C63.536 73.8997 67.3837 72.27 69.2328 71.3491C70.5126 71.8593 68.1302 75.1753 66.7792 76.7695C66.0961 79.0653 60.3787 79.143 57.6052 78.8949Z" fill="#FFC8DD"/>
<path d="M25.8716 50.4314C25.0182 51.1114 28.8939 60.4573 31.6321 64.6731C32.5708 68.839 41.3547 71.6166 46.0841 72.9627H57.4984H57.6053M10.8302 55.32C9.72078 56.3403 14.5639 65.1688 17.1241 69.4557C21.6472 77.788 29.336 81.3589 32.963 81.0402L44.484 80.615L57.4984 78.8083H57.6053" stroke="#C192EE" stroke-width="3"/>
<path d="M7.14307 112.453C1.0472 109.34 1.67133 99.4377 2.34695 94.6443L2.56031 93.9005L2.66698 94.5378L28.5873 85.2073C30.6775 84.5155 31.5104 83.8144 31.8962 83.3784L31.2561 82.3154L30.6161 81.253L32.4296 81.359L44.2211 80.6667L55.3655 78.9366H61.3527C63.3553 79.2825 65.5976 78.2159 66.4687 77.6394C68.4718 78.2448 69.19 79.0447 69.299 79.369C73.7403 82.8292 71.948 91.0462 70.4966 94.722C67.5258 100.277 46.1118 114.725 35.8432 121.321L34.6804 120.67L27.9491 113.137C16.9615 116.644 9.50155 114.111 7.14307 112.453Z" fill="black"/>
<path d="M27.5225 112.287L48.7509 97.6201" stroke="black"/>
<path d="M35.6297 115.949C40.8924 111.13 53.1458 99.8364 60.0583 93.2043C66.9708 86.5723 50.9199 90.4412 42.0302 93.2043C32.5361 96.1554 16.3853 107.568 14.5078 101.446" stroke="black"/>
<path d="M32.5362 120.95L32.9629 121.693L34.563 121.375L38.0833 129.664C37.998 129.835 41.5323 131.578 43.3104 132.428C45.1879 133.278 44.6616 134.979 44.1638 135.723C44.0785 136.148 41.7813 136.183 40.6435 136.148C40.1982 136.049 39.8987 136.279 39.7118 136.573C39.5763 136.786 39.5 137.032 39.4701 137.211C39.0788 137.848 37.8913 138.996 36.2698 138.486C34.2073 138.486 29.9333 138.295 29.3359 137.529C27.9134 136.821 25.0688 135.191 25.0688 134.341C24.3931 133.03 22.9567 130.451 22.6153 130.621C21.5485 129.275 19.1163 126.434 17.9215 125.838C16.9886 124.492 15.3199 121.545 16.108 120.524L17.0681 118.824C17.3242 116.868 21.584 115.954 23.6821 115.742C24.0234 115.147 25.8866 114.573 26.7756 114.36C29.2505 113.595 29.0159 114.183 28.5891 114.573C27.4797 114.998 25.851 115.742 25.1755 116.06C26.7116 116.145 26.4556 117.796 26.1356 118.611C25.3675 119.121 27.3091 121.8 28.3758 123.075H29.9759L32.5362 120.95Z" fill="black"/>
<path d="M28.8025 113.987H29.0159L35.2031 121.002L35.8431 121.321H34.7764H34.4564L32.9629 121.639L32.6429 120.896H32.4295L32.3228 121.108L29.976 123.021H28.3758L26.8823 120.896C26.1143 120.045 26.0646 119.124 26.1357 118.77C26.477 118.26 26.4913 117.495 26.4557 117.175C26.4557 116.495 25.7445 116.113 25.3889 116.006L27.2024 115.157L28.2691 114.731C29.1226 114.476 28.9803 114.129 28.8025 113.987Z" fill="#FFC8DD"/>
<path d="M20.4738 126.795C17.2309 124.925 16.349 121.197 16.3135 119.568L15.3534 121.268C14.5652 122.289 16.234 125.236 17.1669 126.583C18.3617 127.178 20.7939 130.019 21.8606 131.365C22.202 131.195 23.6385 133.774 24.3142 135.085C24.3142 135.935 27.1588 137.565 28.5812 138.273C29.1786 139.039 33.4527 139.23 35.5151 139.23C37.1366 139.74 38.3244 138.592 38.7154 137.955L36.0485 138.273C32.2935 138.954 27.6567 136.077 25.8076 134.554C23.8448 129.792 21.4339 127.397 20.4738 126.795Z" fill="#C192EE"/>
<path d="M30.6159 130.886L28.3757 123.34L29.9758 123.128H30.1892L33.1761 130.142L30.6159 130.886Z" fill="black"/>
<path d="M35.7365 129.61C35.1813 128.867 33.8163 124.403 32.9629 121.746L33.3896 121.639L33.8163 121.533L34.563 121.321C35.2031 122.596 37.1232 127.485 38.0833 129.717L35.7365 130.248V129.61Z" fill="black"/>
<path d="M43.7373 135.881L40.6458 136.118C40.0273 136.166 39.5319 136.648 39.4702 137.263L42.3504 137.05C43.7159 136.54 43.8439 136.058 43.7373 135.881Z" fill="#C192EE"/>
<path d="M65.9256 72.6648L64.4324 73.196C65.1149 72.6859 64.6101 62.7882 64.0056 57.793L61.9788 51.6211C63.088 53.3213 63.863 56.8011 64.0056 57.793C64.6029 58.473 65.6765 67.9177 65.9256 72.6648Z" fill="#C192EE"/>
<path d="M64.0058 57.7929C62.5834 58.6433 58.6505 59.2096 56.4314 55.5533C57.5696 54.5613 61.1042 54.392 64.0058 57.7929C64.0058 57.7929 63.0882 53.3213 61.9789 51.621C58.6505 53.8314 55.2581 50.3455 54.4045 48.3261C58.4159 46.7108 61.3387 50.0269 61.9789 51.621C62.8324 47.2848 66.1747 46.4488 67.9526 46.9445L67.4194 48.8578C67.1631 51.1531 63.6854 51.6566 61.9789 51.621C63.0882 53.3213 64.0058 57.7929 64.0058 57.7929C64.788 56.0217 66.6723 51.8125 70.0859 53.0026C70.2285 54.3842 68.8702 57.4527 64.0058 57.7929Z" fill="#C192EE"/>
</g>
<mask id="mask6_2348_1184" style="mask-type:luminance" maskUnits="userSpaceOnUse" x="156" y="68" width="28" height="36">
<path d="M183.8 73.1395L163.756 68.1248L156.033 98.7639L176.078 103.779L183.8 73.1395Z" fill="white"/>
</mask>
<g mask="url(#mask6_2348_1184)">
<path d="M172.436 73.0591C172.918 72.307 174.183 70.9949 175.39 71.7624C175.298 72.515 174.578 73.8276 172.436 73.0591Z" fill="#93AAFB"/>
<path d="M178.63 73.9636C179.112 73.2116 180.376 71.8995 181.584 72.667C181.491 73.4195 180.772 74.7322 178.63 73.9636Z" fill="#93AAFB"/>
<path d="M179.106 77.8633C179.588 77.1113 180.853 75.7991 182.06 76.5666C181.968 77.3192 181.248 78.6318 179.106 77.8633Z" fill="#93AAFB"/>
<path d="M174.164 76.627C174.646 75.8749 175.91 74.5628 177.118 75.3303C177.026 76.0829 176.306 77.3955 174.164 76.627Z" fill="#93AAFB"/>
<path d="M175.053 80.0484C175.535 79.2963 176.8 77.9842 178.007 78.7517C177.915 79.5037 177.195 80.8169 175.053 80.0484Z" fill="#93AAFB"/>
<path d="M178.621 82.1043C179.103 81.3522 180.368 80.0401 181.576 80.8076C181.483 81.5602 180.763 82.8728 178.621 82.1043Z" fill="#93AAFB"/>
<path d="M175.409 86.068C175.48 85.179 175.979 83.4289 177.407 83.5421C177.679 84.2494 177.662 85.7453 175.409 86.068Z" fill="#93AAFB"/>
<path d="M172.115 84.0809C172.186 83.1914 172.685 81.4418 174.113 81.5545C174.386 82.2623 174.369 83.7582 172.115 84.0809Z" fill="#93AAFB"/>
<path d="M170.114 79.0062C170.6 78.2572 171.872 76.9523 173.076 77.727C172.978 78.4785 172.251 79.787 170.114 79.0062Z" fill="#93AAFB"/>
<path d="M168.52 75.7786C168.822 74.939 169.764 73.3803 171.112 73.8627C171.19 74.6168 170.779 76.0555 168.52 75.7786Z" fill="#93AAFB"/>
<path d="M165.21 79.2789C165.512 78.4394 166.454 76.8807 167.802 77.3625C167.879 78.1166 167.469 79.5559 165.21 79.2789Z" fill="#93AAFB"/>
<path d="M166.991 82.6329C167.294 81.7934 168.235 80.2347 169.584 80.7165C169.661 81.4706 169.251 82.9093 166.991 82.6329Z" fill="#93AAFB"/>
<path d="M169.487 89.172C169.35 88.2903 169.43 86.4732 170.846 86.2544C171.275 86.8803 171.605 88.3397 169.487 89.172Z" fill="#93AAFB"/>
<path d="M164.82 88.0041C164.682 87.1228 164.762 85.3052 166.177 85.0864C166.607 85.7124 166.937 87.1717 164.82 88.0041Z" fill="#93AAFB"/>
<path d="M162.832 84.308C162.695 83.4262 162.775 81.6092 164.19 81.3904C164.62 82.0163 164.949 83.4756 162.832 84.308Z" fill="#93AAFB"/>
<path d="M159.53 90.4613C159.392 89.5796 159.473 87.762 160.888 87.5437C161.318 88.1691 161.647 89.629 159.53 90.4613Z" fill="#93AAFB"/>
<path d="M161.448 94.4308C161.311 93.5495 161.391 91.7319 162.806 91.5137C163.236 92.1391 163.566 93.5989 161.448 94.4308Z" fill="#93AAFB"/>
<path d="M165.98 94.9831C165.842 94.1013 165.922 92.2842 167.337 92.0654C167.767 92.6914 168.097 94.1507 165.98 94.9831Z" fill="#93AAFB"/>
<path d="M171.952 95.6049C171.815 94.7236 171.895 92.906 173.311 92.6873C173.74 93.3132 174.07 94.7725 171.952 95.6049Z" fill="#93AAFB"/>
<path d="M170.024 100.939C169.887 100.057 169.967 98.2398 171.382 98.021C171.812 98.6469 172.141 100.106 170.024 100.939Z" fill="#93AAFB"/>
<path d="M164.257 100.659C164.12 99.7773 164.2 97.9602 165.615 97.7415C166.045 98.3674 166.374 99.8267 164.257 100.659Z" fill="#93AAFB"/>
<path d="M159.315 99.4222C159.177 98.541 159.257 96.7234 160.672 96.5051C161.102 97.1306 161.432 98.5904 159.315 99.4222Z" fill="#93AAFB"/>
<path d="M173.606 90.2025C173.469 89.3208 173.549 87.5032 174.964 87.2849C175.394 87.9103 175.723 89.3702 173.606 90.2025Z" fill="#93AAFB"/>
</g>
</g>
</svg>
