<svg width="343" height="50" viewBox="0 0 343 50" fill="none" xmlns="http://www.w3.org/2000/svg">
<rect width="343" height="50" rx="10" fill="#F0F0F4"/>
<path d="M65.645 30H64.295V25.005H58.805V30H57.455V19.29H58.805V23.82H64.295V19.29H65.645V30ZM71.4382 21.825C72.4182 21.825 73.1432 22.04 73.6132 22.47C74.0832 22.9 74.3182 23.585 74.3182 24.525V30H73.3582L73.1032 28.86H73.0432C72.8132 29.15 72.5732 29.395 72.3232 29.595C72.0832 29.785 71.8032 29.925 71.4832 30.015C71.1732 30.105 70.7932 30.15 70.3432 30.15C69.8632 30.15 69.4282 30.065 69.0382 29.895C68.6582 29.725 68.3582 29.465 68.1382 29.115C67.9182 28.755 67.8082 28.305 67.8082 27.765C67.8082 26.965 68.1232 26.35 68.7532 25.92C69.3832 25.48 70.3532 25.24 71.6632 25.2L73.0282 25.155V24.675C73.0282 24.005 72.8832 23.54 72.5932 23.28C72.3032 23.02 71.8932 22.89 71.3632 22.89C70.9432 22.89 70.5432 22.955 70.1632 23.085C69.7832 23.205 69.4282 23.345 69.0982 23.505L68.6932 22.515C69.0432 22.325 69.4582 22.165 69.9382 22.035C70.4182 21.895 70.9182 21.825 71.4382 21.825ZM71.8282 26.115C70.8282 26.155 70.1332 26.315 69.7432 26.595C69.3632 26.875 69.1732 27.27 69.1732 27.78C69.1732 28.23 69.3082 28.56 69.5782 28.77C69.8582 28.98 70.2132 29.085 70.6432 29.085C71.3232 29.085 71.8882 28.9 72.3382 28.53C72.7882 28.15 73.0132 27.57 73.0132 26.79V26.07L71.8282 26.115ZM80.0264 30.15C79.3164 30.15 78.6814 30.005 78.1214 29.715C77.5714 29.425 77.1364 28.975 76.8164 28.365C76.5064 27.755 76.3514 26.975 76.3514 26.025C76.3514 25.035 76.5164 24.23 76.8464 23.61C77.1764 22.99 77.6214 22.535 78.1814 22.245C78.7514 21.955 79.3964 21.81 80.1164 21.81C80.5264 21.81 80.9214 21.855 81.3014 21.945C81.6814 22.025 81.9914 22.125 82.2314 22.245L81.8264 23.34C81.5864 23.25 81.3064 23.165 80.9864 23.085C80.6664 23.005 80.3664 22.965 80.0864 22.965C79.5464 22.965 79.1014 23.08 78.7514 23.31C78.4014 23.54 78.1414 23.88 77.9714 24.33C77.8014 24.78 77.7164 25.34 77.7164 26.01C77.7164 26.65 77.8014 27.195 77.9714 27.645C78.1414 28.095 78.3964 28.435 78.7364 28.665C79.0764 28.895 79.5014 29.01 80.0114 29.01C80.4514 29.01 80.8364 28.965 81.1664 28.875C81.5064 28.785 81.8164 28.675 82.0964 28.545V29.715C81.8264 29.855 81.5264 29.96 81.1964 30.03C80.8764 30.11 80.4864 30.15 80.0264 30.15ZM89.5584 23.07H86.9334V30H85.6284V23.07H83.0334V21.96H89.5584V23.07ZM94.9672 21.81C95.9572 21.81 96.7522 22.155 97.3522 22.845C97.9622 23.535 98.2672 24.575 98.2672 25.965C98.2672 26.875 98.1272 27.645 97.8472 28.275C97.5772 28.895 97.1922 29.365 96.6922 29.685C96.2022 29.995 95.6222 30.15 94.9522 30.15C94.5422 30.15 94.1772 30.095 93.8572 29.985C93.5372 29.875 93.2622 29.735 93.0322 29.565C92.8122 29.385 92.6222 29.19 92.4622 28.98H92.3722C92.3922 29.15 92.4122 29.365 92.4322 29.625C92.4522 29.885 92.4622 30.11 92.4622 30.3V33.6H91.1422V21.96H92.2222L92.4022 23.055H92.4622C92.6222 22.825 92.8122 22.615 93.0322 22.425C93.2622 22.235 93.5322 22.085 93.8422 21.975C94.1622 21.865 94.5372 21.81 94.9672 21.81ZM94.7272 22.92C94.1872 22.92 93.7522 23.025 93.4222 23.235C93.0922 23.435 92.8522 23.74 92.7022 24.15C92.5522 24.56 92.4722 25.08 92.4622 25.71V25.965C92.4622 26.625 92.5322 27.185 92.6722 27.645C92.8122 28.105 93.0472 28.455 93.3772 28.695C93.7172 28.935 94.1772 29.055 94.7572 29.055C95.2472 29.055 95.6472 28.92 95.9572 28.65C96.2772 28.38 96.5122 28.015 96.6622 27.555C96.8222 27.085 96.9022 26.55 96.9022 25.95C96.9022 25.03 96.7222 24.295 96.3622 23.745C96.0122 23.195 95.4672 22.92 94.7272 22.92ZM107.361 25.965C107.361 26.635 107.271 27.23 107.091 27.75C106.921 28.26 106.671 28.695 106.341 29.055C106.021 29.415 105.626 29.69 105.156 29.88C104.696 30.06 104.181 30.15 103.611 30.15C103.081 30.15 102.591 30.06 102.141 29.88C101.691 29.69 101.301 29.415 100.971 29.055C100.641 28.695 100.381 28.26 100.191 27.75C100.011 27.23 99.9207 26.635 99.9207 25.965C99.9207 25.075 100.071 24.325 100.371 23.715C100.671 23.095 101.101 22.625 101.661 22.305C102.221 21.975 102.886 21.81 103.656 21.81C104.386 21.81 105.026 21.975 105.576 22.305C106.136 22.625 106.571 23.095 106.881 23.715C107.201 24.325 107.361 25.075 107.361 25.965ZM101.286 25.965C101.286 26.595 101.366 27.145 101.526 27.615C101.696 28.075 101.956 28.43 102.306 28.68C102.656 28.93 103.101 29.055 103.641 29.055C104.181 29.055 104.626 28.93 104.976 28.68C105.326 28.43 105.581 28.075 105.741 27.615C105.911 27.145 105.996 26.595 105.996 25.965C105.996 25.325 105.911 24.78 105.741 24.33C105.571 23.88 105.311 23.535 104.961 23.295C104.621 23.045 104.176 22.92 103.626 22.92C102.806 22.92 102.211 23.19 101.841 23.73C101.471 24.27 101.286 25.015 101.286 25.965ZM115.963 18.63C115.923 19.13 115.798 19.55 115.588 19.89C115.388 20.23 115.088 20.485 114.688 20.655C114.288 20.825 113.768 20.91 113.128 20.91C112.478 20.91 111.953 20.825 111.553 20.655C111.163 20.485 110.878 20.235 110.698 19.905C110.518 19.565 110.408 19.14 110.368 18.63H111.598C111.648 19.17 111.788 19.535 112.018 19.725C112.258 19.905 112.638 19.995 113.158 19.995C113.618 19.995 113.978 19.9 114.238 19.71C114.508 19.51 114.668 19.15 114.718 18.63H115.963ZM110.698 26.865C110.698 26.955 110.693 27.085 110.683 27.255C110.683 27.415 110.678 27.59 110.668 27.78C110.658 27.96 110.648 28.135 110.638 28.305C110.628 28.465 110.618 28.595 110.608 28.695L114.913 21.96H116.533V30H115.303V25.26C115.303 25.1 115.303 24.89 115.303 24.63C115.313 24.37 115.323 24.115 115.333 23.865C115.343 23.605 115.353 23.41 115.363 23.28L111.088 30H109.453V21.96H110.698V26.865ZM123.846 21.96H125.286L121.851 25.83L125.571 30H124.041L120.411 25.92V30H119.091V21.96H120.411V25.86L123.846 21.96ZM128.276 26.865C128.276 26.955 128.271 27.085 128.261 27.255C128.261 27.415 128.256 27.59 128.246 27.78C128.236 27.96 128.226 28.135 128.216 28.305C128.206 28.465 128.196 28.595 128.186 28.695L132.491 21.96H134.111V30H132.881V25.26C132.881 25.1 132.881 24.89 132.881 24.63C132.891 24.37 132.901 24.115 132.911 23.865C132.921 23.605 132.931 23.41 132.941 23.28L128.666 30H127.031V21.96H128.276V26.865ZM147.962 21.96V30H146.642V23.085H142.487V30H141.167V21.96H147.962ZM154.352 21.81C155.342 21.81 156.137 22.155 156.737 22.845C157.347 23.535 157.652 24.575 157.652 25.965C157.652 26.875 157.512 27.645 157.232 28.275C156.962 28.895 156.577 29.365 156.077 29.685C155.587 29.995 155.007 30.15 154.337 30.15C153.927 30.15 153.562 30.095 153.242 29.985C152.922 29.875 152.647 29.735 152.417 29.565C152.197 29.385 152.007 29.19 151.847 28.98H151.757C151.777 29.15 151.797 29.365 151.817 29.625C151.837 29.885 151.847 30.11 151.847 30.3V33.6H150.527V21.96H151.607L151.787 23.055H151.847C152.007 22.825 152.197 22.615 152.417 22.425C152.647 22.235 152.917 22.085 153.227 21.975C153.547 21.865 153.922 21.81 154.352 21.81ZM154.112 22.92C153.572 22.92 153.137 23.025 152.807 23.235C152.477 23.435 152.237 23.74 152.087 24.15C151.937 24.56 151.857 25.08 151.847 25.71V25.965C151.847 26.625 151.917 27.185 152.057 27.645C152.197 28.105 152.432 28.455 152.762 28.695C153.102 28.935 153.562 29.055 154.142 29.055C154.632 29.055 155.032 28.92 155.342 28.65C155.662 28.38 155.897 28.015 156.047 27.555C156.207 27.085 156.287 26.55 156.287 25.95C156.287 25.03 156.107 24.295 155.747 23.745C155.397 23.195 154.852 22.92 154.112 22.92ZM166.745 25.965C166.745 26.635 166.655 27.23 166.475 27.75C166.305 28.26 166.055 28.695 165.725 29.055C165.405 29.415 165.01 29.69 164.54 29.88C164.08 30.06 163.565 30.15 162.995 30.15C162.465 30.15 161.975 30.06 161.525 29.88C161.075 29.69 160.685 29.415 160.355 29.055C160.025 28.695 159.765 28.26 159.575 27.75C159.395 27.23 159.305 26.635 159.305 25.965C159.305 25.075 159.455 24.325 159.755 23.715C160.055 23.095 160.485 22.625 161.045 22.305C161.605 21.975 162.27 21.81 163.04 21.81C163.77 21.81 164.41 21.975 164.96 22.305C165.52 22.625 165.955 23.095 166.265 23.715C166.585 24.325 166.745 25.075 166.745 25.965ZM160.67 25.965C160.67 26.595 160.75 27.145 160.91 27.615C161.08 28.075 161.34 28.43 161.69 28.68C162.04 28.93 162.485 29.055 163.025 29.055C163.565 29.055 164.01 28.93 164.36 28.68C164.71 28.43 164.965 28.075 165.125 27.615C165.295 27.145 165.38 26.595 165.38 25.965C165.38 25.325 165.295 24.78 165.125 24.33C164.955 23.88 164.695 23.535 164.345 23.295C164.005 23.045 163.56 22.92 163.01 22.92C162.19 22.92 161.595 23.19 161.225 23.73C160.855 24.27 160.67 25.015 160.67 25.965ZM173.638 21.84C174.438 21.91 175.133 22.12 175.723 22.47C176.323 22.82 176.788 23.29 177.118 23.88C177.448 24.47 177.613 25.17 177.613 25.98C177.613 26.79 177.453 27.495 177.133 28.095C176.813 28.685 176.358 29.155 175.768 29.505C175.178 29.845 174.468 30.05 173.638 30.12V33.6H172.348V30.12C171.558 30.05 170.863 29.845 170.263 29.505C169.663 29.155 169.198 28.685 168.868 28.095C168.538 27.495 168.373 26.79 168.373 25.98C168.373 25.16 168.533 24.455 168.853 23.865C169.173 23.265 169.633 22.795 170.233 22.455C170.833 22.105 171.553 21.9 172.393 21.84V18.6H173.638V21.84ZM172.393 22.935C171.783 22.995 171.283 23.15 170.893 23.4C170.503 23.65 170.213 23.99 170.023 24.42C169.843 24.85 169.753 25.37 169.753 25.98C169.753 26.58 169.843 27.1 170.023 27.54C170.213 27.97 170.503 28.315 170.893 28.575C171.283 28.825 171.783 28.98 172.393 29.04V22.935ZM173.638 29.04C174.238 28.97 174.728 28.81 175.108 28.56C175.498 28.31 175.783 27.97 175.963 27.54C176.153 27.1 176.248 26.58 176.248 25.98C176.248 25.38 176.153 24.865 175.963 24.435C175.773 24.005 175.483 23.665 175.093 23.415C174.713 23.165 174.228 23.01 173.638 22.95V29.04ZM180.952 26.865C180.952 26.955 180.947 27.085 180.937 27.255C180.937 27.415 180.932 27.59 180.922 27.78C180.912 27.96 180.902 28.135 180.892 28.305C180.882 28.465 180.872 28.595 180.862 28.695L185.167 21.96H186.787V30H185.557V25.26C185.557 25.1 185.557 24.89 185.557 24.63C185.567 24.37 185.577 24.115 185.587 23.865C185.597 23.605 185.607 23.41 185.617 23.28L181.342 30H179.707V21.96H180.952V26.865ZM195.465 30H194.13V23.055H191.76C191.66 24.325 191.535 25.41 191.385 26.31C191.235 27.2 191.045 27.925 190.815 28.485C190.585 29.045 190.31 29.455 189.99 29.715C189.67 29.975 189.295 30.105 188.865 30.105C188.735 30.105 188.605 30.095 188.475 30.075C188.355 30.065 188.255 30.04 188.175 30V29.01C188.235 29.03 188.3 29.045 188.37 29.055C188.44 29.065 188.51 29.07 188.58 29.07C188.8 29.07 189 28.98 189.18 28.8C189.36 28.62 189.52 28.345 189.66 27.975C189.81 27.605 189.945 27.14 190.065 26.58C190.185 26.01 190.29 25.34 190.38 24.57C190.47 23.8 190.55 22.93 190.62 21.96H195.465V30ZM198.512 30H196.982L199.277 26.625C198.967 26.545 198.667 26.42 198.377 26.25C198.087 26.07 197.852 25.825 197.672 25.515C197.492 25.195 197.402 24.8 197.402 24.33C197.402 23.56 197.662 22.975 198.182 22.575C198.702 22.165 199.392 21.96 200.252 21.96H203.852V30H202.532V26.805H200.582L198.512 30ZM198.677 24.345C198.677 24.805 198.847 25.15 199.187 25.38C199.537 25.6 200.022 25.71 200.642 25.71H202.532V23.055H200.387C199.777 23.055 199.337 23.175 199.067 23.415C198.807 23.655 198.677 23.965 198.677 24.345Z" fill="black"/>
<path d="M38.2024 35.139C38.2024 35.1385 38.2023 35.138 38.202 35.1375L37.924 34.6385C37.0843 33.1315 34.9165 33.1315 34.0768 34.6385L33.7984 35.1382C33.5995 35.4949 33.2721 35.7551 32.8882 35.8618C32.5043 35.9685 32.0953 35.9129 31.7509 35.7072L29.1514 34.1525C28.8069 33.9463 28.5555 33.6067 28.4525 33.2085C28.3496 32.8102 28.4035 32.3858 28.6024 32.0287L28.9406 31.4217C29.7762 29.9219 28.6919 28.0766 26.9751 28.0766H26.4004C26.0026 28.0766 25.621 27.9128 25.3397 27.6212C25.0584 27.3296 24.9004 26.9342 24.9004 26.5218V23.4123C24.9004 23 25.0584 22.6046 25.3397 22.313C25.621 22.0214 26.0026 21.8576 26.4004 21.8576H26.9751C28.6919 21.8576 29.7762 20.0122 28.9406 18.5125L28.6024 17.9055C28.5037 17.7286 28.4396 17.5333 28.4137 17.3307C28.3879 17.1281 28.4008 16.9222 28.4518 16.7248C28.5028 16.5274 28.5908 16.3424 28.7109 16.1803C28.8309 16.0182 28.9806 15.8822 29.1514 15.7801L31.7494 14.2254C32.0939 14.0192 32.5033 13.9634 32.8876 14.0701C33.2718 14.1768 33.5995 14.4373 33.7984 14.7944L34.0354 15.2199C34.8931 16.7599 37.1083 16.7603 37.9664 15.2205L38.2039 14.7944C38.4028 14.4378 38.7302 14.1775 39.1141 14.0708C39.498 13.9641 39.907 14.0197 40.2514 14.2254L42.8509 15.7801C43.195 15.9863 43.4461 16.3256 43.549 16.7235C43.652 17.1214 43.5983 17.5454 43.3999 17.9023L43.0599 18.5126C42.2244 20.0123 43.3087 21.8576 45.0255 21.8576H45.6004C45.9982 21.8576 46.3797 22.0214 46.6611 22.313C46.9424 22.6046 47.1004 23 47.1004 23.4123V26.5218C47.1004 26.9342 46.9424 27.3296 46.6611 27.6212C46.3797 27.9128 45.9982 28.0766 45.6004 28.0766H45.0249C43.3083 28.0766 42.224 29.9216 43.0593 31.4214L43.3984 32.0303C43.5973 32.3874 43.6512 32.8117 43.5482 33.21C43.4453 33.6083 43.1939 33.9479 42.8494 34.1541L40.2514 35.7088C39.9069 35.915 39.4975 35.9708 39.1132 35.8641C38.7292 35.7575 38.4017 35.4972 38.2028 35.1404C38.2025 35.14 38.2024 35.1395 38.2024 35.139V35.139Z" stroke="#DB66E4" stroke-width="1.5" stroke-linejoin="round"/>
<circle cx="36" cy="25" r="3.75" stroke="#DB66E4" stroke-width="1.5"/>
<path d="M296.382 21.2092L295.454 22.0489L299.392 25.6113H282.278V26.7988H299.392L295.454 30.3611L296.382 31.2008L301.904 26.205L296.382 21.2092Z" fill="black"/>
</svg>
