<svg width="343" height="50" viewBox="0 0 343 50" fill="none" xmlns="http://www.w3.org/2000/svg">
<rect x="0.5" y="0.5" width="342" height="49" rx="9.5" fill="#F0F0F4"/>
<path d="M57.47 19.29H58.73V25.17C58.73 25.42 58.725 25.695 58.715 25.995C58.715 26.285 58.71 26.575 58.7 26.865C58.69 27.155 58.675 27.415 58.655 27.645C58.645 27.865 58.635 28.035 58.625 28.155H58.685L64.58 19.29H66.08V30H64.82V24.18C64.82 23.91 64.825 23.62 64.835 23.31C64.845 22.99 64.855 22.685 64.865 22.395C64.885 22.095 64.9 21.83 64.91 21.6C64.92 21.37 64.93 21.2 64.94 21.09H64.88L58.97 30H57.47V19.29ZM72.0137 30.15C71.3037 30.15 70.6687 30.005 70.1087 29.715C69.5587 29.425 69.1237 28.975 68.8037 28.365C68.4937 27.755 68.3387 26.975 68.3387 26.025C68.3387 25.035 68.5037 24.23 68.8337 23.61C69.1637 22.99 69.6087 22.535 70.1687 22.245C70.7387 21.955 71.3837 21.81 72.1037 21.81C72.5137 21.81 72.9087 21.855 73.2887 21.945C73.6687 22.025 73.9787 22.125 74.2187 22.245L73.8137 23.34C73.5737 23.25 73.2937 23.165 72.9737 23.085C72.6537 23.005 72.3537 22.965 72.0737 22.965C71.5337 22.965 71.0887 23.08 70.7387 23.31C70.3887 23.54 70.1287 23.88 69.9587 24.33C69.7887 24.78 69.7037 25.34 69.7037 26.01C69.7037 26.65 69.7887 27.195 69.9587 27.645C70.1287 28.095 70.3837 28.435 70.7237 28.665C71.0637 28.895 71.4887 29.01 71.9987 29.01C72.4387 29.01 72.8237 28.965 73.1537 28.875C73.4937 28.785 73.8037 28.675 74.0837 28.545V29.715C73.8137 29.855 73.5137 29.96 73.1837 30.03C72.8637 30.11 72.4737 30.15 72.0137 30.15ZM81.5457 23.07H78.9207V30H77.6157V23.07H75.0207V21.96H81.5457V23.07ZM89.973 25.965C89.973 26.635 89.883 27.23 89.703 27.75C89.533 28.26 89.283 28.695 88.953 29.055C88.633 29.415 88.238 29.69 87.768 29.88C87.308 30.06 86.793 30.15 86.223 30.15C85.693 30.15 85.203 30.06 84.753 29.88C84.303 29.69 83.913 29.415 83.583 29.055C83.253 28.695 82.993 28.26 82.803 27.75C82.623 27.23 82.533 26.635 82.533 25.965C82.533 25.075 82.683 24.325 82.983 23.715C83.283 23.095 83.713 22.625 84.273 22.305C84.833 21.975 85.498 21.81 86.268 21.81C86.998 21.81 87.638 21.975 88.188 22.305C88.748 22.625 89.183 23.095 89.493 23.715C89.813 24.325 89.973 25.075 89.973 25.965ZM83.898 25.965C83.898 26.595 83.978 27.145 84.138 27.615C84.308 28.075 84.568 28.43 84.918 28.68C85.268 28.93 85.713 29.055 86.253 29.055C86.793 29.055 87.238 28.93 87.588 28.68C87.938 28.43 88.193 28.075 88.353 27.615C88.523 27.145 88.608 26.595 88.608 25.965C88.608 25.325 88.523 24.78 88.353 24.33C88.183 23.88 87.923 23.535 87.573 23.295C87.233 23.045 86.788 22.92 86.238 22.92C85.418 22.92 84.823 23.19 84.453 23.73C84.083 24.27 83.898 25.015 83.898 25.965ZM95.89 21.81C96.88 21.81 97.675 22.155 98.275 22.845C98.885 23.535 99.19 24.575 99.19 25.965C99.19 26.875 99.05 27.645 98.77 28.275C98.5 28.895 98.115 29.365 97.615 29.685C97.125 29.995 96.545 30.15 95.875 30.15C95.465 30.15 95.1 30.095 94.78 29.985C94.46 29.875 94.185 29.735 93.955 29.565C93.735 29.385 93.545 29.19 93.385 28.98H93.295C93.315 29.15 93.335 29.365 93.355 29.625C93.375 29.885 93.385 30.11 93.385 30.3V33.6H92.065V21.96H93.145L93.325 23.055H93.385C93.545 22.825 93.735 22.615 93.955 22.425C94.185 22.235 94.455 22.085 94.765 21.975C95.085 21.865 95.46 21.81 95.89 21.81ZM95.65 22.92C95.11 22.92 94.675 23.025 94.345 23.235C94.015 23.435 93.775 23.74 93.625 24.15C93.475 24.56 93.395 25.08 93.385 25.71V25.965C93.385 26.625 93.455 27.185 93.595 27.645C93.735 28.105 93.97 28.455 94.3 28.695C94.64 28.935 95.1 29.055 95.68 29.055C96.17 29.055 96.57 28.92 96.88 28.65C97.2 28.38 97.435 28.015 97.585 27.555C97.745 27.085 97.825 26.55 97.825 25.95C97.825 25.03 97.645 24.295 97.285 23.745C96.935 23.195 96.39 22.92 95.65 22.92ZM102.539 26.865C102.539 26.955 102.534 27.085 102.524 27.255C102.524 27.415 102.519 27.59 102.509 27.78C102.499 27.96 102.489 28.135 102.479 28.305C102.469 28.465 102.459 28.595 102.449 28.695L106.754 21.96H108.374V30H107.144V25.26C107.144 25.1 107.144 24.89 107.144 24.63C107.154 24.37 107.164 24.115 107.174 23.865C107.184 23.605 107.194 23.41 107.204 23.28L102.929 30H101.294V21.96H102.539V26.865ZM111.427 30H109.897L112.192 26.625C111.882 26.545 111.582 26.42 111.292 26.25C111.002 26.07 110.767 25.825 110.587 25.515C110.407 25.195 110.317 24.8 110.317 24.33C110.317 23.56 110.577 22.975 111.097 22.575C111.617 22.165 112.307 21.96 113.167 21.96H116.767V30H115.447V26.805H113.497L111.427 30ZM111.592 24.345C111.592 24.805 111.762 25.15 112.102 25.38C112.452 25.6 112.937 25.71 113.557 25.71H115.447V23.055H113.302C112.692 23.055 112.252 23.175 111.982 23.415C111.722 23.655 111.592 23.965 111.592 24.345ZM125.923 21.81C126.533 21.81 127.063 21.895 127.513 22.065C127.963 22.225 128.313 22.465 128.563 22.785C128.813 23.095 128.938 23.475 128.938 23.925C128.938 24.415 128.803 24.805 128.533 25.095C128.263 25.375 127.893 25.58 127.423 25.71V25.77C127.743 25.86 128.038 25.985 128.308 26.145C128.578 26.305 128.793 26.515 128.953 26.775C129.123 27.035 129.208 27.37 129.208 27.78C129.208 28.22 129.083 28.62 128.833 28.98C128.593 29.34 128.218 29.625 127.708 29.835C127.208 30.045 126.563 30.15 125.773 30.15C125.393 30.15 125.028 30.13 124.678 30.09C124.338 30.05 124.028 29.99 123.748 29.91C123.478 29.83 123.238 29.735 123.028 29.625V28.44C123.368 28.6 123.768 28.745 124.228 28.875C124.698 29.005 125.208 29.07 125.758 29.07C126.158 29.07 126.518 29.025 126.838 28.935C127.168 28.845 127.428 28.705 127.618 28.515C127.808 28.315 127.903 28.045 127.903 27.705C127.903 27.395 127.818 27.145 127.648 26.955C127.478 26.755 127.223 26.605 126.883 26.505C126.553 26.405 126.128 26.355 125.608 26.355H124.528V25.275H125.398C126.088 25.275 126.638 25.185 127.048 25.005C127.468 24.815 127.678 24.495 127.678 24.045C127.678 23.665 127.518 23.38 127.198 23.19C126.888 23 126.438 22.905 125.848 22.905C125.408 22.905 125.018 22.95 124.678 23.04C124.348 23.12 123.983 23.245 123.583 23.415L123.118 22.365C123.548 22.175 123.998 22.035 124.468 21.945C124.938 21.855 125.423 21.81 125.923 21.81ZM134.207 21.825C135.187 21.825 135.912 22.04 136.382 22.47C136.852 22.9 137.087 23.585 137.087 24.525V30H136.127L135.872 28.86H135.812C135.582 29.15 135.342 29.395 135.092 29.595C134.852 29.785 134.572 29.925 134.252 30.015C133.942 30.105 133.562 30.15 133.112 30.15C132.632 30.15 132.197 30.065 131.807 29.895C131.427 29.725 131.127 29.465 130.907 29.115C130.687 28.755 130.577 28.305 130.577 27.765C130.577 26.965 130.892 26.35 131.522 25.92C132.152 25.48 133.122 25.24 134.432 25.2L135.797 25.155V24.675C135.797 24.005 135.652 23.54 135.362 23.28C135.072 23.02 134.662 22.89 134.132 22.89C133.712 22.89 133.312 22.955 132.932 23.085C132.552 23.205 132.197 23.345 131.867 23.505L131.462 22.515C131.812 22.325 132.227 22.165 132.707 22.035C133.187 21.895 133.687 21.825 134.207 21.825ZM134.597 26.115C133.597 26.155 132.902 26.315 132.512 26.595C132.132 26.875 131.942 27.27 131.942 27.78C131.942 28.23 132.077 28.56 132.347 28.77C132.627 28.98 132.982 29.085 133.412 29.085C134.092 29.085 134.657 28.9 135.107 28.53C135.557 28.15 135.782 27.57 135.782 26.79V26.07L134.597 26.115ZM144.325 21.96H145.765L142.33 25.83L146.05 30H144.52L140.89 25.92V30H139.57V21.96H140.89V25.86L144.325 21.96ZM150.554 21.825C151.534 21.825 152.259 22.04 152.729 22.47C153.199 22.9 153.434 23.585 153.434 24.525V30H152.474L152.219 28.86H152.159C151.929 29.15 151.689 29.395 151.439 29.595C151.199 29.785 150.919 29.925 150.599 30.015C150.289 30.105 149.909 30.15 149.459 30.15C148.979 30.15 148.544 30.065 148.154 29.895C147.774 29.725 147.474 29.465 147.254 29.115C147.034 28.755 146.924 28.305 146.924 27.765C146.924 26.965 147.239 26.35 147.869 25.92C148.499 25.48 149.469 25.24 150.779 25.2L152.144 25.155V24.675C152.144 24.005 151.999 23.54 151.709 23.28C151.419 23.02 151.009 22.89 150.479 22.89C150.059 22.89 149.659 22.955 149.279 23.085C148.899 23.205 148.544 23.345 148.214 23.505L147.809 22.515C148.159 22.325 148.574 22.165 149.054 22.035C149.534 21.895 150.034 21.825 150.554 21.825ZM150.944 26.115C149.944 26.155 149.249 26.315 148.859 26.595C148.479 26.875 148.289 27.27 148.289 27.78C148.289 28.23 148.424 28.56 148.694 28.77C148.974 28.98 149.329 29.085 149.759 29.085C150.439 29.085 151.004 28.9 151.454 28.53C151.904 28.15 152.129 27.57 152.129 26.79V26.07L150.944 26.115ZM158.033 21.81C158.643 21.81 159.173 21.895 159.623 22.065C160.073 22.225 160.423 22.465 160.673 22.785C160.923 23.095 161.048 23.475 161.048 23.925C161.048 24.415 160.913 24.805 160.643 25.095C160.373 25.375 160.003 25.58 159.533 25.71V25.77C159.853 25.86 160.148 25.985 160.418 26.145C160.688 26.305 160.903 26.515 161.063 26.775C161.233 27.035 161.318 27.37 161.318 27.78C161.318 28.22 161.193 28.62 160.943 28.98C160.703 29.34 160.328 29.625 159.818 29.835C159.318 30.045 158.673 30.15 157.883 30.15C157.503 30.15 157.138 30.13 156.788 30.09C156.448 30.05 156.138 29.99 155.858 29.91C155.588 29.83 155.348 29.735 155.138 29.625V28.44C155.478 28.6 155.878 28.745 156.338 28.875C156.808 29.005 157.318 29.07 157.868 29.07C158.268 29.07 158.628 29.025 158.948 28.935C159.278 28.845 159.538 28.705 159.728 28.515C159.918 28.315 160.013 28.045 160.013 27.705C160.013 27.395 159.928 27.145 159.758 26.955C159.588 26.755 159.333 26.605 158.993 26.505C158.663 26.405 158.238 26.355 157.718 26.355H156.638V25.275H157.508C158.198 25.275 158.748 25.185 159.158 25.005C159.578 24.815 159.788 24.495 159.788 24.045C159.788 23.665 159.628 23.38 159.308 23.19C158.998 23 158.548 22.905 157.958 22.905C157.518 22.905 157.128 22.95 156.788 23.04C156.458 23.12 156.093 23.245 155.693 23.415L155.228 22.365C155.658 22.175 156.108 22.035 156.578 21.945C157.048 21.855 157.533 21.81 158.033 21.81ZM170.261 25.965C170.261 26.635 170.171 27.23 169.991 27.75C169.821 28.26 169.571 28.695 169.241 29.055C168.921 29.415 168.526 29.69 168.056 29.88C167.596 30.06 167.081 30.15 166.511 30.15C165.981 30.15 165.491 30.06 165.041 29.88C164.591 29.69 164.201 29.415 163.871 29.055C163.541 28.695 163.281 28.26 163.091 27.75C162.911 27.23 162.821 26.635 162.821 25.965C162.821 25.075 162.971 24.325 163.271 23.715C163.571 23.095 164.001 22.625 164.561 22.305C165.121 21.975 165.786 21.81 166.556 21.81C167.286 21.81 167.926 21.975 168.476 22.305C169.036 22.625 169.471 23.095 169.781 23.715C170.101 24.325 170.261 25.075 170.261 25.965ZM164.186 25.965C164.186 26.595 164.266 27.145 164.426 27.615C164.596 28.075 164.856 28.43 165.206 28.68C165.556 28.93 166.001 29.055 166.541 29.055C167.081 29.055 167.526 28.93 167.876 28.68C168.226 28.43 168.481 28.075 168.641 27.615C168.811 27.145 168.896 26.595 168.896 25.965C168.896 25.325 168.811 24.78 168.641 24.33C168.471 23.88 168.211 23.535 167.861 23.295C167.521 23.045 167.076 22.92 166.526 22.92C165.706 22.92 165.111 23.19 164.741 23.73C164.371 24.27 164.186 25.015 164.186 25.965ZM178.818 23.985C178.818 24.485 178.668 24.875 178.368 25.155C178.068 25.435 177.683 25.625 177.213 25.725V25.785C177.713 25.855 178.148 26.035 178.518 26.325C178.888 26.605 179.073 27.045 179.073 27.645C179.073 27.985 179.008 28.3 178.878 28.59C178.758 28.88 178.568 29.13 178.308 29.34C178.048 29.55 177.713 29.715 177.303 29.835C176.893 29.945 176.398 30 175.818 30H172.353V21.96H175.803C176.373 21.96 176.883 22.025 177.333 22.155C177.793 22.275 178.153 22.485 178.413 22.785C178.683 23.075 178.818 23.475 178.818 23.985ZM177.708 27.645C177.708 27.185 177.533 26.855 177.183 26.655C176.833 26.455 176.318 26.355 175.638 26.355H173.673V28.935H175.668C176.328 28.935 176.833 28.84 177.183 28.65C177.533 28.45 177.708 28.115 177.708 27.645ZM177.483 24.15C177.483 23.77 177.343 23.495 177.063 23.325C176.793 23.145 176.348 23.055 175.728 23.055H173.673V25.26H175.488C176.138 25.26 176.633 25.17 176.973 24.99C177.313 24.81 177.483 24.53 177.483 24.15Z" fill="black"/>
<path d="M49.3257 24.9999C49.3257 18.9109 44.1481 13.9749 37.7612 13.9749C31.3744 13.9749 26.1968 18.9109 26.1968 24.9999C26.1968 31.0888 31.3744 36.0249 37.7612 36.0249C44.1481 36.0249 49.3257 31.0888 49.3257 24.9999Z" stroke="#DB66E4" stroke-width="1.5" stroke-miterlimit="10"/>
<path d="M36.9263 18.6343V26.4553L42.4816 29.5002" stroke="#DB66E4" stroke-width="1.5" stroke-linecap="round" stroke-linejoin="round"/>
<path d="M296.382 21.2092L295.454 22.0489L299.392 25.6113H282.278V26.7988H299.392L295.454 30.3611L296.382 31.2008L301.904 26.205L296.382 21.2092Z" fill="black"/>
<rect x="0.5" y="0.5" width="342" height="49" rx="9.5" stroke="#DB66E4"/>
</svg>
