<svg width="343" height="50" viewBox="0 0 343 50" fill="none" xmlns="http://www.w3.org/2000/svg">
<rect width="343" height="50" rx="10" fill="#F0F0F4"/>
<path d="M61.94 26.955C61.62 27.665 61.295 28.26 60.965 28.74C60.645 29.21 60.265 29.565 59.825 29.805C59.385 30.035 58.825 30.15 58.145 30.15C57.865 30.15 57.6 30.13 57.35 30.09C57.11 30.05 56.89 29.995 56.69 29.925V28.59C56.89 28.68 57.105 28.755 57.335 28.815C57.565 28.865 57.805 28.89 58.055 28.89C58.425 28.89 58.74 28.84 59 28.74C59.27 28.63 59.505 28.455 59.705 28.215C59.915 27.975 60.11 27.655 60.29 27.255L56.165 19.29H57.65L60.635 25.185C60.675 25.255 60.715 25.34 60.755 25.44C60.795 25.53 60.835 25.625 60.875 25.725C60.925 25.825 60.965 25.92 60.995 26.01H61.055C61.085 25.94 61.115 25.86 61.145 25.77C61.185 25.67 61.22 25.575 61.25 25.485C61.29 25.385 61.325 25.3 61.355 25.23L63.935 19.29H65.36L61.94 26.955ZM67.4974 24.885C67.4974 25.355 67.6274 25.705 67.8874 25.935C68.1574 26.155 68.5424 26.265 69.0424 26.265C69.5424 26.265 69.9974 26.19 70.4074 26.04C70.8174 25.88 71.2374 25.67 71.6674 25.41V21.96H72.9874V30H71.6674V26.415C71.2174 26.705 70.7724 26.935 70.3324 27.105C69.9024 27.265 69.3824 27.345 68.7724 27.345C67.9524 27.345 67.3124 27.13 66.8524 26.7C66.4024 26.27 66.1774 25.695 66.1774 24.975V21.96H67.4974V24.885ZM78.6466 21.81C79.3366 21.81 79.9266 21.96 80.4166 22.26C80.9166 22.56 81.2966 22.985 81.5566 23.535C81.8266 24.075 81.9616 24.71 81.9616 25.44V26.235H76.4566C76.4766 27.145 76.7066 27.84 77.1466 28.32C77.5966 28.79 78.2216 29.025 79.0216 29.025C79.5316 29.025 79.9816 28.98 80.3716 28.89C80.7716 28.79 81.1816 28.65 81.6016 28.47V29.625C81.1916 29.805 80.7866 29.935 80.3866 30.015C79.9866 30.105 79.5116 30.15 78.9616 30.15C78.2016 30.15 77.5266 29.995 76.9366 29.685C76.3566 29.375 75.9016 28.915 75.5716 28.305C75.2516 27.685 75.0916 26.93 75.0916 26.04C75.0916 25.16 75.2366 24.405 75.5266 23.775C75.8266 23.145 76.2416 22.66 76.7716 22.32C77.3116 21.98 77.9366 21.81 78.6466 21.81ZM78.6316 22.89C78.0016 22.89 77.5016 23.095 77.1316 23.505C76.7716 23.905 76.5566 24.465 76.4866 25.185H80.5816C80.5816 24.725 80.5116 24.325 80.3716 23.985C80.2316 23.645 80.0166 23.38 79.7266 23.19C79.4466 22.99 79.0816 22.89 78.6316 22.89ZM83.5884 25.17C83.5884 24 83.7034 23.005 83.9334 22.185C84.1734 21.355 84.5384 20.695 85.0284 20.205C85.5284 19.705 86.1684 19.37 86.9484 19.2C87.5984 19.06 88.2334 18.935 88.8534 18.825C89.4734 18.715 90.0534 18.615 90.5934 18.525L90.8184 19.68C90.5584 19.72 90.2684 19.77 89.9484 19.83C89.6284 19.88 89.3034 19.935 88.9734 19.995C88.6434 20.045 88.3234 20.1 88.0134 20.16C87.7134 20.21 87.4484 20.26 87.2184 20.31C86.8884 20.38 86.5934 20.5 86.3334 20.67C86.0734 20.83 85.8484 21.05 85.6584 21.33C85.4784 21.61 85.3334 21.955 85.2234 22.365C85.1134 22.775 85.0484 23.26 85.0284 23.82H85.1184C85.2584 23.63 85.4484 23.435 85.6884 23.235C85.9384 23.035 86.2334 22.865 86.5734 22.725C86.9234 22.585 87.3184 22.515 87.7584 22.515C88.4584 22.515 89.0384 22.67 89.4984 22.98C89.9684 23.28 90.3184 23.7 90.5484 24.24C90.7884 24.78 90.9084 25.41 90.9084 26.13C90.9084 27.02 90.7534 27.765 90.4434 28.365C90.1334 28.965 89.7034 29.415 89.1534 29.715C88.6034 30.005 87.9634 30.15 87.2334 30.15C86.6834 30.15 86.1834 30.045 85.7334 29.835C85.2834 29.615 84.8984 29.295 84.5784 28.875C84.2584 28.455 84.0134 27.935 83.8434 27.315C83.6734 26.695 83.5884 25.98 83.5884 25.17ZM87.3384 29.055C87.7784 29.055 88.1584 28.965 88.4784 28.785C88.8084 28.605 89.0634 28.31 89.2434 27.9C89.4234 27.49 89.5134 26.945 89.5134 26.265C89.5134 25.445 89.3584 24.8 89.0484 24.33C88.7484 23.85 88.2484 23.61 87.5484 23.61C87.1084 23.61 86.7084 23.71 86.3484 23.91C85.9884 24.1 85.6884 24.32 85.4484 24.57C85.2084 24.82 85.0384 25.03 84.9384 25.2C84.9384 25.69 84.9734 26.165 85.0434 26.625C85.1134 27.085 85.2334 27.5 85.4034 27.87C85.5834 28.23 85.8284 28.52 86.1384 28.74C86.4584 28.95 86.8584 29.055 87.3384 29.055ZM94.3079 21.96V25.305H98.6729V21.96H99.9929V30H98.6729V26.415H94.3079V30H92.9879V21.96H94.3079ZM102.539 30V21.96H103.859V25.26H105.944C106.644 25.26 107.219 25.345 107.669 25.515C108.119 25.685 108.454 25.94 108.674 26.28C108.894 26.61 109.004 27.03 109.004 27.54C109.004 28.04 108.894 28.475 108.674 28.845C108.464 29.215 108.129 29.5 107.669 29.7C107.219 29.9 106.624 30 105.884 30H102.539ZM105.764 28.935C106.334 28.935 106.799 28.84 107.159 28.65C107.519 28.45 107.699 28.105 107.699 27.615C107.699 27.125 107.534 26.795 107.204 26.625C106.874 26.445 106.399 26.355 105.779 26.355H103.859V28.935H105.764ZM110.339 30V21.96H111.659V30H110.339ZM120.723 18.63C120.683 19.13 120.558 19.55 120.348 19.89C120.148 20.23 119.848 20.485 119.448 20.655C119.048 20.825 118.528 20.91 117.888 20.91C117.238 20.91 116.713 20.825 116.313 20.655C115.923 20.485 115.638 20.235 115.458 19.905C115.278 19.565 115.168 19.14 115.128 18.63H116.358C116.408 19.17 116.548 19.535 116.778 19.725C117.018 19.905 117.398 19.995 117.918 19.995C118.378 19.995 118.738 19.9 118.998 19.71C119.268 19.51 119.428 19.15 119.478 18.63H120.723ZM115.458 26.865C115.458 26.955 115.453 27.085 115.443 27.255C115.443 27.415 115.438 27.59 115.428 27.78C115.418 27.96 115.408 28.135 115.398 28.305C115.388 28.465 115.378 28.595 115.368 28.695L119.673 21.96H121.293V30H120.063V25.26C120.063 25.1 120.063 24.89 120.063 24.63C120.073 24.37 120.083 24.115 120.093 23.865C120.103 23.605 120.113 23.41 120.123 23.28L115.848 30H114.213V21.96H115.458V26.865ZM135.144 21.96V30H133.824V23.085H129.669V30H128.349V21.96H135.144ZM143.83 30H142.495V23.055H140.125C140.025 24.325 139.9 25.41 139.75 26.31C139.6 27.2 139.41 27.925 139.18 28.485C138.95 29.045 138.675 29.455 138.355 29.715C138.035 29.975 137.66 30.105 137.23 30.105C137.1 30.105 136.97 30.095 136.84 30.075C136.72 30.065 136.62 30.04 136.54 30V29.01C136.6 29.03 136.665 29.045 136.735 29.055C136.805 29.065 136.875 29.07 136.945 29.07C137.165 29.07 137.365 28.98 137.545 28.8C137.725 28.62 137.885 28.345 138.025 27.975C138.175 27.605 138.31 27.14 138.43 26.58C138.55 26.01 138.655 25.34 138.745 24.57C138.835 23.8 138.915 22.93 138.985 21.96H143.83V30ZM149.426 21.825C150.406 21.825 151.131 22.04 151.601 22.47C152.071 22.9 152.306 23.585 152.306 24.525V30H151.346L151.091 28.86H151.031C150.801 29.15 150.561 29.395 150.311 29.595C150.071 29.785 149.791 29.925 149.471 30.015C149.161 30.105 148.781 30.15 148.331 30.15C147.851 30.15 147.416 30.065 147.026 29.895C146.646 29.725 146.346 29.465 146.126 29.115C145.906 28.755 145.796 28.305 145.796 27.765C145.796 26.965 146.111 26.35 146.741 25.92C147.371 25.48 148.341 25.24 149.651 25.2L151.016 25.155V24.675C151.016 24.005 150.871 23.54 150.581 23.28C150.291 23.02 149.881 22.89 149.351 22.89C148.931 22.89 148.531 22.955 148.151 23.085C147.771 23.205 147.416 23.345 147.086 23.505L146.681 22.515C147.031 22.325 147.446 22.165 147.926 22.035C148.406 21.895 148.906 21.825 149.426 21.825ZM149.816 26.115C148.816 26.155 148.121 26.315 147.731 26.595C147.351 26.875 147.161 27.27 147.161 27.78C147.161 28.23 147.296 28.56 147.566 28.77C147.846 28.98 148.201 29.085 148.631 29.085C149.311 29.085 149.876 28.9 150.326 28.53C150.776 28.15 151.001 27.57 151.001 26.79V26.07L149.816 26.115ZM156.11 21.96V25.305H160.475V21.96H161.795V30H160.475V26.415H156.11V30H154.79V21.96H156.11Z" fill="black"/>
<path d="M47.1004 23.5001V31.6001C47.1004 34.0854 45.0857 36.1001 42.6004 36.1001H29.4004C26.9151 36.1001 24.9004 34.0854 24.9004 31.6001V18.4001C24.9004 15.9149 26.9151 13.9001 29.4004 13.9001H37.5004M47.1004 23.5001L37.5004 13.9001M47.1004 23.5001H42.0004C39.5151 23.5001 37.5004 21.4854 37.5004 19.0001V13.9001" stroke="#DB66E4" stroke-width="1.5" stroke-linecap="round" stroke-linejoin="round"/>
<path d="M28.5 25.75H36.75" stroke="#DB66E4" stroke-width="1.5" stroke-linecap="round"/>
<path d="M28.5 30.25H33.75" stroke="#DB66E4" stroke-width="1.5" stroke-linecap="round"/>
<path d="M296.382 21.2092L295.454 22.0489L299.392 25.6113H282.278V26.7988H299.392L295.454 30.3611L296.382 31.2008L301.904 26.205L296.382 21.2092Z" fill="black"/>
</svg>
