<svg width="137" height="40" viewBox="0 0 137 40" fill="none" xmlns="http://www.w3.org/2000/svg">
<rect x="0.5" y="0.5" width="136" height="39" rx="9.5" fill="#FAD3E7"/>
<path d="M21.5939 26H20.1539V15.84H16.5859V14.576H25.1459V15.84H21.5939V26ZM29.7197 17.264C30.7757 17.264 31.6237 17.632 32.2637 18.368C32.9144 19.104 33.2397 20.2133 33.2397 21.696C33.2397 22.6667 33.0904 23.488 32.7917 24.16C32.5037 24.8213 32.093 25.3227 31.5597 25.664C31.037 25.9947 30.4184 26.16 29.7037 26.16C29.2664 26.16 28.877 26.1013 28.5357 25.984C28.1944 25.8667 27.901 25.7173 27.6557 25.536C27.421 25.344 27.2184 25.136 27.0477 24.912H26.9517C26.973 25.0933 26.9944 25.3227 27.0157 25.6C27.037 25.8773 27.0477 26.1173 27.0477 26.32V29.84H25.6397V17.424H26.7917L26.9837 18.592H27.0477C27.2184 18.3467 27.421 18.1227 27.6557 17.92C27.901 17.7173 28.189 17.5573 28.5197 17.44C28.861 17.3227 29.261 17.264 29.7197 17.264ZM29.4637 18.448C28.8877 18.448 28.4237 18.56 28.0717 18.784C27.7197 18.9973 27.4637 19.3227 27.3037 19.76C27.1437 20.1973 27.0584 20.752 27.0477 21.424V21.696C27.0477 22.4 27.1224 22.9973 27.2717 23.488C27.421 23.9787 27.6717 24.352 28.0237 24.608C28.3864 24.864 28.877 24.992 29.4957 24.992C30.0184 24.992 30.445 24.848 30.7757 24.56C31.117 24.272 31.3677 23.8827 31.5277 23.392C31.6984 22.8907 31.7837 22.32 31.7837 21.68C31.7837 20.6987 31.5917 19.9147 31.2077 19.328C30.8344 18.7413 30.253 18.448 29.4637 18.448ZM38.5554 17.264C39.2914 17.264 39.9208 17.424 40.4434 17.744C40.9768 18.064 41.3821 18.5173 41.6594 19.104C41.9474 19.68 42.0914 20.3573 42.0914 21.136V21.984H36.2194C36.2408 22.9547 36.4861 23.696 36.9554 24.208C37.4354 24.7093 38.1021 24.96 38.9554 24.96C39.4994 24.96 39.9794 24.912 40.3954 24.816C40.8221 24.7093 41.2594 24.56 41.7074 24.368V25.6C41.2701 25.792 40.8381 25.9307 40.4114 26.016C39.9848 26.112 39.4781 26.16 38.8914 26.16C38.0808 26.16 37.3608 25.9947 36.7314 25.664C36.1128 25.3333 35.6274 24.8427 35.2754 24.192C34.9341 23.5307 34.7634 22.7253 34.7634 21.776C34.7634 20.8373 34.9181 20.032 35.2274 19.36C35.5474 18.688 35.9901 18.1707 36.5554 17.808C37.1314 17.4453 37.7981 17.264 38.5554 17.264ZM38.5394 18.416C37.8674 18.416 37.3341 18.6347 36.9394 19.072C36.5554 19.4987 36.3261 20.096 36.2514 20.864H40.6194C40.6194 20.3733 40.5448 19.9467 40.3954 19.584C40.2461 19.2213 40.0168 18.9387 39.7074 18.736C39.4088 18.5227 39.0194 18.416 38.5394 18.416ZM45.4427 17.424V20.992H50.0987V17.424H51.5067V26H50.0987V22.176H45.4427V26H44.0347V17.424H45.4427ZM55.3102 22.656C55.3102 22.752 55.3049 22.8907 55.2942 23.072C55.2942 23.2427 55.2889 23.4293 55.2782 23.632C55.2675 23.824 55.2569 24.0107 55.2462 24.192C55.2355 24.3627 55.2249 24.5013 55.2142 24.608L59.8062 17.424H61.5342V26H60.2222V20.944C60.2222 20.7733 60.2222 20.5493 60.2222 20.272C60.2329 19.9947 60.2435 19.7227 60.2542 19.456C60.2649 19.1787 60.2755 18.9707 60.2862 18.832L55.7262 26H53.9822V17.424H55.3102V22.656ZM65.4314 17.424V20.992H70.0874V17.424H71.4954V26H70.0874V22.176H65.4314V26H64.0234V17.424H65.4314ZM79.2029 17.424V18.608H75.3789V26H73.9709V17.424H79.2029ZM81.9808 22.656C81.9808 22.752 81.9755 22.8907 81.9648 23.072C81.9648 23.2427 81.9595 23.4293 81.9488 23.632C81.9381 23.824 81.9275 24.0107 81.9168 24.192C81.9061 24.3627 81.8955 24.5013 81.8848 24.608L86.4768 17.424H88.2048V26H86.8928V20.944C86.8928 20.7733 86.8928 20.5493 86.8928 20.272C86.9035 19.9947 86.9141 19.7227 86.9248 19.456C86.9355 19.1787 86.9461 18.9707 86.9568 18.832L82.3968 26H80.6528V17.424H81.9808V22.656Z" fill="black"/>
<path d="M106.16 19.62C106.13 19.62 106.11 19.62 106.08 19.62C106.03 19.61 105.96 19.61 105.9 19.62C103 19.53 100.81 17.25 100.81 14.44C100.81 11.58 103.14 9.25 106 9.25C108.86 9.25 111.19 11.58 111.19 14.44C111.18 17.25 108.98 19.53 106.19 19.62C106.18 19.62 106.17 19.62 106.16 19.62ZM106 10.75C103.97 10.75 102.31 12.41 102.31 14.44C102.31 16.44 103.87 18.05 105.86 18.12C105.92 18.11 106.05 18.11 106.18 18.12C108.14 18.03 109.68 16.42 109.69 14.44C109.69 12.41 108.03 10.75 106 10.75Z" fill="#292D32"/>
<path d="M113.539 19.75C113.509 19.75 113.479 19.75 113.449 19.74C113.039 19.78 112.619 19.49 112.579 19.08C112.539 18.67 112.789 18.3 113.199 18.25C113.319 18.24 113.449 18.24 113.559 18.24C115.019 18.16 116.159 16.96 116.159 15.49C116.159 13.97 114.929 12.74 113.409 12.74C112.999 12.75 112.659 12.41 112.659 12C112.659 11.59 112.999 11.25 113.409 11.25C115.749 11.25 117.659 13.16 117.659 15.5C117.659 17.8 115.859 19.66 113.569 19.75C113.559 19.75 113.549 19.75 113.539 19.75Z" fill="#292D32"/>
<path d="M106.17 30.55C104.21 30.55 102.24 30.05 100.75 29.05C99.3596 28.13 98.5996 26.87 98.5996 25.5C98.5996 24.13 99.3596 22.86 100.75 21.93C103.75 19.94 108.61 19.94 111.59 21.93C112.97 22.85 113.74 24.11 113.74 25.48C113.74 26.85 112.98 28.12 111.59 29.05C110.09 30.05 108.13 30.55 106.17 30.55ZM101.58 23.19C100.62 23.83 100.1 24.65 100.1 25.51C100.1 26.36 100.63 27.18 101.58 27.81C104.07 29.48 108.27 29.48 110.76 27.81C111.72 27.17 112.24 26.35 112.24 25.49C112.24 24.64 111.71 23.82 110.76 23.19C108.27 21.53 104.07 21.53 101.58 23.19Z" fill="#292D32"/>
<path d="M115.34 28.75C114.99 28.75 114.68 28.51 114.61 28.15C114.53 27.74 114.79 27.35 115.19 27.26C115.82 27.13 116.4 26.88 116.85 26.53C117.42 26.1 117.73 25.56 117.73 24.99C117.73 24.42 117.42 23.88 116.86 23.46C116.42 23.12 115.87 22.88 115.22 22.73C114.82 22.64 114.56 22.24 114.65 21.83C114.74 21.43 115.14 21.17 115.55 21.26C116.41 21.45 117.16 21.79 117.77 22.26C118.7 22.96 119.23 23.95 119.23 24.99C119.23 26.03 118.69 27.02 117.76 27.73C117.14 28.21 116.36 28.56 115.5 28.73C115.44 28.75 115.39 28.75 115.34 28.75Z" fill="#292D32"/>
<rect x="0.5" y="0.5" width="136" height="39" rx="9.5" stroke="#FAD3E7"/>
</svg>
