<svg width="375" height="97" viewBox="0 0 375 97" fill="none" xmlns="http://www.w3.org/2000/svg">
<g filter="url(#filter0_d_2600_6095)">
<rect x="24" y="20" width="327" height="50" rx="10" fill="#FDFDFD" shape-rendering="crispEdges"/>
<path d="M83.015 50H81.665V45.605C81.085 45.805 80.54 45.97 80.03 46.1C79.53 46.22 78.97 46.28 78.35 46.28C77.35 46.28 76.575 46.05 76.025 45.59C75.475 45.12 75.2 44.445 75.2 43.565V39.29H76.55V43.37C76.55 43.95 76.7 44.385 77 44.675C77.31 44.955 77.805 45.095 78.485 45.095C79.075 45.095 79.605 45.04 80.075 44.93C80.545 44.82 81.075 44.67 81.665 44.48V39.29H83.015V50ZM88.7936 41.825C89.7736 41.825 90.4986 42.04 90.9686 42.47C91.4386 42.9 91.6736 43.585 91.6736 44.525V50H90.7136L90.4586 48.86H90.3986C90.1686 49.15 89.9286 49.395 89.6786 49.595C89.4386 49.785 89.1586 49.925 88.8386 50.015C88.5286 50.105 88.1486 50.15 87.6986 50.15C87.2186 50.15 86.7836 50.065 86.3936 49.895C86.0136 49.725 85.7136 49.465 85.4936 49.115C85.2736 48.755 85.1636 48.305 85.1636 47.765C85.1636 46.965 85.4786 46.35 86.1086 45.92C86.7386 45.48 87.7086 45.24 89.0186 45.2L90.3836 45.155V44.675C90.3836 44.005 90.2386 43.54 89.9486 43.28C89.6586 43.02 89.2486 42.89 88.7186 42.89C88.2986 42.89 87.8986 42.955 87.5186 43.085C87.1386 43.205 86.7836 43.345 86.4536 43.505L86.0486 42.515C86.3986 42.325 86.8136 42.165 87.2936 42.035C87.7736 41.895 88.2736 41.825 88.7936 41.825ZM89.1836 46.115C88.1836 46.155 87.4886 46.315 87.0986 46.595C86.7186 46.875 86.5286 47.27 86.5286 47.78C86.5286 48.23 86.6636 48.56 86.9336 48.77C87.2136 48.98 87.5686 49.085 87.9986 49.085C88.6786 49.085 89.2436 48.9 89.6936 48.53C90.1436 48.15 90.3686 47.57 90.3686 46.79V46.07L89.1836 46.115ZM97.3818 50.15C96.6718 50.15 96.0368 50.005 95.4768 49.715C94.9268 49.425 94.4918 48.975 94.1718 48.365C93.8618 47.755 93.7068 46.975 93.7068 46.025C93.7068 45.035 93.8718 44.23 94.2018 43.61C94.5318 42.99 94.9768 42.535 95.5368 42.245C96.1068 41.955 96.7518 41.81 97.4718 41.81C97.8818 41.81 98.2768 41.855 98.6568 41.945C99.0368 42.025 99.3468 42.125 99.5868 42.245L99.1818 43.34C98.9418 43.25 98.6618 43.165 98.3418 43.085C98.0218 43.005 97.7218 42.965 97.4418 42.965C96.9018 42.965 96.4568 43.08 96.1068 43.31C95.7568 43.54 95.4968 43.88 95.3268 44.33C95.1568 44.78 95.0718 45.34 95.0718 46.01C95.0718 46.65 95.1568 47.195 95.3268 47.645C95.4968 48.095 95.7518 48.435 96.0918 48.665C96.4318 48.895 96.8568 49.01 97.3668 49.01C97.8068 49.01 98.1918 48.965 98.5218 48.875C98.8618 48.785 99.1718 48.675 99.4518 48.545V49.715C99.1818 49.855 98.8818 49.96 98.5518 50.03C98.2318 50.11 97.8418 50.15 97.3818 50.15ZM106.914 43.07H104.289V50H102.984V43.07H100.389V41.96H106.914V43.07ZM108.498 50V41.96H109.818V45.26H111.903C112.603 45.26 113.178 45.345 113.628 45.515C114.078 45.685 114.413 45.94 114.633 46.28C114.853 46.61 114.963 47.03 114.963 47.54C114.963 48.04 114.853 48.475 114.633 48.845C114.423 49.215 114.088 49.5 113.628 49.7C113.178 49.9 112.583 50 111.843 50H108.498ZM111.723 48.935C112.293 48.935 112.758 48.84 113.118 48.65C113.478 48.45 113.658 48.105 113.658 47.615C113.658 47.125 113.493 46.795 113.163 46.625C112.833 46.445 112.358 46.355 111.738 46.355H109.818V48.935H111.723ZM116.298 50V41.96H117.618V50H116.298ZM123.277 41.81C123.967 41.81 124.557 41.96 125.047 42.26C125.547 42.56 125.927 42.985 126.187 43.535C126.457 44.075 126.592 44.71 126.592 45.44V46.235H121.087C121.107 47.145 121.337 47.84 121.777 48.32C122.227 48.79 122.852 49.025 123.652 49.025C124.162 49.025 124.612 48.98 125.002 48.89C125.402 48.79 125.812 48.65 126.232 48.47V49.625C125.822 49.805 125.417 49.935 125.017 50.015C124.617 50.105 124.142 50.15 123.592 50.15C122.832 50.15 122.157 49.995 121.567 49.685C120.987 49.375 120.532 48.915 120.202 48.305C119.882 47.685 119.722 46.93 119.722 46.04C119.722 45.16 119.867 44.405 120.157 43.775C120.457 43.145 120.872 42.66 121.402 42.32C121.942 41.98 122.567 41.81 123.277 41.81ZM123.262 42.89C122.632 42.89 122.132 43.095 121.762 43.505C121.402 43.905 121.187 44.465 121.117 45.185H125.212C125.212 44.725 125.142 44.325 125.002 43.985C124.862 43.645 124.647 43.38 124.357 43.19C124.077 42.99 123.712 42.89 123.262 42.89ZM139.601 43.985C139.601 44.485 139.451 44.875 139.151 45.155C138.851 45.435 138.466 45.625 137.996 45.725V45.785C138.496 45.855 138.931 46.035 139.301 46.325C139.671 46.605 139.856 47.045 139.856 47.645C139.856 47.985 139.791 48.3 139.661 48.59C139.541 48.88 139.351 49.13 139.091 49.34C138.831 49.55 138.496 49.715 138.086 49.835C137.676 49.945 137.181 50 136.601 50H133.136V41.96H136.586C137.156 41.96 137.666 42.025 138.116 42.155C138.576 42.275 138.936 42.485 139.196 42.785C139.466 43.075 139.601 43.475 139.601 43.985ZM138.491 47.645C138.491 47.185 138.316 46.855 137.966 46.655C137.616 46.455 137.101 46.355 136.421 46.355H134.456V48.935H136.451C137.111 48.935 137.616 48.84 137.966 48.65C138.316 48.45 138.491 48.115 138.491 47.645ZM138.266 44.15C138.266 43.77 138.126 43.495 137.846 43.325C137.576 43.145 137.131 43.055 136.511 43.055H134.456V45.26H136.271C136.921 45.26 137.416 45.17 137.756 44.99C138.096 44.81 138.266 44.53 138.266 44.15ZM148.769 45.965C148.769 46.635 148.679 47.23 148.499 47.75C148.329 48.26 148.079 48.695 147.749 49.055C147.429 49.415 147.034 49.69 146.564 49.88C146.104 50.06 145.589 50.15 145.019 50.15C144.489 50.15 143.999 50.06 143.549 49.88C143.099 49.69 142.709 49.415 142.379 49.055C142.049 48.695 141.789 48.26 141.599 47.75C141.419 47.23 141.329 46.635 141.329 45.965C141.329 45.075 141.479 44.325 141.779 43.715C142.079 43.095 142.509 42.625 143.069 42.305C143.629 41.975 144.294 41.81 145.064 41.81C145.794 41.81 146.434 41.975 146.984 42.305C147.544 42.625 147.979 43.095 148.289 43.715C148.609 44.325 148.769 45.075 148.769 45.965ZM142.694 45.965C142.694 46.595 142.774 47.145 142.934 47.615C143.104 48.075 143.364 48.43 143.714 48.68C144.064 48.93 144.509 49.055 145.049 49.055C145.589 49.055 146.034 48.93 146.384 48.68C146.734 48.43 146.989 48.075 147.149 47.615C147.319 47.145 147.404 46.595 147.404 45.965C147.404 45.325 147.319 44.78 147.149 44.33C146.979 43.88 146.719 43.535 146.369 43.295C146.029 43.045 145.584 42.92 145.034 42.92C144.214 42.92 143.619 43.19 143.249 43.73C142.879 44.27 142.694 45.015 142.694 45.965ZM157.656 41.96V50H156.336V43.085H152.181V50H150.861V41.96H157.656ZM164.046 41.81C165.036 41.81 165.831 42.155 166.431 42.845C167.041 43.535 167.346 44.575 167.346 45.965C167.346 46.875 167.206 47.645 166.926 48.275C166.656 48.895 166.271 49.365 165.771 49.685C165.281 49.995 164.701 50.15 164.031 50.15C163.621 50.15 163.256 50.095 162.936 49.985C162.616 49.875 162.341 49.735 162.111 49.565C161.891 49.385 161.701 49.19 161.541 48.98H161.451C161.471 49.15 161.491 49.365 161.511 49.625C161.531 49.885 161.541 50.11 161.541 50.3V53.6H160.221V41.96H161.301L161.481 43.055H161.541C161.701 42.825 161.891 42.615 162.111 42.425C162.341 42.235 162.611 42.085 162.921 41.975C163.241 41.865 163.616 41.81 164.046 41.81ZM163.806 42.92C163.266 42.92 162.831 43.025 162.501 43.235C162.171 43.435 161.931 43.74 161.781 44.15C161.631 44.56 161.551 45.08 161.541 45.71V45.965C161.541 46.625 161.611 47.185 161.751 47.645C161.891 48.105 162.126 48.455 162.456 48.695C162.796 48.935 163.256 49.055 163.836 49.055C164.326 49.055 164.726 48.92 165.036 48.65C165.356 48.38 165.591 48.015 165.741 47.555C165.901 47.085 165.981 46.55 165.981 45.95C165.981 45.03 165.801 44.295 165.441 43.745C165.091 43.195 164.546 42.92 163.806 42.92ZM176.44 45.965C176.44 46.635 176.35 47.23 176.17 47.75C176 48.26 175.75 48.695 175.42 49.055C175.1 49.415 174.705 49.69 174.235 49.88C173.775 50.06 173.26 50.15 172.69 50.15C172.16 50.15 171.67 50.06 171.22 49.88C170.77 49.69 170.38 49.415 170.05 49.055C169.72 48.695 169.46 48.26 169.27 47.75C169.09 47.23 169 46.635 169 45.965C169 45.075 169.15 44.325 169.45 43.715C169.75 43.095 170.18 42.625 170.74 42.305C171.3 41.975 171.965 41.81 172.735 41.81C173.465 41.81 174.105 41.975 174.655 42.305C175.215 42.625 175.65 43.095 175.96 43.715C176.28 44.325 176.44 45.075 176.44 45.965ZM170.365 45.965C170.365 46.595 170.445 47.145 170.605 47.615C170.775 48.075 171.035 48.43 171.385 48.68C171.735 48.93 172.18 49.055 172.72 49.055C173.26 49.055 173.705 48.93 174.055 48.68C174.405 48.43 174.66 48.075 174.82 47.615C174.99 47.145 175.075 46.595 175.075 45.965C175.075 45.325 174.99 44.78 174.82 44.33C174.65 43.88 174.39 43.535 174.04 43.295C173.7 43.045 173.255 42.92 172.705 42.92C171.885 42.92 171.29 43.19 170.92 43.73C170.55 44.27 170.365 45.015 170.365 45.965ZM181.757 50.15C181.047 50.15 180.412 50.005 179.852 49.715C179.302 49.425 178.867 48.975 178.547 48.365C178.237 47.755 178.082 46.975 178.082 46.025C178.082 45.035 178.247 44.23 178.577 43.61C178.907 42.99 179.352 42.535 179.912 42.245C180.482 41.955 181.127 41.81 181.847 41.81C182.257 41.81 182.652 41.855 183.032 41.945C183.412 42.025 183.722 42.125 183.962 42.245L183.557 43.34C183.317 43.25 183.037 43.165 182.717 43.085C182.397 43.005 182.097 42.965 181.817 42.965C181.277 42.965 180.832 43.08 180.482 43.31C180.132 43.54 179.872 43.88 179.702 44.33C179.532 44.78 179.447 45.34 179.447 46.01C179.447 46.65 179.532 47.195 179.702 47.645C179.872 48.095 180.127 48.435 180.467 48.665C180.807 48.895 181.232 49.01 181.742 49.01C182.182 49.01 182.567 48.965 182.897 48.875C183.237 48.785 183.547 48.675 183.827 48.545V49.715C183.557 49.855 183.257 49.96 182.927 50.03C182.607 50.11 182.217 50.15 181.757 50.15ZM185.739 50V41.96H187.059V45.26H189.144C189.844 45.26 190.419 45.345 190.869 45.515C191.319 45.685 191.654 45.94 191.874 46.28C192.094 46.61 192.204 47.03 192.204 47.54C192.204 48.04 192.094 48.475 191.874 48.845C191.664 49.215 191.329 49.5 190.869 49.7C190.419 49.9 189.824 50 189.084 50H185.739ZM188.964 48.935C189.534 48.935 189.999 48.84 190.359 48.65C190.719 48.45 190.899 48.105 190.899 47.615C190.899 47.125 190.734 46.795 190.404 46.625C190.074 46.445 189.599 46.355 188.979 46.355H187.059V48.935H188.964ZM193.539 50V41.96H194.859V50H193.539Z" fill="black"/>
<path d="M320.382 41.2092L319.454 42.0489L323.392 45.6113H306.278V46.7988H323.392L319.454 50.3611L320.382 51.2008L325.904 46.205L320.382 41.2092Z" fill="black"/>
<rect x="24.5" y="20.5" width="326" height="49" rx="9.5" stroke="#DB66E4" shape-rendering="crispEdges"/>
</g>
<defs>
<filter id="filter0_d_2600_6095" x="-46" y="0" width="467" height="190" filterUnits="userSpaceOnUse" color-interpolation-filters="sRGB">
<feFlood flood-opacity="0" result="BackgroundImageFix"/>
<feColorMatrix in="SourceAlpha" type="matrix" values="0 0 0 0 0 0 0 0 0 0 0 0 0 0 0 0 0 0 127 0" result="hardAlpha"/>
<feOffset dy="50"/>
<feGaussianBlur stdDeviation="35"/>
<feComposite in2="hardAlpha" operator="out"/>
<feColorMatrix type="matrix" values="0 0 0 0 0 0 0 0 0 0 0 0 0 0 0 0 0 0 0.05 0"/>
<feBlend mode="normal" in2="BackgroundImageFix" result="effect1_dropShadow_2600_6095"/>
<feBlend mode="normal" in="SourceGraphic" in2="effect1_dropShadow_2600_6095" result="shape"/>
</filter>
</defs>
</svg>
