<svg width="375" height="138" viewBox="0 0 375 138" fill="none" xmlns="http://www.w3.org/2000/svg">
<g filter="url(#filter0_d_2605_5486)">
<rect x="25" y="20" width="327" height="50" rx="10" fill="#FDFDFD" shape-rendering="crispEdges"/>
<path d="M87.69 39.14V40.46C88.85 40.48 89.765 40.67 90.435 41.03C91.105 41.39 91.58 41.87 91.86 42.47C92.14 43.06 92.28 43.72 92.28 44.45C92.28 44.93 92.205 45.41 92.055 45.89C91.915 46.36 91.67 46.79 91.32 47.18C90.97 47.56 90.5 47.87 89.91 48.11C89.32 48.35 88.58 48.48 87.69 48.5V50.15H86.355V48.5C85.445 48.48 84.69 48.35 84.09 48.11C83.5 47.86 83.035 47.54 82.695 47.15C82.355 46.75 82.115 46.315 81.975 45.845C81.835 45.375 81.765 44.91 81.765 44.45C81.765 43.92 81.84 43.42 81.99 42.95C82.15 42.47 82.405 42.05 82.755 41.69C83.115 41.32 83.59 41.025 84.18 40.805C84.77 40.585 85.495 40.47 86.355 40.46V39.14H87.69ZM86.355 41.6C85.555 41.62 84.915 41.75 84.435 41.99C83.965 42.23 83.63 42.56 83.43 42.98C83.23 43.39 83.13 43.875 83.13 44.435C83.13 45.025 83.24 45.54 83.46 45.98C83.69 46.41 84.04 46.745 84.51 46.985C84.99 47.225 85.605 47.36 86.355 47.39V41.6ZM87.69 47.39C88.46 47.36 89.08 47.22 89.55 46.97C90.03 46.72 90.375 46.38 90.585 45.95C90.805 45.51 90.915 45.005 90.915 44.435C90.915 43.865 90.815 43.375 90.615 42.965C90.415 42.545 90.08 42.22 89.61 41.99C89.14 41.75 88.5 41.62 87.69 41.6V47.39ZM101.321 45.965C101.321 46.635 101.231 47.23 101.051 47.75C100.881 48.26 100.631 48.695 100.301 49.055C99.9807 49.415 99.5857 49.69 99.1157 49.88C98.6557 50.06 98.1407 50.15 97.5707 50.15C97.0407 50.15 96.5507 50.06 96.1007 49.88C95.6507 49.69 95.2607 49.415 94.9307 49.055C94.6007 48.695 94.3407 48.26 94.1507 47.75C93.9707 47.23 93.8807 46.635 93.8807 45.965C93.8807 45.075 94.0307 44.325 94.3307 43.715C94.6307 43.095 95.0607 42.625 95.6207 42.305C96.1807 41.975 96.8457 41.81 97.6157 41.81C98.3457 41.81 98.9857 41.975 99.5357 42.305C100.096 42.625 100.531 43.095 100.841 43.715C101.161 44.325 101.321 45.075 101.321 45.965ZM95.2457 45.965C95.2457 46.595 95.3257 47.145 95.4857 47.615C95.6557 48.075 95.9157 48.43 96.2657 48.68C96.6157 48.93 97.0607 49.055 97.6007 49.055C98.1407 49.055 98.5857 48.93 98.9357 48.68C99.2857 48.43 99.5407 48.075 99.7007 47.615C99.8707 47.145 99.9557 46.595 99.9557 45.965C99.9557 45.325 99.8707 44.78 99.7007 44.33C99.5307 43.88 99.2707 43.535 98.9207 43.295C98.5807 43.045 98.1357 42.92 97.5857 42.92C96.7657 42.92 96.1707 43.19 95.8007 43.73C95.4307 44.27 95.2457 45.015 95.2457 45.965ZM107.238 41.81C108.228 41.81 109.023 42.155 109.623 42.845C110.233 43.535 110.538 44.575 110.538 45.965C110.538 46.875 110.398 47.645 110.118 48.275C109.848 48.895 109.463 49.365 108.963 49.685C108.473 49.995 107.893 50.15 107.223 50.15C106.813 50.15 106.448 50.095 106.128 49.985C105.808 49.875 105.533 49.735 105.303 49.565C105.083 49.385 104.893 49.19 104.733 48.98H104.643C104.663 49.15 104.683 49.365 104.703 49.625C104.723 49.885 104.733 50.11 104.733 50.3V53.6H103.413V41.96H104.493L104.673 43.055H104.733C104.893 42.825 105.083 42.615 105.303 42.425C105.533 42.235 105.803 42.085 106.113 41.975C106.433 41.865 106.808 41.81 107.238 41.81ZM106.998 42.92C106.458 42.92 106.023 43.025 105.693 43.235C105.363 43.435 105.123 43.74 104.973 44.15C104.823 44.56 104.743 45.08 104.733 45.71V45.965C104.733 46.625 104.803 47.185 104.943 47.645C105.083 48.105 105.318 48.455 105.648 48.695C105.988 48.935 106.448 49.055 107.028 49.055C107.518 49.055 107.918 48.92 108.228 48.65C108.548 48.38 108.783 48.015 108.933 47.555C109.093 47.085 109.173 46.55 109.173 45.95C109.173 45.03 108.993 44.295 108.633 43.745C108.283 43.195 107.738 42.92 106.998 42.92ZM111.235 41.96H112.645L114.385 46.535C114.485 46.805 114.575 47.065 114.655 47.315C114.745 47.565 114.825 47.81 114.895 48.05C114.965 48.28 115.02 48.505 115.06 48.725H115.12C115.18 48.475 115.275 48.15 115.405 47.75C115.535 47.34 115.67 46.93 115.81 46.52L117.445 41.96H118.87L115.405 51.11C115.215 51.61 114.99 52.045 114.73 52.415C114.48 52.795 114.17 53.085 113.8 53.285C113.44 53.495 113 53.6 112.48 53.6C112.24 53.6 112.03 53.585 111.85 53.555C111.67 53.535 111.515 53.51 111.385 53.48V52.43C111.495 52.45 111.625 52.47 111.775 52.49C111.935 52.51 112.1 52.52 112.27 52.52C112.58 52.52 112.845 52.46 113.065 52.34C113.295 52.23 113.49 52.065 113.65 51.845C113.81 51.635 113.945 51.385 114.055 51.095L114.475 50.03L111.235 41.96ZM128.766 41.96V50H127.581V44.87C127.581 44.66 127.586 44.44 127.596 44.21C127.616 43.98 127.636 43.755 127.656 43.535H127.611L124.986 50H123.876L121.326 43.535H121.281C121.301 43.755 121.311 43.98 121.311 44.21C121.321 44.44 121.326 44.675 121.326 44.915V50H120.141V41.96H121.896L124.431 48.425L127.011 41.96H128.766ZM131.333 50V41.96H132.653V45.26H134.738C135.438 45.26 136.013 45.345 136.463 45.515C136.913 45.685 137.248 45.94 137.468 46.28C137.688 46.61 137.798 47.03 137.798 47.54C137.798 48.04 137.688 48.475 137.468 48.845C137.258 49.215 136.923 49.5 136.463 49.7C136.013 49.9 135.418 50 134.678 50H131.333ZM134.558 48.935C135.128 48.935 135.593 48.84 135.953 48.65C136.313 48.45 136.493 48.105 136.493 47.615C136.493 47.125 136.328 46.795 135.998 46.625C135.668 46.445 135.193 46.355 134.573 46.355H132.653V48.935H134.558ZM139.133 50V41.96H140.453V50H139.133Z" fill="black"/>
<path d="M67.0001 40.16C66.9401 40.15 66.8701 40.15 66.8101 40.16C65.4301 40.11 64.3301 38.98 64.3301 37.58C64.3301 36.15 65.4801 35 66.9101 35C68.3401 35 69.4901 36.16 69.4901 37.58C69.4801 38.98 68.3801 40.11 67.0001 40.16Z" stroke="#DB66E4" stroke-width="1.5" stroke-linecap="round" stroke-linejoin="round"/>
<path d="M65.9699 47.4399C67.3399 47.6699 68.8499 47.4299 69.9099 46.7199C71.3199 45.7799 71.3199 44.2399 69.9099 43.2999C68.8399 42.5899 67.3099 42.3499 65.9399 42.5899" stroke="#DB66E4" stroke-width="1.5" stroke-linecap="round" stroke-linejoin="round"/>
<path d="M54.97 40.16C55.03 40.15 55.1 40.15 55.16 40.16C56.54 40.11 57.64 38.98 57.64 37.58C57.64 36.15 56.49 35 55.06 35C53.63 35 52.48 36.16 52.48 37.58C52.49 38.98 53.59 40.11 54.97 40.16Z" stroke="#DB66E4" stroke-width="1.5" stroke-linecap="round" stroke-linejoin="round"/>
<path d="M55.9999 47.4399C54.6299 47.6699 53.1199 47.4299 52.0599 46.7199C50.6499 45.7799 50.6499 44.2399 52.0599 43.2999C53.1299 42.5899 54.6599 42.3499 56.0299 42.5899" stroke="#DB66E4" stroke-width="1.5" stroke-linecap="round" stroke-linejoin="round"/>
<path d="M61.0001 47.63C60.9401 47.62 60.8701 47.62 60.8101 47.63C59.4301 47.58 58.3301 46.45 58.3301 45.05C58.3301 43.62 59.4801 42.47 60.9101 42.47C62.3401 42.47 63.4901 43.63 63.4901 45.05C63.4801 46.45 62.3801 47.59 61.0001 47.63Z" stroke="#DB66E4" stroke-width="1.5" stroke-linecap="round" stroke-linejoin="round"/>
<path d="M58.0902 50.7799C56.6802 51.7199 56.6802 53.2599 58.0902 54.1999C59.6902 55.2699 62.3102 55.2699 63.9102 54.1999C65.3202 53.2599 65.3202 51.7199 63.9102 50.7799C62.3202 49.7199 59.6902 49.7199 58.0902 50.7799Z" stroke="#DB66E4" stroke-width="1.5" stroke-linecap="round" stroke-linejoin="round"/>
<path d="M321.382 41.2092L320.454 42.0489L324.392 45.6113H307.278V46.7988H324.392L320.454 50.3611L321.382 51.2008L326.904 46.205L321.382 41.2092Z" fill="black"/>
<rect x="25.5" y="20.5" width="326" height="49" rx="9.5" stroke="#DB66E4" shape-rendering="crispEdges"/>
</g>
<defs>
<filter id="filter0_d_2605_5486" x="-45" y="0" width="467" height="190" filterUnits="userSpaceOnUse" color-interpolation-filters="sRGB">
<feFlood flood-opacity="0" result="BackgroundImageFix"/>
<feColorMatrix in="SourceAlpha" type="matrix" values="0 0 0 0 0 0 0 0 0 0 0 0 0 0 0 0 0 0 127 0" result="hardAlpha"/>
<feOffset dy="50"/>
<feGaussianBlur stdDeviation="35"/>
<feComposite in2="hardAlpha" operator="out"/>
<feColorMatrix type="matrix" values="0 0 0 0 0 0 0 0 0 0 0 0 0 0 0 0 0 0 0.05 0"/>
<feBlend mode="normal" in2="BackgroundImageFix" result="effect1_dropShadow_2605_5486"/>
<feBlend mode="normal" in="SourceGraphic" in2="effect1_dropShadow_2605_5486" result="shape"/>
</filter>
</defs>
</svg>
