<svg width="375" height="190" viewBox="0 0 375 190" fill="none" xmlns="http://www.w3.org/2000/svg">
<g filter="url(#filter0_d_2605_5461)">
<rect x="24" y="20" width="327" height="50" rx="10" fill="#FDFDFD" shape-rendering="crispEdges"/>
<path d="M85.94 46.955C85.62 47.665 85.295 48.26 84.965 48.74C84.645 49.21 84.265 49.565 83.825 49.805C83.385 50.035 82.825 50.15 82.145 50.15C81.865 50.15 81.6 50.13 81.35 50.09C81.11 50.05 80.89 49.995 80.69 49.925V48.59C80.89 48.68 81.105 48.755 81.335 48.815C81.565 48.865 81.805 48.89 82.055 48.89C82.425 48.89 82.74 48.84 83 48.74C83.27 48.63 83.505 48.455 83.705 48.215C83.915 47.975 84.11 47.655 84.29 47.255L80.165 39.29H81.65L84.635 45.185C84.675 45.255 84.715 45.34 84.755 45.44C84.795 45.53 84.835 45.625 84.875 45.725C84.925 45.825 84.965 45.92 84.995 46.01H85.055C85.085 45.94 85.115 45.86 85.145 45.77C85.185 45.67 85.22 45.575 85.25 45.485C85.29 45.385 85.325 45.3 85.355 45.23L87.935 39.29H89.36L85.94 46.955ZM91.4974 44.885C91.4974 45.355 91.6274 45.705 91.8874 45.935C92.1574 46.155 92.5424 46.265 93.0424 46.265C93.5424 46.265 93.9974 46.19 94.4074 46.04C94.8174 45.88 95.2374 45.67 95.6674 45.41V41.96H96.9874V50H95.6674V46.415C95.2174 46.705 94.7724 46.935 94.3324 47.105C93.9024 47.265 93.3824 47.345 92.7724 47.345C91.9524 47.345 91.3124 47.13 90.8524 46.7C90.4024 46.27 90.1774 45.695 90.1774 44.975V41.96H91.4974V44.885ZM102.647 41.81C103.337 41.81 103.927 41.96 104.417 42.26C104.917 42.56 105.297 42.985 105.557 43.535C105.827 44.075 105.962 44.71 105.962 45.44V46.235H100.457C100.477 47.145 100.707 47.84 101.147 48.32C101.597 48.79 102.222 49.025 103.022 49.025C103.532 49.025 103.982 48.98 104.372 48.89C104.772 48.79 105.182 48.65 105.602 48.47V49.625C105.192 49.805 104.787 49.935 104.387 50.015C103.987 50.105 103.512 50.15 102.962 50.15C102.202 50.15 101.527 49.995 100.937 49.685C100.357 49.375 99.9016 48.915 99.5716 48.305C99.2516 47.685 99.0916 46.93 99.0916 46.04C99.0916 45.16 99.2366 44.405 99.5266 43.775C99.8266 43.145 100.242 42.66 100.772 42.32C101.312 41.98 101.937 41.81 102.647 41.81ZM102.632 42.89C102.002 42.89 101.502 43.095 101.132 43.505C100.772 43.905 100.557 44.465 100.487 45.185H104.582C104.582 44.725 104.512 44.325 104.372 43.985C104.232 43.645 104.017 43.38 103.727 43.19C103.447 42.99 103.082 42.89 102.632 42.89ZM107.588 45.17C107.588 44 107.703 43.005 107.933 42.185C108.173 41.355 108.538 40.695 109.028 40.205C109.528 39.705 110.168 39.37 110.948 39.2C111.598 39.06 112.233 38.935 112.853 38.825C113.473 38.715 114.053 38.615 114.593 38.525L114.818 39.68C114.558 39.72 114.268 39.77 113.948 39.83C113.628 39.88 113.303 39.935 112.973 39.995C112.643 40.045 112.323 40.1 112.013 40.16C111.713 40.21 111.448 40.26 111.218 40.31C110.888 40.38 110.593 40.5 110.333 40.67C110.073 40.83 109.848 41.05 109.658 41.33C109.478 41.61 109.333 41.955 109.223 42.365C109.113 42.775 109.048 43.26 109.028 43.82H109.118C109.258 43.63 109.448 43.435 109.688 43.235C109.938 43.035 110.233 42.865 110.573 42.725C110.923 42.585 111.318 42.515 111.758 42.515C112.458 42.515 113.038 42.67 113.498 42.98C113.968 43.28 114.318 43.7 114.548 44.24C114.788 44.78 114.908 45.41 114.908 46.13C114.908 47.02 114.753 47.765 114.443 48.365C114.133 48.965 113.703 49.415 113.153 49.715C112.603 50.005 111.963 50.15 111.233 50.15C110.683 50.15 110.183 50.045 109.733 49.835C109.283 49.615 108.898 49.295 108.578 48.875C108.258 48.455 108.013 47.935 107.843 47.315C107.673 46.695 107.588 45.98 107.588 45.17ZM111.338 49.055C111.778 49.055 112.158 48.965 112.478 48.785C112.808 48.605 113.063 48.31 113.243 47.9C113.423 47.49 113.513 46.945 113.513 46.265C113.513 45.445 113.358 44.8 113.048 44.33C112.748 43.85 112.248 43.61 111.548 43.61C111.108 43.61 110.708 43.71 110.348 43.91C109.988 44.1 109.688 44.32 109.448 44.57C109.208 44.82 109.038 45.03 108.938 45.2C108.938 45.69 108.973 46.165 109.043 46.625C109.113 47.085 109.233 47.5 109.403 47.87C109.583 48.23 109.828 48.52 110.138 48.74C110.458 48.95 110.858 49.055 111.338 49.055ZM118.308 41.96V45.305H122.673V41.96H123.993V50H122.673V46.415H118.308V50H116.988V41.96H118.308ZM126.539 50V41.96H127.859V45.26H129.944C130.644 45.26 131.219 45.345 131.669 45.515C132.119 45.685 132.454 45.94 132.674 46.28C132.894 46.61 133.004 47.03 133.004 47.54C133.004 48.04 132.894 48.475 132.674 48.845C132.464 49.215 132.129 49.5 131.669 49.7C131.219 49.9 130.624 50 129.884 50H126.539ZM129.764 48.935C130.334 48.935 130.799 48.84 131.159 48.65C131.519 48.45 131.699 48.105 131.699 47.615C131.699 47.125 131.534 46.795 131.204 46.625C130.874 46.445 130.399 46.355 129.779 46.355H127.859V48.935H129.764ZM134.339 50V41.96H135.659V50H134.339ZM144.723 38.63C144.683 39.13 144.558 39.55 144.348 39.89C144.148 40.23 143.848 40.485 143.448 40.655C143.048 40.825 142.528 40.91 141.888 40.91C141.238 40.91 140.713 40.825 140.313 40.655C139.923 40.485 139.638 40.235 139.458 39.905C139.278 39.565 139.168 39.14 139.128 38.63H140.358C140.408 39.17 140.548 39.535 140.778 39.725C141.018 39.905 141.398 39.995 141.918 39.995C142.378 39.995 142.738 39.9 142.998 39.71C143.268 39.51 143.428 39.15 143.478 38.63H144.723ZM139.458 46.865C139.458 46.955 139.453 47.085 139.443 47.255C139.443 47.415 139.438 47.59 139.428 47.78C139.418 47.96 139.408 48.135 139.398 48.305C139.388 48.465 139.378 48.595 139.368 48.695L143.673 41.96H145.293V50H144.063V45.26C144.063 45.1 144.063 44.89 144.063 44.63C144.073 44.37 144.083 44.115 144.093 43.865C144.103 43.605 144.113 43.41 144.123 43.28L139.848 50H138.213V41.96H139.458V46.865ZM159.144 41.96V50H157.824V43.085H153.669V50H152.349V41.96H159.144ZM167.83 50H166.495V43.055H164.125C164.025 44.325 163.9 45.41 163.75 46.31C163.6 47.2 163.41 47.925 163.18 48.485C162.95 49.045 162.675 49.455 162.355 49.715C162.035 49.975 161.66 50.105 161.23 50.105C161.1 50.105 160.97 50.095 160.84 50.075C160.72 50.065 160.62 50.04 160.54 50V49.01C160.6 49.03 160.665 49.045 160.735 49.055C160.805 49.065 160.875 49.07 160.945 49.07C161.165 49.07 161.365 48.98 161.545 48.8C161.725 48.62 161.885 48.345 162.025 47.975C162.175 47.605 162.31 47.14 162.43 46.58C162.55 46.01 162.655 45.34 162.745 44.57C162.835 43.8 162.915 42.93 162.985 41.96H167.83V50ZM173.426 41.825C174.406 41.825 175.131 42.04 175.601 42.47C176.071 42.9 176.306 43.585 176.306 44.525V50H175.346L175.091 48.86H175.031C174.801 49.15 174.561 49.395 174.311 49.595C174.071 49.785 173.791 49.925 173.471 50.015C173.161 50.105 172.781 50.15 172.331 50.15C171.851 50.15 171.416 50.065 171.026 49.895C170.646 49.725 170.346 49.465 170.126 49.115C169.906 48.755 169.796 48.305 169.796 47.765C169.796 46.965 170.111 46.35 170.741 45.92C171.371 45.48 172.341 45.24 173.651 45.2L175.016 45.155V44.675C175.016 44.005 174.871 43.54 174.581 43.28C174.291 43.02 173.881 42.89 173.351 42.89C172.931 42.89 172.531 42.955 172.151 43.085C171.771 43.205 171.416 43.345 171.086 43.505L170.681 42.515C171.031 42.325 171.446 42.165 171.926 42.035C172.406 41.895 172.906 41.825 173.426 41.825ZM173.816 46.115C172.816 46.155 172.121 46.315 171.731 46.595C171.351 46.875 171.161 47.27 171.161 47.78C171.161 48.23 171.296 48.56 171.566 48.77C171.846 48.98 172.201 49.085 172.631 49.085C173.311 49.085 173.876 48.9 174.326 48.53C174.776 48.15 175.001 47.57 175.001 46.79V46.07L173.816 46.115ZM180.11 41.96V45.305H184.475V41.96H185.795V50H184.475V46.415H180.11V50H178.79V41.96H180.11Z" fill="black"/>
<path d="M71.1004 43.5001V51.6001C71.1004 54.0854 69.0857 56.1001 66.6004 56.1001H53.4004C50.9151 56.1001 48.9004 54.0854 48.9004 51.6001V38.4001C48.9004 35.9149 50.9151 33.9001 53.4004 33.9001H61.5004M71.1004 43.5001L61.5004 33.9001M71.1004 43.5001H66.0004C63.5151 43.5001 61.5004 41.4854 61.5004 39.0001V33.9001" stroke="#DB66E4" stroke-width="1.5" stroke-linecap="round" stroke-linejoin="round"/>
<path d="M52.5 45.75H60.75" stroke="#DB66E4" stroke-width="1.5" stroke-linecap="round"/>
<path d="M52.5 50.25H57.75" stroke="#DB66E4" stroke-width="1.5" stroke-linecap="round"/>
<path d="M320.382 41.2092L319.454 42.0489L323.392 45.6113H306.278V46.7988H323.392L319.454 50.3611L320.382 51.2008L325.904 46.205L320.382 41.2092Z" fill="black"/>
<rect x="24.5" y="20.5" width="326" height="49" rx="9.5" stroke="#DB66E4" shape-rendering="crispEdges"/>
</g>
<defs>
<filter id="filter0_d_2605_5461" x="-46" y="0" width="467" height="190" filterUnits="userSpaceOnUse" color-interpolation-filters="sRGB">
<feFlood flood-opacity="0" result="BackgroundImageFix"/>
<feColorMatrix in="SourceAlpha" type="matrix" values="0 0 0 0 0 0 0 0 0 0 0 0 0 0 0 0 0 0 127 0" result="hardAlpha"/>
<feOffset dy="50"/>
<feGaussianBlur stdDeviation="35"/>
<feComposite in2="hardAlpha" operator="out"/>
<feColorMatrix type="matrix" values="0 0 0 0 0 0 0 0 0 0 0 0 0 0 0 0 0 0 0.05 0"/>
<feBlend mode="normal" in2="BackgroundImageFix" result="effect1_dropShadow_2605_5461"/>
<feBlend mode="normal" in="SourceGraphic" in2="effect1_dropShadow_2605_5461" result="shape"/>
</filter>
</defs>
</svg>
