<svg width="343" height="50" viewBox="0 0 343 50" fill="none" xmlns="http://www.w3.org/2000/svg">
<rect width="343" height="50" rx="10" fill="#F0F0F4"/>
<path d="M62.69 19.14V20.46C63.85 20.48 64.765 20.67 65.435 21.03C66.105 21.39 66.58 21.87 66.86 22.47C67.14 23.06 67.28 23.72 67.28 24.45C67.28 24.93 67.205 25.41 67.055 25.89C66.915 26.36 66.67 26.79 66.32 27.18C65.97 27.56 65.5 27.87 64.91 28.11C64.32 28.35 63.58 28.48 62.69 28.5V30.15H61.355V28.5C60.445 28.48 59.69 28.35 59.09 28.11C58.5 27.86 58.035 27.54 57.695 27.15C57.355 26.75 57.115 26.315 56.975 25.845C56.835 25.375 56.765 24.91 56.765 24.45C56.765 23.92 56.84 23.42 56.99 22.95C57.15 22.47 57.405 22.05 57.755 21.69C58.115 21.32 58.59 21.025 59.18 20.805C59.77 20.585 60.495 20.47 61.355 20.46V19.14H62.69ZM61.355 21.6C60.555 21.62 59.915 21.75 59.435 21.99C58.965 22.23 58.63 22.56 58.43 22.98C58.23 23.39 58.13 23.875 58.13 24.435C58.13 25.025 58.24 25.54 58.46 25.98C58.69 26.41 59.04 26.745 59.51 26.985C59.99 27.225 60.605 27.36 61.355 27.39V21.6ZM62.69 27.39C63.46 27.36 64.08 27.22 64.55 26.97C65.03 26.72 65.375 26.38 65.585 25.95C65.805 25.51 65.915 25.005 65.915 24.435C65.915 23.865 65.815 23.375 65.615 22.965C65.415 22.545 65.08 22.22 64.61 21.99C64.14 21.75 63.5 21.62 62.69 21.6V27.39ZM76.3207 25.965C76.3207 26.635 76.2307 27.23 76.0507 27.75C75.8807 28.26 75.6307 28.695 75.3007 29.055C74.9807 29.415 74.5857 29.69 74.1157 29.88C73.6557 30.06 73.1407 30.15 72.5707 30.15C72.0407 30.15 71.5507 30.06 71.1007 29.88C70.6507 29.69 70.2607 29.415 69.9307 29.055C69.6007 28.695 69.3407 28.26 69.1507 27.75C68.9707 27.23 68.8807 26.635 68.8807 25.965C68.8807 25.075 69.0307 24.325 69.3307 23.715C69.6307 23.095 70.0607 22.625 70.6207 22.305C71.1807 21.975 71.8457 21.81 72.6157 21.81C73.3457 21.81 73.9857 21.975 74.5357 22.305C75.0957 22.625 75.5307 23.095 75.8407 23.715C76.1607 24.325 76.3207 25.075 76.3207 25.965ZM70.2457 25.965C70.2457 26.595 70.3257 27.145 70.4857 27.615C70.6557 28.075 70.9157 28.43 71.2657 28.68C71.6157 28.93 72.0607 29.055 72.6007 29.055C73.1407 29.055 73.5857 28.93 73.9357 28.68C74.2857 28.43 74.5407 28.075 74.7007 27.615C74.8707 27.145 74.9557 26.595 74.9557 25.965C74.9557 25.325 74.8707 24.78 74.7007 24.33C74.5307 23.88 74.2707 23.535 73.9207 23.295C73.5807 23.045 73.1357 22.92 72.5857 22.92C71.7657 22.92 71.1707 23.19 70.8007 23.73C70.4307 24.27 70.2457 25.015 70.2457 25.965ZM82.2377 21.81C83.2277 21.81 84.0227 22.155 84.6227 22.845C85.2327 23.535 85.5377 24.575 85.5377 25.965C85.5377 26.875 85.3977 27.645 85.1177 28.275C84.8477 28.895 84.4627 29.365 83.9627 29.685C83.4727 29.995 82.8927 30.15 82.2227 30.15C81.8127 30.15 81.4477 30.095 81.1277 29.985C80.8077 29.875 80.5327 29.735 80.3027 29.565C80.0827 29.385 79.8927 29.19 79.7327 28.98H79.6427C79.6627 29.15 79.6827 29.365 79.7027 29.625C79.7227 29.885 79.7327 30.11 79.7327 30.3V33.6H78.4127V21.96H79.4927L79.6727 23.055H79.7327C79.8927 22.825 80.0827 22.615 80.3027 22.425C80.5327 22.235 80.8027 22.085 81.1127 21.975C81.4327 21.865 81.8077 21.81 82.2377 21.81ZM81.9977 22.92C81.4577 22.92 81.0227 23.025 80.6927 23.235C80.3627 23.435 80.1227 23.74 79.9727 24.15C79.8227 24.56 79.7427 25.08 79.7327 25.71V25.965C79.7327 26.625 79.8027 27.185 79.9427 27.645C80.0827 28.105 80.3177 28.455 80.6477 28.695C80.9877 28.935 81.4477 29.055 82.0277 29.055C82.5177 29.055 82.9177 28.92 83.2277 28.65C83.5477 28.38 83.7827 28.015 83.9327 27.555C84.0927 27.085 84.1727 26.55 84.1727 25.95C84.1727 25.03 83.9927 24.295 83.6327 23.745C83.2827 23.195 82.7377 22.92 81.9977 22.92ZM86.2347 21.96H87.6447L89.3847 26.535C89.4847 26.805 89.5747 27.065 89.6547 27.315C89.7447 27.565 89.8247 27.81 89.8947 28.05C89.9647 28.28 90.0197 28.505 90.0597 28.725H90.1197C90.1797 28.475 90.2747 28.15 90.4047 27.75C90.5347 27.34 90.6697 26.93 90.8097 26.52L92.4447 21.96H93.8697L90.4047 31.11C90.2147 31.61 89.9897 32.045 89.7297 32.415C89.4797 32.795 89.1697 33.085 88.7997 33.285C88.4397 33.495 87.9997 33.6 87.4797 33.6C87.2397 33.6 87.0297 33.585 86.8497 33.555C86.6697 33.535 86.5147 33.51 86.3847 33.48V32.43C86.4947 32.45 86.6247 32.47 86.7747 32.49C86.9347 32.51 87.0997 32.52 87.2697 32.52C87.5797 32.52 87.8447 32.46 88.0647 32.34C88.2947 32.23 88.4897 32.065 88.6497 31.845C88.8097 31.635 88.9447 31.385 89.0547 31.095L89.4747 30.03L86.2347 21.96ZM103.766 21.96V30H102.581V24.87C102.581 24.66 102.586 24.44 102.596 24.21C102.616 23.98 102.636 23.755 102.656 23.535H102.611L99.9862 30H98.8762L96.3262 23.535H96.2812C96.3012 23.755 96.3112 23.98 96.3112 24.21C96.3212 24.44 96.3262 24.675 96.3262 24.915V30H95.1412V21.96H96.8962L99.4312 28.425L102.011 21.96H103.766ZM106.333 30V21.96H107.653V25.26H109.738C110.438 25.26 111.013 25.345 111.463 25.515C111.913 25.685 112.248 25.94 112.468 26.28C112.688 26.61 112.798 27.03 112.798 27.54C112.798 28.04 112.688 28.475 112.468 28.845C112.258 29.215 111.923 29.5 111.463 29.7C111.013 29.9 110.418 30 109.678 30H106.333ZM109.558 28.935C110.128 28.935 110.593 28.84 110.953 28.65C111.313 28.45 111.493 28.105 111.493 27.615C111.493 27.125 111.328 26.795 110.998 26.625C110.668 26.445 110.193 26.355 109.573 26.355H107.653V28.935H109.558ZM114.133 30V21.96H115.453V30H114.133Z" fill="black"/>
<path d="M42.0001 20.16C41.9401 20.15 41.8701 20.15 41.8101 20.16C40.4301 20.11 39.3301 18.98 39.3301 17.58C39.3301 16.15 40.4801 15 41.9101 15C43.3401 15 44.4901 16.16 44.4901 17.58C44.4801 18.98 43.3801 20.11 42.0001 20.16Z" stroke="#DB66E4" stroke-width="1.5" stroke-linecap="round" stroke-linejoin="round"/>
<path d="M40.9699 27.4399C42.3399 27.6699 43.8499 27.4299 44.9099 26.7199C46.3199 25.7799 46.3199 24.2399 44.9099 23.2999C43.8399 22.5899 42.3099 22.3499 40.9399 22.5899" stroke="#DB66E4" stroke-width="1.5" stroke-linecap="round" stroke-linejoin="round"/>
<path d="M29.97 20.16C30.03 20.15 30.1 20.15 30.16 20.16C31.54 20.11 32.64 18.98 32.64 17.58C32.64 16.15 31.49 15 30.06 15C28.63 15 27.48 16.16 27.48 17.58C27.49 18.98 28.59 20.11 29.97 20.16Z" stroke="#DB66E4" stroke-width="1.5" stroke-linecap="round" stroke-linejoin="round"/>
<path d="M30.9999 27.4399C29.6299 27.6699 28.1199 27.4299 27.0599 26.7199C25.6499 25.7799 25.6499 24.2399 27.0599 23.2999C28.1299 22.5899 29.6599 22.3499 31.0299 22.5899" stroke="#DB66E4" stroke-width="1.5" stroke-linecap="round" stroke-linejoin="round"/>
<path d="M36.0001 27.63C35.9401 27.62 35.8701 27.62 35.8101 27.63C34.4301 27.58 33.3301 26.45 33.3301 25.05C33.3301 23.62 34.4801 22.47 35.9101 22.47C37.3401 22.47 38.4901 23.63 38.4901 25.05C38.4801 26.45 37.3801 27.59 36.0001 27.63Z" stroke="#DB66E4" stroke-width="1.5" stroke-linecap="round" stroke-linejoin="round"/>
<path d="M33.0902 30.7799C31.6802 31.7199 31.6802 33.2599 33.0902 34.1999C34.6902 35.2699 37.3102 35.2699 38.9102 34.1999C40.3202 33.2599 40.3202 31.7199 38.9102 30.7799C37.3202 29.7199 34.6902 29.7199 33.0902 30.7799Z" stroke="#DB66E4" stroke-width="1.5" stroke-linecap="round" stroke-linejoin="round"/>
<path d="M296.382 21.2092L295.454 22.0489L299.392 25.6113H282.278V26.7988H299.392L295.454 30.3611L296.382 31.2008L301.904 26.205L296.382 21.2092Z" fill="black"/>
</svg>
