<svg width="375" height="190" viewBox="0 0 375 190" fill="none" xmlns="http://www.w3.org/2000/svg">
<g filter="url(#filter0_d_2605_5481)">
<rect x="25" y="20" width="327" height="50" rx="10" fill="#FDFDFD" shape-rendering="crispEdges"/>
<path d="M85.68 45.56L82.905 50H81.33L84.33 45.32C83.95 45.19 83.59 45.01 83.25 44.78C82.92 44.55 82.65 44.235 82.44 43.835C82.23 43.435 82.125 42.92 82.125 42.29C82.125 41.32 82.46 40.58 83.13 40.07C83.8 39.55 84.8 39.29 86.13 39.29H89.13V50H87.78V45.56H85.68ZM86.16 40.445C85.59 40.445 85.11 40.51 84.72 40.64C84.33 40.77 84.03 40.975 83.82 41.255C83.62 41.535 83.52 41.9 83.52 42.35C83.52 43.01 83.74 43.52 84.18 43.88C84.62 44.24 85.3 44.42 86.22 44.42H87.78V40.445H86.16ZM93.9701 41.81C94.5801 41.81 95.1101 41.895 95.5601 42.065C96.0101 42.225 96.3601 42.465 96.6101 42.785C96.8601 43.095 96.9851 43.475 96.9851 43.925C96.9851 44.415 96.8501 44.805 96.5801 45.095C96.3101 45.375 95.9401 45.58 95.4701 45.71V45.77C95.7901 45.86 96.0851 45.985 96.3551 46.145C96.6251 46.305 96.8401 46.515 97.0001 46.775C97.1701 47.035 97.2551 47.37 97.2551 47.78C97.2551 48.22 97.1301 48.62 96.8801 48.98C96.6401 49.34 96.2651 49.625 95.7551 49.835C95.2551 50.045 94.6101 50.15 93.8201 50.15C93.4401 50.15 93.0751 50.13 92.7251 50.09C92.3851 50.05 92.0751 49.99 91.7951 49.91C91.5251 49.83 91.2851 49.735 91.0751 49.625V48.44C91.4151 48.6 91.8151 48.745 92.2751 48.875C92.7451 49.005 93.2551 49.07 93.8051 49.07C94.2051 49.07 94.5651 49.025 94.8851 48.935C95.2151 48.845 95.4751 48.705 95.6651 48.515C95.8551 48.315 95.9501 48.045 95.9501 47.705C95.9501 47.395 95.8651 47.145 95.6951 46.955C95.5251 46.755 95.2701 46.605 94.9301 46.505C94.6001 46.405 94.1751 46.355 93.6551 46.355H92.5751V45.275H93.4451C94.1351 45.275 94.6851 45.185 95.0951 45.005C95.5151 44.815 95.7251 44.495 95.7251 44.045C95.7251 43.665 95.5651 43.38 95.2451 43.19C94.9351 43 94.4851 42.905 93.8951 42.905C93.4551 42.905 93.0651 42.95 92.7251 43.04C92.3951 43.12 92.0301 43.245 91.6301 43.415L91.1651 42.365C91.5951 42.175 92.0451 42.035 92.5151 41.945C92.9851 41.855 93.4701 41.81 93.9701 41.81ZM99.2086 50V41.96H100.529V45.26H102.614C103.314 45.26 103.889 45.345 104.339 45.515C104.789 45.685 105.124 45.94 105.344 46.28C105.564 46.61 105.674 47.03 105.674 47.54C105.674 48.04 105.564 48.475 105.344 48.845C105.134 49.215 104.799 49.5 104.339 49.7C103.889 49.9 103.294 50 102.554 50H99.2086ZM102.434 48.935C103.004 48.935 103.469 48.84 103.829 48.65C104.189 48.45 104.369 48.105 104.369 47.615C104.369 47.125 104.204 46.795 103.874 46.625C103.544 46.445 103.069 46.355 102.449 46.355H100.529V48.935H102.434ZM107.009 50V41.96H108.329V50H107.009ZM115.638 41.96H117.078L113.643 45.83L117.363 50H115.833L112.203 45.92V50H110.883V41.96H112.203V45.86L115.638 41.96ZM120.068 46.865C120.068 46.955 120.063 47.085 120.053 47.255C120.053 47.415 120.048 47.59 120.038 47.78C120.028 47.96 120.018 48.135 120.008 48.305C119.998 48.465 119.988 48.595 119.978 48.695L124.283 41.96H125.903V50H124.673V45.26C124.673 45.1 124.673 44.89 124.673 44.63C124.683 44.37 124.693 44.115 124.703 43.865C124.713 43.605 124.723 43.41 124.733 43.28L120.458 50H118.823V41.96H120.068V46.865Z" fill="black"/>
<path d="M58.7804 51.6601H63.9604M58.7804 51.6601L60.2604 56.1001M58.7804 51.6601H51.4004C50.572 51.6601 49.9004 50.9886 49.9004 50.1601V35.4001C49.9004 34.5717 50.572 33.9001 51.4004 33.9001H57.6554C58.3221 33.9001 58.9087 34.3401 59.0954 34.9801L60.0754 38.3401M63.9604 51.6601L60.2604 56.1001M63.9604 51.6601L60.0754 38.3401M60.2604 56.1001H70.6004C71.4288 56.1001 72.1004 55.4286 72.1004 54.6001V39.8401C72.1004 39.0117 71.4288 38.3401 70.6004 38.3401H60.0754" stroke="#DB66E4" stroke-width="1.5" stroke-linecap="round" stroke-linejoin="round"/>
<path d="M59.182 45.7333C59.217 45.8243 59.2345 45.9013 59.2345 45.9643C59.2345 46.1113 59.182 46.2373 59.077 46.3423C58.972 46.4473 58.8425 46.4998 58.6885 46.4998C58.5835 46.4998 58.482 46.4718 58.384 46.4158C58.293 46.3528 58.2265 46.2688 58.1845 46.1638L57.5965 44.6938H53.827L53.2285 46.1638C53.1795 46.2688 53.1095 46.3528 53.0185 46.4158C52.9275 46.4718 52.8295 46.4998 52.7245 46.4998C52.5705 46.4998 52.441 46.4473 52.336 46.3423C52.238 46.2303 52.189 46.1008 52.189 45.9538C52.189 45.8838 52.2065 45.8033 52.2415 45.7123L55.192 38.6668C55.297 38.4218 55.4685 38.2993 55.7065 38.2993C55.9585 38.2993 56.13 38.4218 56.221 38.6668L59.182 45.7333ZM57.229 43.7908L55.7275 40.0528L54.1945 43.7908H57.229Z" fill="#DB66E4" stroke="#DB66E4" stroke-width="0.2" stroke-linejoin="round"/>
<path d="M69.0303 45.0747C69.0303 45.116 69.0192 45.1747 68.9969 45.2509C68.9779 45.3239 68.9509 45.4 68.916 45.4794C68.8843 45.5555 68.8478 45.6254 68.8065 45.6888C68.7684 45.7523 68.7288 45.792 68.6875 45.8079C68.2209 45.9919 67.8036 46.1871 67.4354 46.3934C67.0673 46.5997 66.7546 46.8219 66.4976 47.0599C66.2405 47.2948 66.0437 47.5471 65.9072 47.8169C65.7708 48.0835 65.7025 48.3707 65.7025 48.6786C65.7025 49.0118 65.7739 49.2991 65.9167 49.5403C66.0596 49.7815 66.2627 49.983 66.5261 50.1449C66.7896 50.3068 67.1085 50.4305 67.483 50.5162C67.8607 50.6019 68.2812 50.6575 68.7446 50.6829C68.9446 50.6956 69.1318 50.7003 69.3064 50.6971C69.4841 50.694 69.646 50.6876 69.792 50.6781C69.938 50.6718 70.0649 50.6622 70.1729 50.6495C70.2808 50.64 70.3665 50.6321 70.4299 50.6257C70.4807 50.6257 70.5061 50.6702 70.5061 50.759C70.5061 50.8289 70.4998 50.8796 70.4871 50.9114C70.4744 50.9431 70.4521 50.9637 70.4204 50.9733C70.2712 51.0399 70.1094 51.1034 69.9348 51.1637C69.7634 51.2272 69.5889 51.2827 69.4111 51.3303C69.2366 51.3811 69.0636 51.4208 68.8922 51.4493C68.724 51.4811 68.5685 51.4969 68.4257 51.4969C67.8004 51.4969 67.2831 51.4319 66.8737 51.3018C66.4642 51.1748 66.1373 50.9971 65.8929 50.7686C65.6517 50.5432 65.4819 50.2766 65.3835 49.9688C65.2883 49.6641 65.2407 49.3324 65.2407 48.9738C65.2407 48.6342 65.2788 48.3263 65.355 48.0502C65.4343 47.774 65.5327 47.5265 65.6501 47.3075C65.7708 47.0885 65.9025 46.8981 66.0453 46.7362C66.1913 46.5712 66.3309 46.4299 66.4642 46.3125C66.3341 46.2522 66.204 46.176 66.0739 46.084C65.9437 45.9919 65.8263 45.8904 65.7216 45.7793C65.6168 45.665 65.5311 45.546 65.4645 45.4222C65.401 45.2953 65.3693 45.1683 65.3693 45.0414C65.3693 44.9113 65.3883 44.7748 65.4264 44.632C65.4645 44.4891 65.5168 44.3511 65.5835 44.2178C65.6533 44.0813 65.7358 43.9528 65.8311 43.8322C65.9263 43.7084 66.031 43.6005 66.1453 43.5084C66.2595 43.4164 66.3817 43.3434 66.5118 43.2894C66.642 43.2355 66.7769 43.2085 66.9165 43.2085C67.0688 43.2085 67.2037 43.2228 67.3212 43.2513C67.4418 43.2767 67.5497 43.3116 67.6449 43.3561C67.7401 43.3973 67.8242 43.4449 67.8972 43.4989C67.9702 43.5529 68.0385 43.6052 68.1019 43.656C68.1559 43.6973 68.1924 43.7401 68.2114 43.7845C68.2305 43.8258 68.24 43.8925 68.24 43.9845C68.24 44.0956 68.2083 44.1511 68.1448 44.1511C68.1194 44.1511 68.0797 44.1353 68.0258 44.1035C67.975 44.0718 67.9115 44.0385 67.8353 44.0035C67.7623 43.9655 67.6798 43.9305 67.5878 43.8988C67.4989 43.8671 67.4037 43.8512 67.3021 43.8512C67.1942 43.8512 67.0736 43.8687 66.9403 43.9036C66.807 43.9385 66.6737 43.9893 66.5404 44.0559C66.4103 44.1194 66.2865 44.1971 66.1691 44.2892C66.0548 44.3812 65.9628 44.486 65.8929 44.6034C65.8929 44.6764 65.9152 44.7526 65.9596 44.8319C66.0072 44.9081 66.0691 44.9843 66.1453 45.0604C66.2214 45.1366 66.3071 45.2096 66.4023 45.2794C66.4976 45.3461 66.5928 45.4064 66.688 45.4603C66.7864 45.5111 66.88 45.5524 66.9689 45.5841C67.0577 45.6127 67.1339 45.627 67.1974 45.627C67.2355 45.627 67.2799 45.6206 67.3307 45.6079C67.3846 45.592 67.4434 45.573 67.5068 45.5508C67.5703 45.5254 67.637 45.4984 67.7068 45.4698C67.7766 45.4381 67.8448 45.4064 67.9115 45.3746L68.8589 44.9795C68.9224 44.9509 68.9668 44.9462 68.9922 44.9652C69.0176 44.9843 69.0303 45.0208 69.0303 45.0747Z" fill="#DB66E4" stroke="#DB66E4" stroke-width="0.2" stroke-linejoin="round"/>
<path d="M321.382 41.2092L320.454 42.0489L324.392 45.6113H307.278V46.7988H324.392L320.454 50.3611L321.382 51.2008L326.904 46.205L321.382 41.2092Z" fill="black"/>
<rect x="25.5" y="20.5" width="326" height="49" rx="9.5" stroke="#DB66E4" shape-rendering="crispEdges"/>
</g>
<defs>
<filter id="filter0_d_2605_5481" x="-45" y="0" width="467" height="190" filterUnits="userSpaceOnUse" color-interpolation-filters="sRGB">
<feFlood flood-opacity="0" result="BackgroundImageFix"/>
<feColorMatrix in="SourceAlpha" type="matrix" values="0 0 0 0 0 0 0 0 0 0 0 0 0 0 0 0 0 0 127 0" result="hardAlpha"/>
<feOffset dy="50"/>
<feGaussianBlur stdDeviation="35"/>
<feComposite in2="hardAlpha" operator="out"/>
<feColorMatrix type="matrix" values="0 0 0 0 0 0 0 0 0 0 0 0 0 0 0 0 0 0 0.05 0"/>
<feBlend mode="normal" in2="BackgroundImageFix" result="effect1_dropShadow_2605_5481"/>
<feBlend mode="normal" in="SourceGraphic" in2="effect1_dropShadow_2605_5481" result="shape"/>
</filter>
</defs>
</svg>
