<svg width="343" height="50" viewBox="0 0 343 50" fill="none" xmlns="http://www.w3.org/2000/svg">
<rect width="343" height="50" rx="10" fill="#F0F0F4"/>
<path d="M57.47 19.29H58.73V25.17C58.73 25.42 58.725 25.695 58.715 25.995C58.715 26.285 58.71 26.575 58.7 26.865C58.69 27.155 58.675 27.415 58.655 27.645C58.645 27.865 58.635 28.035 58.625 28.155H58.685L64.58 19.29H66.08V30H64.82V24.18C64.82 23.91 64.825 23.62 64.835 23.31C64.845 22.99 64.855 22.685 64.865 22.395C64.885 22.095 64.9 21.83 64.91 21.6C64.92 21.37 64.93 21.2 64.94 21.09H64.88L58.97 30H57.47V19.29ZM70.9037 21.81C71.5137 21.81 72.0437 21.895 72.4937 22.065C72.9437 22.225 73.2937 22.465 73.5437 22.785C73.7937 23.095 73.9187 23.475 73.9187 23.925C73.9187 24.415 73.7837 24.805 73.5137 25.095C73.2437 25.375 72.8737 25.58 72.4037 25.71V25.77C72.7237 25.86 73.0187 25.985 73.2887 26.145C73.5587 26.305 73.7737 26.515 73.9337 26.775C74.1037 27.035 74.1887 27.37 74.1887 27.78C74.1887 28.22 74.0637 28.62 73.8137 28.98C73.5737 29.34 73.1987 29.625 72.6887 29.835C72.1887 30.045 71.5437 30.15 70.7537 30.15C70.3737 30.15 70.0087 30.13 69.6587 30.09C69.3187 30.05 69.0087 29.99 68.7287 29.91C68.4587 29.83 68.2187 29.735 68.0087 29.625V28.44C68.3487 28.6 68.7487 28.745 69.2087 28.875C69.6787 29.005 70.1887 29.07 70.7387 29.07C71.1387 29.07 71.4987 29.025 71.8187 28.935C72.1487 28.845 72.4087 28.705 72.5987 28.515C72.7887 28.315 72.8837 28.045 72.8837 27.705C72.8837 27.395 72.7987 27.145 72.6287 26.955C72.4587 26.755 72.2037 26.605 71.8637 26.505C71.5337 26.405 71.1087 26.355 70.5887 26.355H69.5087V25.275H70.3787C71.0687 25.275 71.6187 25.185 72.0287 25.005C72.4487 24.815 72.6587 24.495 72.6587 24.045C72.6587 23.665 72.4987 23.38 72.1787 23.19C71.8687 23 71.4187 22.905 70.8287 22.905C70.3887 22.905 69.9987 22.95 69.6587 23.04C69.3287 23.12 68.9637 23.245 68.5637 23.415L68.0987 22.365C68.5287 22.175 68.9787 22.035 69.4487 21.945C69.9187 21.855 70.4037 21.81 70.9037 21.81ZM84.7672 21.96V30H83.5822V24.87C83.5822 24.66 83.5872 24.44 83.5972 24.21C83.6172 23.98 83.6372 23.755 83.6572 23.535H83.6122L80.9872 30H79.8772L77.3272 23.535H77.2822C77.3022 23.755 77.3122 23.98 77.3122 24.21C77.3222 24.44 77.3272 24.675 77.3272 24.915V30H76.1422V21.96H77.8972L80.4322 28.425L83.0122 21.96H84.7672ZM90.4386 21.81C91.1286 21.81 91.7186 21.96 92.2086 22.26C92.7086 22.56 93.0886 22.985 93.3486 23.535C93.6186 24.075 93.7536 24.71 93.7536 25.44V26.235H88.2486C88.2686 27.145 88.4986 27.84 88.9386 28.32C89.3886 28.79 90.0136 29.025 90.8136 29.025C91.3236 29.025 91.7736 28.98 92.1636 28.89C92.5636 28.79 92.9736 28.65 93.3936 28.47V29.625C92.9836 29.805 92.5786 29.935 92.1786 30.015C91.7786 30.105 91.3036 30.15 90.7536 30.15C89.9936 30.15 89.3186 29.995 88.7286 29.685C88.1486 29.375 87.6936 28.915 87.3636 28.305C87.0436 27.685 86.8836 26.93 86.8836 26.04C86.8836 25.16 87.0286 24.405 87.3186 23.775C87.6186 23.145 88.0336 22.66 88.5636 22.32C89.1036 21.98 89.7286 21.81 90.4386 21.81ZM90.4236 22.89C89.7936 22.89 89.2936 23.095 88.9236 23.505C88.5636 23.905 88.3486 24.465 88.2786 25.185H92.3736C92.3736 24.725 92.3036 24.325 92.1636 23.985C92.0236 23.645 91.8086 23.38 91.5186 23.19C91.2386 22.99 90.8736 22.89 90.4236 22.89ZM97.1204 21.96V25.305H101.485V21.96H102.805V30H101.485V26.415H97.1204V30H95.8004V21.96H97.1204ZM106.596 26.865C106.596 26.955 106.591 27.085 106.581 27.255C106.581 27.415 106.576 27.59 106.566 27.78C106.556 27.96 106.546 28.135 106.536 28.305C106.526 28.465 106.516 28.595 106.506 28.695L110.811 21.96H112.431V30H111.201V25.26C111.201 25.1 111.201 24.89 111.201 24.63C111.211 24.37 111.221 24.115 111.231 23.865C111.241 23.605 111.251 23.41 111.261 23.28L106.986 30H105.351V21.96H106.596V26.865ZM120.54 23.07H117.915V30H116.61V23.07H114.015V21.96H120.54V23.07ZM125.829 25.26C126.529 25.26 127.109 25.345 127.569 25.515C128.029 25.685 128.374 25.94 128.604 26.28C128.844 26.61 128.964 27.03 128.964 27.54C128.964 28.04 128.849 28.475 128.619 28.845C128.399 29.215 128.054 29.5 127.584 29.7C127.114 29.9 126.509 30 125.769 30H122.124V21.96H123.444V25.26H125.829ZM127.644 27.615C127.644 27.125 127.469 26.795 127.119 26.625C126.779 26.445 126.299 26.355 125.679 26.355H123.444V28.935H125.709C126.269 28.935 126.729 28.835 127.089 28.635C127.459 28.435 127.644 28.095 127.644 27.615ZM142.322 21.96V30H141.002V23.085H136.847V30H135.527V21.96H142.322ZM147.932 21.825C148.912 21.825 149.637 22.04 150.107 22.47C150.577 22.9 150.812 23.585 150.812 24.525V30H149.852L149.597 28.86H149.537C149.307 29.15 149.067 29.395 148.817 29.595C148.577 29.785 148.297 29.925 147.977 30.015C147.667 30.105 147.287 30.15 146.837 30.15C146.357 30.15 145.922 30.065 145.532 29.895C145.152 29.725 144.852 29.465 144.632 29.115C144.412 28.755 144.302 28.305 144.302 27.765C144.302 26.965 144.617 26.35 145.247 25.92C145.877 25.48 146.847 25.24 148.157 25.2L149.522 25.155V24.675C149.522 24.005 149.377 23.54 149.087 23.28C148.797 23.02 148.387 22.89 147.857 22.89C147.437 22.89 147.037 22.955 146.657 23.085C146.277 23.205 145.922 23.345 145.592 23.505L145.187 22.515C145.537 22.325 145.952 22.165 146.432 22.035C146.912 21.895 147.412 21.825 147.932 21.825ZM148.322 26.115C147.322 26.155 146.627 26.315 146.237 26.595C145.857 26.875 145.667 27.27 145.667 27.78C145.667 28.23 145.802 28.56 146.072 28.77C146.352 28.98 146.707 29.085 147.137 29.085C147.817 29.085 148.382 28.9 148.832 28.53C149.282 28.15 149.507 27.57 149.507 26.79V26.07L148.322 26.115ZM157.121 21.81C158.111 21.81 158.906 22.155 159.506 22.845C160.116 23.535 160.421 24.575 160.421 25.965C160.421 26.875 160.281 27.645 160.001 28.275C159.731 28.895 159.346 29.365 158.846 29.685C158.356 29.995 157.776 30.15 157.106 30.15C156.696 30.15 156.331 30.095 156.011 29.985C155.691 29.875 155.416 29.735 155.186 29.565C154.966 29.385 154.776 29.19 154.616 28.98H154.526C154.546 29.15 154.566 29.365 154.586 29.625C154.606 29.885 154.616 30.11 154.616 30.3V33.6H153.296V21.96H154.376L154.556 23.055H154.616C154.776 22.825 154.966 22.615 155.186 22.425C155.416 22.235 155.686 22.085 155.996 21.975C156.316 21.865 156.691 21.81 157.121 21.81ZM156.881 22.92C156.341 22.92 155.906 23.025 155.576 23.235C155.246 23.435 155.006 23.74 154.856 24.15C154.706 24.56 154.626 25.08 154.616 25.71V25.965C154.616 26.625 154.686 27.185 154.826 27.645C154.966 28.105 155.201 28.455 155.531 28.695C155.871 28.935 156.331 29.055 156.911 29.055C157.401 29.055 157.801 28.92 158.111 28.65C158.431 28.38 158.666 28.015 158.816 27.555C158.976 27.085 159.056 26.55 159.056 25.95C159.056 25.03 158.876 24.295 158.516 23.745C158.166 23.195 157.621 22.92 156.881 22.92ZM169.514 25.965C169.514 26.635 169.424 27.23 169.244 27.75C169.074 28.26 168.824 28.695 168.494 29.055C168.174 29.415 167.779 29.69 167.309 29.88C166.849 30.06 166.334 30.15 165.764 30.15C165.234 30.15 164.744 30.06 164.294 29.88C163.844 29.69 163.454 29.415 163.124 29.055C162.794 28.695 162.534 28.26 162.344 27.75C162.164 27.23 162.074 26.635 162.074 25.965C162.074 25.075 162.224 24.325 162.524 23.715C162.824 23.095 163.254 22.625 163.814 22.305C164.374 21.975 165.039 21.81 165.809 21.81C166.539 21.81 167.179 21.975 167.729 22.305C168.289 22.625 168.724 23.095 169.034 23.715C169.354 24.325 169.514 25.075 169.514 25.965ZM163.439 25.965C163.439 26.595 163.519 27.145 163.679 27.615C163.849 28.075 164.109 28.43 164.459 28.68C164.809 28.93 165.254 29.055 165.794 29.055C166.334 29.055 166.779 28.93 167.129 28.68C167.479 28.43 167.734 28.075 167.894 27.615C168.064 27.145 168.149 26.595 168.149 25.965C168.149 25.325 168.064 24.78 167.894 24.33C167.724 23.88 167.464 23.535 167.114 23.295C166.774 23.045 166.329 22.92 165.779 22.92C164.959 22.92 164.364 23.19 163.994 23.73C163.624 24.27 163.439 25.015 163.439 25.965ZM177.726 30H176.391V23.055H174.021C173.921 24.325 173.796 25.41 173.646 26.31C173.496 27.2 173.306 27.925 173.076 28.485C172.846 29.045 172.571 29.455 172.251 29.715C171.931 29.975 171.556 30.105 171.126 30.105C170.996 30.105 170.866 30.095 170.736 30.075C170.616 30.065 170.516 30.04 170.436 30V29.01C170.496 29.03 170.561 29.045 170.631 29.055C170.701 29.065 170.771 29.07 170.841 29.07C171.061 29.07 171.261 28.98 171.441 28.8C171.621 28.62 171.781 28.345 171.921 27.975C172.071 27.605 172.206 27.14 172.326 26.58C172.446 26.01 172.551 25.34 172.641 24.57C172.731 23.8 172.811 22.93 172.881 21.96H177.726V30ZM183.983 25.26C184.683 25.26 185.263 25.345 185.723 25.515C186.183 25.685 186.528 25.94 186.758 26.28C186.998 26.61 187.118 27.03 187.118 27.54C187.118 28.04 187.003 28.475 186.773 28.845C186.553 29.215 186.208 29.5 185.738 29.7C185.268 29.9 184.663 30 183.923 30H180.278V21.96H181.598V25.26H183.983ZM185.798 27.615C185.798 27.125 185.623 26.795 185.273 26.625C184.933 26.445 184.453 26.355 183.833 26.355H181.598V28.935H183.863C184.423 28.935 184.883 28.835 185.243 28.635C185.613 28.435 185.798 28.095 185.798 27.615Z" fill="black"/>
<path d="M30 23V21C30 17.69 31 15 36 15C41 15 42 17.69 42 21V23" stroke="#DB66E4" stroke-width="1.5" stroke-linecap="round" stroke-linejoin="round"/>
<path d="M36 31.5C37.3807 31.5 38.5 30.3807 38.5 29C38.5 27.6193 37.3807 26.5 36 26.5C34.6193 26.5 33.5 27.6193 33.5 29C33.5 30.3807 34.6193 31.5 36 31.5Z" stroke="#DB66E4" stroke-width="1.5" stroke-linecap="round" stroke-linejoin="round"/>
<path d="M41 35H31C27 35 26 34 26 30V28C26 24 27 23 31 23H41C45 23 46 24 46 28V30C46 34 45 35 41 35Z" stroke="#DB66E4" stroke-width="1.5" stroke-linecap="round" stroke-linejoin="round"/>
<path d="M296.382 21.2092L295.454 22.0489L299.392 25.6113H282.278V26.7988H299.392L295.454 30.3611L296.382 31.2008L301.904 26.205L296.382 21.2092Z" fill="black"/>
</svg>
