<svg width="343" height="50" viewBox="0 0 343 50" fill="none" xmlns="http://www.w3.org/2000/svg">
<rect width="343" height="50" rx="10" fill="#F0F0F4"/>
<path d="M60.68 25.56L57.905 30H56.33L59.33 25.32C58.95 25.19 58.59 25.01 58.25 24.78C57.92 24.55 57.65 24.235 57.44 23.835C57.23 23.435 57.125 22.92 57.125 22.29C57.125 21.32 57.46 20.58 58.13 20.07C58.8 19.55 59.8 19.29 61.13 19.29H64.13V30H62.78V25.56H60.68ZM61.16 20.445C60.59 20.445 60.11 20.51 59.72 20.64C59.33 20.77 59.03 20.975 58.82 21.255C58.62 21.535 58.52 21.9 58.52 22.35C58.52 23.01 58.74 23.52 59.18 23.88C59.62 24.24 60.3 24.42 61.22 24.42H62.78V20.445H61.16ZM68.9701 21.81C69.5801 21.81 70.1101 21.895 70.5601 22.065C71.0101 22.225 71.3601 22.465 71.6101 22.785C71.8601 23.095 71.9851 23.475 71.9851 23.925C71.9851 24.415 71.8501 24.805 71.5801 25.095C71.3101 25.375 70.9401 25.58 70.4701 25.71V25.77C70.7901 25.86 71.0851 25.985 71.3551 26.145C71.6251 26.305 71.8401 26.515 72.0001 26.775C72.1701 27.035 72.2551 27.37 72.2551 27.78C72.2551 28.22 72.1301 28.62 71.8801 28.98C71.6401 29.34 71.2651 29.625 70.7551 29.835C70.2551 30.045 69.6101 30.15 68.8201 30.15C68.4401 30.15 68.0751 30.13 67.7251 30.09C67.3851 30.05 67.0751 29.99 66.7951 29.91C66.5251 29.83 66.2851 29.735 66.0751 29.625V28.44C66.4151 28.6 66.8151 28.745 67.2751 28.875C67.7451 29.005 68.2551 29.07 68.8051 29.07C69.2051 29.07 69.5651 29.025 69.8851 28.935C70.2151 28.845 70.4751 28.705 70.6651 28.515C70.8551 28.315 70.9501 28.045 70.9501 27.705C70.9501 27.395 70.8651 27.145 70.6951 26.955C70.5251 26.755 70.2701 26.605 69.9301 26.505C69.6001 26.405 69.1751 26.355 68.6551 26.355H67.5751V25.275H68.4451C69.1351 25.275 69.6851 25.185 70.0951 25.005C70.5151 24.815 70.7251 24.495 70.7251 24.045C70.7251 23.665 70.5651 23.38 70.2451 23.19C69.9351 23 69.4851 22.905 68.8951 22.905C68.4551 22.905 68.0651 22.95 67.7251 23.04C67.3951 23.12 67.0301 23.245 66.6301 23.415L66.1651 22.365C66.5951 22.175 67.0451 22.035 67.5151 21.945C67.9851 21.855 68.4701 21.81 68.9701 21.81ZM74.2086 30V21.96H75.5286V25.26H77.6136C78.3136 25.26 78.8886 25.345 79.3386 25.515C79.7886 25.685 80.1236 25.94 80.3436 26.28C80.5636 26.61 80.6736 27.03 80.6736 27.54C80.6736 28.04 80.5636 28.475 80.3436 28.845C80.1336 29.215 79.7986 29.5 79.3386 29.7C78.8886 29.9 78.2936 30 77.5536 30H74.2086ZM77.4336 28.935C78.0036 28.935 78.4686 28.84 78.8286 28.65C79.1886 28.45 79.3686 28.105 79.3686 27.615C79.3686 27.125 79.2036 26.795 78.8736 26.625C78.5436 26.445 78.0686 26.355 77.4486 26.355H75.5286V28.935H77.4336ZM82.0086 30V21.96H83.3286V30H82.0086ZM90.6384 21.96H92.0784L88.6434 25.83L92.3634 30H90.8334L87.2034 25.92V30H85.8834V21.96H87.2034V25.86L90.6384 21.96ZM95.0679 26.865C95.0679 26.955 95.0629 27.085 95.0529 27.255C95.0529 27.415 95.0479 27.59 95.0379 27.78C95.0279 27.96 95.0179 28.135 95.0079 28.305C94.9979 28.465 94.9879 28.595 94.9779 28.695L99.2829 21.96H100.903V30H99.6729V25.26C99.6729 25.1 99.6729 24.89 99.6729 24.63C99.6829 24.37 99.6929 24.115 99.7029 23.865C99.7129 23.605 99.7229 23.41 99.7329 23.28L95.4579 30H93.8229V21.96H95.0679V26.865Z" fill="black"/>
<path d="M33.7804 31.6601H38.9604M33.7804 31.6601L35.2604 36.1001M33.7804 31.6601H26.4004C25.572 31.6601 24.9004 30.9886 24.9004 30.1601V15.4001C24.9004 14.5717 25.572 13.9001 26.4004 13.9001H32.6554C33.3221 13.9001 33.9087 14.3401 34.0954 14.9801L35.0754 18.3401M38.9604 31.6601L35.2604 36.1001M38.9604 31.6601L35.0754 18.3401M35.2604 36.1001H45.6004C46.4288 36.1001 47.1004 35.4286 47.1004 34.6001V19.8401C47.1004 19.0117 46.4288 18.3401 45.6004 18.3401H35.0754" stroke="#DB66E4" stroke-width="1.5" stroke-linecap="round" stroke-linejoin="round"/>
<path d="M34.182 25.7333C34.217 25.8243 34.2345 25.9013 34.2345 25.9643C34.2345 26.1113 34.182 26.2373 34.077 26.3423C33.972 26.4473 33.8425 26.4998 33.6885 26.4998C33.5835 26.4998 33.482 26.4718 33.384 26.4158C33.293 26.3528 33.2265 26.2688 33.1845 26.1638L32.5965 24.6938H28.827L28.2285 26.1638C28.1795 26.2688 28.1095 26.3528 28.0185 26.4158C27.9275 26.4718 27.8295 26.4998 27.7245 26.4998C27.5705 26.4998 27.441 26.4473 27.336 26.3423C27.238 26.2303 27.189 26.1008 27.189 25.9538C27.189 25.8838 27.2065 25.8033 27.2415 25.7123L30.192 18.6668C30.297 18.4218 30.4685 18.2993 30.7065 18.2993C30.9585 18.2993 31.13 18.4218 31.221 18.6668L34.182 25.7333ZM32.229 23.7908L30.7275 20.0528L29.1945 23.7908H32.229Z" fill="#DB66E4" stroke="#DB66E4" stroke-width="0.2" stroke-linejoin="round"/>
<path d="M44.0303 25.0747C44.0303 25.116 44.0192 25.1747 43.9969 25.2509C43.9779 25.3239 43.9509 25.4 43.916 25.4794C43.8843 25.5555 43.8478 25.6254 43.8065 25.6888C43.7684 25.7523 43.7288 25.792 43.6875 25.8079C43.2209 25.9919 42.8036 26.1871 42.4354 26.3934C42.0673 26.5997 41.7546 26.8219 41.4976 27.0599C41.2405 27.2948 41.0437 27.5471 40.9072 27.8169C40.7708 28.0835 40.7025 28.3707 40.7025 28.6786C40.7025 29.0118 40.7739 29.2991 40.9167 29.5403C41.0596 29.7815 41.2627 29.983 41.5261 30.1449C41.7896 30.3068 42.1085 30.4305 42.483 30.5162C42.8607 30.6019 43.2812 30.6575 43.7446 30.6829C43.9446 30.6956 44.1318 30.7003 44.3064 30.6971C44.4841 30.694 44.646 30.6876 44.792 30.6781C44.938 30.6718 45.0649 30.6622 45.1729 30.6495C45.2808 30.64 45.3665 30.6321 45.4299 30.6257C45.4807 30.6257 45.5061 30.6702 45.5061 30.759C45.5061 30.8289 45.4998 30.8796 45.4871 30.9114C45.4744 30.9431 45.4521 30.9637 45.4204 30.9733C45.2712 31.0399 45.1094 31.1034 44.9348 31.1637C44.7634 31.2272 44.5889 31.2827 44.4111 31.3303C44.2366 31.3811 44.0636 31.4208 43.8922 31.4493C43.724 31.4811 43.5685 31.4969 43.4257 31.4969C42.8004 31.4969 42.2831 31.4319 41.8737 31.3018C41.4642 31.1748 41.1373 30.9971 40.8929 30.7686C40.6517 30.5432 40.4819 30.2766 40.3835 29.9688C40.2883 29.6641 40.2407 29.3324 40.2407 28.9738C40.2407 28.6342 40.2788 28.3263 40.355 28.0502C40.4343 27.774 40.5327 27.5265 40.6501 27.3075C40.7708 27.0885 40.9025 26.8981 41.0453 26.7362C41.1913 26.5712 41.3309 26.4299 41.4642 26.3125C41.3341 26.2522 41.204 26.176 41.0739 26.084C40.9437 25.9919 40.8263 25.8904 40.7216 25.7793C40.6168 25.665 40.5311 25.546 40.4645 25.4222C40.401 25.2953 40.3693 25.1683 40.3693 25.0414C40.3693 24.9113 40.3883 24.7748 40.4264 24.632C40.4645 24.4891 40.5168 24.3511 40.5835 24.2178C40.6533 24.0813 40.7358 23.9528 40.8311 23.8322C40.9263 23.7084 41.031 23.6005 41.1453 23.5084C41.2595 23.4164 41.3817 23.3434 41.5118 23.2894C41.642 23.2355 41.7769 23.2085 41.9165 23.2085C42.0688 23.2085 42.2037 23.2228 42.3212 23.2513C42.4418 23.2767 42.5497 23.3116 42.6449 23.3561C42.7401 23.3973 42.8242 23.4449 42.8972 23.4989C42.9702 23.5529 43.0385 23.6052 43.1019 23.656C43.1559 23.6973 43.1924 23.7401 43.2114 23.7845C43.2305 23.8258 43.24 23.8925 43.24 23.9845C43.24 24.0956 43.2083 24.1511 43.1448 24.1511C43.1194 24.1511 43.0797 24.1353 43.0258 24.1035C42.975 24.0718 42.9115 24.0385 42.8353 24.0035C42.7623 23.9655 42.6798 23.9305 42.5878 23.8988C42.4989 23.8671 42.4037 23.8512 42.3021 23.8512C42.1942 23.8512 42.0736 23.8687 41.9403 23.9036C41.807 23.9385 41.6737 23.9893 41.5404 24.0559C41.4103 24.1194 41.2865 24.1971 41.1691 24.2892C41.0548 24.3812 40.9628 24.486 40.8929 24.6034C40.8929 24.6764 40.9152 24.7526 40.9596 24.8319C41.0072 24.9081 41.0691 24.9843 41.1453 25.0604C41.2214 25.1366 41.3071 25.2096 41.4023 25.2794C41.4976 25.3461 41.5928 25.4064 41.688 25.4603C41.7864 25.5111 41.88 25.5524 41.9689 25.5841C42.0577 25.6127 42.1339 25.627 42.1974 25.627C42.2355 25.627 42.2799 25.6206 42.3307 25.6079C42.3846 25.592 42.4434 25.573 42.5068 25.5508C42.5703 25.5254 42.637 25.4984 42.7068 25.4698C42.7766 25.4381 42.8448 25.4064 42.9115 25.3746L43.8589 24.9795C43.9224 24.9509 43.9668 24.9462 43.9922 24.9652C44.0176 24.9843 44.0303 25.0208 44.0303 25.0747Z" fill="#DB66E4" stroke="#DB66E4" stroke-width="0.2" stroke-linejoin="round"/>
<path d="M296.382 21.2092L295.454 22.0489L299.392 25.6113H282.278V26.7988H299.392L295.454 30.3611L296.382 31.2008L301.904 26.205L296.382 21.2092Z" fill="black"/>
</svg>
