<svg width="343" height="50" viewBox="0 0 343 50" fill="none" xmlns="http://www.w3.org/2000/svg">
<rect width="343" height="50" rx="10" fill="#F0F0F4"/>
<path d="M60.845 30H59.495V20.475H56.15V19.29H64.175V20.475H60.845V30ZM68.6879 21.81C69.6779 21.81 70.4729 22.155 71.0729 22.845C71.6829 23.535 71.9879 24.575 71.9879 25.965C71.9879 26.875 71.8479 27.645 71.5679 28.275C71.2979 28.895 70.9129 29.365 70.4129 29.685C69.9229 29.995 69.3429 30.15 68.6729 30.15C68.2629 30.15 67.8979 30.095 67.5779 29.985C67.2579 29.875 66.9829 29.735 66.7529 29.565C66.5329 29.385 66.3429 29.19 66.1829 28.98H66.0929C66.1129 29.15 66.1329 29.365 66.1529 29.625C66.1729 29.885 66.1829 30.11 66.1829 30.3V33.6H64.8629V21.96H65.9429L66.1229 23.055H66.1829C66.3429 22.825 66.5329 22.615 66.7529 22.425C66.9829 22.235 67.2529 22.085 67.5629 21.975C67.8829 21.865 68.2579 21.81 68.6879 21.81ZM68.4479 22.92C67.9079 22.92 67.4729 23.025 67.1429 23.235C66.8129 23.435 66.5729 23.74 66.4229 24.15C66.2729 24.56 66.1929 25.08 66.1829 25.71V25.965C66.1829 26.625 66.2529 27.185 66.3929 27.645C66.5329 28.105 66.7679 28.455 67.0979 28.695C67.4379 28.935 67.8979 29.055 68.4779 29.055C68.9679 29.055 69.3679 28.92 69.6779 28.65C69.9979 28.38 70.2329 28.015 70.3829 27.555C70.5429 27.085 70.6229 26.55 70.6229 25.95C70.6229 25.03 70.4429 24.295 70.0829 23.745C69.7329 23.195 69.1879 22.92 68.4479 22.92ZM77.1964 21.81C77.8864 21.81 78.4764 21.96 78.9664 22.26C79.4664 22.56 79.8464 22.985 80.1064 23.535C80.3764 24.075 80.5114 24.71 80.5114 25.44V26.235H75.0064C75.0264 27.145 75.2564 27.84 75.6964 28.32C76.1464 28.79 76.7714 29.025 77.5714 29.025C78.0814 29.025 78.5314 28.98 78.9214 28.89C79.3214 28.79 79.7314 28.65 80.1514 28.47V29.625C79.7414 29.805 79.3364 29.935 78.9364 30.015C78.5364 30.105 78.0614 30.15 77.5114 30.15C76.7514 30.15 76.0764 29.995 75.4864 29.685C74.9064 29.375 74.4514 28.915 74.1214 28.305C73.8014 27.685 73.6414 26.93 73.6414 26.04C73.6414 25.16 73.7864 24.405 74.0764 23.775C74.3764 23.145 74.7914 22.66 75.3214 22.32C75.8614 21.98 76.4864 21.81 77.1964 21.81ZM77.1814 22.89C76.5514 22.89 76.0514 23.095 75.6814 23.505C75.3214 23.905 75.1064 24.465 75.0364 25.185H79.1314C79.1314 24.725 79.0614 24.325 78.9214 23.985C78.7814 23.645 78.5664 23.38 78.2764 23.19C77.9964 22.99 77.6314 22.89 77.1814 22.89ZM83.8782 21.96V25.305H88.2432V21.96H89.5632V30H88.2432V26.415H83.8782V30H82.5582V21.96H83.8782ZM93.354 26.865C93.354 26.955 93.349 27.085 93.339 27.255C93.339 27.415 93.334 27.59 93.324 27.78C93.314 27.96 93.304 28.135 93.294 28.305C93.284 28.465 93.274 28.595 93.264 28.695L97.569 21.96H99.189V30H97.959V25.26C97.959 25.1 97.959 24.89 97.959 24.63C97.969 24.37 97.979 24.115 97.989 23.865C97.999 23.605 98.009 23.41 98.019 23.28L93.744 30H92.109V21.96H93.354V26.865ZM103.068 21.96V25.305H107.433V21.96H108.753V30H107.433V26.415H103.068V30H101.748V21.96H103.068ZM116.203 21.96V23.07H112.618V30H111.298V21.96H116.203ZM119.033 26.865C119.033 26.955 119.028 27.085 119.018 27.255C119.018 27.415 119.013 27.59 119.003 27.78C118.993 27.96 118.983 28.135 118.973 28.305C118.963 28.465 118.953 28.595 118.943 28.695L123.248 21.96H124.868V30H123.638V25.26C123.638 25.1 123.638 24.89 123.638 24.63C123.648 24.37 123.658 24.115 123.668 23.865C123.678 23.605 123.688 23.41 123.698 23.28L119.423 30H117.788V21.96H119.033V26.865Z" fill="black"/>
<path d="M42.0001 20.16C41.9401 20.15 41.8701 20.15 41.8101 20.16C40.4301 20.11 39.3301 18.98 39.3301 17.58C39.3301 16.15 40.4801 15 41.9101 15C43.3401 15 44.4901 16.16 44.4901 17.58C44.4801 18.98 43.3801 20.11 42.0001 20.16Z" stroke="#DB66E4" stroke-width="1.5" stroke-linecap="round" stroke-linejoin="round"/>
<path d="M40.9699 27.4399C42.3399 27.6699 43.8499 27.4299 44.9099 26.7199C46.3199 25.7799 46.3199 24.2399 44.9099 23.2999C43.8399 22.5899 42.3099 22.3499 40.9399 22.5899" stroke="#DB66E4" stroke-width="1.5" stroke-linecap="round" stroke-linejoin="round"/>
<path d="M29.97 20.16C30.03 20.15 30.1 20.15 30.16 20.16C31.54 20.11 32.64 18.98 32.64 17.58C32.64 16.15 31.49 15 30.06 15C28.63 15 27.48 16.16 27.48 17.58C27.49 18.98 28.59 20.11 29.97 20.16Z" stroke="#DB66E4" stroke-width="1.5" stroke-linecap="round" stroke-linejoin="round"/>
<path d="M30.9999 27.4399C29.6299 27.6699 28.1199 27.4299 27.0599 26.7199C25.6499 25.7799 25.6499 24.2399 27.0599 23.2999C28.1299 22.5899 29.6599 22.3499 31.0299 22.5899" stroke="#DB66E4" stroke-width="1.5" stroke-linecap="round" stroke-linejoin="round"/>
<path d="M36.0001 27.63C35.9401 27.62 35.8701 27.62 35.8101 27.63C34.4301 27.58 33.3301 26.45 33.3301 25.05C33.3301 23.62 34.4801 22.47 35.9101 22.47C37.3401 22.47 38.4901 23.63 38.4901 25.05C38.4801 26.45 37.3801 27.59 36.0001 27.63Z" stroke="#DB66E4" stroke-width="1.5" stroke-linecap="round" stroke-linejoin="round"/>
<path d="M33.0902 30.7799C31.6802 31.7199 31.6802 33.2599 33.0902 34.1999C34.6902 35.2699 37.3102 35.2699 38.9102 34.1999C40.3202 33.2599 40.3202 31.7199 38.9102 30.7799C37.3202 29.7199 34.6902 29.7199 33.0902 30.7799Z" stroke="#DB66E4" stroke-width="1.5" stroke-linecap="round" stroke-linejoin="round"/>
<path d="M296.382 21.2092L295.454 22.0489L299.392 25.6113H282.278V26.7988H299.392L295.454 30.3611L296.382 31.2008L301.904 26.205L296.382 21.2092Z" fill="black"/>
</svg>
