<svg width="258" height="40" viewBox="0 0 258 40" fill="none" xmlns="http://www.w3.org/2000/svg">
<path d="M0.34925 0.575999H1.69325V6.848C1.69325 7.11467 1.68792 7.408 1.67725 7.728C1.67725 8.03733 1.67192 8.34667 1.66125 8.656C1.65058 8.96533 1.63458 9.24267 1.61325 9.488C1.60258 9.72267 1.59192 9.904 1.58125 10.032H1.64525L7.93325 0.575999H9.53325V12H8.18925V5.792C8.18925 5.504 8.19458 5.19467 8.20525 4.864C8.21592 4.52267 8.22658 4.19733 8.23725 3.888C8.25858 3.568 8.27458 3.28533 8.28525 3.04C8.29592 2.79467 8.30658 2.61333 8.31725 2.496H8.25325L1.94925 12H0.34925V0.575999ZM18.7905 3.424V10.816H20.0385V14.976H18.6785V12H12.7105V14.976H11.3665V10.816H12.0545C12.5452 10.1333 12.9505 9.392 13.2705 8.592C13.6012 7.78133 13.8465 6.93867 14.0065 6.064C14.1772 5.17867 14.2678 4.29867 14.2785 3.424H18.7905ZM15.5265 4.528C15.4838 5.25333 15.3718 6.00533 15.1905 6.784C15.0092 7.552 14.7745 8.288 14.4865 8.992C14.2092 9.696 13.8838 10.304 13.5105 10.816H17.4305V4.528H15.5265ZM25.0314 3.264C25.7674 3.264 26.3967 3.424 26.9194 3.744C27.4527 4.064 27.858 4.51733 28.1354 5.104C28.4234 5.68 28.5674 6.35733 28.5674 7.136V7.984H22.6954C22.7167 8.95467 22.962 9.696 23.4314 10.208C23.9114 10.7093 24.578 10.96 25.4314 10.96C25.9754 10.96 26.4554 10.912 26.8714 10.816C27.298 10.7093 27.7354 10.56 28.1834 10.368V11.6C27.746 11.792 27.314 11.9307 26.8874 12.016C26.4607 12.112 25.954 12.16 25.3674 12.16C24.5567 12.16 23.8367 11.9947 23.2074 11.664C22.5887 11.3333 22.1034 10.8427 21.7514 10.192C21.41 9.53067 21.2394 8.72533 21.2394 7.776C21.2394 6.83733 21.394 6.032 21.7034 5.36C22.0234 4.688 22.466 4.17067 23.0314 3.808C23.6074 3.44533 24.274 3.264 25.0314 3.264ZM25.0154 4.416C24.3434 4.416 23.81 4.63467 23.4154 5.072C23.0314 5.49867 22.802 6.096 22.7274 6.864H27.0954C27.0954 6.37333 27.0207 5.94667 26.8714 5.584C26.722 5.22133 26.4927 4.93867 26.1834 4.736C25.8847 4.52267 25.4954 4.416 25.0154 4.416ZM39.9506 3.424V12H38.6866V6.528C38.6866 6.304 38.692 6.06933 38.7026 5.824C38.724 5.57867 38.7453 5.33867 38.7666 5.104H38.7186L35.9186 12H34.7346L32.0146 5.104H31.9666C31.988 5.33867 31.9986 5.57867 31.9986 5.824C32.0093 6.06933 32.0146 6.32 32.0146 6.576V12H30.7506V3.424H32.6226L35.3266 10.32L38.0786 3.424H39.9506ZM54.733 3.424V12H53.325V4.624H48.893V12H47.485V3.424H54.733ZM61.5494 3.264C62.6054 3.264 63.4534 3.632 64.0934 4.368C64.744 5.104 65.0694 6.21333 65.0694 7.696C65.0694 8.66667 64.92 9.488 64.6214 10.16C64.3334 10.8213 63.9227 11.3227 63.3894 11.664C62.8667 11.9947 62.248 12.16 61.5334 12.16C61.096 12.16 60.7067 12.1013 60.3654 11.984C60.024 11.8667 59.7307 11.7173 59.4854 11.536C59.2507 11.344 59.048 11.136 58.8774 10.912H58.7814C58.8027 11.0933 58.824 11.3227 58.8454 11.6C58.8667 11.8773 58.8774 12.1173 58.8774 12.32V15.84H57.4694V3.424H58.6214L58.8134 4.592H58.8774C59.048 4.34667 59.2507 4.12267 59.4854 3.92C59.7307 3.71733 60.0187 3.55733 60.3494 3.44C60.6907 3.32267 61.0907 3.264 61.5494 3.264ZM61.2934 4.448C60.7174 4.448 60.2534 4.56 59.9014 4.784C59.5494 4.99733 59.2934 5.32267 59.1334 5.76C58.9734 6.19733 58.888 6.752 58.8774 7.424V7.696C58.8774 8.4 58.952 8.99733 59.1014 9.488C59.2507 9.97867 59.5014 10.352 59.8534 10.608C60.216 10.864 60.7067 10.992 61.3254 10.992C61.848 10.992 62.2747 10.848 62.6054 10.56C62.9467 10.272 63.1974 9.88267 63.3574 9.392C63.528 8.89067 63.6134 8.32 63.6134 7.68C63.6134 6.69867 63.4214 5.91467 63.0374 5.328C62.664 4.74133 62.0827 4.448 61.2934 4.448ZM74.7691 7.696C74.7691 8.41067 74.6731 9.04533 74.4811 9.6C74.2998 10.144 74.0331 10.608 73.6811 10.992C73.3398 11.376 72.9185 11.6693 72.4171 11.872C71.9265 12.064 71.3771 12.16 70.7691 12.16C70.2038 12.16 69.6811 12.064 69.2011 11.872C68.7211 11.6693 68.3051 11.376 67.9531 10.992C67.6011 10.608 67.3238 10.144 67.1211 9.6C66.9291 9.04533 66.8331 8.41067 66.8331 7.696C66.8331 6.74667 66.9931 5.94667 67.3131 5.296C67.6331 4.63467 68.0918 4.13333 68.6891 3.792C69.2865 3.44 69.9958 3.264 70.8171 3.264C71.5958 3.264 72.2785 3.44 72.8651 3.792C73.4625 4.13333 73.9265 4.63467 74.2571 5.296C74.5985 5.94667 74.7691 6.74667 74.7691 7.696ZM68.2891 7.696C68.2891 8.368 68.3745 8.95467 68.5451 9.456C68.7265 9.94667 69.0038 10.3253 69.3771 10.592C69.7505 10.8587 70.2251 10.992 70.8011 10.992C71.3771 10.992 71.8518 10.8587 72.2251 10.592C72.5985 10.3253 72.8705 9.94667 73.0411 9.456C73.2225 8.95467 73.3131 8.368 73.3131 7.696C73.3131 7.01333 73.2225 6.432 73.0411 5.952C72.8598 5.472 72.5825 5.104 72.2091 4.848C71.8465 4.58133 71.3718 4.448 70.7851 4.448C69.9105 4.448 69.2758 4.736 68.8811 5.312C68.4865 5.888 68.2891 6.68267 68.2891 7.696ZM82.7644 4.608H79.9644V12H78.5724V4.608H75.8044V3.424H82.7644V4.608ZM85.7818 8.656C85.7818 8.752 85.7764 8.89067 85.7658 9.072C85.7658 9.24267 85.7604 9.42933 85.7498 9.632C85.7391 9.824 85.7284 10.0107 85.7178 10.192C85.7071 10.3627 85.6964 10.5013 85.6858 10.608L90.2778 3.424H92.0058V12H90.6938V6.944C90.6938 6.77333 90.6938 6.54933 90.6938 6.272C90.7044 5.99467 90.7151 5.72267 90.7258 5.456C90.7364 5.17867 90.7471 4.97067 90.7578 4.832L86.1978 12H84.4538V3.424H85.7818V8.656ZM101.631 5.584C101.631 6.11733 101.471 6.53333 101.151 6.832C100.831 7.13067 100.42 7.33333 99.919 7.44V7.504C100.452 7.57867 100.916 7.77067 101.311 8.08C101.706 8.37867 101.903 8.848 101.903 9.488C101.903 9.85067 101.834 10.1867 101.695 10.496C101.567 10.8053 101.364 11.072 101.087 11.296C100.81 11.52 100.452 11.696 100.015 11.824C99.5777 11.9413 99.0497 12 98.431 12H94.735V3.424H98.415C99.023 3.424 99.567 3.49333 100.047 3.632C100.538 3.76 100.922 3.984 101.199 4.304C101.487 4.61333 101.631 5.04 101.631 5.584ZM100.447 9.488C100.447 8.99733 100.26 8.64533 99.887 8.432C99.5137 8.21867 98.9643 8.112 98.239 8.112H96.143V10.864H98.271C98.975 10.864 99.5137 10.7627 99.887 10.56C100.26 10.3467 100.447 9.98933 100.447 9.488ZM100.207 5.76C100.207 5.35467 100.058 5.06133 99.759 4.88C99.471 4.688 98.9963 4.592 98.335 4.592H96.143V6.944H98.079C98.7723 6.944 99.3003 6.848 99.663 6.656C100.026 6.464 100.207 6.16533 100.207 5.76ZM112.191 12.16C111.433 12.16 110.756 12.0053 110.159 11.696C109.572 11.3867 109.108 10.9067 108.767 10.256C108.436 9.60533 108.271 8.77333 108.271 7.76C108.271 6.704 108.447 5.84533 108.799 5.184C109.151 4.52267 109.625 4.03733 110.223 3.728C110.831 3.41867 111.519 3.264 112.287 3.264C112.724 3.264 113.145 3.312 113.551 3.408C113.956 3.49333 114.287 3.6 114.543 3.728L114.111 4.896C113.855 4.8 113.556 4.70933 113.215 4.624C112.873 4.53867 112.553 4.496 112.255 4.496C111.679 4.496 111.204 4.61867 110.831 4.864C110.457 5.10933 110.18 5.472 109.999 5.952C109.817 6.432 109.727 7.02933 109.727 7.744C109.727 8.42667 109.817 9.008 109.999 9.488C110.18 9.968 110.452 10.3307 110.815 10.576C111.177 10.8213 111.631 10.944 112.175 10.944C112.644 10.944 113.055 10.896 113.407 10.8C113.769 10.704 114.1 10.5867 114.399 10.448V11.696C114.111 11.8453 113.791 11.9573 113.439 12.032C113.097 12.1173 112.681 12.16 112.191 12.16ZM117.766 8.656C117.766 8.752 117.761 8.89067 117.75 9.072C117.75 9.24267 117.745 9.42933 117.734 9.632C117.723 9.824 117.713 10.0107 117.702 10.192C117.691 10.3627 117.681 10.5013 117.67 10.608L122.262 3.424H123.99V12H122.678V6.944C122.678 6.77333 122.678 6.54933 122.678 6.272C122.689 5.99467 122.699 5.72267 122.71 5.456C122.721 5.17867 122.731 4.97067 122.742 4.832L118.182 12H116.438V3.424H117.766V8.656ZM130.159 12.16C129.402 12.16 128.725 12.0053 128.127 11.696C127.541 11.3867 127.077 10.9067 126.735 10.256C126.405 9.60533 126.239 8.77333 126.239 7.76C126.239 6.704 126.415 5.84533 126.767 5.184C127.119 4.52267 127.594 4.03733 128.191 3.728C128.799 3.41867 129.487 3.264 130.255 3.264C130.693 3.264 131.114 3.312 131.519 3.408C131.925 3.49333 132.255 3.6 132.511 3.728L132.079 4.896C131.823 4.8 131.525 4.70933 131.183 4.624C130.842 4.53867 130.522 4.496 130.223 4.496C129.647 4.496 129.173 4.61867 128.799 4.864C128.426 5.10933 128.149 5.472 127.967 5.952C127.786 6.432 127.695 7.02933 127.695 7.744C127.695 8.42667 127.786 9.008 127.967 9.488C128.149 9.968 128.421 10.3307 128.783 10.576C129.146 10.8213 129.599 10.944 130.143 10.944C130.613 10.944 131.023 10.896 131.375 10.8C131.738 10.704 132.069 10.5867 132.367 10.448V11.696C132.079 11.8453 131.759 11.9573 131.407 12.032C131.066 12.1173 130.65 12.16 130.159 12.16ZM140.327 4.608H137.527V12H136.135V4.608H133.367V3.424H140.327V4.608ZM145.172 3.264C145.908 3.264 146.537 3.424 147.06 3.744C147.593 4.064 147.999 4.51733 148.276 5.104C148.564 5.68 148.708 6.35733 148.708 7.136V7.984H142.836C142.857 8.95467 143.103 9.696 143.572 10.208C144.052 10.7093 144.719 10.96 145.572 10.96C146.116 10.96 146.596 10.912 147.012 10.816C147.439 10.7093 147.876 10.56 148.324 10.368V11.6C147.887 11.792 147.455 11.9307 147.028 12.016C146.601 12.112 146.095 12.16 145.508 12.16C144.697 12.16 143.977 11.9947 143.348 11.664C142.729 11.3333 142.244 10.8427 141.892 10.192C141.551 9.53067 141.38 8.72533 141.38 7.776C141.38 6.83733 141.535 6.032 141.844 5.36C142.164 4.688 142.607 4.17067 143.172 3.808C143.748 3.44533 144.415 3.264 145.172 3.264ZM145.156 4.416C144.484 4.416 143.951 4.63467 143.556 5.072C143.172 5.49867 142.943 6.096 142.868 6.864H147.236C147.236 6.37333 147.161 5.94667 147.012 5.584C146.863 5.22133 146.633 4.93867 146.324 4.736C146.025 4.52267 145.636 4.416 145.156 4.416ZM160.091 3.424V12H158.827V6.528C158.827 6.304 158.833 6.06933 158.843 5.824C158.865 5.57867 158.886 5.33867 158.907 5.104H158.859L156.059 12H154.875L152.155 5.104H152.107C152.129 5.33867 152.139 5.57867 152.139 5.824C152.15 6.06933 152.155 6.32 152.155 6.576V12H150.891V3.424H152.763L155.467 10.32L158.219 3.424H160.091ZM162.829 12V3.424H164.237V6.944H166.461C167.207 6.944 167.821 7.03467 168.301 7.216C168.781 7.39733 169.138 7.66933 169.373 8.032C169.607 8.384 169.725 8.832 169.725 9.376C169.725 9.90933 169.607 10.3733 169.373 10.768C169.149 11.1627 168.791 11.4667 168.301 11.68C167.821 11.8933 167.186 12 166.397 12H162.829ZM166.269 10.864C166.877 10.864 167.373 10.7627 167.757 10.56C168.141 10.3467 168.333 9.97867 168.333 9.456C168.333 8.93333 168.157 8.58133 167.805 8.4C167.453 8.208 166.946 8.112 166.285 8.112H164.237V10.864H166.269ZM171.149 12V3.424H172.557V12H171.149ZM181.407 8.656C181.407 8.752 181.401 8.89067 181.391 9.072C181.391 9.24267 181.385 9.42933 181.375 9.632C181.364 9.824 181.353 10.0107 181.343 10.192C181.332 10.3627 181.321 10.5013 181.311 10.608L185.903 3.424H187.631V12H186.319V6.944C186.319 6.77333 186.319 6.54933 186.319 6.272C186.329 5.99467 186.34 5.72267 186.351 5.456C186.361 5.17867 186.372 4.97067 186.383 4.832L181.823 12H180.079V3.424H181.407V8.656ZM198.405 3.28C199.45 3.28 200.224 3.50933 200.725 3.968C201.226 4.42667 201.477 5.15733 201.477 6.16V12H200.453L200.181 10.784H200.117C199.872 11.0933 199.616 11.3547 199.349 11.568C199.093 11.7707 198.794 11.92 198.453 12.016C198.122 12.112 197.717 12.16 197.237 12.16C196.725 12.16 196.261 12.0693 195.845 11.888C195.44 11.7067 195.12 11.4293 194.885 11.056C194.65 10.672 194.533 10.192 194.533 9.616C194.533 8.76267 194.869 8.10667 195.541 7.648C196.213 7.17867 197.248 6.92267 198.645 6.88L200.101 6.832V6.32C200.101 5.60533 199.946 5.10933 199.637 4.832C199.328 4.55467 198.89 4.416 198.325 4.416C197.877 4.416 197.45 4.48533 197.045 4.624C196.64 4.752 196.261 4.90133 195.909 5.072L195.477 4.016C195.85 3.81333 196.293 3.64267 196.805 3.504C197.317 3.35467 197.85 3.28 198.405 3.28ZM198.821 7.856C197.754 7.89867 197.013 8.06933 196.597 8.368C196.192 8.66667 195.989 9.088 195.989 9.632C195.989 10.112 196.133 10.464 196.421 10.688C196.72 10.912 197.098 11.024 197.557 11.024C198.282 11.024 198.885 10.8267 199.365 10.432C199.845 10.0267 200.085 9.408 200.085 8.576V7.808L198.821 7.856ZM209.198 3.424H210.734L207.07 7.552L211.038 12H209.406L205.534 7.648V12H204.126V3.424H205.534V7.584L209.198 3.424ZM218.514 4.608H215.714V12H214.322V4.608H211.554V3.424H218.514V4.608ZM221.532 8.656C221.532 8.752 221.526 8.89067 221.516 9.072C221.516 9.24267 221.51 9.42933 221.5 9.632C221.489 9.824 221.478 10.0107 221.468 10.192C221.457 10.3627 221.446 10.5013 221.436 10.608L226.028 3.424H227.756V12H226.444V6.944C226.444 6.77333 226.444 6.54933 226.444 6.272C226.454 5.99467 226.465 5.72267 226.476 5.456C226.486 5.17867 226.497 4.97067 226.508 4.832L221.948 12H220.204V3.424H221.532V8.656ZM237.381 5.584C237.381 6.11733 237.221 6.53333 236.901 6.832C236.581 7.13067 236.17 7.33333 235.669 7.44V7.504C236.202 7.57867 236.666 7.77067 237.061 8.08C237.456 8.37867 237.653 8.848 237.653 9.488C237.653 9.85067 237.584 10.1867 237.445 10.496C237.317 10.8053 237.114 11.072 236.837 11.296C236.56 11.52 236.202 11.696 235.765 11.824C235.328 11.9413 234.8 12 234.181 12H230.485V3.424H234.165C234.773 3.424 235.317 3.49333 235.797 3.632C236.288 3.76 236.672 3.984 236.949 4.304C237.237 4.61333 237.381 5.04 237.381 5.584ZM236.197 9.488C236.197 8.99733 236.01 8.64533 235.637 8.432C235.264 8.21867 234.714 8.112 233.989 8.112H231.893V10.864H234.021C234.725 10.864 235.264 10.7627 235.637 10.56C236.01 10.3467 236.197 9.98933 236.197 9.488ZM235.957 5.76C235.957 5.35467 235.808 5.06133 235.509 4.88C235.221 4.688 234.746 4.592 234.085 4.592H231.893V6.944H233.829C234.522 6.944 235.05 6.848 235.413 6.656C235.776 6.464 235.957 6.16533 235.957 5.76ZM241.112 3.424V6.992H245.768V3.424H247.176V12H245.768V8.176H241.112V12H239.704V3.424H241.112ZM257.347 7.696C257.347 8.41067 257.251 9.04533 257.059 9.6C256.878 10.144 256.611 10.608 256.259 10.992C255.918 11.376 255.497 11.6693 254.995 11.872C254.505 12.064 253.955 12.16 253.347 12.16C252.782 12.16 252.259 12.064 251.779 11.872C251.299 11.6693 250.883 11.376 250.531 10.992C250.179 10.608 249.902 10.144 249.699 9.6C249.507 9.04533 249.411 8.41067 249.411 7.696C249.411 6.74667 249.571 5.94667 249.891 5.296C250.211 4.63467 250.67 4.13333 251.267 3.792C251.865 3.44 252.574 3.264 253.395 3.264C254.174 3.264 254.857 3.44 255.443 3.792C256.041 4.13333 256.505 4.63467 256.835 5.296C257.177 5.94667 257.347 6.74667 257.347 7.696ZM250.867 7.696C250.867 8.368 250.953 8.95467 251.123 9.456C251.305 9.94667 251.582 10.3253 251.955 10.592C252.329 10.8587 252.803 10.992 253.379 10.992C253.955 10.992 254.43 10.8587 254.803 10.592C255.177 10.3253 255.449 9.94667 255.619 9.456C255.801 8.95467 255.891 8.368 255.891 7.696C255.891 7.01333 255.801 6.432 255.619 5.952C255.438 5.472 255.161 5.104 254.787 4.848C254.425 4.58133 253.95 4.448 253.363 4.448C252.489 4.448 251.854 4.736 251.459 5.312C251.065 5.888 250.867 6.68267 250.867 7.696ZM27.0223 27.264C27.6729 27.264 28.2383 27.3547 28.7183 27.536C29.1983 27.7067 29.5716 27.9627 29.8383 28.304C30.1049 28.6347 30.2383 29.04 30.2383 29.52C30.2383 30.0427 30.0943 30.4587 29.8063 30.768C29.5183 31.0667 29.1236 31.2853 28.6223 31.424V31.488C28.9636 31.584 29.2783 31.7173 29.5663 31.888C29.8543 32.0587 30.0836 32.2827 30.2543 32.56C30.4356 32.8373 30.5263 33.1947 30.5263 33.632C30.5263 34.1013 30.3929 34.528 30.1263 34.912C29.8703 35.296 29.4703 35.6 28.9263 35.824C28.3929 36.048 27.7049 36.16 26.8623 36.16C26.4569 36.16 26.0676 36.1387 25.6943 36.096C25.3316 36.0533 25.0009 35.9893 24.7023 35.904C24.4143 35.8187 24.1583 35.7173 23.9342 35.6V34.336C24.2969 34.5067 24.7236 34.6613 25.2143 34.8C25.7156 34.9387 26.2596 35.008 26.8463 35.008C27.2729 35.008 27.6569 34.96 27.9983 34.864C28.3503 34.768 28.6276 34.6187 28.8303 34.416C29.0329 34.2027 29.1343 33.9147 29.1343 33.552C29.1343 33.2213 29.0436 32.9547 28.8623 32.752C28.6809 32.5387 28.4089 32.3787 28.0463 32.272C27.6943 32.1653 27.2409 32.112 26.6863 32.112H25.5343V30.96H26.4623C27.1983 30.96 27.7849 30.864 28.2223 30.672C28.6703 30.4693 28.8943 30.128 28.8943 29.648C28.8943 29.2427 28.7236 28.9387 28.3823 28.736C28.0516 28.5333 27.5716 28.432 26.9423 28.432C26.4729 28.432 26.0569 28.48 25.6943 28.576C25.3423 28.6613 24.9529 28.7947 24.5263 28.976L24.0303 27.856C24.4889 27.6533 24.9689 27.504 25.4703 27.408C25.9716 27.312 26.4889 27.264 27.0223 27.264ZM35.858 27.28C36.9033 27.28 37.6767 27.5093 38.178 27.968C38.6793 28.4267 38.93 29.1573 38.93 30.16V36H37.906L37.634 34.784H37.57C37.3247 35.0933 37.0687 35.3547 36.802 35.568C36.546 35.7707 36.2473 35.92 35.906 36.016C35.5753 36.112 35.17 36.16 34.69 36.16C34.178 36.16 33.714 36.0693 33.298 35.888C32.8927 35.7067 32.5727 35.4293 32.338 35.056C32.1033 34.672 31.986 34.192 31.986 33.616C31.986 32.7627 32.322 32.1067 32.994 31.648C33.666 31.1787 34.7007 30.9227 36.098 30.88L37.554 30.832V30.32C37.554 29.6053 37.3993 29.1093 37.09 28.832C36.7807 28.5547 36.3433 28.416 35.778 28.416C35.33 28.416 34.9033 28.4853 34.498 28.624C34.0927 28.752 33.714 28.9013 33.362 29.072L32.93 28.016C33.3033 27.8133 33.746 27.6427 34.258 27.504C34.77 27.3547 35.3033 27.28 35.858 27.28ZM36.274 31.856C35.2073 31.8987 34.466 32.0693 34.05 32.368C33.6447 32.6667 33.442 33.088 33.442 33.632C33.442 34.112 33.586 34.464 33.874 34.688C34.1727 34.912 34.5513 35.024 35.01 35.024C35.7353 35.024 36.338 34.8267 36.818 34.432C37.298 34.0267 37.538 33.408 37.538 32.576V31.808L36.274 31.856ZM53.1948 27.424V34.832H54.4428V38.96H53.0348V36H41.5788V27.424H42.9868V34.816H46.6828V27.424H48.0908V34.816H51.8028V27.424H53.1948ZM57.4068 32.656C57.4068 32.752 57.4014 32.8907 57.3908 33.072C57.3908 33.2427 57.3854 33.4293 57.3748 33.632C57.3641 33.824 57.3534 34.0107 57.3428 34.192C57.3321 34.3627 57.3214 34.5013 57.3108 34.608L61.9028 27.424H63.6308V36H62.3188V30.944C62.3188 30.7733 62.3188 30.5493 62.3188 30.272C62.3294 29.9947 62.3401 29.7227 62.3508 29.456C62.3614 29.1787 62.3721 28.9707 62.3828 28.832L57.8228 36H56.0788V27.424H57.4068V32.656ZM77.976 27.424V34.832H79.224V38.96H77.816V36H66.36V27.424H67.768V34.816H71.464V27.424H72.872V34.816H76.584V27.424H77.976ZM84.108 27.28C85.1533 27.28 85.9267 27.5093 86.428 27.968C86.9293 28.4267 87.18 29.1573 87.18 30.16V36H86.156L85.884 34.784H85.82C85.5747 35.0933 85.3187 35.3547 85.052 35.568C84.796 35.7707 84.4973 35.92 84.156 36.016C83.8253 36.112 83.42 36.16 82.94 36.16C82.428 36.16 81.964 36.0693 81.548 35.888C81.1427 35.7067 80.8227 35.4293 80.588 35.056C80.3533 34.672 80.236 34.192 80.236 33.616C80.236 32.7627 80.572 32.1067 81.244 31.648C81.916 31.1787 82.9507 30.9227 84.348 30.88L85.804 30.832V30.32C85.804 29.6053 85.6493 29.1093 85.34 28.832C85.0307 28.5547 84.5933 28.416 84.028 28.416C83.58 28.416 83.1533 28.4853 82.748 28.624C82.3427 28.752 81.964 28.9013 81.612 29.072L81.18 28.016C81.5533 27.8133 81.996 27.6427 82.508 27.504C83.02 27.3547 83.5533 27.28 84.108 27.28ZM84.524 31.856C83.4573 31.8987 82.716 32.0693 82.3 32.368C81.8947 32.6667 81.692 33.088 81.692 33.632C81.692 34.112 81.836 34.464 82.124 34.688C82.4227 34.912 82.8013 35.024 83.26 35.024C83.9853 35.024 84.588 34.8267 85.068 34.432C85.548 34.0267 85.788 33.408 85.788 32.576V31.808L84.524 31.856ZM93.1408 27.264C93.8768 27.264 94.5061 27.424 95.0288 27.744C95.5621 28.064 95.9674 28.5173 96.2448 29.104C96.5328 29.68 96.6768 30.3573 96.6768 31.136V31.984H90.8048C90.8261 32.9547 91.0714 33.696 91.5408 34.208C92.0208 34.7093 92.6874 34.96 93.5408 34.96C94.0848 34.96 94.5648 34.912 94.9808 34.816C95.4074 34.7093 95.8448 34.56 96.2928 34.368V35.6C95.8554 35.792 95.4234 35.9307 94.9968 36.016C94.5701 36.112 94.0634 36.16 93.4768 36.16C92.6661 36.16 91.9461 35.9947 91.3168 35.664C90.6981 35.3333 90.2128 34.8427 89.8608 34.192C89.5194 33.5307 89.3488 32.7253 89.3488 31.776C89.3488 30.8373 89.5034 30.032 89.8128 29.36C90.1328 28.688 90.5754 28.1707 91.1408 27.808C91.7168 27.4453 92.3834 27.264 93.1408 27.264ZM93.1248 28.416C92.4528 28.416 91.9194 28.6347 91.5248 29.072C91.1408 29.4987 90.9114 30.096 90.8368 30.864H95.2048C95.2048 30.3733 95.1301 29.9467 94.9808 29.584C94.8314 29.2213 94.6021 28.9387 94.2928 28.736C93.9941 28.5227 93.6048 28.416 93.1248 28.416ZM108.06 27.424V36H106.796V30.528C106.796 30.304 106.801 30.0693 106.812 29.824C106.833 29.5787 106.855 29.3387 106.876 29.104H106.828L104.028 36H102.844L100.124 29.104H100.076C100.097 29.3387 100.108 29.5787 100.108 29.824C100.119 30.0693 100.124 30.32 100.124 30.576V36H98.86V27.424H100.732L103.436 34.32L106.188 27.424H108.06ZM122.842 27.424V36H121.434V28.624H117.002V36H115.594V27.424H122.842ZM129.659 27.264C130.715 27.264 131.563 27.632 132.203 28.368C132.853 29.104 133.179 30.2133 133.179 31.696C133.179 32.6667 133.029 33.488 132.731 34.16C132.443 34.8213 132.032 35.3227 131.499 35.664C130.976 35.9947 130.357 36.16 129.643 36.16C129.205 36.16 128.816 36.1013 128.475 35.984C128.133 35.8667 127.84 35.7173 127.595 35.536C127.36 35.344 127.157 35.136 126.987 34.912H126.891C126.912 35.0933 126.933 35.3227 126.955 35.6C126.976 35.8773 126.987 36.1173 126.987 36.32V39.84H125.579V27.424H126.731L126.923 28.592H126.987C127.157 28.3467 127.36 28.1227 127.595 27.92C127.84 27.7173 128.128 27.5573 128.459 27.44C128.8 27.3227 129.2 27.264 129.659 27.264ZM129.403 28.448C128.827 28.448 128.363 28.56 128.011 28.784C127.659 28.9973 127.403 29.3227 127.243 29.76C127.083 30.1973 126.997 30.752 126.987 31.424V31.696C126.987 32.4 127.061 32.9973 127.211 33.488C127.36 33.9787 127.611 34.352 127.963 34.608C128.325 34.864 128.816 34.992 129.435 34.992C129.957 34.992 130.384 34.848 130.715 34.56C131.056 34.272 131.307 33.8827 131.467 33.392C131.637 32.8907 131.723 32.32 131.723 31.68C131.723 30.6987 131.531 29.9147 131.147 29.328C130.773 28.7413 130.192 28.448 129.403 28.448ZM138.671 27.28C139.716 27.28 140.489 27.5093 140.991 27.968C141.492 28.4267 141.743 29.1573 141.743 30.16V36H140.719L140.447 34.784H140.383C140.137 35.0933 139.881 35.3547 139.615 35.568C139.359 35.7707 139.06 35.92 138.719 36.016C138.388 36.112 137.983 36.16 137.503 36.16C136.991 36.16 136.527 36.0693 136.111 35.888C135.705 35.7067 135.385 35.4293 135.151 35.056C134.916 34.672 134.799 34.192 134.799 33.616C134.799 32.7627 135.135 32.1067 135.807 31.648C136.479 31.1787 137.513 30.9227 138.911 30.88L140.367 30.832V30.32C140.367 29.6053 140.212 29.1093 139.903 28.832C139.593 28.5547 139.156 28.416 138.591 28.416C138.143 28.416 137.716 28.4853 137.311 28.624C136.905 28.752 136.527 28.9013 136.174 29.072L135.743 28.016C136.116 27.8133 136.559 27.6427 137.071 27.504C137.583 27.3547 138.116 27.28 138.671 27.28ZM139.087 31.856C138.02 31.8987 137.279 32.0693 136.863 32.368C136.457 32.6667 136.255 33.088 136.255 33.632C136.255 34.112 136.399 34.464 136.687 34.688C136.985 34.912 137.364 35.024 137.823 35.024C138.548 35.024 139.151 34.8267 139.631 34.432C140.111 34.0267 140.351 33.408 140.351 32.576V31.808L139.087 31.856ZM151.287 29.584C151.287 30.1173 151.127 30.5333 150.807 30.832C150.487 31.1307 150.077 31.3333 149.575 31.44V31.504C150.109 31.5787 150.573 31.7707 150.967 32.08C151.362 32.3787 151.559 32.848 151.559 33.488C151.559 33.8507 151.49 34.1867 151.351 34.496C151.223 34.8053 151.021 35.072 150.743 35.296C150.466 35.52 150.109 35.696 149.671 35.824C149.234 35.9413 148.706 36 148.087 36H144.391V27.424H148.071C148.679 27.424 149.223 27.4933 149.703 27.632C150.194 27.76 150.578 27.984 150.855 28.304C151.143 28.6133 151.287 29.04 151.287 29.584ZM150.103 33.488C150.103 32.9973 149.917 32.6453 149.543 32.432C149.17 32.2187 148.621 32.112 147.895 32.112H145.799V34.864H147.927C148.631 34.864 149.17 34.7627 149.543 34.56C149.917 34.3467 150.103 33.9893 150.103 33.488ZM149.863 29.76C149.863 29.3547 149.714 29.0613 149.415 28.88C149.127 28.688 148.653 28.592 147.991 28.592H145.799V30.944H147.735C148.429 30.944 148.957 30.848 149.319 30.656C149.682 30.464 149.863 30.1653 149.863 29.76ZM156.858 27.28C157.903 27.28 158.677 27.5093 159.178 27.968C159.679 28.4267 159.93 29.1573 159.93 30.16V36H158.906L158.634 34.784H158.57C158.325 35.0933 158.069 35.3547 157.802 35.568C157.546 35.7707 157.247 35.92 156.906 36.016C156.575 36.112 156.17 36.16 155.69 36.16C155.178 36.16 154.714 36.0693 154.298 35.888C153.893 35.7067 153.573 35.4293 153.338 35.056C153.103 34.672 152.986 34.192 152.986 33.616C152.986 32.7627 153.322 32.1067 153.994 31.648C154.666 31.1787 155.701 30.9227 157.098 30.88L158.554 30.832V30.32C158.554 29.6053 158.399 29.1093 158.09 28.832C157.781 28.5547 157.343 28.416 156.778 28.416C156.33 28.416 155.903 28.4853 155.498 28.624C155.093 28.752 154.714 28.9013 154.362 29.072L153.93 28.016C154.303 27.8133 154.746 27.6427 155.258 27.504C155.77 27.3547 156.303 27.28 156.858 27.28ZM157.274 31.856C156.207 31.8987 155.466 32.0693 155.05 32.368C154.645 32.6667 154.442 33.088 154.442 33.632C154.442 34.112 154.586 34.464 154.874 34.688C155.173 34.912 155.551 35.024 156.01 35.024C156.735 35.024 157.338 34.8267 157.818 34.432C158.298 34.0267 158.538 33.408 158.538 32.576V31.808L157.274 31.856ZM173.744 27.424V34.816H174.992V38.976H173.632V36H167.664V38.976H166.32V34.816H167.008C167.498 34.1333 167.904 33.392 168.224 32.592C168.554 31.7813 168.8 30.9387 168.96 30.064C169.13 29.1787 169.221 28.2987 169.232 27.424H173.744ZM170.48 28.528C170.437 29.2533 170.325 30.0053 170.144 30.784C169.962 31.552 169.728 32.288 169.44 32.992C169.162 33.696 168.837 34.304 168.464 34.816H172.384V28.528H170.48ZM179.985 27.264C180.721 27.264 181.35 27.424 181.873 27.744C182.406 28.064 182.811 28.5173 183.089 29.104C183.377 29.68 183.521 30.3573 183.521 31.136V31.984H177.649C177.67 32.9547 177.915 33.696 178.385 34.208C178.865 34.7093 179.531 34.96 180.385 34.96C180.929 34.96 181.409 34.912 181.825 34.816C182.251 34.7093 182.689 34.56 183.137 34.368V35.6C182.699 35.792 182.267 35.9307 181.841 36.016C181.414 36.112 180.907 36.16 180.321 36.16C179.51 36.16 178.79 35.9947 178.161 35.664C177.542 35.3333 177.057 34.8427 176.705 34.192C176.363 33.5307 176.193 32.7253 176.193 31.776C176.193 30.8373 176.347 30.032 176.657 29.36C176.977 28.688 177.419 28.1707 177.985 27.808C178.561 27.4453 179.227 27.264 179.985 27.264ZM179.969 28.416C179.297 28.416 178.763 28.6347 178.369 29.072C177.985 29.4987 177.755 30.096 177.681 30.864H182.049C182.049 30.3733 181.974 29.9467 181.825 29.584C181.675 29.2213 181.446 28.9387 181.137 28.736C180.838 28.5227 180.449 28.416 179.969 28.416ZM192.6 29.584C192.6 30.1173 192.44 30.5333 192.12 30.832C191.8 31.1307 191.389 31.3333 190.888 31.44V31.504C191.421 31.5787 191.885 31.7707 192.28 32.08C192.674 32.3787 192.872 32.848 192.872 33.488C192.872 33.8507 192.802 34.1867 192.664 34.496C192.536 34.8053 192.333 35.072 192.056 35.296C191.778 35.52 191.421 35.696 190.984 35.824C190.546 35.9413 190.018 36 189.4 36H185.704V27.424H189.384C189.992 27.424 190.536 27.4933 191.016 27.632C191.506 27.76 191.89 27.984 192.168 28.304C192.456 28.6133 192.6 29.04 192.6 29.584ZM191.416 33.488C191.416 32.9973 191.229 32.6453 190.856 32.432C190.482 32.2187 189.933 32.112 189.208 32.112H187.112V34.864H189.24C189.944 34.864 190.482 34.7627 190.856 34.56C191.229 34.3467 191.416 33.9893 191.416 33.488ZM191.176 29.76C191.176 29.3547 191.026 29.0613 190.728 28.88C190.44 28.688 189.965 28.592 189.304 28.592H187.112V30.944H189.048C189.741 30.944 190.269 30.848 190.632 30.656C190.994 30.464 191.176 30.1653 191.176 29.76ZM193.579 27.424H195.083L196.939 32.304C197.045 32.592 197.141 32.8693 197.227 33.136C197.323 33.4027 197.408 33.664 197.483 33.92C197.557 34.1653 197.616 34.4053 197.659 34.64H197.723C197.787 34.3733 197.888 34.0267 198.027 33.6C198.165 33.1627 198.309 32.7253 198.459 32.288L200.203 27.424H201.723L198.027 37.184C197.824 37.7173 197.584 38.1813 197.307 38.576C197.04 38.9813 196.709 39.2907 196.315 39.504C195.931 39.728 195.461 39.84 194.907 39.84C194.651 39.84 194.427 39.824 194.235 39.792C194.043 39.7707 193.877 39.744 193.739 39.712V38.592C193.856 38.6133 193.995 38.6347 194.155 38.656C194.325 38.6773 194.501 38.688 194.683 38.688C195.013 38.688 195.296 38.624 195.531 38.496C195.776 38.3787 195.984 38.2027 196.155 37.968C196.325 37.744 196.469 37.4773 196.587 37.168L197.035 36.032L193.579 27.424ZM214.711 27.424V36H203.079V27.424H204.487V34.816H208.183V27.424H209.591V34.816H213.303V27.424H214.711ZM220.766 27.264C221.502 27.264 222.131 27.424 222.654 27.744C223.187 28.064 223.592 28.5173 223.87 29.104C224.158 29.68 224.302 30.3573 224.302 31.136V31.984H218.43C218.451 32.9547 218.696 33.696 219.166 34.208C219.646 34.7093 220.312 34.96 221.166 34.96C221.71 34.96 222.19 34.912 222.606 34.816C223.032 34.7093 223.47 34.56 223.918 34.368V35.6C223.48 35.792 223.048 35.9307 222.622 36.016C222.195 36.112 221.688 36.16 221.102 36.16C220.291 36.16 219.571 35.9947 218.942 35.664C218.323 35.3333 217.838 34.8427 217.486 34.192C217.144 33.5307 216.974 32.7253 216.974 31.776C216.974 30.8373 217.128 30.032 217.438 29.36C217.758 28.688 218.2 28.1707 218.766 27.808C219.342 27.4453 220.008 27.264 220.766 27.264ZM220.75 28.416C220.078 28.416 219.544 28.6347 219.15 29.072C218.766 29.4987 218.536 30.096 218.462 30.864H222.83C222.83 30.3733 222.755 29.9467 222.606 29.584C222.456 29.2213 222.227 28.9387 221.918 28.736C221.619 28.5227 221.23 28.416 220.75 28.416ZM231.557 27.424H233.093L229.429 31.552L233.397 36H231.765L227.893 31.648V36H226.485V27.424H227.893V31.584L231.557 27.424Z" fill="#373737"/>
</svg>
