<svg width="127" height="40" viewBox="0 0 127 40" fill="none" xmlns="http://www.w3.org/2000/svg">
<rect x="0.5" y="0.5" width="126" height="39" rx="9.5" fill="#FAD3E7"/>
<path d="M23.3454 14.416V15.824C24.5827 15.8453 25.5587 16.048 26.2734 16.432C26.988 16.816 27.4947 17.328 27.7934 17.968C28.092 18.5973 28.2414 19.3013 28.2414 20.08C28.2414 20.592 28.1614 21.104 28.0014 21.616C27.852 22.1173 27.5907 22.576 27.2174 22.992C26.844 23.3973 26.3427 23.728 25.7134 23.984C25.084 24.24 24.2947 24.3787 23.3454 24.4V26.16H21.9214V24.4C20.9507 24.3787 20.1454 24.24 19.5054 23.984C18.876 23.7173 18.38 23.376 18.0174 22.96C17.6547 22.5333 17.3987 22.0693 17.2494 21.568C17.1 21.0667 17.0254 20.5707 17.0254 20.08C17.0254 19.5147 17.1054 18.9813 17.2654 18.48C17.436 17.968 17.708 17.52 18.0814 17.136C18.4654 16.7413 18.972 16.4267 19.6014 16.192C20.2307 15.9573 21.004 15.8347 21.9214 15.824V14.416H23.3454ZM21.9214 17.04C21.068 17.0613 20.3854 17.2 19.8734 17.456C19.372 17.712 19.0147 18.064 18.8014 18.512C18.588 18.9493 18.4814 19.4667 18.4814 20.064C18.4814 20.6933 18.5987 21.2427 18.8334 21.712C19.0787 22.1707 19.452 22.528 19.9534 22.784C20.4654 23.04 21.1214 23.184 21.9214 23.216V17.04ZM23.3454 23.216C24.1667 23.184 24.828 23.0347 25.3294 22.768C25.8414 22.5013 26.2094 22.1387 26.4334 21.68C26.668 21.2107 26.7854 20.672 26.7854 20.064C26.7854 19.456 26.6787 18.9333 26.4654 18.496C26.252 18.048 25.8947 17.7013 25.3934 17.456C24.892 17.2 24.2094 17.0613 23.3454 17.04V23.216ZM37.6448 21.696C37.6448 22.4107 37.5488 23.0453 37.3568 23.6C37.1754 24.144 36.9088 24.608 36.5568 24.992C36.2154 25.376 35.7941 25.6693 35.2928 25.872C34.8021 26.064 34.2528 26.16 33.6448 26.16C33.0794 26.16 32.5568 26.064 32.0768 25.872C31.5968 25.6693 31.1808 25.376 30.8288 24.992C30.4768 24.608 30.1994 24.144 29.9968 23.6C29.8048 23.0453 29.7088 22.4107 29.7088 21.696C29.7088 20.7467 29.8688 19.9467 30.1888 19.296C30.5088 18.6347 30.9674 18.1333 31.5648 17.792C32.1621 17.44 32.8714 17.264 33.6928 17.264C34.4714 17.264 35.1541 17.44 35.7408 17.792C36.3381 18.1333 36.8021 18.6347 37.1328 19.296C37.4741 19.9467 37.6448 20.7467 37.6448 21.696ZM31.1648 21.696C31.1648 22.368 31.2501 22.9547 31.4208 23.456C31.6021 23.9467 31.8794 24.3253 32.2528 24.592C32.6261 24.8587 33.1008 24.992 33.6768 24.992C34.2528 24.992 34.7274 24.8587 35.1008 24.592C35.4741 24.3253 35.7461 23.9467 35.9168 23.456C36.0981 22.9547 36.1888 22.368 36.1888 21.696C36.1888 21.0133 36.0981 20.432 35.9168 19.952C35.7354 19.472 35.4581 19.104 35.0848 18.848C34.7221 18.5813 34.2474 18.448 33.6608 18.448C32.7861 18.448 32.1514 18.736 31.7568 19.312C31.3621 19.888 31.1648 20.6827 31.1648 21.696ZM43.7163 17.264C44.7723 17.264 45.6203 17.632 46.2603 18.368C46.9109 19.104 47.2363 20.2133 47.2363 21.696C47.2363 22.6667 47.0869 23.488 46.7883 24.16C46.5003 24.8213 46.0896 25.3227 45.5563 25.664C45.0336 25.9947 44.4149 26.16 43.7003 26.16C43.2629 26.16 42.8736 26.1013 42.5323 25.984C42.1909 25.8667 41.8976 25.7173 41.6523 25.536C41.4176 25.344 41.2149 25.136 41.0443 24.912H40.9483C40.9696 25.0933 40.9909 25.3227 41.0123 25.6C41.0336 25.8773 41.0443 26.1173 41.0443 26.32V29.84H39.6363V17.424H40.7883L40.9803 18.592H41.0443C41.2149 18.3467 41.4176 18.1227 41.6523 17.92C41.8976 17.7173 42.1856 17.5573 42.5163 17.44C42.8576 17.3227 43.2576 17.264 43.7163 17.264ZM43.4603 18.448C42.8843 18.448 42.4203 18.56 42.0683 18.784C41.7163 18.9973 41.4603 19.3227 41.3003 19.76C41.1403 20.1973 41.0549 20.752 41.0443 21.424V21.696C41.0443 22.4 41.1189 22.9973 41.2683 23.488C41.4176 23.9787 41.6683 24.352 42.0203 24.608C42.3829 24.864 42.8736 24.992 43.4923 24.992C44.0149 24.992 44.4416 24.848 44.7723 24.56C45.1136 24.272 45.3643 23.8827 45.5243 23.392C45.6949 22.8907 45.7803 22.32 45.7803 21.68C45.7803 20.6987 45.5883 19.9147 45.2043 19.328C44.8309 18.7413 44.2496 18.448 43.4603 18.448ZM47.7398 17.424H49.2438L51.0998 22.304C51.2064 22.592 51.3024 22.8693 51.3878 23.136C51.4838 23.4027 51.5691 23.664 51.6438 23.92C51.7184 24.1653 51.7771 24.4053 51.8198 24.64H51.8838C51.9478 24.3733 52.0491 24.0267 52.1878 23.6C52.3264 23.1627 52.4704 22.7253 52.6198 22.288L54.3638 17.424H55.8838L52.1878 27.184C51.9851 27.7173 51.7451 28.1813 51.4678 28.576C51.2011 28.9813 50.8704 29.2907 50.4758 29.504C50.0918 29.728 49.6224 29.84 49.0678 29.84C48.8118 29.84 48.5878 29.824 48.3958 29.792C48.2038 29.7707 48.0384 29.744 47.8998 29.712V28.592C48.0171 28.6133 48.1558 28.6347 48.3158 28.656C48.4864 28.6773 48.6624 28.688 48.8438 28.688C49.1744 28.688 49.4571 28.624 49.6918 28.496C49.9371 28.3787 50.1451 28.2027 50.3158 27.968C50.4864 27.744 50.6304 27.4773 50.7478 27.168L51.1958 26.032L47.7398 17.424ZM66.2 17.424V26H64.936V20.528C64.936 20.304 64.9413 20.0693 64.952 19.824C64.9733 19.5787 64.9947 19.3387 65.016 19.104H64.968L62.168 26H60.984L58.264 19.104H58.216C58.2373 19.3387 58.248 19.5787 58.248 19.824C58.2587 20.0693 58.264 20.32 58.264 20.576V26H57V17.424H58.872L61.576 24.32L64.328 17.424H66.2ZM68.6975 26V17.424H70.1055V20.944H72.3295C73.0762 20.944 73.6895 21.0347 74.1695 21.216C74.6495 21.3973 75.0068 21.6693 75.2415 22.032C75.4762 22.384 75.5935 22.832 75.5935 23.376C75.5935 23.9093 75.4762 24.3733 75.2415 24.768C75.0175 25.1627 74.6602 25.4667 74.1695 25.68C73.6895 25.8933 73.0548 26 72.2655 26H68.6975ZM72.1375 24.864C72.7455 24.864 73.2415 24.7627 73.6255 24.56C74.0095 24.3467 74.2015 23.9787 74.2015 23.456C74.2015 22.9333 74.0255 22.5813 73.6735 22.4C73.3215 22.208 72.8148 22.112 72.1535 22.112H70.1055V24.864H72.1375ZM77.0175 26V17.424H78.4255V26H77.0175Z" fill="black"/>
<path d="M105 15.91C104.97 15.91 104.95 15.91 104.92 15.91H104.87C102.98 15.85 101.57 14.39 101.57 12.59C101.57 10.75 103.07 9.26001 104.9 9.26001C106.73 9.26001 108.23 10.76 108.23 12.59C108.22 14.4 106.81 15.86 105.01 15.92C105.01 15.91 105.01 15.91 105 15.91ZM104.9 10.75C103.89 10.75 103.07 11.57 103.07 12.58C103.07 13.57 103.84 14.37 104.83 14.41C104.84 14.4 104.92 14.4 105.01 14.41C105.98 14.36 106.73 13.56 106.74 12.58C106.74 11.57 105.92 10.75 104.9 10.75Z" fill="#292D32"/>
<path d="M105.01 23.2801C104.62 23.2801 104.23 23.2501 103.84 23.1801C103.43 23.1101 103.16 22.7201 103.23 22.3101C103.3 21.9001 103.69 21.6301 104.1 21.7001C105.33 21.9101 106.63 21.6802 107.5 21.1002C107.97 20.7902 108.22 20.4001 108.22 20.0101C108.22 19.6201 107.96 19.2401 107.5 18.9301C106.63 18.3501 105.31 18.1201 104.07 18.3401C103.66 18.4201 103.27 18.1401 103.2 17.7301C103.13 17.3201 103.4 16.9302 103.81 16.8602C105.44 16.5702 107.13 16.8801 108.33 17.6801C109.21 18.2701 109.72 19.1101 109.72 20.0101C109.72 20.9001 109.22 21.7502 108.33 22.3502C107.42 22.9502 106.24 23.2801 105.01 23.2801Z" fill="#292D32"/>
<path d="M92.97 15.91C92.96 15.91 92.95 15.91 92.95 15.91C91.15 15.85 89.74 14.39 89.73 12.59C89.73 10.75 91.23 9.25 93.06 9.25C94.89 9.25 96.39 10.75 96.39 12.58C96.39 14.39 94.98 15.85 93.18 15.91L92.97 15.16L93.04 15.91C93.02 15.91 92.99 15.91 92.97 15.91ZM93.07 14.41C93.13 14.41 93.18 14.41 93.24 14.42C94.13 14.38 94.91 13.58 94.91 12.59C94.91 11.58 94.09 10.76 93.08 10.76C92.07 10.76 91.25 11.58 91.25 12.59C91.25 13.57 92.01 14.36 92.98 14.42C92.99 14.41 93.03 14.41 93.07 14.41Z" fill="#292D32"/>
<path d="M92.96 23.2801C91.73 23.2801 90.55 22.9502 89.64 22.3502C88.76 21.7602 88.25 20.9101 88.25 20.0101C88.25 19.1201 88.76 18.2701 89.64 17.6801C90.84 16.8801 92.53 16.5702 94.16 16.8602C94.57 16.9302 94.84 17.3201 94.77 17.7301C94.7 18.1401 94.31 18.4201 93.9 18.3401C92.66 18.1201 91.35 18.3501 90.47 18.9301C90 19.2401 89.75 19.6201 89.75 20.0101C89.75 20.4001 90.01 20.7902 90.47 21.1002C91.34 21.6802 92.64 21.9101 93.87 21.7001C94.28 21.6301 94.67 21.9101 94.74 22.3101C94.81 22.7201 94.54 23.1101 94.13 23.1801C93.74 23.2501 93.35 23.2801 92.96 23.2801Z" fill="#292D32"/>
<path d="M98.9998 23.38C98.9698 23.38 98.9498 23.38 98.9198 23.38H98.8698C96.9798 23.32 95.5698 21.86 95.5698 20.06C95.5698 18.22 97.0698 16.73 98.8998 16.73C100.73 16.73 102.23 18.23 102.23 20.06C102.22 21.87 100.81 23.33 99.0098 23.39C99.0098 23.38 99.0098 23.38 98.9998 23.38ZM98.8998 18.22C97.8898 18.22 97.0698 19.04 97.0698 20.05C97.0698 21.04 97.8398 21.84 98.8298 21.88C98.8398 21.87 98.9198 21.87 99.0098 21.88C99.9798 21.83 100.73 21.03 100.74 20.05C100.74 19.05 99.9198 18.22 98.8998 18.22Z" fill="#292D32"/>
<path d="M98.9998 30.76C97.7998 30.76 96.5998 30.45 95.6698 29.82C94.7898 29.23 94.2798 28.39 94.2798 27.49C94.2798 26.6 94.7798 25.74 95.6698 25.15C97.5398 23.91 100.47 23.91 102.33 25.15C103.21 25.74 103.72 26.58 103.72 27.48C103.72 28.37 103.22 29.23 102.33 29.82C101.4 30.44 100.2 30.76 98.9998 30.76ZM96.4998 26.41C96.0298 26.72 95.7798 27.11 95.7798 27.5C95.7798 27.89 96.0398 28.27 96.4998 28.58C97.8498 29.49 100.14 29.49 101.49 28.58C101.96 28.27 102.21 27.88 102.21 27.49C102.21 27.1 101.95 26.72 101.49 26.41C100.15 25.5 97.8598 25.51 96.4998 26.41Z" fill="#292D32"/>
<rect x="0.5" y="0.5" width="126" height="39" rx="9.5" stroke="#FAD3E7"/>
</svg>
