<svg width="375" height="74" viewBox="0 0 375 74" fill="none" xmlns="http://www.w3.org/2000/svg">
<g filter="url(#filter0_d_2607_5513)">
<rect x="23" y="20" width="327" height="50" rx="10" fill="#FDFDFD" shape-rendering="crispEdges"/>
<path d="M83.845 50H82.495V40.475H79.15V39.29H87.175V40.475H83.845V50ZM91.6879 41.81C92.6779 41.81 93.4729 42.155 94.0729 42.845C94.6829 43.535 94.9879 44.575 94.9879 45.965C94.9879 46.875 94.8479 47.645 94.5679 48.275C94.2979 48.895 93.9129 49.365 93.4129 49.685C92.9229 49.995 92.3429 50.15 91.6729 50.15C91.2629 50.15 90.8979 50.095 90.5779 49.985C90.2579 49.875 89.9829 49.735 89.7529 49.565C89.5329 49.385 89.3429 49.19 89.1829 48.98H89.0929C89.1129 49.15 89.1329 49.365 89.1529 49.625C89.1729 49.885 89.1829 50.11 89.1829 50.3V53.6H87.8629V41.96H88.9429L89.1229 43.055H89.1829C89.3429 42.825 89.5329 42.615 89.7529 42.425C89.9829 42.235 90.2529 42.085 90.5629 41.975C90.8829 41.865 91.2579 41.81 91.6879 41.81ZM91.4479 42.92C90.9079 42.92 90.4729 43.025 90.1429 43.235C89.8129 43.435 89.5729 43.74 89.4229 44.15C89.2729 44.56 89.1929 45.08 89.1829 45.71V45.965C89.1829 46.625 89.2529 47.185 89.3929 47.645C89.5329 48.105 89.7679 48.455 90.0979 48.695C90.4379 48.935 90.8979 49.055 91.4779 49.055C91.9679 49.055 92.3679 48.92 92.6779 48.65C92.9979 48.38 93.2329 48.015 93.3829 47.555C93.5429 47.085 93.6229 46.55 93.6229 45.95C93.6229 45.03 93.4429 44.295 93.0829 43.745C92.7329 43.195 92.1879 42.92 91.4479 42.92ZM100.196 41.81C100.886 41.81 101.476 41.96 101.966 42.26C102.466 42.56 102.846 42.985 103.106 43.535C103.376 44.075 103.511 44.71 103.511 45.44V46.235H98.0064C98.0264 47.145 98.2564 47.84 98.6964 48.32C99.1464 48.79 99.7714 49.025 100.571 49.025C101.081 49.025 101.531 48.98 101.921 48.89C102.321 48.79 102.731 48.65 103.151 48.47V49.625C102.741 49.805 102.336 49.935 101.936 50.015C101.536 50.105 101.061 50.15 100.511 50.15C99.7514 50.15 99.0764 49.995 98.4864 49.685C97.9064 49.375 97.4514 48.915 97.1214 48.305C96.8014 47.685 96.6414 46.93 96.6414 46.04C96.6414 45.16 96.7864 44.405 97.0764 43.775C97.3764 43.145 97.7914 42.66 98.3214 42.32C98.8614 41.98 99.4864 41.81 100.196 41.81ZM100.181 42.89C99.5514 42.89 99.0514 43.095 98.6814 43.505C98.3214 43.905 98.1064 44.465 98.0364 45.185H102.131C102.131 44.725 102.061 44.325 101.921 43.985C101.781 43.645 101.566 43.38 101.276 43.19C100.996 42.99 100.631 42.89 100.181 42.89ZM106.878 41.96V45.305H111.243V41.96H112.563V50H111.243V46.415H106.878V50H105.558V41.96H106.878ZM116.354 46.865C116.354 46.955 116.349 47.085 116.339 47.255C116.339 47.415 116.334 47.59 116.324 47.78C116.314 47.96 116.304 48.135 116.294 48.305C116.284 48.465 116.274 48.595 116.264 48.695L120.569 41.96H122.189V50H120.959V45.26C120.959 45.1 120.959 44.89 120.959 44.63C120.969 44.37 120.979 44.115 120.989 43.865C120.999 43.605 121.009 43.41 121.019 43.28L116.744 50H115.109V41.96H116.354V46.865ZM126.068 41.96V45.305H130.433V41.96H131.753V50H130.433V46.415H126.068V50H124.748V41.96H126.068ZM139.203 41.96V43.07H135.618V50H134.298V41.96H139.203ZM142.033 46.865C142.033 46.955 142.028 47.085 142.018 47.255C142.018 47.415 142.013 47.59 142.003 47.78C141.993 47.96 141.983 48.135 141.973 48.305C141.963 48.465 141.953 48.595 141.943 48.695L146.248 41.96H147.868V50H146.638V45.26C146.638 45.1 146.638 44.89 146.638 44.63C146.648 44.37 146.658 44.115 146.668 43.865C146.678 43.605 146.688 43.41 146.698 43.28L142.423 50H140.788V41.96H142.033V46.865Z" fill="black"/>
<path d="M65.0001 40.16C64.9401 40.15 64.8701 40.15 64.8101 40.16C63.4301 40.11 62.3301 38.98 62.3301 37.58C62.3301 36.15 63.4801 35 64.9101 35C66.3401 35 67.4901 36.16 67.4901 37.58C67.4801 38.98 66.3801 40.11 65.0001 40.16Z" stroke="#DB66E4" stroke-width="1.5" stroke-linecap="round" stroke-linejoin="round"/>
<path d="M63.9699 47.4399C65.3399 47.6699 66.8499 47.4299 67.9099 46.7199C69.3199 45.7799 69.3199 44.2399 67.9099 43.2999C66.8399 42.5899 65.3099 42.3499 63.9399 42.5899" stroke="#DB66E4" stroke-width="1.5" stroke-linecap="round" stroke-linejoin="round"/>
<path d="M52.97 40.16C53.03 40.15 53.1 40.15 53.16 40.16C54.54 40.11 55.64 38.98 55.64 37.58C55.64 36.15 54.49 35 53.06 35C51.63 35 50.48 36.16 50.48 37.58C50.49 38.98 51.59 40.11 52.97 40.16Z" stroke="#DB66E4" stroke-width="1.5" stroke-linecap="round" stroke-linejoin="round"/>
<path d="M53.9999 47.4399C52.6299 47.6699 51.1199 47.4299 50.0599 46.7199C48.6499 45.7799 48.6499 44.2399 50.0599 43.2999C51.1299 42.5899 52.6599 42.3499 54.0299 42.5899" stroke="#DB66E4" stroke-width="1.5" stroke-linecap="round" stroke-linejoin="round"/>
<path d="M59.0001 47.63C58.9401 47.62 58.8701 47.62 58.8101 47.63C57.4301 47.58 56.3301 46.45 56.3301 45.05C56.3301 43.62 57.4801 42.47 58.9101 42.47C60.3401 42.47 61.4901 43.63 61.4901 45.05C61.4801 46.45 60.3801 47.59 59.0001 47.63Z" stroke="#DB66E4" stroke-width="1.5" stroke-linecap="round" stroke-linejoin="round"/>
<path d="M56.0902 50.7799C54.6802 51.7199 54.6802 53.2599 56.0902 54.1999C57.6902 55.2699 60.3102 55.2699 61.9102 54.1999C63.3202 53.2599 63.3202 51.7199 61.9102 50.7799C60.3202 49.7199 57.6902 49.7199 56.0902 50.7799Z" stroke="#DB66E4" stroke-width="1.5" stroke-linecap="round" stroke-linejoin="round"/>
<path d="M319.382 41.2092L318.454 42.0489L322.392 45.6113H305.278V46.7988H322.392L318.454 50.3611L319.382 51.2008L324.904 46.205L319.382 41.2092Z" fill="black"/>
<rect x="23.5" y="20.5" width="326" height="49" rx="9.5" stroke="#DB66E4" shape-rendering="crispEdges"/>
</g>
<defs>
<filter id="filter0_d_2607_5513" x="-47" y="0" width="467" height="190" filterUnits="userSpaceOnUse" color-interpolation-filters="sRGB">
<feFlood flood-opacity="0" result="BackgroundImageFix"/>
<feColorMatrix in="SourceAlpha" type="matrix" values="0 0 0 0 0 0 0 0 0 0 0 0 0 0 0 0 0 0 127 0" result="hardAlpha"/>
<feOffset dy="50"/>
<feGaussianBlur stdDeviation="35"/>
<feComposite in2="hardAlpha" operator="out"/>
<feColorMatrix type="matrix" values="0 0 0 0 0 0 0 0 0 0 0 0 0 0 0 0 0 0 0.05 0"/>
<feBlend mode="normal" in2="BackgroundImageFix" result="effect1_dropShadow_2607_5513"/>
<feBlend mode="normal" in="SourceGraphic" in2="effect1_dropShadow_2607_5513" result="shape"/>
</filter>
</defs>
</svg>
