<svg width="290" height="38" viewBox="0 0 290 38" fill="none" xmlns="http://www.w3.org/2000/svg">
<circle cx="17.2282" cy="25.739" r="2.39131" stroke="black" stroke-width="2"/>
<circle cx="32.5314" cy="25.739" r="2.39131" stroke="black" stroke-width="2"/>
<path d="M29.7821 13.1843L29.7821 9.99952C29.7821 9.44723 29.3344 8.99951 28.7821 8.99951H12.2495C11.6972 8.99951 11.2495 9.44723 11.2495 9.99951V21.5539C11.2495 21.884 11.5172 22.1517 11.8473 22.1517V22.1517M29.7821 13.1843L29.8357 22.1517M29.7821 13.1843H32.7713M35.8806 25.3634H37.7495C38.3018 25.3634 38.7495 24.9157 38.7495 24.3634V19.7604M29.3268 25.3634H26.9002M20.5597 25.3634H22.6082M14.0797 25.3634C14.0797 25.3634 12.7869 25.3634 11.9586 25.3634V25.3634C11.8972 25.3634 11.8473 25.3136 11.8473 25.2521V22.1517M11.8473 22.1517H22.6082M29.7821 22.1517H29.8357M22.6082 25.3634V22.1517M22.6082 25.3634H26.9002M22.6082 22.1517H26.9002M26.9002 25.3634V22.1517M26.9002 22.1517H29.8357M32.7713 13.1843H34.5647L37.285 15.9046C38.2227 16.8423 38.7495 18.1141 38.7495 19.4401V19.7604M32.7713 13.1843V18.7604C32.7713 19.3127 33.219 19.7604 33.7713 19.7604H38.7495" stroke="black" stroke-width="2" stroke-linecap="round" stroke-linejoin="round"/>
<path d="M53.528 14.636C54.44 14.636 55.228 14.808 55.892 15.152C56.564 15.488 57.076 15.972 57.428 16.604C57.788 17.236 57.968 17.98 57.968 18.836C57.968 19.692 57.788 20.436 57.428 21.068C57.076 21.692 56.564 22.172 55.892 22.508C55.228 22.836 54.44 23 53.528 23H50.924V14.636H53.528ZM53.528 22.1C54.608 22.1 55.432 21.816 56 21.248C56.568 20.672 56.852 19.868 56.852 18.836C56.852 17.796 56.564 16.984 55.988 16.4C55.42 15.816 54.6 15.524 53.528 15.524H52.016V22.1H53.528ZM65.4084 19.46C65.4084 19.668 65.3964 19.888 65.3724 20.12H60.1164C60.1564 20.768 60.3764 21.276 60.7764 21.644C61.1844 22.004 61.6764 22.184 62.2524 22.184C62.7244 22.184 63.1164 22.076 63.4284 21.86C63.7484 21.636 63.9724 21.34 64.1004 20.972H65.2764C65.1004 21.604 64.7484 22.12 64.2204 22.52C63.6924 22.912 63.0364 23.108 62.2524 23.108C61.6284 23.108 61.0684 22.968 60.5724 22.688C60.0844 22.408 59.7004 22.012 59.4204 21.5C59.1404 20.98 59.0004 20.38 59.0004 19.7C59.0004 19.02 59.1364 18.424 59.4084 17.912C59.6804 17.4 60.0604 17.008 60.5484 16.736C61.0444 16.456 61.6124 16.316 62.2524 16.316C62.8764 16.316 63.4284 16.452 63.9084 16.724C64.3884 16.996 64.7564 17.372 65.0124 17.852C65.2764 18.324 65.4084 18.86 65.4084 19.46ZM64.2804 19.232C64.2804 18.816 64.1884 18.46 64.0044 18.164C63.8204 17.86 63.5684 17.632 63.2484 17.48C62.9364 17.32 62.5884 17.24 62.2044 17.24C61.6524 17.24 61.1804 17.416 60.7884 17.768C60.4044 18.12 60.1844 18.608 60.1284 19.232H64.2804ZM67.9418 14.12V23H66.8498V14.12H67.9418ZM70.3669 15.356C70.1589 15.356 69.9829 15.284 69.8389 15.14C69.6949 14.996 69.6229 14.82 69.6229 14.612C69.6229 14.404 69.6949 14.228 69.8389 14.084C69.9829 13.94 70.1589 13.868 70.3669 13.868C70.5669 13.868 70.7349 13.94 70.8709 14.084C71.0149 14.228 71.0869 14.404 71.0869 14.612C71.0869 14.82 71.0149 14.996 70.8709 15.14C70.7349 15.284 70.5669 15.356 70.3669 15.356ZM70.8949 16.424V23H69.8029V16.424H70.8949ZM75.204 21.992L77.244 16.424H78.408L75.828 23H74.556L71.976 16.424H73.152L75.204 21.992ZM85.4826 19.46C85.4826 19.668 85.4706 19.888 85.4466 20.12H80.1906C80.2306 20.768 80.4506 21.276 80.8506 21.644C81.2586 22.004 81.7506 22.184 82.3266 22.184C82.7986 22.184 83.1906 22.076 83.5026 21.86C83.8226 21.636 84.0466 21.34 84.1746 20.972H85.3506C85.1746 21.604 84.8226 22.12 84.2946 22.52C83.7666 22.912 83.1106 23.108 82.3266 23.108C81.7026 23.108 81.1426 22.968 80.6466 22.688C80.1586 22.408 79.7746 22.012 79.4946 21.5C79.2146 20.98 79.0746 20.38 79.0746 19.7C79.0746 19.02 79.2106 18.424 79.4826 17.912C79.7546 17.4 80.1346 17.008 80.6226 16.736C81.1186 16.456 81.6866 16.316 82.3266 16.316C82.9506 16.316 83.5026 16.452 83.9826 16.724C84.4626 16.996 84.8306 17.372 85.0866 17.852C85.3506 18.324 85.4826 18.86 85.4826 19.46ZM84.3546 19.232C84.3546 18.816 84.2626 18.46 84.0786 18.164C83.8946 17.86 83.6426 17.632 83.3226 17.48C83.0106 17.32 82.6626 17.24 82.2786 17.24C81.7266 17.24 81.2546 17.416 80.8626 17.768C80.4786 18.12 80.2586 18.608 80.2026 19.232H84.3546ZM88.016 17.492C88.208 17.116 88.48 16.824 88.832 16.616C89.192 16.408 89.628 16.304 90.14 16.304V17.432H89.852C88.628 17.432 88.016 18.096 88.016 19.424V23H86.924V16.424H88.016V17.492ZM97.0646 16.424L93.1046 26.096H91.9766L93.2726 22.928L90.6206 16.424H91.8326L93.8966 21.752L95.9366 16.424H97.0646ZM105.55 18.692C105.854 18.74 106.13 18.864 106.378 19.064C106.634 19.264 106.834 19.512 106.978 19.808C107.13 20.104 107.206 20.42 107.206 20.756C107.206 21.18 107.098 21.564 106.882 21.908C106.666 22.244 106.35 22.512 105.934 22.712C105.526 22.904 105.042 23 104.482 23H101.362V14.636H104.362C104.93 14.636 105.414 14.732 105.814 14.924C106.214 15.108 106.514 15.36 106.714 15.68C106.914 16 107.014 16.36 107.014 16.76C107.014 17.256 106.878 17.668 106.605 17.996C106.342 18.316 105.99 18.548 105.55 18.692ZM102.454 18.248H104.29C104.802 18.248 105.198 18.128 105.478 17.888C105.758 17.648 105.898 17.316 105.898 16.892C105.898 16.468 105.758 16.136 105.478 15.896C105.198 15.656 104.794 15.536 104.266 15.536H102.454V18.248ZM104.386 22.1C104.93 22.1 105.354 21.972 105.658 21.716C105.962 21.46 106.114 21.104 106.114 20.648C106.114 20.184 105.954 19.82 105.634 19.556C105.314 19.284 104.886 19.148 104.35 19.148H102.454V22.1H104.386ZM114.721 19.46C114.721 19.668 114.709 19.888 114.685 20.12H109.429C109.469 20.768 109.689 21.276 110.089 21.644C110.497 22.004 110.989 22.184 111.565 22.184C112.037 22.184 112.429 22.076 112.741 21.86C113.061 21.636 113.285 21.34 113.413 20.972H114.589C114.413 21.604 114.061 22.12 113.533 22.52C113.005 22.912 112.349 23.108 111.565 23.108C110.941 23.108 110.381 22.968 109.885 22.688C109.397 22.408 109.013 22.012 108.733 21.5C108.453 20.98 108.313 20.38 108.313 19.7C108.313 19.02 108.449 18.424 108.721 17.912C108.993 17.4 109.373 17.008 109.861 16.736C110.357 16.456 110.925 16.316 111.565 16.316C112.189 16.316 112.741 16.452 113.221 16.724C113.701 16.996 114.069 17.372 114.325 17.852C114.589 18.324 114.721 18.86 114.721 19.46ZM113.593 19.232C113.593 18.816 113.501 18.46 113.317 18.164C113.133 17.86 112.881 17.632 112.561 17.48C112.249 17.32 111.901 17.24 111.517 17.24C110.965 17.24 110.493 17.416 110.101 17.768C109.717 18.12 109.497 18.608 109.441 19.232H113.593ZM117.494 17.324V21.2C117.494 21.52 117.562 21.748 117.698 21.884C117.834 22.012 118.07 22.076 118.406 22.076H119.21V23H118.226C117.618 23 117.162 22.86 116.858 22.58C116.554 22.3 116.402 21.84 116.402 21.2V17.324H115.55V16.424H116.402V14.768H117.494V16.424H119.21V17.324H117.494ZM129.293 16.424L127.241 23H126.113L124.529 17.78L122.945 23H121.817L119.753 16.424H120.869L122.381 21.944L124.013 16.424H125.129L126.725 21.956L128.213 16.424H129.293ZM136.377 19.46C136.377 19.668 136.365 19.888 136.341 20.12H131.085C131.125 20.768 131.345 21.276 131.745 21.644C132.153 22.004 132.645 22.184 133.221 22.184C133.693 22.184 134.085 22.076 134.397 21.86C134.717 21.636 134.941 21.34 135.069 20.972H136.245C136.069 21.604 135.717 22.12 135.189 22.52C134.661 22.912 134.005 23.108 133.221 23.108C132.597 23.108 132.037 22.968 131.541 22.688C131.053 22.408 130.669 22.012 130.389 21.5C130.109 20.98 129.969 20.38 129.969 19.7C129.969 19.02 130.105 18.424 130.377 17.912C130.649 17.4 131.029 17.008 131.517 16.736C132.013 16.456 132.581 16.316 133.221 16.316C133.845 16.316 134.397 16.452 134.877 16.724C135.357 16.996 135.725 17.372 135.981 17.852C136.245 18.324 136.377 18.86 136.377 19.46ZM135.249 19.232C135.249 18.816 135.157 18.46 134.973 18.164C134.789 17.86 134.537 17.632 134.217 17.48C133.905 17.32 133.557 17.24 133.173 17.24C132.621 17.24 132.149 17.416 131.757 17.768C131.373 18.12 131.153 18.608 131.097 19.232H135.249ZM143.819 19.46C143.819 19.668 143.807 19.888 143.783 20.12H138.527C138.567 20.768 138.787 21.276 139.187 21.644C139.595 22.004 140.087 22.184 140.663 22.184C141.135 22.184 141.527 22.076 141.839 21.86C142.159 21.636 142.383 21.34 142.511 20.972H143.687C143.511 21.604 143.159 22.12 142.631 22.52C142.103 22.912 141.447 23.108 140.663 23.108C140.039 23.108 139.479 22.968 138.983 22.688C138.495 22.408 138.111 22.012 137.831 21.5C137.551 20.98 137.411 20.38 137.411 19.7C137.411 19.02 137.547 18.424 137.819 17.912C138.091 17.4 138.471 17.008 138.959 16.736C139.455 16.456 140.023 16.316 140.663 16.316C141.287 16.316 141.839 16.452 142.319 16.724C142.799 16.996 143.167 17.372 143.423 17.852C143.687 18.324 143.819 18.86 143.819 19.46ZM142.691 19.232C142.691 18.816 142.599 18.46 142.415 18.164C142.231 17.86 141.979 17.632 141.659 17.48C141.347 17.32 140.999 17.24 140.615 17.24C140.063 17.24 139.591 17.416 139.199 17.768C138.815 18.12 138.595 18.608 138.539 19.232H142.691ZM148.464 16.304C149.264 16.304 149.912 16.548 150.408 17.036C150.904 17.516 151.152 18.212 151.152 19.124V23H150.072V19.28C150.072 18.624 149.908 18.124 149.58 17.78C149.252 17.428 148.804 17.252 148.236 17.252C147.66 17.252 147.2 17.432 146.856 17.792C146.52 18.152 146.352 18.676 146.352 19.364V23H145.26V16.424H146.352V17.36C146.568 17.024 146.86 16.764 147.228 16.58C147.604 16.396 148.016 16.304 148.464 16.304ZM155.667 15.32V14.324H157.923V23H156.819V15.32H155.667ZM171.938 16.424L169.886 23H168.758L167.174 17.78L165.59 23H164.462L162.398 16.424H163.514L165.026 21.944L166.658 16.424H167.774L169.37 21.956L170.858 16.424H171.938ZM179.022 19.46C179.022 19.668 179.01 19.888 178.986 20.12H173.73C173.77 20.768 173.99 21.276 174.39 21.644C174.798 22.004 175.29 22.184 175.866 22.184C176.338 22.184 176.73 22.076 177.042 21.86C177.362 21.636 177.586 21.34 177.714 20.972H178.89C178.714 21.604 178.362 22.12 177.834 22.52C177.306 22.912 176.65 23.108 175.866 23.108C175.242 23.108 174.682 22.968 174.186 22.688C173.698 22.408 173.314 22.012 173.034 21.5C172.754 20.98 172.614 20.38 172.614 19.7C172.614 19.02 172.75 18.424 173.022 17.912C173.294 17.4 173.674 17.008 174.162 16.736C174.658 16.456 175.226 16.316 175.866 16.316C176.49 16.316 177.042 16.452 177.522 16.724C178.002 16.996 178.37 17.372 178.626 17.852C178.89 18.324 179.022 18.86 179.022 19.46ZM177.894 19.232C177.894 18.816 177.802 18.46 177.618 18.164C177.434 17.86 177.182 17.632 176.862 17.48C176.55 17.32 176.202 17.24 175.818 17.24C175.266 17.24 174.794 17.416 174.402 17.768C174.018 18.12 173.798 18.608 173.742 19.232H177.894ZM186.463 19.46C186.463 19.668 186.451 19.888 186.427 20.12H181.171C181.211 20.768 181.431 21.276 181.831 21.644C182.239 22.004 182.731 22.184 183.307 22.184C183.779 22.184 184.171 22.076 184.483 21.86C184.803 21.636 185.027 21.34 185.155 20.972H186.331C186.155 21.604 185.803 22.12 185.275 22.52C184.747 22.912 184.091 23.108 183.307 23.108C182.683 23.108 182.123 22.968 181.627 22.688C181.139 22.408 180.755 22.012 180.475 21.5C180.195 20.98 180.055 20.38 180.055 19.7C180.055 19.02 180.191 18.424 180.463 17.912C180.735 17.4 181.115 17.008 181.603 16.736C182.099 16.456 182.667 16.316 183.307 16.316C183.931 16.316 184.483 16.452 184.963 16.724C185.443 16.996 185.811 17.372 186.067 17.852C186.331 18.324 186.463 18.86 186.463 19.46ZM185.335 19.232C185.335 18.816 185.243 18.46 185.059 18.164C184.875 17.86 184.623 17.632 184.303 17.48C183.991 17.32 183.643 17.24 183.259 17.24C182.707 17.24 182.235 17.416 181.843 17.768C181.459 18.12 181.239 18.608 181.183 19.232H185.335ZM191.576 23L188.996 20.096V23H187.904V14.12H188.996V19.34L191.528 16.424H193.052L189.956 19.7L193.064 23H191.576ZM201.839 18.14V19.064H197.051V18.14H201.839ZM206.776 22.124C207.792 21.308 208.588 20.64 209.164 20.12C209.74 19.592 210.224 19.044 210.616 18.476C211.016 17.9 211.216 17.336 211.216 16.784C211.216 16.264 211.088 15.856 210.832 15.56C210.584 15.256 210.18 15.104 209.62 15.104C209.076 15.104 208.652 15.276 208.348 15.62C208.052 15.956 207.892 16.408 207.868 16.976H206.812C206.844 16.08 207.116 15.388 207.628 14.9C208.14 14.412 208.8 14.168 209.608 14.168C210.432 14.168 211.084 14.396 211.564 14.852C212.052 15.308 212.296 15.936 212.296 16.736C212.296 17.4 212.096 18.048 211.696 18.68C211.304 19.304 210.856 19.856 210.352 20.336C209.848 20.808 209.204 21.36 208.42 21.992H212.548V22.904H206.776V22.124ZM225.95 16.424L223.898 23H222.77L221.186 17.78L219.602 23H218.474L216.41 16.424H217.526L219.038 21.944L220.67 16.424H221.786L223.382 21.956L224.87 16.424H225.95ZM233.033 19.46C233.033 19.668 233.021 19.888 232.997 20.12H227.741C227.781 20.768 228.001 21.276 228.401 21.644C228.809 22.004 229.301 22.184 229.877 22.184C230.349 22.184 230.741 22.076 231.053 21.86C231.373 21.636 231.597 21.34 231.725 20.972H232.901C232.725 21.604 232.373 22.12 231.845 22.52C231.317 22.912 230.661 23.108 229.877 23.108C229.253 23.108 228.693 22.968 228.197 22.688C227.709 22.408 227.325 22.012 227.045 21.5C226.765 20.98 226.625 20.38 226.625 19.7C226.625 19.02 226.761 18.424 227.033 17.912C227.305 17.4 227.685 17.008 228.173 16.736C228.669 16.456 229.237 16.316 229.877 16.316C230.501 16.316 231.053 16.452 231.533 16.724C232.013 16.996 232.381 17.372 232.637 17.852C232.901 18.324 233.033 18.86 233.033 19.46ZM231.905 19.232C231.905 18.816 231.813 18.46 231.629 18.164C231.445 17.86 231.193 17.632 230.873 17.48C230.561 17.32 230.213 17.24 229.829 17.24C229.277 17.24 228.805 17.416 228.413 17.768C228.029 18.12 227.809 18.608 227.753 19.232H231.905ZM240.475 19.46C240.475 19.668 240.463 19.888 240.439 20.12H235.183C235.223 20.768 235.443 21.276 235.843 21.644C236.251 22.004 236.743 22.184 237.319 22.184C237.791 22.184 238.183 22.076 238.495 21.86C238.815 21.636 239.039 21.34 239.167 20.972H240.343C240.167 21.604 239.815 22.12 239.287 22.52C238.759 22.912 238.103 23.108 237.319 23.108C236.695 23.108 236.135 22.968 235.639 22.688C235.151 22.408 234.767 22.012 234.487 21.5C234.207 20.98 234.067 20.38 234.067 19.7C234.067 19.02 234.203 18.424 234.475 17.912C234.747 17.4 235.127 17.008 235.615 16.736C236.111 16.456 236.679 16.316 237.319 16.316C237.943 16.316 238.495 16.452 238.975 16.724C239.455 16.996 239.823 17.372 240.079 17.852C240.343 18.324 240.475 18.86 240.475 19.46ZM239.347 19.232C239.347 18.816 239.255 18.46 239.071 18.164C238.887 17.86 238.635 17.632 238.315 17.48C238.003 17.32 237.655 17.24 237.271 17.24C236.719 17.24 236.247 17.416 235.855 17.768C235.471 18.12 235.251 18.608 235.195 19.232H239.347ZM245.588 23L243.008 20.096V23H241.916V14.12H243.008V19.34L245.54 16.424H247.064L243.968 19.7L247.076 23H245.588Z" fill="black"/>
<rect x="0.5" y="0.5" width="289" height="37" stroke="black" stroke-opacity="0.3"/>
</svg>
