<svg width="85" height="85" viewBox="0 0 85 85" fill="none" xmlns="http://www.w3.org/2000/svg">
<circle cx="42.0968" cy="42.0968" r="42.0968" fill="white"/>
<path d="M42.5001 58.1771C41.5231 58.1771 40.5314 57.9292 39.6564 57.4187L30.9939 52.4167C29.2439 51.3958 28.1501 49.5146 28.1501 47.4875V37.5125C28.1501 35.4855 29.2439 33.6042 30.9939 32.5834L39.6564 27.5813C41.4064 26.5605 43.5793 26.5605 45.3439 27.5813L54.0064 32.5834C55.7564 33.6042 56.8501 35.4855 56.8501 37.5125V47.4875C56.8501 49.5146 55.7564 51.3958 54.0064 52.4167L45.3439 57.4187C44.4689 57.9292 43.4772 58.1771 42.5001 58.1771ZM42.5001 29.0104C41.9022 29.0104 41.2897 29.1709 40.7501 29.4771L32.0876 34.4792C31.0085 35.1063 30.3376 36.2584 30.3376 37.5125V47.4875C30.3376 48.7271 31.0085 49.8938 32.0876 50.5209L40.7501 55.5229C41.8293 56.15 43.171 56.15 44.2501 55.5229L52.9126 50.5209C53.9918 49.8938 54.6626 48.7417 54.6626 47.4875V37.5125C54.6626 36.273 53.9918 35.1063 52.9126 34.4792L44.2501 29.4771C43.7106 29.1709 43.0981 29.0104 42.5001 29.0104Z" fill="#C192EE"/>
<path d="M42.5 42.1354C40.0208 42.1354 38.0083 40.1229 38.0083 37.6437C38.0083 35.1645 40.0208 33.1521 42.5 33.1521C44.9791 33.1521 46.9916 35.1645 46.9916 37.6437C46.9916 40.1229 44.9791 42.1354 42.5 42.1354ZM42.5 35.3396C41.2312 35.3396 40.1958 36.375 40.1958 37.6437C40.1958 38.9125 41.2312 39.9479 42.5 39.9479C43.7687 39.9479 44.8041 38.9125 44.8041 37.6437C44.8041 36.375 43.7687 35.3396 42.5 35.3396Z" fill="#C192EE"/>
<path d="M48.3334 50.3898C47.7355 50.3898 47.2397 49.894 47.2397 49.2961C47.2397 47.2836 45.1105 45.6357 42.5001 45.6357C39.8897 45.6357 37.7605 47.2836 37.7605 49.2961C37.7605 49.894 37.2647 50.3898 36.6667 50.3898C36.0688 50.3898 35.573 49.894 35.573 49.2961C35.573 46.0732 38.6792 43.4482 42.5001 43.4482C46.3209 43.4482 49.4272 46.0732 49.4272 49.2961C49.4272 49.894 48.9313 50.3898 48.3334 50.3898Z" fill="#C192EE"/>
</svg>
