<svg width="129" height="40" viewBox="0 0 129 40" fill="none" xmlns="http://www.w3.org/2000/svg">
<rect x="0.5" y="0.5" width="128" height="39" rx="9.5" fill="#F09000"/>
<path d="M26.2564 26H24.5284L19.3604 20.208V26H17.9204V14.576H19.3604V20.112L24.4004 14.576H26.0324L21.0724 20.128L26.2564 26ZM34.8351 21.696C34.8351 22.4107 34.7391 23.0453 34.5471 23.6C34.3657 24.144 34.0991 24.608 33.7471 24.992C33.4057 25.376 32.9844 25.6693 32.4831 25.872C31.9924 26.064 31.4431 26.16 30.8351 26.16C30.2697 26.16 29.7471 26.064 29.2671 25.872C28.7871 25.6693 28.3711 25.376 28.0191 24.992C27.6671 24.608 27.3897 24.144 27.1871 23.6C26.9951 23.0453 26.8991 22.4107 26.8991 21.696C26.8991 20.7467 27.0591 19.9467 27.3791 19.296C27.6991 18.6347 28.1577 18.1333 28.7551 17.792C29.3524 17.44 30.0617 17.264 30.8831 17.264C31.6617 17.264 32.3444 17.44 32.9311 17.792C33.5284 18.1333 33.9924 18.6347 34.3231 19.296C34.6644 19.9467 34.8351 20.7467 34.8351 21.696ZM28.3551 21.696C28.3551 22.368 28.4404 22.9547 28.6111 23.456C28.7924 23.9467 29.0697 24.3253 29.4431 24.592C29.8164 24.8587 30.2911 24.992 30.8671 24.992C31.4431 24.992 31.9177 24.8587 32.2911 24.592C32.6644 24.3253 32.9364 23.9467 33.1071 23.456C33.2884 22.9547 33.3791 22.368 33.3791 21.696C33.3791 21.0133 33.2884 20.432 33.1071 19.952C32.9257 19.472 32.6484 19.104 32.2751 18.848C31.9124 18.5813 31.4377 18.448 30.8511 18.448C29.9764 18.448 29.3417 18.736 28.9471 19.312C28.5524 19.888 28.3551 20.6827 28.3551 21.696ZM40.9066 17.264C41.9626 17.264 42.8106 17.632 43.4506 18.368C44.1012 19.104 44.4266 20.2133 44.4266 21.696C44.4266 22.6667 44.2772 23.488 43.9786 24.16C43.6906 24.8213 43.2799 25.3227 42.7466 25.664C42.2239 25.9947 41.6052 26.16 40.8906 26.16C40.4532 26.16 40.0639 26.1013 39.7226 25.984C39.3812 25.8667 39.0879 25.7173 38.8426 25.536C38.6079 25.344 38.4052 25.136 38.2346 24.912H38.1386C38.1599 25.0933 38.1812 25.3227 38.2026 25.6C38.2239 25.8773 38.2346 26.1173 38.2346 26.32V29.84H36.8266V17.424H37.9786L38.1706 18.592H38.2346C38.4052 18.3467 38.6079 18.1227 38.8426 17.92C39.0879 17.7173 39.3759 17.5573 39.7066 17.44C40.0479 17.3227 40.4479 17.264 40.9066 17.264ZM40.6506 18.448C40.0746 18.448 39.6106 18.56 39.2586 18.784C38.9066 18.9973 38.6506 19.3227 38.4906 19.76C38.3306 20.1973 38.2452 20.752 38.2346 21.424V21.696C38.2346 22.4 38.3092 22.9973 38.4586 23.488C38.6079 23.9787 38.8586 24.352 39.2106 24.608C39.5732 24.864 40.0639 24.992 40.6826 24.992C41.2052 24.992 41.6319 24.848 41.9626 24.56C42.3039 24.272 42.5546 23.8827 42.7146 23.392C42.8852 22.8907 42.9706 22.32 42.9706 21.68C42.9706 20.6987 42.7786 19.9147 42.3946 19.328C42.0212 18.7413 41.4399 18.448 40.6506 18.448ZM48.6863 17.264C49.337 17.264 49.9023 17.3547 50.3823 17.536C50.8623 17.7067 51.2356 17.9627 51.5023 18.304C51.769 18.6347 51.9023 19.04 51.9023 19.52C51.9023 20.0427 51.7583 20.4587 51.4703 20.768C51.1823 21.0667 50.7876 21.2853 50.2863 21.424V21.488C50.6276 21.584 50.9423 21.7173 51.2303 21.888C51.5183 22.0587 51.7476 22.2827 51.9183 22.56C52.0996 22.8373 52.1903 23.1947 52.1903 23.632C52.1903 24.1013 52.057 24.528 51.7903 24.912C51.5343 25.296 51.1343 25.6 50.5903 25.824C50.057 26.048 49.369 26.16 48.5263 26.16C48.121 26.16 47.7316 26.1387 47.3583 26.096C46.9956 26.0533 46.665 25.9893 46.3663 25.904C46.0783 25.8187 45.8223 25.7173 45.5983 25.6V24.336C45.961 24.5067 46.3876 24.6613 46.8783 24.8C47.3796 24.9387 47.9236 25.008 48.5103 25.008C48.937 25.008 49.321 24.96 49.6623 24.864C50.0143 24.768 50.2916 24.6187 50.4943 24.416C50.697 24.2027 50.7983 23.9147 50.7983 23.552C50.7983 23.2213 50.7076 22.9547 50.5263 22.752C50.345 22.5387 50.073 22.3787 49.7103 22.272C49.3583 22.1653 48.905 22.112 48.3503 22.112H47.1983V20.96H48.1263C48.8623 20.96 49.449 20.864 49.8863 20.672C50.3343 20.4693 50.5583 20.128 50.5583 19.648C50.5583 19.2427 50.3876 18.9387 50.0463 18.736C49.7156 18.5333 49.2356 18.432 48.6063 18.432C48.137 18.432 47.721 18.48 47.3583 18.576C47.0063 18.6613 46.617 18.7947 46.1903 18.976L45.6943 17.856C46.153 17.6533 46.633 17.504 47.1343 17.408C47.6356 17.312 48.153 17.264 48.6863 17.264ZM55.3621 22.656C55.3621 22.752 55.3567 22.8907 55.3461 23.072C55.3461 23.2427 55.3407 23.4293 55.3301 23.632C55.3194 23.824 55.3087 24.0107 55.2981 24.192C55.2874 24.3627 55.2767 24.5013 55.2661 24.608L59.8581 17.424H61.5861V26H60.2741V20.944C60.2741 20.7733 60.2741 20.5493 60.2741 20.272C60.2847 19.9947 60.2954 19.7227 60.3061 19.456C60.3167 19.1787 60.3274 18.9707 60.3381 18.832L55.7781 26H54.0341V17.424H55.3621V22.656ZM65.4833 17.424V20.992H70.1393V17.424H71.5473V26H70.1393V22.176H65.4833V26H64.0753V17.424H65.4833ZM77.2708 17.28C78.3161 17.28 79.0895 17.5093 79.5908 17.968C80.0921 18.4267 80.3428 19.1573 80.3428 20.16V26H79.3188L79.0468 24.784H78.9828C78.7375 25.0933 78.4815 25.3547 78.2148 25.568C77.9588 25.7707 77.6601 25.92 77.3188 26.016C76.9881 26.112 76.5828 26.16 76.1028 26.16C75.5908 26.16 75.1268 26.0693 74.7108 25.888C74.3055 25.7067 73.9855 25.4293 73.7508 25.056C73.5161 24.672 73.3988 24.192 73.3988 23.616C73.3988 22.7627 73.7348 22.1067 74.4068 21.648C75.0788 21.1787 76.1135 20.9227 77.5108 20.88L78.9668 20.832V20.32C78.9668 19.6053 78.8121 19.1093 78.5028 18.832C78.1935 18.5547 77.7561 18.416 77.1908 18.416C76.7428 18.416 76.3161 18.4853 75.9108 18.624C75.5055 18.752 75.1268 18.9013 74.7748 19.072L74.3428 18.016C74.7161 17.8133 75.1588 17.6427 75.6708 17.504C76.1828 17.3547 76.7161 17.28 77.2708 17.28ZM77.6868 21.856C76.6201 21.8987 75.8788 22.0693 75.4628 22.368C75.0575 22.6667 74.8548 23.088 74.8548 23.632C74.8548 24.112 74.9988 24.464 75.2868 24.688C75.5855 24.912 75.9641 25.024 76.4228 25.024C77.1481 25.024 77.7508 24.8267 78.2308 24.432C78.7108 24.0267 78.9508 23.408 78.9508 22.576V21.808L77.6868 21.856Z" fill="#FBFBFB"/>
<path d="M105.49 30.75H96.4999C94.7799 30.75 93.4899 30.29 92.6899 29.38C91.8899 28.47 91.5799 27.15 91.7899 25.44L92.6899 17.94C92.9499 15.73 93.5099 13.75 97.4099 13.75H104.61C108.5 13.75 109.06 15.73 109.33 17.94L110.23 25.44C110.43 27.15 110.13 28.48 109.33 29.38C108.5 30.29 107.22 30.75 105.49 30.75ZM97.3999 15.25C94.5199 15.25 94.3799 16.39 94.1699 18.11L93.2699 25.61C93.1199 26.88 93.2999 27.81 93.8099 28.38C94.3199 28.95 95.2199 29.24 96.4999 29.24H105.49C106.77 29.24 107.67 28.95 108.18 28.38C108.69 27.81 108.87 26.88 108.72 25.61L107.82 18.11C107.61 16.38 107.48 15.25 104.59 15.25H97.3999Z" fill="#FBFBFB"/>
<path d="M105 16.75C104.59 16.75 104.25 16.41 104.25 16V12.5C104.25 11.42 103.58 10.75 102.5 10.75H99.5C98.42 10.75 97.75 11.42 97.75 12.5V16C97.75 16.41 97.41 16.75 97 16.75C96.59 16.75 96.25 16.41 96.25 16V12.5C96.25 10.59 97.59 9.25 99.5 9.25H102.5C104.41 9.25 105.75 10.59 105.75 12.5V16C105.75 16.41 105.41 16.75 105 16.75Z" fill="#FBFBFB"/>
<path d="M109.41 25.78H97C96.59 25.78 96.25 25.44 96.25 25.03C96.25 24.62 96.59 24.28 97 24.28H109.41C109.82 24.28 110.16 24.62 110.16 25.03C110.16 25.44 109.82 25.78 109.41 25.78Z" fill="#FBFBFB"/>
<rect x="0.5" y="0.5" width="128" height="39" rx="9.5" stroke="#FAD3E7"/>
</svg>
