<svg width="358" height="151" viewBox="0 0 358 151" fill="none" xmlns="http://www.w3.org/2000/svg">
<rect x="0.25" y="0.25" width="357.5" height="150.5" rx="6.75" fill="#FAD3E7"/>
<path d="M101.244 34V20.9091H103.616V26.451H109.682V20.9091H112.059V34H109.682V28.4389H103.616V34H101.244ZM116.462 34.1982C115.84 34.1982 115.279 34.0874 114.781 33.8658C114.286 33.6399 113.894 33.3075 113.604 32.8686C113.319 32.4297 113.176 31.8885 113.176 31.245C113.176 30.6911 113.278 30.233 113.483 29.8707C113.688 29.5085 113.967 29.2188 114.32 29.0014C114.674 28.7841 115.072 28.62 115.516 28.5092C115.963 28.3942 116.425 28.3111 116.903 28.2599C117.478 28.2003 117.945 28.147 118.303 28.1001C118.661 28.049 118.92 27.9723 119.082 27.87C119.249 27.7635 119.332 27.5994 119.332 27.3778V27.3395C119.332 26.858 119.189 26.4851 118.903 26.2209C118.618 25.9567 118.207 25.8246 117.67 25.8246C117.103 25.8246 116.653 25.9482 116.321 26.1953C115.993 26.4425 115.771 26.7344 115.656 27.071L113.496 26.7642C113.666 26.1676 113.947 25.669 114.34 25.2685C114.732 24.8636 115.211 24.5611 115.778 24.3608C116.344 24.1562 116.971 24.054 117.657 24.054C118.13 24.054 118.601 24.1094 119.07 24.2202C119.538 24.331 119.967 24.5142 120.354 24.7699C120.742 25.0213 121.053 25.3643 121.288 25.799C121.526 26.2337 121.646 26.777 121.646 27.429V34H119.421V32.6513H119.344C119.204 32.924 119.006 33.1797 118.75 33.4183C118.499 33.6527 118.181 33.8423 117.798 33.9872C117.418 34.1278 116.973 34.1982 116.462 34.1982ZM117.063 32.4979C117.527 32.4979 117.93 32.4062 118.271 32.223C118.612 32.0355 118.874 31.7884 119.057 31.4815C119.244 31.1747 119.338 30.8402 119.338 30.478V29.321C119.266 29.3807 119.142 29.4361 118.967 29.4872C118.797 29.5384 118.605 29.5831 118.392 29.6214C118.179 29.6598 117.968 29.6939 117.759 29.7237C117.55 29.7536 117.369 29.7791 117.216 29.8004C116.871 29.8473 116.562 29.924 116.289 30.0305C116.016 30.1371 115.801 30.2862 115.643 30.478C115.486 30.6655 115.407 30.9084 115.407 31.2067C115.407 31.6328 115.563 31.9545 115.874 32.1719C116.185 32.3892 116.581 32.4979 117.063 32.4979ZM122.529 31.3089H124.824C124.845 31.6754 125.009 31.9588 125.316 32.1591C125.623 32.3594 126.021 32.4595 126.511 32.4595C127.01 32.4595 127.43 32.3509 127.77 32.1335C128.116 31.9119 128.288 31.5774 128.288 31.13C128.288 30.8658 128.222 30.6335 128.09 30.4332C127.958 30.2287 127.773 30.071 127.534 29.9602C127.295 29.8494 127.014 29.794 126.69 29.794H125.188V28.1513H126.69C127.172 28.1513 127.536 28.0405 127.783 27.8189C128.035 27.5973 128.16 27.3182 128.16 26.9815C128.16 26.6193 128.028 26.3253 127.764 26.0994C127.504 25.8736 127.144 25.7607 126.684 25.7607C126.224 25.7607 125.84 25.8651 125.533 26.0739C125.231 26.2827 125.073 26.5511 125.06 26.8793H122.778C122.787 26.3082 122.957 25.8118 123.29 25.3899C123.626 24.968 124.078 24.6399 124.645 24.4055C125.216 24.1712 125.859 24.054 126.575 24.054C127.342 24.054 128.005 24.169 128.563 24.3991C129.121 24.6293 129.552 24.951 129.854 25.3643C130.157 25.7734 130.308 26.255 130.308 26.8089C130.308 27.3416 130.142 27.7827 129.81 28.1321C129.477 28.4773 129.03 28.7244 128.467 28.8736V28.9759C128.855 28.9972 129.204 29.108 129.515 29.3082C129.827 29.5043 130.074 29.7706 130.257 30.1072C130.44 30.4439 130.532 30.8338 130.532 31.277C130.532 31.8778 130.359 32.3977 130.014 32.8366C129.669 33.2713 129.194 33.6058 128.589 33.8402C127.988 34.0746 127.3 34.1918 126.524 34.1918C125.77 34.1918 125.094 34.0788 124.498 33.853C123.905 33.6229 123.435 33.2926 123.085 32.8622C122.736 32.4318 122.55 31.9141 122.529 31.3089ZM131.454 34V24.1818H135.576C136.74 24.1818 137.658 24.4141 138.331 24.8786C139.009 25.343 139.348 25.9908 139.348 26.8217C139.348 27.3714 139.156 27.821 138.772 28.1705C138.393 28.5156 137.875 28.7479 137.219 28.8672C137.735 28.9098 138.187 29.0398 138.574 29.2571C138.966 29.4744 139.273 29.7599 139.495 30.1136C139.716 30.4673 139.827 30.8743 139.827 31.3345C139.827 31.8757 139.684 32.3466 139.399 32.7472C139.118 33.1435 138.706 33.4524 138.165 33.674C137.628 33.8913 136.976 34 136.209 34H131.454ZM133.62 32.1783H136.209C136.635 32.1783 136.97 32.0781 137.213 31.8778C137.456 31.6733 137.577 31.3963 137.577 31.0469C137.577 30.642 137.456 30.3246 137.213 30.0945C136.97 29.8601 136.635 29.7429 136.209 29.7429H133.62V32.1783ZM133.62 28.2472H135.621C135.937 28.2472 136.207 28.2024 136.433 28.1129C136.659 28.0192 136.831 27.8892 136.951 27.723C137.07 27.5526 137.13 27.3501 137.13 27.1158C137.13 26.7791 136.991 26.5149 136.714 26.3232C136.441 26.1314 136.062 26.0355 135.576 26.0355H133.62V28.2472ZM143.662 34.1982C143.04 34.1982 142.48 34.0874 141.981 33.8658C141.487 33.6399 141.095 33.3075 140.805 32.8686C140.519 32.4297 140.377 31.8885 140.377 31.245C140.377 30.6911 140.479 30.233 140.683 29.8707C140.888 29.5085 141.167 29.2188 141.521 29.0014C141.874 28.7841 142.273 28.62 142.716 28.5092C143.163 28.3942 143.626 28.3111 144.103 28.2599C144.678 28.2003 145.145 28.147 145.503 28.1001C145.861 28.049 146.121 27.9723 146.283 27.87C146.449 27.7635 146.532 27.5994 146.532 27.3778V27.3395C146.532 26.858 146.389 26.4851 146.104 26.2209C145.818 25.9567 145.407 25.8246 144.87 25.8246C144.303 25.8246 143.854 25.9482 143.521 26.1953C143.193 26.4425 142.972 26.7344 142.857 27.071L140.696 26.7642C140.867 26.1676 141.148 25.669 141.54 25.2685C141.932 24.8636 142.411 24.5611 142.978 24.3608C143.545 24.1562 144.171 24.054 144.857 24.054C145.33 24.054 145.801 24.1094 146.27 24.2202C146.739 24.331 147.167 24.5142 147.555 24.7699C147.943 25.0213 148.254 25.3643 148.488 25.799C148.727 26.2337 148.846 26.777 148.846 27.429V34H146.622V32.6513H146.545C146.404 32.924 146.206 33.1797 145.95 33.4183C145.699 33.6527 145.382 33.8423 144.998 33.9872C144.619 34.1278 144.173 34.1982 143.662 34.1982ZM144.263 32.4979C144.727 32.4979 145.13 32.4062 145.471 32.223C145.812 32.0355 146.074 31.7884 146.257 31.4815C146.445 31.1747 146.538 30.8402 146.538 30.478V29.321C146.466 29.3807 146.342 29.4361 146.168 29.4872C145.997 29.5384 145.806 29.5831 145.592 29.6214C145.379 29.6598 145.168 29.6939 144.96 29.7237C144.751 29.7536 144.57 29.7791 144.416 29.8004C144.071 29.8473 143.762 29.924 143.489 30.0305C143.217 30.1371 143.002 30.2862 142.844 30.478C142.686 30.6655 142.607 30.9084 142.607 31.2067C142.607 31.6328 142.763 31.9545 143.074 32.1719C143.385 32.3892 143.781 32.4979 144.263 32.4979ZM157.016 28.1321V30.0305H151.788V28.1321H157.016ZM152.504 24.1818V34H150.273V24.1818H152.504ZM158.531 24.1818V34H156.307V24.1818H158.531ZM162.203 30.8679L166.134 24.1818H168.512V34H166.275V27.3075L162.357 34H159.972V24.1818H162.203V30.8679ZM174.335 34.1918C173.351 34.1918 172.5 33.9872 171.784 33.5781C171.073 33.1648 170.525 32.581 170.142 31.8267C169.758 31.0682 169.566 30.1754 169.566 29.1484C169.566 28.1385 169.758 27.2521 170.142 26.4893C170.53 25.7223 171.071 25.1257 171.765 24.6996C172.46 24.2692 173.276 24.054 174.213 24.054C174.819 24.054 175.39 24.152 175.927 24.348C176.468 24.5398 176.945 24.8381 177.358 25.2429C177.776 25.6477 178.104 26.1634 178.343 26.7898C178.581 27.4119 178.701 28.1534 178.701 29.0142V29.7237H170.653V28.1641H176.483C176.478 27.7209 176.383 27.3267 176.195 26.9815C176.008 26.6321 175.745 26.3572 175.409 26.157C175.076 25.9567 174.689 25.8565 174.245 25.8565C173.772 25.8565 173.357 25.9716 172.999 26.2017C172.641 26.4276 172.362 26.7259 172.162 27.0966C171.966 27.4631 171.865 27.8658 171.861 28.3047V29.6662C171.861 30.2372 171.966 30.7273 172.174 31.1364C172.383 31.5412 172.675 31.8523 173.05 32.0696C173.425 32.2827 173.864 32.3892 174.367 32.3892C174.704 32.3892 175.008 32.3423 175.281 32.2486C175.554 32.1506 175.79 32.0078 175.99 31.8203C176.191 31.6328 176.342 31.4006 176.444 31.1236L178.605 31.3665C178.468 31.9375 178.208 32.4361 177.825 32.8622C177.446 33.2841 176.96 33.6122 176.368 33.8466C175.775 34.0767 175.098 34.1918 174.335 34.1918ZM182.786 26.0803V24.1818H191.377V26.0803H188.2V34H185.963V26.0803H182.786ZM192.32 37.6818V24.1818H194.595V25.8054H194.729C194.849 25.5668 195.017 25.3132 195.234 25.0447C195.452 24.772 195.746 24.5398 196.116 24.348C196.487 24.152 196.96 24.054 197.535 24.054C198.294 24.054 198.978 24.2479 199.587 24.6357C200.201 25.0192 200.687 25.5881 201.045 26.3423C201.407 27.0923 201.588 28.0128 201.588 29.1037C201.588 30.1818 201.411 31.098 201.058 31.8523C200.704 32.6065 200.222 33.1818 199.613 33.5781C199.004 33.9744 198.313 34.1726 197.542 34.1726C196.979 34.1726 196.513 34.0788 196.142 33.8913C195.771 33.7038 195.473 33.478 195.247 33.2138C195.026 32.9453 194.853 32.6918 194.729 32.4531H194.634V37.6818H192.32ZM194.589 29.0909C194.589 29.7259 194.678 30.282 194.857 30.7592C195.04 31.2365 195.303 31.6094 195.643 31.8778C195.989 32.142 196.406 32.2741 196.896 32.2741C197.408 32.2741 197.836 32.1378 198.181 31.8651C198.526 31.5881 198.786 31.2109 198.961 30.7337C199.14 30.2521 199.229 29.7045 199.229 29.0909C199.229 28.4815 199.142 27.9403 198.967 27.4673C198.793 26.9943 198.533 26.6236 198.187 26.3551C197.842 26.0866 197.412 25.9524 196.896 25.9524C196.402 25.9524 195.982 26.0824 195.637 26.3423C195.292 26.6023 195.03 26.9666 194.851 27.4354C194.676 27.9041 194.589 28.456 194.589 29.0909ZM207.016 34.1918C206.032 34.1918 205.182 33.9872 204.466 33.5781C203.754 33.1648 203.207 32.581 202.823 31.8267C202.439 31.0682 202.248 30.1754 202.248 29.1484C202.248 28.1385 202.439 27.2521 202.823 26.4893C203.211 25.7223 203.752 25.1257 204.447 24.6996C205.141 24.2692 205.957 24.054 206.895 24.054C207.5 24.054 208.071 24.152 208.608 24.348C209.149 24.5398 209.626 24.8381 210.04 25.2429C210.457 25.6477 210.785 26.1634 211.024 26.7898C211.263 27.4119 211.382 28.1534 211.382 29.0142V29.7237H203.334V28.1641H209.164C209.16 27.7209 209.064 27.3267 208.876 26.9815C208.689 26.6321 208.427 26.3572 208.09 26.157C207.758 25.9567 207.37 25.8565 206.927 25.8565C206.454 25.8565 206.038 25.9716 205.68 26.2017C205.322 26.4276 205.043 26.7259 204.843 27.0966C204.647 27.4631 204.547 27.8658 204.542 28.3047V29.6662C204.542 30.2372 204.647 30.7273 204.856 31.1364C205.064 31.5412 205.356 31.8523 205.731 32.0696C206.106 32.2827 206.545 32.3892 207.048 32.3892C207.385 32.3892 207.689 32.3423 207.962 32.2486C208.235 32.1506 208.471 32.0078 208.672 31.8203C208.872 31.6328 209.023 31.4006 209.126 31.1236L211.286 31.3665C211.15 31.9375 210.89 32.4361 210.506 32.8622C210.127 33.2841 209.641 33.6122 209.049 33.8466C208.457 34.0767 207.779 34.1918 207.016 34.1918ZM219.183 28.1321V30.0305H213.954V28.1321H219.183ZM214.67 24.1818V34H212.44V24.1818H214.67ZM220.698 24.1818V34H218.474V24.1818H220.698ZM224.37 30.8679L228.301 24.1818H230.679V34H228.442V27.3075L224.523 34H222.139V24.1818H224.37V30.8679ZM238.899 28.1321V30.0305H233.67V28.1321H238.899ZM234.386 24.1818V34H232.155V24.1818H234.386ZM240.414 24.1818V34H238.189V24.1818H240.414ZM248.349 24.1818V26.0803H244.118V34H241.855V24.1818H248.349ZM251.725 34.1982C251.103 34.1982 250.543 34.0874 250.044 33.8658C249.55 33.6399 249.158 33.3075 248.868 32.8686C248.583 32.4297 248.44 31.8885 248.44 31.245C248.44 30.6911 248.542 30.233 248.747 29.8707C248.951 29.5085 249.23 29.2188 249.584 29.0014C249.938 28.7841 250.336 28.62 250.779 28.5092C251.227 28.3942 251.689 28.3111 252.166 28.2599C252.742 28.2003 253.208 28.147 253.566 28.1001C253.924 28.049 254.184 27.9723 254.346 27.87C254.512 27.7635 254.595 27.5994 254.595 27.3778V27.3395C254.595 26.858 254.453 26.4851 254.167 26.2209C253.882 25.9567 253.47 25.8246 252.933 25.8246C252.367 25.8246 251.917 25.9482 251.585 26.1953C251.257 26.4425 251.035 26.7344 250.92 27.071L248.759 26.7642C248.93 26.1676 249.211 25.669 249.603 25.2685C249.995 24.8636 250.475 24.5611 251.041 24.3608C251.608 24.1562 252.235 24.054 252.921 24.054C253.394 24.054 253.865 24.1094 254.333 24.2202C254.802 24.331 255.23 24.5142 255.618 24.7699C256.006 25.0213 256.317 25.3643 256.551 25.799C256.79 26.2337 256.909 26.777 256.909 27.429V34H254.685V32.6513H254.608C254.468 32.924 254.269 33.1797 254.014 33.4183C253.762 33.6527 253.445 33.8423 253.061 33.9872C252.682 34.1278 252.237 34.1982 251.725 34.1982ZM252.326 32.4979C252.791 32.4979 253.193 32.4062 253.534 32.223C253.875 32.0355 254.137 31.7884 254.321 31.4815C254.508 31.1747 254.602 30.8402 254.602 30.478V29.321C254.529 29.3807 254.406 29.4361 254.231 29.4872C254.061 29.5384 253.869 29.5831 253.656 29.6214C253.443 29.6598 253.232 29.6939 253.023 29.7237C252.814 29.7536 252.633 29.7791 252.48 29.8004C252.134 29.8473 251.825 29.924 251.553 30.0305C251.28 30.1371 251.065 30.2862 250.907 30.478C250.749 30.6655 250.671 30.9084 250.671 31.2067C250.671 31.6328 250.826 31.9545 251.137 32.1719C251.448 32.3892 251.845 32.4979 252.326 32.4979Z" fill="#8046A4"/>
<path d="M65.4373 68V58.1818H73.1589V68H71.6504V59.5881H66.9458V68H65.4373ZM79.0025 68.2045C78.1162 68.2045 77.3385 67.9936 76.6694 67.5717C76.0047 67.1499 75.4848 66.5597 75.1098 65.8011C74.739 65.0426 74.5537 64.1562 74.5537 63.142C74.5537 62.1193 74.739 61.2266 75.1098 60.4638C75.4848 59.701 76.0047 59.1087 76.6694 58.6868C77.3385 58.2649 78.1162 58.054 79.0025 58.054C79.8889 58.054 80.6645 58.2649 81.3292 58.6868C81.9983 59.1087 82.5181 59.701 82.8889 60.4638C83.2639 61.2266 83.4514 62.1193 83.4514 63.142C83.4514 64.1562 83.2639 65.0426 82.8889 65.8011C82.5181 66.5597 81.9983 67.1499 81.3292 67.5717C80.6645 67.9936 79.8889 68.2045 79.0025 68.2045ZM79.0025 66.8494C79.6758 66.8494 80.2298 66.6768 80.6645 66.3317C81.0991 65.9865 81.4208 65.5327 81.6297 64.9702C81.8385 64.4077 81.9429 63.7983 81.9429 63.142C81.9429 62.4858 81.8385 61.8743 81.6297 61.3075C81.4208 60.7408 81.0991 60.2827 80.6645 59.9332C80.2298 59.5838 79.6758 59.4091 79.0025 59.4091C78.3292 59.4091 77.7752 59.5838 77.3406 59.9332C76.9059 60.2827 76.5842 60.7408 76.3754 61.3075C76.1666 61.8743 76.0622 62.4858 76.0622 63.142C76.0622 63.7983 76.1666 64.4077 76.3754 64.9702C76.5842 65.5327 76.9059 65.9865 77.3406 66.3317C77.7752 66.6768 78.3292 66.8494 79.0025 66.8494ZM83.8058 70.8125V66.5938H84.624C84.8243 66.3849 84.9969 66.1591 85.1418 65.9162C85.2866 65.6733 85.4124 65.3857 85.5189 65.0533C85.6297 64.7166 85.7234 64.3075 85.8001 63.826C85.8768 63.3402 85.945 62.7543 86.0047 62.0682L86.3371 58.1818H92.5757V66.5938H94.0842V70.8125H92.5757V68H85.3143V70.8125H83.8058ZM86.3371 66.5938H91.0672V59.5881H87.7433L87.4876 62.0682C87.3811 63.0952 87.249 63.9922 87.0913 64.7592C86.9337 65.5263 86.6822 66.1378 86.3371 66.5938ZM94.624 59.5881V58.1818H102.601V59.5881H99.3797V68H97.8712V59.5881H94.624ZM107.508 68.2045C106.562 68.2045 105.746 67.9957 105.06 67.5781C104.379 67.1562 103.852 66.5682 103.482 65.8139C103.115 65.0554 102.932 64.1733 102.932 63.1676C102.932 62.1619 103.115 61.2756 103.482 60.5085C103.852 59.7372 104.368 59.1364 105.028 58.706C105.693 58.2713 106.469 58.054 107.355 58.054C107.866 58.054 108.371 58.1392 108.87 58.3097C109.369 58.4801 109.822 58.7571 110.232 59.1406C110.641 59.5199 110.967 60.0227 111.209 60.6491C111.452 61.2756 111.574 62.0469 111.574 62.9631V63.6023H104.006V62.2983H110.04C110.04 61.7443 109.929 61.25 109.707 60.8153C109.49 60.3807 109.179 60.0376 108.774 59.7862C108.374 59.5348 107.901 59.4091 107.355 59.4091C106.754 59.4091 106.234 59.5582 105.795 59.8565C105.361 60.1506 105.026 60.5341 104.792 61.0071C104.557 61.4801 104.44 61.9872 104.44 62.5284V63.3977C104.44 64.1392 104.568 64.7678 104.824 65.2834C105.084 65.7947 105.444 66.1847 105.904 66.4531C106.364 66.7173 106.899 66.8494 107.508 66.8494C107.905 66.8494 108.263 66.794 108.582 66.6832C108.906 66.5682 109.185 66.3977 109.42 66.1719C109.654 65.9418 109.835 65.6562 109.963 65.3153L111.42 65.7244C111.267 66.2188 111.009 66.6534 110.647 67.0284C110.285 67.3991 109.837 67.6889 109.305 67.8977C108.772 68.1023 108.173 68.2045 107.508 68.2045ZM112.969 68V58.1818H114.477V62.4517H115.474L119.003 58.1818H120.946L116.983 62.9119L120.997 68H119.054L115.832 63.858H114.477V68H112.969ZM125.321 68.2045C124.4 68.2045 123.608 67.9872 122.943 67.5526C122.278 67.1179 121.767 66.5192 121.409 65.7564C121.051 64.9936 120.872 64.1222 120.872 63.142C120.872 62.1449 121.055 61.2649 121.422 60.5021C121.792 59.7351 122.308 59.1364 122.969 58.706C123.633 58.2713 124.409 58.054 125.295 58.054C125.986 58.054 126.608 58.1818 127.162 58.4375C127.716 58.6932 128.17 59.0511 128.523 59.5114C128.877 59.9716 129.096 60.5085 129.182 61.1222H127.673C127.558 60.6747 127.302 60.2784 126.906 59.9332C126.514 59.5838 125.986 59.4091 125.321 59.4091C124.733 59.4091 124.217 59.5625 123.774 59.8693C123.335 60.1719 122.992 60.6001 122.745 61.1541C122.502 61.7038 122.381 62.3494 122.381 63.0909C122.381 63.8494 122.5 64.5099 122.738 65.0724C122.981 65.6349 123.322 66.0717 123.761 66.3828C124.204 66.6939 124.724 66.8494 125.321 66.8494C125.713 66.8494 126.069 66.7812 126.388 66.6449C126.708 66.5085 126.979 66.3125 127.2 66.0568C127.422 65.8011 127.579 65.4943 127.673 65.1364H129.182C129.096 65.7159 128.886 66.2379 128.549 66.7024C128.216 67.1626 127.775 67.5291 127.226 67.8018C126.68 68.0703 126.045 68.2045 125.321 68.2045ZM129.713 59.5881V58.1818H137.691V59.5881H134.469V68H132.961V59.5881H129.713ZM143.154 68V58.1818H150.875V68H149.367V59.5881H144.662V68H143.154ZM156.719 68.2045C155.833 68.2045 155.055 67.9936 154.386 67.5717C153.721 67.1499 153.201 66.5597 152.826 65.8011C152.455 65.0426 152.27 64.1562 152.27 63.142C152.27 62.1193 152.455 61.2266 152.826 60.4638C153.201 59.701 153.721 59.1087 154.386 58.6868C155.055 58.2649 155.833 58.054 156.719 58.054C157.605 58.054 158.381 58.2649 159.046 58.6868C159.715 59.1087 160.235 59.701 160.605 60.4638C160.98 61.2266 161.168 62.1193 161.168 63.142C161.168 64.1562 160.98 65.0426 160.605 65.8011C160.235 66.5597 159.715 67.1499 159.046 67.5717C158.381 67.9936 157.605 68.2045 156.719 68.2045ZM156.719 66.8494C157.392 66.8494 157.946 66.6768 158.381 66.3317C158.816 65.9865 159.137 65.5327 159.346 64.9702C159.555 64.4077 159.659 63.7983 159.659 63.142C159.659 62.4858 159.555 61.8743 159.346 61.3075C159.137 60.7408 158.816 60.2827 158.381 59.9332C157.946 59.5838 157.392 59.4091 156.719 59.4091C156.046 59.4091 155.492 59.5838 155.057 59.9332C154.622 60.2827 154.301 60.7408 154.092 61.3075C153.883 61.8743 153.779 62.4858 153.779 63.142C153.779 63.7983 153.883 64.4077 154.092 64.9702C154.301 65.5327 154.622 65.9865 155.057 66.3317C155.492 66.6768 156.046 66.8494 156.719 66.8494ZM161.522 70.8125V66.5938H162.34C162.541 66.3849 162.713 66.1591 162.858 65.9162C163.003 65.6733 163.129 65.3857 163.235 65.0533C163.346 64.7166 163.44 64.3075 163.517 63.826C163.593 63.3402 163.661 62.7543 163.721 62.0682L164.053 58.1818H170.292V66.5938H171.801V70.8125H170.292V68H163.031V70.8125H161.522ZM164.053 66.5938H168.784V59.5881H165.46L165.204 62.0682C165.098 63.0952 164.965 63.9922 164.808 64.7592C164.65 65.5263 164.399 66.1378 164.053 66.5938ZM172.34 59.5881V58.1818H180.318V59.5881H177.096V68H175.588V59.5881H172.34ZM185.225 68.2045C184.279 68.2045 183.463 67.9957 182.777 67.5781C182.095 67.1562 181.569 66.5682 181.198 65.8139C180.831 65.0554 180.648 64.1733 180.648 63.1676C180.648 62.1619 180.831 61.2756 181.198 60.5085C181.569 59.7372 182.084 59.1364 182.745 58.706C183.41 58.2713 184.185 58.054 185.071 58.054C185.583 58.054 186.088 58.1392 186.586 58.3097C187.085 58.4801 187.539 58.7571 187.948 59.1406C188.357 59.5199 188.683 60.0227 188.926 60.6491C189.169 61.2756 189.29 62.0469 189.29 62.9631V63.6023H181.722V62.2983H187.756C187.756 61.7443 187.645 61.25 187.424 60.8153C187.206 60.3807 186.895 60.0376 186.491 59.7862C186.09 59.5348 185.617 59.4091 185.071 59.4091C184.471 59.4091 183.951 59.5582 183.512 59.8565C183.077 60.1506 182.743 60.5341 182.508 61.0071C182.274 61.4801 182.157 61.9872 182.157 62.5284V63.3977C182.157 64.1392 182.285 64.7678 182.54 65.2834C182.8 65.7947 183.16 66.1847 183.62 66.4531C184.081 66.7173 184.616 66.8494 185.225 66.8494C185.621 66.8494 185.979 66.794 186.299 66.6832C186.623 66.5682 186.902 66.3977 187.136 66.1719C187.37 65.9418 187.552 65.6562 187.679 65.3153L189.137 65.7244C188.983 66.2188 188.726 66.6534 188.363 67.0284C188.001 67.3991 187.554 67.6889 187.021 67.8977C186.488 68.1023 185.89 68.2045 185.225 68.2045ZM190.685 68V58.1818H192.194V62.4517H193.191L196.719 58.1818H198.662L194.699 62.9119L198.713 68H196.77L193.549 63.858H192.194V68H190.685ZM203.037 68.2045C202.117 68.2045 201.324 67.9872 200.659 67.5526C199.995 67.1179 199.483 66.5192 199.125 65.7564C198.767 64.9936 198.588 64.1222 198.588 63.142C198.588 62.1449 198.772 61.2649 199.138 60.5021C199.509 59.7351 200.025 59.1364 200.685 58.706C201.35 58.2713 202.125 58.054 203.012 58.054C203.702 58.054 204.324 58.1818 204.878 58.4375C205.432 58.6932 205.886 59.0511 206.24 59.5114C206.593 59.9716 206.813 60.5085 206.898 61.1222H205.39C205.275 60.6747 205.019 60.2784 204.623 59.9332C204.23 59.5838 203.702 59.4091 203.037 59.4091C202.449 59.4091 201.934 59.5625 201.49 59.8693C201.051 60.1719 200.708 60.6001 200.461 61.1541C200.218 61.7038 200.097 62.3494 200.097 63.0909C200.097 63.8494 200.216 64.5099 200.455 65.0724C200.698 65.6349 201.039 66.0717 201.478 66.3828C201.921 66.6939 202.441 66.8494 203.037 66.8494C203.429 66.8494 203.785 66.7812 204.105 66.6449C204.424 66.5085 204.695 66.3125 204.917 66.0568C205.138 65.8011 205.296 65.4943 205.39 65.1364H206.898C206.813 65.7159 206.602 66.2379 206.265 66.7024C205.933 67.1626 205.492 67.5291 204.942 67.8018C204.397 68.0703 203.762 68.2045 203.037 68.2045ZM207.43 59.5881V58.1818H215.407V59.5881H212.186V68H210.677V59.5881H207.43ZM220.87 68V58.1818H228.592V68H227.083V59.5881H222.379V68H220.87ZM234.435 68.2045C233.549 68.2045 232.771 67.9936 232.102 67.5717C231.437 67.1499 230.918 66.5597 230.543 65.8011C230.172 65.0426 229.986 64.1562 229.986 63.142C229.986 62.1193 230.172 61.2266 230.543 60.4638C230.918 59.701 231.437 59.1087 232.102 58.6868C232.771 58.2649 233.549 58.054 234.435 58.054C235.322 58.054 236.097 58.2649 236.762 58.6868C237.431 59.1087 237.951 59.701 238.322 60.4638C238.697 61.2266 238.884 62.1193 238.884 63.142C238.884 64.1562 238.697 65.0426 238.322 65.8011C237.951 66.5597 237.431 67.1499 236.762 67.5717C236.097 67.9936 235.322 68.2045 234.435 68.2045ZM234.435 66.8494C235.109 66.8494 235.663 66.6768 236.097 66.3317C236.532 65.9865 236.854 65.5327 237.062 64.9702C237.271 64.4077 237.376 63.7983 237.376 63.142C237.376 62.4858 237.271 61.8743 237.062 61.3075C236.854 60.7408 236.532 60.2827 236.097 59.9332C235.663 59.5838 235.109 59.4091 234.435 59.4091C233.762 59.4091 233.208 59.5838 232.773 59.9332C232.339 60.2827 232.017 60.7408 231.808 61.3075C231.599 61.8743 231.495 62.4858 231.495 63.142C231.495 63.7983 231.599 64.4077 231.808 64.9702C232.017 65.5327 232.339 65.9865 232.773 66.3317C233.208 66.6768 233.762 66.8494 234.435 66.8494ZM239.239 70.8125V66.5938H240.057C240.257 66.3849 240.43 66.1591 240.575 65.9162C240.719 65.6733 240.845 65.3857 240.952 65.0533C241.063 64.7166 241.156 64.3075 241.233 63.826C241.31 63.3402 241.378 62.7543 241.438 62.0682L241.77 58.1818H248.009V66.5938H249.517V70.8125H248.009V68H240.747V70.8125H239.239ZM241.77 66.5938H246.5V59.5881H243.176L242.92 62.0682C242.814 63.0952 242.682 63.9922 242.524 64.7592C242.366 65.5263 242.115 66.1378 241.77 66.5938ZM250.057 59.5881V58.1818H258.034V59.5881H254.813V68H253.304V59.5881H250.057ZM262.941 68.2045C261.995 68.2045 261.179 67.9957 260.493 67.5781C259.811 67.1562 259.285 66.5682 258.914 65.8139C258.548 65.0554 258.365 64.1733 258.365 63.1676C258.365 62.1619 258.548 61.2756 258.914 60.5085C259.285 59.7372 259.801 59.1364 260.461 58.706C261.126 58.2713 261.902 58.054 262.788 58.054C263.299 58.054 263.804 58.1392 264.303 58.3097C264.801 58.4801 265.255 58.7571 265.664 59.1406C266.073 59.5199 266.399 60.0227 266.642 60.6491C266.885 61.2756 267.007 62.0469 267.007 62.9631V63.6023H259.438V62.2983H265.473C265.473 61.7443 265.362 61.25 265.14 60.8153C264.923 60.3807 264.612 60.0376 264.207 59.7862C263.806 59.5348 263.333 59.4091 262.788 59.4091C262.187 59.4091 261.667 59.5582 261.228 59.8565C260.794 60.1506 260.459 60.5341 260.225 61.0071C259.99 61.4801 259.873 61.9872 259.873 62.5284V63.3977C259.873 64.1392 260.001 64.7678 260.257 65.2834C260.517 65.7947 260.877 66.1847 261.337 66.4531C261.797 66.7173 262.332 66.8494 262.941 66.8494C263.338 66.8494 263.696 66.794 264.015 66.6832C264.339 66.5682 264.618 66.3977 264.853 66.1719C265.087 65.9418 265.268 65.6562 265.396 65.3153L266.853 65.7244C266.7 66.2188 266.442 66.6534 266.08 67.0284C265.718 67.3991 265.27 67.6889 264.737 67.8977C264.205 68.1023 263.606 68.2045 262.941 68.2045ZM268.401 68V58.1818H269.91V62.4517H270.907L274.435 58.1818H276.379L272.416 62.9119L276.43 68H274.487L271.265 63.858H269.91V68H268.401ZM280.754 68.2045C279.833 68.2045 279.041 67.9872 278.376 67.5526C277.711 67.1179 277.2 66.5192 276.842 65.7564C276.484 64.9936 276.305 64.1222 276.305 63.142C276.305 62.1449 276.488 61.2649 276.855 60.5021C277.225 59.7351 277.741 59.1364 278.401 58.706C279.066 58.2713 279.842 58.054 280.728 58.054C281.418 58.054 282.041 58.1818 282.595 58.4375C283.149 58.6932 283.602 59.0511 283.956 59.5114C284.31 59.9716 284.529 60.5085 284.614 61.1222H283.106C282.991 60.6747 282.735 60.2784 282.339 59.9332C281.947 59.5838 281.418 59.4091 280.754 59.4091C280.166 59.4091 279.65 59.5625 279.207 59.8693C278.768 60.1719 278.425 60.6001 278.178 61.1541C277.935 61.7038 277.813 62.3494 277.813 63.0909C277.813 63.8494 277.933 64.5099 278.171 65.0724C278.414 65.6349 278.755 66.0717 279.194 66.3828C279.637 66.6939 280.157 66.8494 280.754 66.8494C281.146 66.8494 281.502 66.7812 281.821 66.6449C282.141 66.5085 282.411 66.3125 282.633 66.0568C282.855 65.8011 283.012 65.4943 283.106 65.1364H284.614C284.529 65.7159 284.318 66.2379 283.982 66.7024C283.649 67.1626 283.208 67.5291 282.659 67.8018C282.113 68.0703 281.478 68.2045 280.754 68.2045ZM285.146 59.5881V58.1818H293.124V59.5881H289.902V68H288.393V59.5881H285.146ZM104.296 90V80.1818H112.017V90H110.509V81.5881H105.804V90H104.296ZM117.861 90.2045C116.974 90.2045 116.197 89.9936 115.528 89.5717C114.863 89.1499 114.343 88.5597 113.968 87.8011C113.597 87.0426 113.412 86.1562 113.412 85.142C113.412 84.1193 113.597 83.2266 113.968 82.4638C114.343 81.701 114.863 81.1087 115.528 80.6868C116.197 80.2649 116.974 80.054 117.861 80.054C118.747 80.054 119.523 80.2649 120.187 80.6868C120.856 81.1087 121.376 81.701 121.747 82.4638C122.122 83.2266 122.31 84.1193 122.31 85.142C122.31 86.1562 122.122 87.0426 121.747 87.8011C121.376 88.5597 120.856 89.1499 120.187 89.5717C119.523 89.9936 118.747 90.2045 117.861 90.2045ZM117.861 88.8494C118.534 88.8494 119.088 88.6768 119.523 88.3317C119.957 87.9865 120.279 87.5327 120.488 86.9702C120.697 86.4077 120.801 85.7983 120.801 85.142C120.801 84.4858 120.697 83.8743 120.488 83.3075C120.279 82.7408 119.957 82.2827 119.523 81.9332C119.088 81.5838 118.534 81.4091 117.861 81.4091C117.187 81.4091 116.633 81.5838 116.199 81.9332C115.764 82.2827 115.442 82.7408 115.234 83.3075C115.025 83.8743 114.92 84.4858 114.92 85.142C114.92 85.7983 115.025 86.4077 115.234 86.9702C115.442 87.5327 115.764 87.9865 116.199 88.3317C116.633 88.6768 117.187 88.8494 117.861 88.8494ZM122.664 92.8125V88.5938H123.482C123.682 88.3849 123.855 88.1591 124 87.9162C124.145 87.6733 124.271 87.3857 124.377 87.0533C124.488 86.7166 124.582 86.3075 124.658 85.826C124.735 85.3402 124.803 84.7543 124.863 84.0682L125.195 80.1818H131.434V88.5938H132.942V92.8125H131.434V90H124.173V92.8125H122.664ZM125.195 88.5938H129.925V81.5881H126.602L126.346 84.0682C126.239 85.0952 126.107 85.9922 125.95 86.7592C125.792 87.5263 125.54 88.1378 125.195 88.5938ZM133.482 81.5881V80.1818H141.46V81.5881H138.238V90H136.729V81.5881H133.482ZM146.367 90.2045C145.421 90.2045 144.605 89.9957 143.919 89.5781C143.237 89.1562 142.71 88.5682 142.34 87.8139C141.973 87.0554 141.79 86.1733 141.79 85.1676C141.79 84.1619 141.973 83.2756 142.34 82.5085C142.71 81.7372 143.226 81.1364 143.887 80.706C144.551 80.2713 145.327 80.054 146.213 80.054C146.725 80.054 147.23 80.1392 147.728 80.3097C148.227 80.4801 148.681 80.7571 149.09 81.1406C149.499 81.5199 149.825 82.0227 150.068 82.6491C150.311 83.2756 150.432 84.0469 150.432 84.9631V85.6023H142.864V84.2983H148.898C148.898 83.7443 148.787 83.25 148.566 82.8153C148.348 82.3807 148.037 82.0376 147.632 81.7862C147.232 81.5348 146.759 81.4091 146.213 81.4091C145.612 81.4091 145.093 81.5582 144.654 81.8565C144.219 82.1506 143.884 82.5341 143.65 83.0071C143.416 83.4801 143.299 83.9872 143.299 84.5284V85.3977C143.299 86.1392 143.426 86.7678 143.682 87.2834C143.942 87.7947 144.302 88.1847 144.762 88.4531C145.223 88.7173 145.757 88.8494 146.367 88.8494C146.763 88.8494 147.121 88.794 147.441 88.6832C147.764 88.5682 148.044 88.3977 148.278 88.1719C148.512 87.9418 148.693 87.6562 148.821 87.3153L150.279 87.7244C150.125 88.2188 149.867 88.6534 149.505 89.0284C149.143 89.3991 148.696 89.6889 148.163 89.8977C147.63 90.1023 147.031 90.2045 146.367 90.2045ZM151.827 90V80.1818H153.335V84.4517H154.332L157.861 80.1818H159.804L155.841 84.9119L159.855 90H157.912L154.69 85.858H153.335V90H151.827ZM164.179 90.2045C163.259 90.2045 162.466 89.9872 161.801 89.5526C161.136 89.1179 160.625 88.5192 160.267 87.7564C159.909 86.9936 159.73 86.1222 159.73 85.142C159.73 84.1449 159.913 83.2649 160.28 82.5021C160.651 81.7351 161.166 81.1364 161.827 80.706C162.492 80.2713 163.267 80.054 164.154 80.054C164.844 80.054 165.466 80.1818 166.02 80.4375C166.574 80.6932 167.028 81.0511 167.381 81.5114C167.735 81.9716 167.955 82.5085 168.04 83.1222H166.531C166.416 82.6747 166.161 82.2784 165.764 81.9332C165.372 81.5838 164.844 81.4091 164.179 81.4091C163.591 81.4091 163.075 81.5625 162.632 81.8693C162.193 82.1719 161.85 82.6001 161.603 83.1541C161.36 83.7038 161.239 84.3494 161.239 85.0909C161.239 85.8494 161.358 86.5099 161.597 87.0724C161.84 87.6349 162.18 88.0717 162.619 88.3828C163.063 88.6939 163.582 88.8494 164.179 88.8494C164.571 88.8494 164.927 88.7812 165.247 88.6449C165.566 88.5085 165.837 88.3125 166.058 88.0568C166.28 87.8011 166.438 87.4943 166.531 87.1364H168.04C167.955 87.7159 167.744 88.2379 167.407 88.7024C167.075 89.1626 166.634 89.5291 166.084 89.8018C165.538 90.0703 164.904 90.2045 164.179 90.2045ZM168.572 81.5881V80.1818H176.549V81.5881H173.327V90H171.819V81.5881H168.572ZM182.012 90V80.1818H189.734V90H188.225V81.5881H183.52V90H182.012ZM195.577 90.2045C194.691 90.2045 193.913 89.9936 193.244 89.5717C192.579 89.1499 192.059 88.5597 191.684 87.8011C191.314 87.0426 191.128 86.1562 191.128 85.142C191.128 84.1193 191.314 83.2266 191.684 82.4638C192.059 81.701 192.579 81.1087 193.244 80.6868C193.913 80.2649 194.691 80.054 195.577 80.054C196.463 80.054 197.239 80.2649 197.904 80.6868C198.573 81.1087 199.093 81.701 199.463 82.4638C199.838 83.2266 200.026 84.1193 200.026 85.142C200.026 86.1562 199.838 87.0426 199.463 87.8011C199.093 88.5597 198.573 89.1499 197.904 89.5717C197.239 89.9936 196.463 90.2045 195.577 90.2045ZM195.577 88.8494C196.25 88.8494 196.804 88.6768 197.239 88.3317C197.674 87.9865 197.995 87.5327 198.204 86.9702C198.413 86.4077 198.517 85.7983 198.517 85.142C198.517 84.4858 198.413 83.8743 198.204 83.3075C197.995 82.7408 197.674 82.2827 197.239 81.9332C196.804 81.5838 196.25 81.4091 195.577 81.4091C194.904 81.4091 194.35 81.5838 193.915 81.9332C193.481 82.2827 193.159 82.7408 192.95 83.3075C192.741 83.8743 192.637 84.4858 192.637 85.142C192.637 85.7983 192.741 86.4077 192.95 86.9702C193.159 87.5327 193.481 87.9865 193.915 88.3317C194.35 88.6768 194.904 88.8494 195.577 88.8494ZM200.38 92.8125V88.5938H201.199C201.399 88.3849 201.571 88.1591 201.716 87.9162C201.861 87.6733 201.987 87.3857 202.093 87.0533C202.204 86.7166 202.298 86.3075 202.375 85.826C202.451 85.3402 202.52 84.7543 202.579 84.0682L202.912 80.1818H209.15V88.5938H210.659V92.8125H209.15V90H201.889V92.8125H200.38ZM202.912 88.5938H207.642V81.5881H204.318L204.062 84.0682C203.956 85.0952 203.824 85.9922 203.666 86.7592C203.508 87.5263 203.257 88.1378 202.912 88.5938ZM211.199 81.5881V80.1818H219.176V81.5881H215.954V90H214.446V81.5881H211.199ZM224.083 90.2045C223.137 90.2045 222.321 89.9957 221.635 89.5781C220.953 89.1562 220.427 88.5682 220.056 87.8139C219.69 87.0554 219.506 86.1733 219.506 85.1676C219.506 84.1619 219.69 83.2756 220.056 82.5085C220.427 81.7372 220.942 81.1364 221.603 80.706C222.268 80.2713 223.043 80.054 223.93 80.054C224.441 80.054 224.946 80.1392 225.445 80.3097C225.943 80.4801 226.397 80.7571 226.806 81.1406C227.215 81.5199 227.541 82.0227 227.784 82.6491C228.027 83.2756 228.148 84.0469 228.148 84.9631V85.6023H220.58V84.2983H226.614C226.614 83.7443 226.504 83.25 226.282 82.8153C226.065 82.3807 225.754 82.0376 225.349 81.7862C224.948 81.5348 224.475 81.4091 223.93 81.4091C223.329 81.4091 222.809 81.5582 222.37 81.8565C221.935 82.1506 221.601 82.5341 221.366 83.0071C221.132 83.4801 221.015 83.9872 221.015 84.5284V85.3977C221.015 86.1392 221.143 86.7678 221.398 87.2834C221.658 87.7947 222.018 88.1847 222.479 88.4531C222.939 88.7173 223.474 88.8494 224.083 88.8494C224.479 88.8494 224.837 88.794 225.157 88.6832C225.481 88.5682 225.76 88.3977 225.994 88.1719C226.229 87.9418 226.41 87.6562 226.538 87.3153L227.995 87.7244C227.842 88.2188 227.584 88.6534 227.222 89.0284C226.859 89.3991 226.412 89.6889 225.879 89.8977C225.347 90.1023 224.748 90.2045 224.083 90.2045ZM229.543 90V80.1818H231.052V84.4517H232.049L235.577 80.1818H237.52L233.557 84.9119L237.572 90H235.628L232.407 85.858H231.052V90H229.543ZM241.895 90.2045C240.975 90.2045 240.182 89.9872 239.518 89.5526C238.853 89.1179 238.342 88.5192 237.984 87.7564C237.626 86.9936 237.447 86.1222 237.447 85.142C237.447 84.1449 237.63 83.2649 237.996 82.5021C238.367 81.7351 238.883 81.1364 239.543 80.706C240.208 80.2713 240.984 80.054 241.87 80.054C242.56 80.054 243.182 80.1818 243.736 80.4375C244.29 80.6932 244.744 81.0511 245.098 81.5114C245.452 81.9716 245.671 82.5085 245.756 83.1222H244.248C244.133 82.6747 243.877 82.2784 243.481 81.9332C243.089 81.5838 242.56 81.4091 241.895 81.4091C241.307 81.4091 240.792 81.5625 240.349 81.8693C239.91 82.1719 239.567 82.6001 239.319 83.1541C239.077 83.7038 238.955 84.3494 238.955 85.0909C238.955 85.8494 239.074 86.5099 239.313 87.0724C239.556 87.6349 239.897 88.0717 240.336 88.3828C240.779 88.6939 241.299 88.8494 241.895 88.8494C242.288 88.8494 242.643 88.7812 242.963 88.6449C243.283 88.5085 243.553 88.3125 243.775 88.0568C243.996 87.8011 244.154 87.4943 244.248 87.1364H245.756C245.671 87.7159 245.46 88.2379 245.123 88.7024C244.791 89.1626 244.35 89.5291 243.8 89.8018C243.255 90.0703 242.62 90.2045 241.895 90.2045ZM246.288 81.5881V80.1818H254.265V81.5881H251.044V90H249.535V81.5881H246.288Z" fill="#8F8ABA"/>
<rect x="103" y="106" width="152" height="29" rx="5" fill="#C192EE"/>
<path d="M116.746 127V114.148H126.394V127H124.792V115.57H118.366V127H116.746ZM138.084 122.158C138.084 122.962 137.976 123.676 137.76 124.3C137.556 124.912 137.256 125.434 136.86 125.866C136.476 126.298 136.002 126.628 135.438 126.856C134.886 127.072 134.268 127.18 133.584 127.18C132.948 127.18 132.36 127.072 131.82 126.856C131.28 126.628 130.812 126.298 130.416 125.866C130.02 125.434 129.708 124.912 129.48 124.3C129.264 123.676 129.156 122.962 129.156 122.158C129.156 121.09 129.336 120.19 129.696 119.458C130.056 118.714 130.572 118.15 131.244 117.766C131.916 117.37 132.714 117.172 133.638 117.172C134.514 117.172 135.282 117.37 135.942 117.766C136.614 118.15 137.136 118.714 137.508 119.458C137.892 120.19 138.084 121.09 138.084 122.158ZM130.794 122.158C130.794 122.914 130.89 123.574 131.082 124.138C131.286 124.69 131.598 125.116 132.018 125.416C132.438 125.716 132.972 125.866 133.62 125.866C134.268 125.866 134.802 125.716 135.222 125.416C135.642 125.116 135.948 124.69 136.14 124.138C136.344 123.574 136.446 122.914 136.446 122.158C136.446 121.39 136.344 120.736 136.14 120.196C135.936 119.656 135.624 119.242 135.204 118.954C134.796 118.654 134.262 118.504 133.602 118.504C132.618 118.504 131.904 118.828 131.46 119.476C131.016 120.124 130.794 121.018 130.794 122.158ZM147.758 117.352V125.668H149.162V130.348H147.632V127H140.918V130.348H139.406V125.668H140.18C140.732 124.9 141.188 124.066 141.548 123.166C141.92 122.254 142.196 121.306 142.376 120.322C142.568 119.326 142.67 118.336 142.682 117.352H147.758ZM144.086 118.594C144.038 119.41 143.912 120.256 143.708 121.132C143.504 121.996 143.24 122.824 142.916 123.616C142.604 124.408 142.238 125.092 141.818 125.668H146.228V118.594H144.086ZM154.707 117.19C155.883 117.19 156.753 117.448 157.317 117.964C157.881 118.48 158.163 119.302 158.163 120.43V127H157.011L156.705 125.632H156.633C156.357 125.98 156.069 126.274 155.769 126.514C155.481 126.742 155.145 126.91 154.761 127.018C154.389 127.126 153.933 127.18 153.393 127.18C152.817 127.18 152.295 127.078 151.827 126.874C151.371 126.67 151.011 126.358 150.747 125.938C150.483 125.506 150.351 124.966 150.351 124.318C150.351 123.358 150.729 122.62 151.485 122.104C152.241 121.576 153.405 121.288 154.977 121.24L156.615 121.186V120.61C156.615 119.806 156.441 119.248 156.093 118.936C155.745 118.624 155.253 118.468 154.617 118.468C154.113 118.468 153.633 118.546 153.177 118.702C152.721 118.846 152.295 119.014 151.899 119.206L151.413 118.018C151.833 117.79 152.331 117.598 152.907 117.442C153.483 117.274 154.083 117.19 154.707 117.19ZM155.175 122.338C153.975 122.386 153.141 122.578 152.673 122.914C152.217 123.25 151.989 123.724 151.989 124.336C151.989 124.876 152.151 125.272 152.475 125.524C152.811 125.776 153.237 125.902 153.753 125.902C154.569 125.902 155.247 125.68 155.787 125.236C156.327 124.78 156.597 124.084 156.597 123.148V122.284L155.175 122.338ZM167.803 118.684H164.653V127H163.087V118.684H159.973V117.352H167.803V118.684ZM174.15 121.312C174.99 121.312 175.686 121.414 176.238 121.618C176.79 121.822 177.204 122.128 177.48 122.536C177.768 122.932 177.912 123.436 177.912 124.048C177.912 124.648 177.774 125.17 177.498 125.614C177.234 126.058 176.82 126.4 176.256 126.64C175.692 126.88 174.966 127 174.078 127H169.704V117.352H171.288V121.312H174.15ZM176.328 124.138C176.328 123.55 176.118 123.154 175.698 122.95C175.29 122.734 174.714 122.626 173.97 122.626H171.288V125.722H174.006C174.678 125.722 175.23 125.602 175.662 125.362C176.106 125.122 176.328 124.714 176.328 124.138ZM188.326 117.172C189.058 117.172 189.694 117.274 190.234 117.478C190.774 117.67 191.194 117.958 191.494 118.342C191.794 118.714 191.944 119.17 191.944 119.71C191.944 120.298 191.782 120.766 191.458 121.114C191.134 121.45 190.69 121.696 190.126 121.852V121.924C190.51 122.032 190.864 122.182 191.188 122.374C191.512 122.566 191.77 122.818 191.962 123.13C192.166 123.442 192.268 123.844 192.268 124.336C192.268 124.864 192.118 125.344 191.818 125.776C191.53 126.208 191.08 126.55 190.468 126.802C189.868 127.054 189.094 127.18 188.146 127.18C187.69 127.18 187.252 127.156 186.832 127.108C186.424 127.06 186.052 126.988 185.716 126.892C185.392 126.796 185.104 126.682 184.852 126.55V125.128C185.26 125.32 185.74 125.494 186.292 125.65C186.856 125.806 187.468 125.884 188.128 125.884C188.608 125.884 189.04 125.83 189.424 125.722C189.82 125.614 190.132 125.446 190.36 125.218C190.588 124.978 190.702 124.654 190.702 124.246C190.702 123.874 190.6 123.574 190.396 123.346C190.192 123.106 189.886 122.926 189.478 122.806C189.082 122.686 188.572 122.626 187.948 122.626H186.652V121.33H187.696C188.524 121.33 189.184 121.222 189.676 121.006C190.18 120.778 190.432 120.394 190.432 119.854C190.432 119.398 190.24 119.056 189.856 118.828C189.484 118.6 188.944 118.486 188.236 118.486C187.708 118.486 187.24 118.54 186.832 118.648C186.436 118.744 185.998 118.894 185.518 119.098L184.96 117.838C185.476 117.61 186.016 117.442 186.58 117.334C187.144 117.226 187.726 117.172 188.326 117.172ZM198.266 117.19C199.442 117.19 200.312 117.448 200.876 117.964C201.44 118.48 201.722 119.302 201.722 120.43V127H200.57L200.264 125.632H200.192C199.916 125.98 199.628 126.274 199.328 126.514C199.04 126.742 198.704 126.91 198.32 127.018C197.948 127.126 197.492 127.18 196.952 127.18C196.376 127.18 195.854 127.078 195.386 126.874C194.93 126.67 194.57 126.358 194.306 125.938C194.042 125.506 193.91 124.966 193.91 124.318C193.91 123.358 194.288 122.62 195.044 122.104C195.8 121.576 196.964 121.288 198.536 121.24L200.174 121.186V120.61C200.174 119.806 200 119.248 199.652 118.936C199.304 118.624 198.812 118.468 198.176 118.468C197.672 118.468 197.192 118.546 196.736 118.702C196.28 118.846 195.854 119.014 195.458 119.206L194.972 118.018C195.392 117.79 195.89 117.598 196.466 117.442C197.042 117.274 197.642 117.19 198.266 117.19ZM198.734 122.338C197.534 122.386 196.7 122.578 196.232 122.914C195.776 123.25 195.548 123.724 195.548 124.336C195.548 124.876 195.71 125.272 196.034 125.524C196.37 125.776 196.796 125.902 197.312 125.902C198.128 125.902 198.806 125.68 199.346 125.236C199.886 124.78 200.156 124.084 200.156 123.148V122.284L198.734 122.338ZM205.296 127H203.46L206.214 122.95C205.842 122.854 205.482 122.704 205.134 122.5C204.786 122.284 204.504 121.99 204.288 121.618C204.072 121.234 203.964 120.76 203.964 120.196C203.964 119.272 204.276 118.57 204.9 118.09C205.524 117.598 206.352 117.352 207.384 117.352H211.704V127H210.12V123.166H207.78L205.296 127ZM205.494 120.214C205.494 120.766 205.698 121.18 206.106 121.456C206.526 121.72 207.108 121.852 207.852 121.852H210.12V118.666H207.546C206.814 118.666 206.286 118.81 205.962 119.098C205.65 119.386 205.494 119.758 205.494 120.214ZM222.515 119.782C222.515 120.382 222.335 120.85 221.975 121.186C221.615 121.522 221.153 121.75 220.589 121.87V121.942C221.189 122.026 221.711 122.242 222.155 122.59C222.599 122.926 222.821 123.454 222.821 124.174C222.821 124.582 222.743 124.96 222.587 125.308C222.443 125.656 222.215 125.956 221.903 126.208C221.591 126.46 221.189 126.658 220.697 126.802C220.205 126.934 219.611 127 218.915 127H214.757V117.352H218.897C219.581 117.352 220.193 117.43 220.733 117.586C221.285 117.73 221.717 117.982 222.029 118.342C222.353 118.69 222.515 119.17 222.515 119.782ZM221.183 124.174C221.183 123.622 220.973 123.226 220.553 122.986C220.133 122.746 219.515 122.626 218.699 122.626H216.341V125.722H218.735C219.527 125.722 220.133 125.608 220.553 125.38C220.973 125.14 221.183 124.738 221.183 124.174ZM220.913 119.98C220.913 119.524 220.745 119.194 220.409 118.99C220.085 118.774 219.551 118.666 218.807 118.666H216.341V121.312H218.519C219.299 121.312 219.893 121.204 220.301 120.988C220.709 120.772 220.913 120.436 220.913 119.98ZM230.834 117.352H232.562L228.44 121.996L232.904 127H231.068L226.712 122.104V127H225.128V117.352H226.712V122.032L230.834 117.352ZM233.143 117.352H234.835L236.923 122.842C237.043 123.166 237.151 123.478 237.247 123.778C237.355 124.078 237.451 124.372 237.535 124.66C237.619 124.936 237.685 125.206 237.733 125.47H237.805C237.877 125.17 237.991 124.78 238.147 124.3C238.303 123.808 238.465 123.316 238.633 122.824L240.595 117.352H242.305L238.147 128.332C237.919 128.932 237.649 129.454 237.337 129.898C237.037 130.354 236.665 130.702 236.221 130.942C235.789 131.194 235.261 131.32 234.637 131.32C234.349 131.32 234.097 131.302 233.881 131.266C233.665 131.242 233.479 131.212 233.323 131.176V129.916C233.455 129.94 233.611 129.964 233.791 129.988C233.983 130.012 234.181 130.024 234.385 130.024C234.757 130.024 235.075 129.952 235.339 129.808C235.615 129.676 235.849 129.478 236.041 129.214C236.233 128.962 236.395 128.662 236.527 128.314L237.031 127.036L233.143 117.352Z" fill="white"/>
<rect x="0.25" y="0.25" width="357.5" height="150.5" rx="6.75" stroke="#FAEBFC" stroke-width="0.5"/>
</svg>
