<svg width="375" height="190" viewBox="0 0 375 190" fill="none" xmlns="http://www.w3.org/2000/svg">
<g filter="url(#filter0_d_2605_5470)">
<rect x="24" y="20" width="327" height="50" rx="10" fill="#FDFDFD" shape-rendering="crispEdges"/>
<path d="M89.645 50H88.295V45.005H82.805V50H81.455V39.29H82.805V43.82H88.295V39.29H89.645V50ZM95.4382 41.825C96.4182 41.825 97.1432 42.04 97.6132 42.47C98.0832 42.9 98.3182 43.585 98.3182 44.525V50H97.3582L97.1032 48.86H97.0432C96.8132 49.15 96.5732 49.395 96.3232 49.595C96.0832 49.785 95.8032 49.925 95.4832 50.015C95.1732 50.105 94.7932 50.15 94.3432 50.15C93.8632 50.15 93.4282 50.065 93.0382 49.895C92.6582 49.725 92.3582 49.465 92.1382 49.115C91.9182 48.755 91.8082 48.305 91.8082 47.765C91.8082 46.965 92.1232 46.35 92.7532 45.92C93.3832 45.48 94.3532 45.24 95.6632 45.2L97.0282 45.155V44.675C97.0282 44.005 96.8832 43.54 96.5932 43.28C96.3032 43.02 95.8932 42.89 95.3632 42.89C94.9432 42.89 94.5432 42.955 94.1632 43.085C93.7832 43.205 93.4282 43.345 93.0982 43.505L92.6932 42.515C93.0432 42.325 93.4582 42.165 93.9382 42.035C94.4182 41.895 94.9182 41.825 95.4382 41.825ZM95.8282 46.115C94.8282 46.155 94.1332 46.315 93.7432 46.595C93.3632 46.875 93.1732 47.27 93.1732 47.78C93.1732 48.23 93.3082 48.56 93.5782 48.77C93.8582 48.98 94.2132 49.085 94.6432 49.085C95.3232 49.085 95.8882 48.9 96.3382 48.53C96.7882 48.15 97.0132 47.57 97.0132 46.79V46.07L95.8282 46.115ZM104.026 50.15C103.316 50.15 102.681 50.005 102.121 49.715C101.571 49.425 101.136 48.975 100.816 48.365C100.506 47.755 100.351 46.975 100.351 46.025C100.351 45.035 100.516 44.23 100.846 43.61C101.176 42.99 101.621 42.535 102.181 42.245C102.751 41.955 103.396 41.81 104.116 41.81C104.526 41.81 104.921 41.855 105.301 41.945C105.681 42.025 105.991 42.125 106.231 42.245L105.826 43.34C105.586 43.25 105.306 43.165 104.986 43.085C104.666 43.005 104.366 42.965 104.086 42.965C103.546 42.965 103.101 43.08 102.751 43.31C102.401 43.54 102.141 43.88 101.971 44.33C101.801 44.78 101.716 45.34 101.716 46.01C101.716 46.65 101.801 47.195 101.971 47.645C102.141 48.095 102.396 48.435 102.736 48.665C103.076 48.895 103.501 49.01 104.011 49.01C104.451 49.01 104.836 48.965 105.166 48.875C105.506 48.785 105.816 48.675 106.096 48.545V49.715C105.826 49.855 105.526 49.96 105.196 50.03C104.876 50.11 104.486 50.15 104.026 50.15ZM113.558 43.07H110.933V50H109.628V43.07H107.033V41.96H113.558V43.07ZM118.967 41.81C119.957 41.81 120.752 42.155 121.352 42.845C121.962 43.535 122.267 44.575 122.267 45.965C122.267 46.875 122.127 47.645 121.847 48.275C121.577 48.895 121.192 49.365 120.692 49.685C120.202 49.995 119.622 50.15 118.952 50.15C118.542 50.15 118.177 50.095 117.857 49.985C117.537 49.875 117.262 49.735 117.032 49.565C116.812 49.385 116.622 49.19 116.462 48.98H116.372C116.392 49.15 116.412 49.365 116.432 49.625C116.452 49.885 116.462 50.11 116.462 50.3V53.6H115.142V41.96H116.222L116.402 43.055H116.462C116.622 42.825 116.812 42.615 117.032 42.425C117.262 42.235 117.532 42.085 117.842 41.975C118.162 41.865 118.537 41.81 118.967 41.81ZM118.727 42.92C118.187 42.92 117.752 43.025 117.422 43.235C117.092 43.435 116.852 43.74 116.702 44.15C116.552 44.56 116.472 45.08 116.462 45.71V45.965C116.462 46.625 116.532 47.185 116.672 47.645C116.812 48.105 117.047 48.455 117.377 48.695C117.717 48.935 118.177 49.055 118.757 49.055C119.247 49.055 119.647 48.92 119.957 48.65C120.277 48.38 120.512 48.015 120.662 47.555C120.822 47.085 120.902 46.55 120.902 45.95C120.902 45.03 120.722 44.295 120.362 43.745C120.012 43.195 119.467 42.92 118.727 42.92ZM131.361 45.965C131.361 46.635 131.271 47.23 131.091 47.75C130.921 48.26 130.671 48.695 130.341 49.055C130.021 49.415 129.626 49.69 129.156 49.88C128.696 50.06 128.181 50.15 127.611 50.15C127.081 50.15 126.591 50.06 126.141 49.88C125.691 49.69 125.301 49.415 124.971 49.055C124.641 48.695 124.381 48.26 124.191 47.75C124.011 47.23 123.921 46.635 123.921 45.965C123.921 45.075 124.071 44.325 124.371 43.715C124.671 43.095 125.101 42.625 125.661 42.305C126.221 41.975 126.886 41.81 127.656 41.81C128.386 41.81 129.026 41.975 129.576 42.305C130.136 42.625 130.571 43.095 130.881 43.715C131.201 44.325 131.361 45.075 131.361 45.965ZM125.286 45.965C125.286 46.595 125.366 47.145 125.526 47.615C125.696 48.075 125.956 48.43 126.306 48.68C126.656 48.93 127.101 49.055 127.641 49.055C128.181 49.055 128.626 48.93 128.976 48.68C129.326 48.43 129.581 48.075 129.741 47.615C129.911 47.145 129.996 46.595 129.996 45.965C129.996 45.325 129.911 44.78 129.741 44.33C129.571 43.88 129.311 43.535 128.961 43.295C128.621 43.045 128.176 42.92 127.626 42.92C126.806 42.92 126.211 43.19 125.841 43.73C125.471 44.27 125.286 45.015 125.286 45.965ZM139.963 38.63C139.923 39.13 139.798 39.55 139.588 39.89C139.388 40.23 139.088 40.485 138.688 40.655C138.288 40.825 137.768 40.91 137.128 40.91C136.478 40.91 135.953 40.825 135.553 40.655C135.163 40.485 134.878 40.235 134.698 39.905C134.518 39.565 134.408 39.14 134.368 38.63H135.598C135.648 39.17 135.788 39.535 136.018 39.725C136.258 39.905 136.638 39.995 137.158 39.995C137.618 39.995 137.978 39.9 138.238 39.71C138.508 39.51 138.668 39.15 138.718 38.63H139.963ZM134.698 46.865C134.698 46.955 134.693 47.085 134.683 47.255C134.683 47.415 134.678 47.59 134.668 47.78C134.658 47.96 134.648 48.135 134.638 48.305C134.628 48.465 134.618 48.595 134.608 48.695L138.913 41.96H140.533V50H139.303V45.26C139.303 45.1 139.303 44.89 139.303 44.63C139.313 44.37 139.323 44.115 139.333 43.865C139.343 43.605 139.353 43.41 139.363 43.28L135.088 50H133.453V41.96H134.698V46.865ZM147.846 41.96H149.286L145.851 45.83L149.571 50H148.041L144.411 45.92V50H143.091V41.96H144.411V45.86L147.846 41.96ZM152.276 46.865C152.276 46.955 152.271 47.085 152.261 47.255C152.261 47.415 152.256 47.59 152.246 47.78C152.236 47.96 152.226 48.135 152.216 48.305C152.206 48.465 152.196 48.595 152.186 48.695L156.491 41.96H158.111V50H156.881V45.26C156.881 45.1 156.881 44.89 156.881 44.63C156.891 44.37 156.901 44.115 156.911 43.865C156.921 43.605 156.931 43.41 156.941 43.28L152.666 50H151.031V41.96H152.276V46.865ZM171.962 41.96V50H170.642V43.085H166.487V50H165.167V41.96H171.962ZM178.352 41.81C179.342 41.81 180.137 42.155 180.737 42.845C181.347 43.535 181.652 44.575 181.652 45.965C181.652 46.875 181.512 47.645 181.232 48.275C180.962 48.895 180.577 49.365 180.077 49.685C179.587 49.995 179.007 50.15 178.337 50.15C177.927 50.15 177.562 50.095 177.242 49.985C176.922 49.875 176.647 49.735 176.417 49.565C176.197 49.385 176.007 49.19 175.847 48.98H175.757C175.777 49.15 175.797 49.365 175.817 49.625C175.837 49.885 175.847 50.11 175.847 50.3V53.6H174.527V41.96H175.607L175.787 43.055H175.847C176.007 42.825 176.197 42.615 176.417 42.425C176.647 42.235 176.917 42.085 177.227 41.975C177.547 41.865 177.922 41.81 178.352 41.81ZM178.112 42.92C177.572 42.92 177.137 43.025 176.807 43.235C176.477 43.435 176.237 43.74 176.087 44.15C175.937 44.56 175.857 45.08 175.847 45.71V45.965C175.847 46.625 175.917 47.185 176.057 47.645C176.197 48.105 176.432 48.455 176.762 48.695C177.102 48.935 177.562 49.055 178.142 49.055C178.632 49.055 179.032 48.92 179.342 48.65C179.662 48.38 179.897 48.015 180.047 47.555C180.207 47.085 180.287 46.55 180.287 45.95C180.287 45.03 180.107 44.295 179.747 43.745C179.397 43.195 178.852 42.92 178.112 42.92ZM190.745 45.965C190.745 46.635 190.655 47.23 190.475 47.75C190.305 48.26 190.055 48.695 189.725 49.055C189.405 49.415 189.01 49.69 188.54 49.88C188.08 50.06 187.565 50.15 186.995 50.15C186.465 50.15 185.975 50.06 185.525 49.88C185.075 49.69 184.685 49.415 184.355 49.055C184.025 48.695 183.765 48.26 183.575 47.75C183.395 47.23 183.305 46.635 183.305 45.965C183.305 45.075 183.455 44.325 183.755 43.715C184.055 43.095 184.485 42.625 185.045 42.305C185.605 41.975 186.27 41.81 187.04 41.81C187.77 41.81 188.41 41.975 188.96 42.305C189.52 42.625 189.955 43.095 190.265 43.715C190.585 44.325 190.745 45.075 190.745 45.965ZM184.67 45.965C184.67 46.595 184.75 47.145 184.91 47.615C185.08 48.075 185.34 48.43 185.69 48.68C186.04 48.93 186.485 49.055 187.025 49.055C187.565 49.055 188.01 48.93 188.36 48.68C188.71 48.43 188.965 48.075 189.125 47.615C189.295 47.145 189.38 46.595 189.38 45.965C189.38 45.325 189.295 44.78 189.125 44.33C188.955 43.88 188.695 43.535 188.345 43.295C188.005 43.045 187.56 42.92 187.01 42.92C186.19 42.92 185.595 43.19 185.225 43.73C184.855 44.27 184.67 45.015 184.67 45.965ZM197.638 41.84C198.438 41.91 199.133 42.12 199.723 42.47C200.323 42.82 200.788 43.29 201.118 43.88C201.448 44.47 201.613 45.17 201.613 45.98C201.613 46.79 201.453 47.495 201.133 48.095C200.813 48.685 200.358 49.155 199.768 49.505C199.178 49.845 198.468 50.05 197.638 50.12V53.6H196.348V50.12C195.558 50.05 194.863 49.845 194.263 49.505C193.663 49.155 193.198 48.685 192.868 48.095C192.538 47.495 192.373 46.79 192.373 45.98C192.373 45.16 192.533 44.455 192.853 43.865C193.173 43.265 193.633 42.795 194.233 42.455C194.833 42.105 195.553 41.9 196.393 41.84V38.6H197.638V41.84ZM196.393 42.935C195.783 42.995 195.283 43.15 194.893 43.4C194.503 43.65 194.213 43.99 194.023 44.42C193.843 44.85 193.753 45.37 193.753 45.98C193.753 46.58 193.843 47.1 194.023 47.54C194.213 47.97 194.503 48.315 194.893 48.575C195.283 48.825 195.783 48.98 196.393 49.04V42.935ZM197.638 49.04C198.238 48.97 198.728 48.81 199.108 48.56C199.498 48.31 199.783 47.97 199.963 47.54C200.153 47.1 200.248 46.58 200.248 45.98C200.248 45.38 200.153 44.865 199.963 44.435C199.773 44.005 199.483 43.665 199.093 43.415C198.713 43.165 198.228 43.01 197.638 42.95V49.04ZM204.952 46.865C204.952 46.955 204.947 47.085 204.937 47.255C204.937 47.415 204.932 47.59 204.922 47.78C204.912 47.96 204.902 48.135 204.892 48.305C204.882 48.465 204.872 48.595 204.862 48.695L209.167 41.96H210.787V50H209.557V45.26C209.557 45.1 209.557 44.89 209.557 44.63C209.567 44.37 209.577 44.115 209.587 43.865C209.597 43.605 209.607 43.41 209.617 43.28L205.342 50H203.707V41.96H204.952V46.865ZM219.465 50H218.13V43.055H215.76C215.66 44.325 215.535 45.41 215.385 46.31C215.235 47.2 215.045 47.925 214.815 48.485C214.585 49.045 214.31 49.455 213.99 49.715C213.67 49.975 213.295 50.105 212.865 50.105C212.735 50.105 212.605 50.095 212.475 50.075C212.355 50.065 212.255 50.04 212.175 50V49.01C212.235 49.03 212.3 49.045 212.37 49.055C212.44 49.065 212.51 49.07 212.58 49.07C212.8 49.07 213 48.98 213.18 48.8C213.36 48.62 213.52 48.345 213.66 47.975C213.81 47.605 213.945 47.14 214.065 46.58C214.185 46.01 214.29 45.34 214.38 44.57C214.47 43.8 214.55 42.93 214.62 41.96H219.465V50ZM222.512 50H220.982L223.277 46.625C222.967 46.545 222.667 46.42 222.377 46.25C222.087 46.07 221.852 45.825 221.672 45.515C221.492 45.195 221.402 44.8 221.402 44.33C221.402 43.56 221.662 42.975 222.182 42.575C222.702 42.165 223.392 41.96 224.252 41.96H227.852V50H226.532V46.805H224.582L222.512 50ZM222.677 44.345C222.677 44.805 222.847 45.15 223.187 45.38C223.537 45.6 224.022 45.71 224.642 45.71H226.532V43.055H224.387C223.777 43.055 223.337 43.175 223.067 43.415C222.807 43.655 222.677 43.965 222.677 44.345Z" fill="black"/>
<path d="M62.2024 55.139C62.2024 55.1385 62.2023 55.138 62.202 55.1375L61.924 54.6385C61.0843 53.1315 58.9165 53.1315 58.0768 54.6385L57.7984 55.1382C57.5995 55.4949 57.2721 55.7551 56.8882 55.8618C56.5043 55.9685 56.0953 55.9129 55.7509 55.7072L53.1514 54.1525C52.8069 53.9463 52.5555 53.6067 52.4525 53.2085C52.3496 52.8102 52.4035 52.3858 52.6024 52.0287L52.9406 51.4217C53.7762 49.9219 52.6919 48.0766 50.9751 48.0766H50.4004C50.0026 48.0766 49.621 47.9128 49.3397 47.6212C49.0584 47.3296 48.9004 46.9342 48.9004 46.5218V43.4123C48.9004 43 49.0584 42.6046 49.3397 42.313C49.621 42.0214 50.0026 41.8576 50.4004 41.8576H50.9751C52.6919 41.8576 53.7762 40.0122 52.9406 38.5125L52.6024 37.9055C52.5037 37.7286 52.4396 37.5333 52.4137 37.3307C52.3879 37.1281 52.4008 36.9222 52.4518 36.7248C52.5028 36.5274 52.5908 36.3424 52.7109 36.1803C52.8309 36.0182 52.9806 35.8822 53.1514 35.7801L55.7494 34.2254C56.0939 34.0192 56.5033 33.9634 56.8876 34.0701C57.2718 34.1768 57.5995 34.4373 57.7984 34.7944L58.0354 35.2199C58.8931 36.7599 61.1083 36.7603 61.9664 35.2205L62.2039 34.7944C62.4028 34.4378 62.7302 34.1775 63.1141 34.0708C63.498 33.9641 63.907 34.0197 64.2514 34.2254L66.8509 35.7801C67.195 35.9863 67.4461 36.3256 67.549 36.7235C67.652 37.1214 67.5983 37.5454 67.3999 37.9023L67.0599 38.5126C66.2244 40.0123 67.3087 41.8576 69.0255 41.8576H69.6004C69.9982 41.8576 70.3797 42.0214 70.6611 42.313C70.9424 42.6046 71.1004 43 71.1004 43.4123V46.5218C71.1004 46.9342 70.9424 47.3296 70.6611 47.6212C70.3797 47.9128 69.9982 48.0766 69.6004 48.0766H69.0249C67.3083 48.0766 66.224 49.9216 67.0593 51.4214L67.3984 52.0303C67.5973 52.3874 67.6512 52.8117 67.5482 53.21C67.4453 53.6083 67.1939 53.9479 66.8494 54.1541L64.2514 55.7088C63.9069 55.915 63.4975 55.9708 63.1132 55.8641C62.7292 55.7575 62.4017 55.4972 62.2028 55.1404C62.2025 55.14 62.2024 55.1395 62.2024 55.139V55.139Z" stroke="#DB66E4" stroke-width="1.5" stroke-linejoin="round"/>
<circle cx="60" cy="45" r="3.75" stroke="#DB66E4" stroke-width="1.5"/>
<path d="M320.382 41.2092L319.454 42.0489L323.392 45.6113H306.278V46.7988H323.392L319.454 50.3611L320.382 51.2008L325.904 46.205L320.382 41.2092Z" fill="black"/>
<rect x="24.5" y="20.5" width="326" height="49" rx="9.5" stroke="#DB66E4" shape-rendering="crispEdges"/>
</g>
<defs>
<filter id="filter0_d_2605_5470" x="-46" y="0" width="467" height="190" filterUnits="userSpaceOnUse" color-interpolation-filters="sRGB">
<feFlood flood-opacity="0" result="BackgroundImageFix"/>
<feColorMatrix in="SourceAlpha" type="matrix" values="0 0 0 0 0 0 0 0 0 0 0 0 0 0 0 0 0 0 127 0" result="hardAlpha"/>
<feOffset dy="50"/>
<feGaussianBlur stdDeviation="35"/>
<feComposite in2="hardAlpha" operator="out"/>
<feColorMatrix type="matrix" values="0 0 0 0 0 0 0 0 0 0 0 0 0 0 0 0 0 0 0.05 0"/>
<feBlend mode="normal" in2="BackgroundImageFix" result="effect1_dropShadow_2605_5470"/>
<feBlend mode="normal" in="SourceGraphic" in2="effect1_dropShadow_2605_5470" result="shape"/>
</filter>
</defs>
</svg>
