<svg width="255" height="246" viewBox="0 0 255 246" fill="none" xmlns="http://www.w3.org/2000/svg">
<g clip-path="url(#clip0_2334_5295)">
<path d="M26.1777 171.75C26.1777 171.068 28.0717 169.951 29.0186 169.477H30.6819C30.2274 170.614 29.8709 172.034 29.5868 172.602C26.1777 177.375 26.8406 174.023 27.5982 171.75C27.1247 172.034 26.1777 172.432 26.1777 171.75Z" fill="#FAD3E7"/>
<path d="M8.27953 169.477C8.75306 170.519 8.84771 172.83 5.43864 173.739C4.87045 172.507 4.64318 169.932 8.27953 169.477Z" fill="#FAD3E7"/>
<path d="M28.4973 156.977C28.27 157.659 25.9404 154.989 24.8041 153.568L25.5665 170.088C21.1057 169.969 18.8435 169.063 18.27 168.625C20.0882 153.852 19.0276 147.318 18.27 145.898H16.4803C16.3731 147.906 16.3503 150.397 15.4291 151.864C16.1109 152.318 15.7132 161.334 15.4291 165.784V170.088L13.9212 169.761L13.7245 165.784V158.114C11.4518 167.886 9.36851 169.951 8.6109 169.761C7.71033 163.232 13.9846 149.286 17.3242 142.95C17.3062 142.86 17.3303 142.798 17.4177 142.773C17.3868 142.831 17.3557 142.89 17.3242 142.95C17.4527 143.59 19.7165 145.649 16.4803 145.898H18.27C18.9518 146.352 20.0692 143.625 20.5427 142.205C23.7245 144.477 29.0654 153 31.3382 156.977C31.7927 158.341 31.5276 166.068 31.3382 169.761H29.3495L28.4973 156.977Z" fill="black"/>
<path d="M19.8583 142.773V144.193L16.7333 144.761V142.773C11.7333 142.773 13.8924 138.985 15.597 137.091L21.847 138.227C22.0742 141.409 20.6159 142.583 19.8583 142.773Z" fill="#FAD3E7"/>
<path d="M24.5663 134.342C25.2482 138.887 22.1989 139.077 20.5891 138.603L14.3391 137.467C13.43 134.512 17.3693 134.531 19.4527 134.91C21.4982 131.955 23.7141 133.3 24.5663 134.342Z" fill="black"/>
<path d="M23.0119 193.909L28.4096 204.989H26.1369L20.4551 193.909H23.0119Z" fill="#FAD3E7"/>
<path d="M12.5 204.989L13.3523 193.909H16.1932L15.3409 204.989H12.5Z" fill="#FAD3E7"/>
<path d="M26.014 194.285H23.7413H21.1845H16.9231H14.0822H11.5254C12.2072 193.149 12.9458 177.145 13.2299 169.285C13.9118 170.649 21.4686 169.853 25.1618 169.285C24.4799 174.967 25.4458 188.319 26.014 194.285Z" fill="black"/>
<path d="M6.81812 192.773V205.557" stroke="#C192EE"/>
<path d="M7.10197 194.477C3.97694 190.595 -1.42941 182.205 1.29786 177.432C3.8547 178.379 8.46561 182.659 7.10197 194.477Z" fill="#C192EE"/>
<path d="M34.9485 198.454C37.7894 195.235 42.619 187.204 39.2099 180.841C36.6531 184.061 32.2212 192.091 34.9485 198.454Z" fill="#C192EE"/>
<path d="M31.8181 204.989C32.3863 204.61 34.4886 200.443 34.9431 197.034" stroke="#C192EE"/>
<path d="M32.3867 182.83C32.9549 180.936 35.4549 177.091 40.9094 176.864C39.8678 179.042 36.7049 183.284 32.3867 182.83Z" fill="#C192EE"/>
<path d="M15.9082 205.557C18.0862 200.064 24.6014 187.716 33.2377 182.261" stroke="#C192EE"/>
<path d="M31.8189 242.773L33.8075 204.705H30.5405H27.2734H25.0007H21.8757H14.2053H11.3643H8.23935H2.27344C3.18253 205.159 4.92495 230.273 5.68253 242.773H31.8189Z" fill="#C192EE"/>
<path d="M59.6582 185.386V198.17" stroke="#C192EE"/>
<path d="M59.9438 187.091C56.8187 183.208 51.4124 174.818 54.1397 170.045C56.6965 170.993 61.3074 175.273 59.9438 187.091Z" fill="#C192EE"/>
<path d="M94.0384 192.773C96.8793 189.553 101.709 181.523 98.2997 175.159C95.7429 178.379 91.3111 186.409 94.0384 192.773Z" fill="#C192EE"/>
<path d="M90.9082 199.307C91.4764 198.928 93.5787 194.761 94.0332 191.352" stroke="#C192EE"/>
<path d="M83.2389 181.125L85.5116 198.17H83.8071C81.7235 192.678 77.898 181.409 79.2616 180.273L83.2389 181.125Z" fill="#FAD3E7"/>
<path d="M65.9082 198.17V181.125H70.1696L69.0332 198.17H65.9082Z" fill="#FAD3E7"/>
<path d="M68.6842 116.936C68.9433 117.343 69.2313 117.656 69.5364 117.889C70.5239 118.646 71.6933 118.58 72.6614 118.249V116.652C74.1768 116.652 76.8092 115.572 75.2183 111.254C75.4075 110.213 75.3887 107.675 73.7978 105.857C74.4609 104.531 75.0478 102.163 72.0933 103.3C71.5251 104.247 70.1614 105.97 69.2524 105.288C68.3052 105.667 66.6955 106.766 67.8319 108.129C67.5495 108.859 67.3251 109.52 67.1529 110.118C65.7694 109.928 63.0023 110.8 63.0023 115.8C59.5933 115.989 53.5137 117.959 56.4682 124.322C57.3649 125.838 60.3387 128.186 65.058 125.459C66.2188 122.194 67.6461 119.012 68.6842 116.936Z" fill="black"/>
<path d="M70.1037 115.8V118.457C71.0912 119.214 72.2605 119.148 73.2287 118.817V117.22V113.811C75.7287 114.493 75.2173 112.769 74.6491 111.822C73.5128 112.277 70.6719 107.561 68.3991 108.697C68.1167 109.427 67.8929 110.088 67.7202 110.686C66.2258 115.859 68.5758 116.309 70.1037 115.8Z" fill="#FAD3E7"/>
<path d="M87.9139 147.886H85.6412C85.1866 150.614 86.0196 153.757 86.4935 154.989C88.0844 154.761 88.1031 150.159 87.9139 147.886Z" fill="#FAD3E7"/>
<path d="M59.7891 151.579L57.5164 150.443C55.9253 154.761 57.4215 157.356 58.3686 158.114C58.8232 159.932 59.505 154.515 59.7891 151.579Z" fill="#FAD3E7"/>
<path d="M65.3413 151.296C66.4776 152.205 74.9055 151.674 78.9776 151.296L77.8413 128.568L82.1026 133.398C82.7657 138.133 84.3754 147.716 85.5117 148.171H87.7844C87.4055 143.909 86.3072 134.761 84.9435 132.261C82.1026 128 76.0231 119.136 74.4322 117.773C74.0799 118.037 73.5805 118.323 73.0117 118.517C72.0435 118.848 70.8742 118.914 69.8867 118.158C69.5816 117.924 69.2935 117.612 69.0344 117.205C67.9964 119.28 66.5691 122.463 65.4083 125.727C63.9208 129.909 62.8708 134.225 63.6367 136.523C61.5532 139.742 57.3867 147.091 57.3867 150.727L59.3754 151.864C62.0271 146.466 67.3867 135.102 67.614 132.83C67.1407 137.943 66.0231 148.796 65.3413 151.296Z" fill="black"/>
<path d="M85.5117 181.693C85.0572 181.92 83.618 181.598 82.9549 181.409L78.9776 180.557C75.7958 179.193 71.5913 180.557 69.8867 181.409H65.6254L63.6367 180.557L65.6254 151.295C66.7617 152.205 75.1896 151.674 79.2617 151.295C80.6254 152.659 80.9663 165.879 80.9663 172.318C82.6708 175.348 85.9663 181.466 85.5117 181.693Z" fill="black"/>
<path d="M94.0336 198.186L90.6245 245.061H58.8063L54.5449 198.186H66.1926H69.3176H84.0904H85.7949H94.0336Z" fill="#C192EE"/>
<path d="M85.2266 175.443C85.7947 173.549 88.2947 169.705 93.7493 169.477C92.7078 171.655 89.5447 175.898 85.2266 175.443Z" fill="#C192EE"/>
<path d="M68.75 198.17C70.9278 192.678 77.4432 180.33 86.0795 174.875" stroke="#C192EE"/>
</g>
<g clip-path="url(#clip1_2334_5295)">
<path d="M206.219 39.7059L255.001 0H220.967L195.631 25.3361L197.303 27.605L206.219 39.7059Z" fill="#C192EE"/>
<path d="M167.532 57.1008C175.095 75.5546 167.91 84.454 163.372 86.5966L165.263 89.6218C172.826 84.4789 173.708 72.605 173.204 67.3109C171.086 47.9495 157.952 41.0924 151.649 40.084C143.784 40.3865 139.044 48.2772 137.658 52.1848C135.237 59.1428 136.891 58.9915 138.152 58.6134C147.227 28.5086 161.608 45.4394 167.532 57.1008Z" fill="black"/>
<path d="M167.909 96.8066L136.901 111.204C135.892 107.16 131.682 98.1679 122.909 94.5377L99.8417 78.2772L78.2871 80.1679L93.4131 65.7981L102.489 74.4956L125.556 86.9747C125.808 85.8402 125.102 81.4536 120.262 72.983C117.867 71.8485 114.06 69.2015 117.993 67.6889L148.623 53.6973C150.262 53.8233 152.859 54.9073 150.136 58.2351L161.859 85.0839L163.749 88.1091L167.909 96.8066Z" fill="#C192EE"/>
<path d="M138.978 114.768L169.608 100.777C172.936 95.9363 169.734 95.7343 167.717 96.2388L136.709 110.636L135.953 110.987C135.045 114.012 137.591 114.768 138.978 114.768Z" fill="black"/>
<path d="M117.044 68.6338L147.675 54.6422C151.002 49.8019 147.801 49.6003 145.784 50.1044L114.775 64.5012L114.019 64.8523C113.112 67.8775 115.658 68.6338 117.044 68.6338Z" fill="black"/>
<path d="M91.3449 63.2012L76.5187 77.335C75.4734 81.2571 77.3065 80.9766 78.3537 80.3451L93.3234 65.8697L93.6885 65.5167C93.6833 63.2214 92.1239 63.0166 91.3449 63.2012Z" fill="black"/>
<path d="M196.925 26.2046L205.841 38.3055C197.522 38.3055 174.455 64.7761 172.186 63.6416C170.371 62.7341 172.942 56.961 174.455 54.1878C180.808 44.8097 172.816 44.2298 168.026 45.1122L159.707 52.2971C163.236 56.0786 170.068 63.6416 169.16 63.6416C168.253 63.6416 163.236 62.3811 160.841 61.7509L155.169 51.1626C157.06 51.9189 162.354 43.5996 161.976 41.7088C161.673 40.1962 145.967 41.0786 138.152 41.7088C136.942 38.6836 150.505 36.1627 157.438 35.2803C148.967 34.3727 142.06 32.6332 139.665 31.8769C139.06 26.7341 158.32 30.4904 168.026 33.0114C154.413 26.3559 150.253 23.4315 149.875 22.8013C155.925 21.8937 166.009 26.7089 170.295 29.2299C183.001 31.65 193.342 28.2215 196.925 26.2046Z" fill="#FAD3E7"/>
</g>
<defs>
<clipPath id="clip0_2334_5295">
<rect width="100" height="142.614" fill="white" transform="translate(0 103)"/>
</clipPath>
<clipPath id="clip1_2334_5295">
<rect width="180" height="114.958" fill="white" transform="translate(75)"/>
</clipPath>
</defs>
</svg>
