<svg width="208" height="60" viewBox="0 0 208 60" fill="none" xmlns="http://www.w3.org/2000/svg">
<path d="M12.4248 4.872C12.4248 6.04 12.0568 6.968 11.3208 7.656C10.5848 8.328 9.60075 8.76 8.36875 8.952V9.048C9.80875 9.24 10.9048 9.688 11.6568 10.392C12.4088 11.096 12.7848 12.016 12.7848 13.152C12.7848 14.16 12.5288 15.048 12.0168 15.816C11.5048 16.568 10.7368 17.16 9.71275 17.592C8.68875 18.024 7.40875 18.24 5.87275 18.24C4.94475 18.24 4.05675 18.168 3.20875 18.024C2.37675 17.896 1.60075 17.656 0.88075 17.304V15.336C1.37675 15.576 1.90475 15.784 2.46475 15.96C3.04075 16.12 3.61675 16.248 4.19275 16.344C4.76875 16.424 5.32075 16.464 5.84875 16.464C7.38475 16.464 8.54475 16.176 9.32875 15.6C10.1288 15.024 10.5288 14.208 10.5288 13.152C10.5288 12.064 10.0648 11.272 9.13675 10.776C8.20875 10.28 6.91275 10.032 5.24875 10.032H2.80075V8.232H5.12875C6.26475 8.232 7.20075 8.104 7.93675 7.848C8.68875 7.592 9.24875 7.232 9.61675 6.768C10.0008 6.288 10.1928 5.728 10.1928 5.088C10.1928 4.224 9.87275 3.56 9.23275 3.096C8.59275 2.632 7.76075 2.4 6.73675 2.4C5.66475 2.4 4.76875 2.536 4.04875 2.808C3.34475 3.08 2.65675 3.432 1.98475 3.864L0.95275 2.4C1.40075 2.064 1.91275 1.768 2.48875 1.512C3.08075 1.24 3.73675 1.024 4.45675 0.863999C5.17675 0.703999 5.94475 0.623999 6.76075 0.623999C7.99275 0.623999 9.02475 0.807999 9.85675 1.176C10.7048 1.544 11.3448 2.048 11.7768 2.688C12.2088 3.312 12.4248 4.04 12.4248 4.872ZM20.9901 4.92C22.5581 4.92 23.7181 5.264 24.4701 5.952C25.2221 6.64 25.5981 7.736 25.5981 9.24V18H24.0621L23.6541 16.176H23.5581C23.1901 16.64 22.8061 17.032 22.4061 17.352C22.0221 17.656 21.5741 17.88 21.0621 18.024C20.5661 18.168 19.9581 18.24 19.2381 18.24C18.4701 18.24 17.7741 18.104 17.1501 17.832C16.5421 17.56 16.0621 17.144 15.7101 16.584C15.3581 16.008 15.1821 15.288 15.1821 14.424C15.1821 13.144 15.6861 12.16 16.6941 11.472C17.7021 10.768 19.2541 10.384 21.3501 10.32L23.5341 10.248V9.48C23.5341 8.408 23.3021 7.664 22.8381 7.248C22.3741 6.832 21.7181 6.624 20.8701 6.624C20.1981 6.624 19.5581 6.728 18.9501 6.936C18.3421 7.128 17.7741 7.352 17.2461 7.608L16.5981 6.024C17.1581 5.72 17.8221 5.464 18.5901 5.256C19.3581 5.032 20.1581 4.92 20.9901 4.92ZM21.6141 11.784C20.0141 11.848 18.9021 12.104 18.2781 12.552C17.6701 13 17.3661 13.632 17.3661 14.448C17.3661 15.168 17.5821 15.696 18.0141 16.032C18.4621 16.368 19.0301 16.536 19.7181 16.536C20.8061 16.536 21.7101 16.24 22.4301 15.648C23.1501 15.04 23.5101 14.112 23.5101 12.864V11.712L21.6141 11.784ZM46.9953 5.136V16.248H48.8673V22.44H46.7553V18H29.5713V5.136H31.6833V16.224H37.2273V5.136H39.3393V16.224H44.9073V5.136H46.9953ZM53.3133 12.984C53.3133 13.128 53.3053 13.336 53.2893 13.608C53.2893 13.864 53.2813 14.144 53.2653 14.448C53.2493 14.736 53.2333 15.016 53.2173 15.288C53.2013 15.544 53.1853 15.752 53.1693 15.912L60.0573 5.136H62.6493V18H60.6813V10.416C60.6813 10.16 60.6813 9.824 60.6813 9.408C60.6973 8.992 60.7133 8.584 60.7293 8.184C60.7453 7.768 60.7613 7.456 60.7773 7.248L53.9373 18H51.3213V5.136H53.3133V12.984ZM84.1671 5.136V16.248H86.0391V22.44H83.9271V18H66.7431V5.136H68.8551V16.224H74.3991V5.136H76.5111V16.224H82.0791V5.136H84.1671ZM93.3651 4.92C94.9331 4.92 96.0931 5.264 96.8451 5.952C97.5971 6.64 97.9731 7.736 97.9731 9.24V18H96.4371L96.0291 16.176H95.9331C95.5651 16.64 95.1811 17.032 94.7811 17.352C94.3971 17.656 93.9491 17.88 93.4371 18.024C92.9411 18.168 92.3331 18.24 91.6131 18.24C90.8451 18.24 90.1491 18.104 89.5251 17.832C88.9171 17.56 88.4371 17.144 88.0851 16.584C87.7331 16.008 87.5571 15.288 87.5571 14.424C87.5571 13.144 88.0611 12.16 89.0691 11.472C90.0771 10.768 91.6291 10.384 93.7251 10.32L95.9091 10.248V9.48C95.9091 8.408 95.6771 7.664 95.2131 7.248C94.7491 6.832 94.0931 6.624 93.2451 6.624C92.5731 6.624 91.9331 6.728 91.3251 6.936C90.7171 7.128 90.1491 7.352 89.6211 7.608L88.9731 6.024C89.5331 5.72 90.1971 5.464 90.9651 5.256C91.7331 5.032 92.5331 4.92 93.3651 4.92ZM93.9891 11.784C92.3891 11.848 91.2771 12.104 90.6531 12.552C90.0451 13 89.7411 13.632 89.7411 14.448C89.7411 15.168 89.9571 15.696 90.3891 16.032C90.8371 16.368 91.4051 16.536 92.0931 16.536C93.1811 16.536 94.0851 16.24 94.8051 15.648C95.5251 15.04 95.8851 14.112 95.8851 12.864V11.712L93.9891 11.784ZM106.914 4.896C108.018 4.896 108.962 5.136 109.746 5.616C110.546 6.096 111.154 6.776 111.57 7.656C112.002 8.52 112.218 9.536 112.218 10.704V11.976H103.41C103.442 13.432 103.81 14.544 104.514 15.312C105.234 16.064 106.234 16.44 107.514 16.44C108.33 16.44 109.05 16.368 109.674 16.224C110.314 16.064 110.97 15.84 111.642 15.552V17.4C110.986 17.688 110.338 17.896 109.698 18.024C109.058 18.168 108.298 18.24 107.418 18.24C106.202 18.24 105.122 17.992 104.178 17.496C103.25 17 102.522 16.264 101.994 15.288C101.482 14.296 101.226 13.088 101.226 11.664C101.226 10.256 101.458 9.048 101.922 8.04C102.402 7.032 103.066 6.256 103.914 5.712C104.778 5.168 105.778 4.896 106.914 4.896ZM106.89 6.624C105.882 6.624 105.082 6.952 104.49 7.608C103.914 8.248 103.57 9.144 103.458 10.296H110.01C110.01 9.56 109.898 8.92 109.674 8.376C109.45 7.832 109.106 7.408 108.642 7.104C108.194 6.784 107.61 6.624 106.89 6.624ZM129.293 5.136V18H127.397V9.792C127.397 9.456 127.405 9.104 127.421 8.736C127.453 8.368 127.485 8.008 127.517 7.656H127.445L123.245 18H121.469L117.389 7.656H117.317C117.349 8.008 117.365 8.368 117.365 8.736C117.381 9.104 117.389 9.48 117.389 9.864V18H115.493V5.136H118.301L122.357 15.48L126.485 5.136H129.293ZM151.467 5.136V18H149.355V6.936H142.707V18H140.595V5.136H151.467ZM161.691 4.896C163.275 4.896 164.547 5.448 165.507 6.552C166.483 7.656 166.971 9.32 166.971 11.544C166.971 13 166.747 14.232 166.299 15.24C165.867 16.232 165.251 16.984 164.451 17.496C163.667 17.992 162.739 18.24 161.667 18.24C161.011 18.24 160.427 18.152 159.915 17.976C159.403 17.8 158.963 17.576 158.595 17.304C158.243 17.016 157.939 16.704 157.683 16.368H157.539C157.571 16.64 157.603 16.984 157.635 17.4C157.667 17.816 157.683 18.176 157.683 18.48V23.76H155.571V5.136H157.299L157.587 6.888H157.683C157.939 6.52 158.243 6.184 158.595 5.88C158.963 5.576 159.395 5.336 159.891 5.16C160.403 4.984 161.003 4.896 161.691 4.896ZM161.307 6.672C160.443 6.672 159.747 6.84 159.219 7.176C158.691 7.496 158.307 7.984 158.067 8.64C157.827 9.296 157.699 10.128 157.683 11.136V11.544C157.683 12.6 157.795 13.496 158.019 14.232C158.243 14.968 158.619 15.528 159.147 15.912C159.691 16.296 160.427 16.488 161.355 16.488C162.139 16.488 162.779 16.272 163.275 15.84C163.787 15.408 164.163 14.824 164.403 14.088C164.659 13.336 164.787 12.48 164.787 11.52C164.787 10.048 164.499 8.872 163.923 7.992C163.363 7.112 162.491 6.672 161.307 6.672ZM175.209 4.92C176.777 4.92 177.937 5.264 178.689 5.952C179.441 6.64 179.817 7.736 179.817 9.24V18H178.281L177.873 16.176H177.777C177.409 16.64 177.025 17.032 176.625 17.352C176.241 17.656 175.793 17.88 175.281 18.024C174.785 18.168 174.177 18.24 173.457 18.24C172.689 18.24 171.993 18.104 171.369 17.832C170.761 17.56 170.281 17.144 169.929 16.584C169.577 16.008 169.401 15.288 169.401 14.424C169.401 13.144 169.905 12.16 170.913 11.472C171.921 10.768 173.473 10.384 175.569 10.32L177.753 10.248V9.48C177.753 8.408 177.521 7.664 177.057 7.248C176.593 6.832 175.937 6.624 175.089 6.624C174.417 6.624 173.777 6.728 173.169 6.936C172.561 7.128 171.993 7.352 171.465 7.608L170.817 6.024C171.377 5.72 172.041 5.464 172.809 5.256C173.577 5.032 174.377 4.92 175.209 4.92ZM175.833 11.784C174.233 11.848 173.121 12.104 172.497 12.552C171.889 13 171.585 13.632 171.585 14.448C171.585 15.168 171.801 15.696 172.233 16.032C172.681 16.368 173.249 16.536 173.937 16.536C175.025 16.536 175.929 16.24 176.649 15.648C177.369 15.04 177.729 14.112 177.729 12.864V11.712L175.833 11.784ZM194.134 8.376C194.134 9.176 193.894 9.8 193.414 10.248C192.934 10.696 192.318 11 191.566 11.16V11.256C192.366 11.368 193.062 11.656 193.654 12.12C194.246 12.568 194.542 13.272 194.542 14.232C194.542 14.776 194.438 15.28 194.23 15.744C194.038 16.208 193.734 16.608 193.318 16.944C192.902 17.28 192.366 17.544 191.71 17.736C191.054 17.912 190.262 18 189.334 18H183.79V5.136H189.31C190.222 5.136 191.038 5.24 191.758 5.448C192.494 5.64 193.07 5.976 193.486 6.456C193.918 6.92 194.134 7.56 194.134 8.376ZM192.358 14.232C192.358 13.496 192.078 12.968 191.518 12.648C190.958 12.328 190.134 12.168 189.046 12.168H185.902V16.296H189.094C190.15 16.296 190.958 16.144 191.518 15.84C192.078 15.52 192.358 14.984 192.358 14.232ZM191.998 8.64C191.998 8.032 191.774 7.592 191.326 7.32C190.894 7.032 190.182 6.888 189.19 6.888H185.902V10.416H188.806C189.846 10.416 190.638 10.272 191.182 9.984C191.726 9.696 191.998 9.248 191.998 8.64ZM202.49 4.92C204.058 4.92 205.218 5.264 205.97 5.952C206.722 6.64 207.098 7.736 207.098 9.24V18H205.562L205.154 16.176H205.058C204.69 16.64 204.306 17.032 203.906 17.352C203.522 17.656 203.074 17.88 202.562 18.024C202.066 18.168 201.458 18.24 200.738 18.24C199.97 18.24 199.274 18.104 198.65 17.832C198.042 17.56 197.562 17.144 197.21 16.584C196.858 16.008 196.682 15.288 196.682 14.424C196.682 13.144 197.186 12.16 198.194 11.472C199.202 10.768 200.754 10.384 202.85 10.32L205.034 10.248V9.48C205.034 8.408 204.802 7.664 204.338 7.248C203.874 6.832 203.218 6.624 202.37 6.624C201.698 6.624 201.058 6.728 200.45 6.936C199.842 7.128 199.274 7.352 198.746 7.608L198.098 6.024C198.658 5.72 199.322 5.464 200.09 5.256C200.858 5.032 201.658 4.92 202.49 4.92ZM203.114 11.784C201.514 11.848 200.402 12.104 199.778 12.552C199.17 13 198.866 13.632 198.866 14.448C198.866 15.168 199.082 15.696 199.514 16.032C199.962 16.368 200.53 16.536 201.218 16.536C202.306 16.536 203.21 16.24 203.93 15.648C204.65 15.04 205.01 14.112 205.01 12.864V11.712L203.114 11.784ZM65.4084 41.136V52.224H67.2804V58.464H65.2404V54H56.2884V58.464H54.2724V52.224H55.3044C56.0404 51.2 56.6484 50.088 57.1284 48.888C57.6244 47.672 57.9924 46.408 58.2324 45.096C58.4884 43.768 58.6244 42.448 58.6404 41.136H65.4084ZM60.5124 42.792C60.4484 43.88 60.2804 45.008 60.0084 46.176C59.7364 47.328 59.3844 48.432 58.9524 49.488C58.5364 50.544 58.0484 51.456 57.4884 52.224H63.3684V42.792H60.5124ZM74.7697 40.896C75.8737 40.896 76.8177 41.136 77.6017 41.616C78.4017 42.096 79.0097 42.776 79.4257 43.656C79.8577 44.52 80.0737 45.536 80.0737 46.704V47.976H71.2657C71.2977 49.432 71.6657 50.544 72.3697 51.312C73.0897 52.064 74.0897 52.44 75.3697 52.44C76.1857 52.44 76.9057 52.368 77.5297 52.224C78.1697 52.064 78.8257 51.84 79.4977 51.552V53.4C78.8417 53.688 78.1937 53.896 77.5537 54.024C76.9137 54.168 76.1537 54.24 75.2737 54.24C74.0577 54.24 72.9777 53.992 72.0337 53.496C71.1057 53 70.3777 52.264 69.8497 51.288C69.3377 50.296 69.0817 49.088 69.0817 47.664C69.0817 46.256 69.3137 45.048 69.7777 44.04C70.2577 43.032 70.9217 42.256 71.7697 41.712C72.6337 41.168 73.6337 40.896 74.7697 40.896ZM74.7457 42.624C73.7377 42.624 72.9377 42.952 72.3457 43.608C71.7697 44.248 71.4257 45.144 71.3137 46.296H77.8657C77.8657 45.56 77.7537 44.92 77.5297 44.376C77.3057 43.832 76.9617 43.408 76.4977 43.104C76.0497 42.784 75.4657 42.624 74.7457 42.624ZM93.6926 44.376C93.6926 45.176 93.4526 45.8 92.9726 46.248C92.4926 46.696 91.8766 47 91.1246 47.16V47.256C91.9246 47.368 92.6206 47.656 93.2126 48.12C93.8046 48.568 94.1006 49.272 94.1006 50.232C94.1006 50.776 93.9966 51.28 93.7886 51.744C93.5966 52.208 93.2926 52.608 92.8766 52.944C92.4606 53.28 91.9246 53.544 91.2686 53.736C90.6126 53.912 89.8206 54 88.8926 54H83.3486V41.136H88.8686C89.7806 41.136 90.5966 41.24 91.3166 41.448C92.0526 41.64 92.6286 41.976 93.0446 42.456C93.4766 42.92 93.6926 43.56 93.6926 44.376ZM91.9166 50.232C91.9166 49.496 91.6366 48.968 91.0766 48.648C90.5166 48.328 89.6926 48.168 88.6046 48.168H85.4606V52.296H88.6526C89.7086 52.296 90.5166 52.144 91.0766 51.84C91.6366 51.52 91.9166 50.984 91.9166 50.232ZM91.5566 44.64C91.5566 44.032 91.3326 43.592 90.8846 43.32C90.4526 43.032 89.7406 42.888 88.7486 42.888H85.4606V46.416H88.3646C89.4046 46.416 90.1966 46.272 90.7406 45.984C91.2846 45.696 91.5566 45.248 91.5566 44.64ZM95.1607 41.136H97.4167L100.201 48.456C100.361 48.888 100.505 49.304 100.633 49.704C100.777 50.104 100.905 50.496 101.017 50.88C101.129 51.248 101.217 51.608 101.281 51.96H101.377C101.473 51.56 101.625 51.04 101.833 50.4C102.041 49.744 102.257 49.088 102.481 48.432L105.097 41.136H107.377L101.833 55.776C101.529 56.576 101.169 57.272 100.753 57.864C100.353 58.472 99.8567 58.936 99.2647 59.256C98.6887 59.592 97.9847 59.76 97.1527 59.76C96.7687 59.76 96.4327 59.736 96.1447 59.688C95.8567 59.656 95.6087 59.616 95.4007 59.568V57.888C95.5767 57.92 95.7847 57.952 96.0247 57.984C96.2807 58.016 96.5447 58.032 96.8167 58.032C97.3127 58.032 97.7367 57.936 98.0887 57.744C98.4567 57.568 98.7687 57.304 99.0247 56.952C99.2807 56.616 99.4967 56.216 99.6727 55.752L100.345 54.048L95.1607 41.136ZM126.859 41.136V54H109.411V41.136H111.523V52.224H117.067V41.136H119.179V52.224H124.747V41.136H126.859ZM135.942 40.896C137.046 40.896 137.99 41.136 138.774 41.616C139.574 42.096 140.182 42.776 140.598 43.656C141.03 44.52 141.246 45.536 141.246 46.704V47.976H132.438C132.47 49.432 132.838 50.544 133.542 51.312C134.262 52.064 135.262 52.44 136.542 52.44C137.358 52.44 138.078 52.368 138.702 52.224C139.342 52.064 139.998 51.84 140.67 51.552V53.4C140.014 53.688 139.366 53.896 138.726 54.024C138.086 54.168 137.326 54.24 136.446 54.24C135.23 54.24 134.15 53.992 133.206 53.496C132.278 53 131.55 52.264 131.022 51.288C130.51 50.296 130.254 49.088 130.254 47.664C130.254 46.256 130.486 45.048 130.95 44.04C131.43 43.032 132.094 42.256 132.942 41.712C133.806 41.168 134.806 40.896 135.942 40.896ZM135.918 42.624C134.91 42.624 134.11 42.952 133.518 43.608C132.942 44.248 132.598 45.144 132.486 46.296H139.038C139.038 45.56 138.926 44.92 138.702 44.376C138.478 43.832 138.134 43.408 137.67 43.104C137.222 42.784 136.638 42.624 135.918 42.624ZM152.128 41.136H154.432L148.936 47.328L154.888 54H152.44L146.632 47.472V54H144.52V41.136H146.632V47.376L152.128 41.136Z" fill="#461D8D"/>
</svg>
