<svg width="313" height="340" viewBox="0 0 313 340" fill="none" xmlns="http://www.w3.org/2000/svg">
<g filter="url(#filter0_d_1383_2448)">
<rect x="4" width="305" height="332" rx="15" fill="white"/>
</g>
<g filter="url(#filter1_d_1383_2448)">
<path d="M124.28 183.408C124.28 184.736 124.112 185.944 123.776 187.032C123.44 188.104 122.936 189.032 122.264 189.816C121.608 190.6 120.784 191.2 119.792 191.616C118.816 192.032 117.68 192.24 116.384 192.24C115.04 192.24 113.872 192.032 112.88 191.616C111.888 191.184 111.064 190.584 110.408 189.816C109.752 189.032 109.264 188.096 108.944 187.008C108.624 185.92 108.464 184.712 108.464 183.384C108.464 181.624 108.752 180.088 109.328 178.776C109.904 177.464 110.776 176.44 111.944 175.704C113.128 174.968 114.616 174.6 116.408 174.6C118.12 174.6 119.56 174.968 120.728 175.704C121.896 176.424 122.776 177.448 123.368 178.776C123.976 180.088 124.28 181.632 124.28 183.408ZM110.744 183.408C110.744 184.848 110.944 186.088 111.344 187.128C111.744 188.168 112.36 188.968 113.192 189.528C114.04 190.088 115.104 190.368 116.384 190.368C117.68 190.368 118.736 190.088 119.552 189.528C120.384 188.968 121 188.168 121.4 187.128C121.8 186.088 122 184.848 122 183.408C122 181.248 121.552 179.56 120.656 178.344C119.76 177.112 118.344 176.496 116.408 176.496C115.112 176.496 114.04 176.776 113.192 177.336C112.36 177.88 111.744 178.672 111.344 179.712C110.944 180.736 110.744 181.968 110.744 183.408ZM144.998 179.136V192H127.55V179.136H129.662V190.224H135.206V179.136H137.318V190.224H142.886V179.136H144.998ZM150.865 186.984C150.865 187.128 150.857 187.336 150.841 187.608C150.841 187.864 150.833 188.144 150.817 188.448C150.801 188.736 150.785 189.016 150.769 189.288C150.753 189.544 150.737 189.752 150.721 189.912L157.609 179.136H160.201V192H158.233V184.416C158.233 184.16 158.233 183.824 158.233 183.408C158.249 182.992 158.265 182.584 158.281 182.184C158.297 181.768 158.313 181.456 158.329 181.248L151.489 192H148.873V179.136H150.865V186.984ZM163.382 184.272C163.382 182.4 163.566 180.808 163.934 179.496C164.318 178.168 164.902 177.112 165.686 176.328C166.486 175.528 167.51 174.992 168.758 174.72C169.798 174.496 170.814 174.296 171.806 174.12C172.798 173.944 173.726 173.784 174.59 173.64L174.95 175.488C174.534 175.552 174.07 175.632 173.558 175.728C173.046 175.808 172.526 175.896 171.998 175.992C171.47 176.072 170.958 176.16 170.462 176.256C169.982 176.336 169.558 176.416 169.19 176.496C168.662 176.608 168.19 176.8 167.774 177.072C167.358 177.328 166.998 177.68 166.694 178.128C166.406 178.576 166.174 179.128 165.998 179.784C165.822 180.44 165.718 181.216 165.686 182.112H165.83C166.054 181.808 166.358 181.496 166.742 181.176C167.142 180.856 167.614 180.584 168.158 180.36C168.718 180.136 169.35 180.024 170.054 180.024C171.174 180.024 172.102 180.272 172.838 180.768C173.59 181.248 174.15 181.92 174.518 182.784C174.902 183.648 175.094 184.656 175.094 185.808C175.094 187.232 174.846 188.424 174.35 189.384C173.854 190.344 173.166 191.064 172.286 191.544C171.406 192.008 170.382 192.24 169.214 192.24C168.334 192.24 167.534 192.072 166.814 191.736C166.094 191.384 165.478 190.872 164.966 190.2C164.454 189.528 164.062 188.696 163.79 187.704C163.518 186.712 163.382 185.568 163.382 184.272ZM169.382 190.488C170.086 190.488 170.694 190.344 171.206 190.056C171.734 189.768 172.142 189.296 172.43 188.64C172.718 187.984 172.862 187.112 172.862 186.024C172.862 184.712 172.614 183.68 172.118 182.928C171.638 182.16 170.838 181.776 169.718 181.776C169.014 181.776 168.374 181.936 167.798 182.256C167.222 182.56 166.742 182.912 166.358 183.312C165.974 183.712 165.702 184.048 165.542 184.32C165.542 185.104 165.598 185.864 165.71 186.6C165.822 187.336 166.014 188 166.286 188.592C166.574 189.168 166.966 189.632 167.462 189.984C167.974 190.32 168.614 190.488 169.382 190.488ZM185.79 179.136H188.094L182.598 185.328L188.55 192H186.102L180.294 185.472V192H178.182V179.136H180.294V185.376L185.79 179.136ZM195.517 178.92C197.085 178.92 198.245 179.264 198.997 179.952C199.749 180.64 200.125 181.736 200.125 183.24V192H198.589L198.181 190.176H198.085C197.717 190.64 197.333 191.032 196.933 191.352C196.549 191.656 196.101 191.88 195.589 192.024C195.093 192.168 194.485 192.24 193.765 192.24C192.997 192.24 192.301 192.104 191.677 191.832C191.069 191.56 190.589 191.144 190.237 190.584C189.885 190.008 189.709 189.288 189.709 188.424C189.709 187.144 190.213 186.16 191.221 185.472C192.229 184.768 193.781 184.384 195.877 184.32L198.061 184.248V183.48C198.061 182.408 197.829 181.664 197.365 181.248C196.901 180.832 196.245 180.624 195.397 180.624C194.725 180.624 194.085 180.728 193.477 180.936C192.869 181.128 192.301 181.352 191.773 181.608L191.125 180.024C191.685 179.72 192.349 179.464 193.117 179.256C193.885 179.032 194.685 178.92 195.517 178.92ZM196.141 185.784C194.541 185.848 193.429 186.104 192.805 186.552C192.197 187 191.893 187.632 191.893 188.448C191.893 189.168 192.109 189.696 192.541 190.032C192.989 190.368 193.557 190.536 194.245 190.536C195.333 190.536 196.237 190.24 196.957 189.648C197.677 189.04 198.037 188.112 198.037 186.864V185.712L196.141 185.784Z" fill="#E41717"/>
</g>
<path d="M40.8674 228.004C41.6981 228.004 42.3934 228.083 42.9534 228.242C43.5228 228.401 43.9474 228.662 44.2274 229.026C44.5168 229.39 44.6614 229.875 44.6614 230.482C44.6614 230.874 44.5868 231.224 44.4374 231.532C44.2974 231.831 44.0828 232.083 43.7934 232.288C43.5134 232.484 43.1681 232.619 42.7574 232.694V232.764C43.1774 232.829 43.5554 232.951 43.8914 233.128C44.2368 233.305 44.5074 233.557 44.7034 233.884C44.8994 234.211 44.9974 234.635 44.9974 235.158C44.9974 235.765 44.8574 236.283 44.5774 236.712C44.2974 237.132 43.8961 237.454 43.3734 237.678C42.8601 237.893 42.2441 238 41.5254 238H38.0114V228.004H40.8674ZM41.1194 232.26C41.9781 232.26 42.5661 232.125 42.8834 231.854C43.2008 231.574 43.3594 231.163 43.3594 230.622C43.3594 230.071 43.1634 229.679 42.7714 229.446C42.3888 229.203 41.7728 229.082 40.9234 229.082H39.2714V232.26H41.1194ZM39.2714 233.31V236.936H41.2874C42.1741 236.936 42.7901 236.763 43.1354 236.418C43.4808 236.073 43.6534 235.62 43.6534 235.06C43.6534 234.705 43.5741 234.397 43.4154 234.136C43.2661 233.875 43.0094 233.674 42.6454 233.534C42.2908 233.385 41.8054 233.31 41.1894 233.31H39.2714ZM46.7389 238V230.496H47.9709V233.576H49.9169C50.5702 233.576 51.1069 233.655 51.5269 233.814C51.9469 233.973 52.2596 234.211 52.4649 234.528C52.6702 234.836 52.7729 235.228 52.7729 235.704C52.7729 236.171 52.6702 236.577 52.4649 236.922C52.2689 237.267 51.9562 237.533 51.5269 237.72C51.1069 237.907 50.5516 238 49.8609 238H46.7389ZM49.7489 237.006C50.2809 237.006 50.7149 236.917 51.0509 236.74C51.3869 236.553 51.5549 236.231 51.5549 235.774C51.5549 235.317 51.4009 235.009 51.0929 234.85C50.7849 234.682 50.3416 234.598 49.7629 234.598H47.9709V237.006H49.7489ZM54.0189 238V230.496H55.2509V238H54.0189ZM62.6447 230.496V233.618H66.7187V230.496H67.9507V238H66.7187V234.654H62.6447V238H61.4127V230.496H62.6447ZM73.0147 230.356C73.6587 230.356 74.2094 230.496 74.6667 230.776C75.1334 231.056 75.488 231.453 75.7307 231.966C75.9827 232.47 76.1087 233.063 76.1087 233.744V234.486H70.9707C70.9894 235.335 71.204 235.984 71.6147 236.432C72.0347 236.871 72.618 237.09 73.3647 237.09C73.8407 237.09 74.2607 237.048 74.6247 236.964C74.998 236.871 75.3807 236.74 75.7727 236.572V237.65C75.39 237.818 75.012 237.939 74.6387 238.014C74.2654 238.098 73.822 238.14 73.3087 238.14C72.5994 238.14 71.9694 237.995 71.4187 237.706C70.8774 237.417 70.4527 236.987 70.1447 236.418C69.846 235.839 69.6967 235.135 69.6967 234.304C69.6967 233.483 69.832 232.778 70.1027 232.19C70.3827 231.602 70.77 231.149 71.2647 230.832C71.7687 230.515 72.352 230.356 73.0147 230.356ZM73.0007 231.364C72.4127 231.364 71.946 231.555 71.6007 231.938C71.2647 232.311 71.064 232.834 70.9987 233.506H74.8207C74.8207 233.077 74.7554 232.703 74.6247 232.386C74.494 232.069 74.2934 231.821 74.0227 231.644C73.7614 231.457 73.4207 231.364 73.0007 231.364ZM88.1383 230.496V238H86.9063V231.546H83.0283V238H81.7963V230.496H88.1383ZM93.8927 230.356C94.8167 230.356 95.5587 230.678 96.1187 231.322C96.688 231.966 96.9727 232.937 96.9727 234.234C96.9727 235.083 96.842 235.802 96.5807 236.39C96.3287 236.969 95.9693 237.407 95.5027 237.706C95.0453 237.995 94.504 238.14 93.8787 238.14C93.496 238.14 93.1553 238.089 92.8567 237.986C92.558 237.883 92.3013 237.753 92.0867 237.594C91.8813 237.426 91.704 237.244 91.5547 237.048H91.4707C91.4893 237.207 91.508 237.407 91.5267 237.65C91.5453 237.893 91.5547 238.103 91.5547 238.28V241.36H90.3227V230.496H91.3307L91.4987 231.518H91.5547C91.704 231.303 91.8813 231.107 92.0867 230.93C92.3013 230.753 92.5533 230.613 92.8427 230.51C93.1413 230.407 93.4913 230.356 93.8927 230.356ZM93.6687 231.392C93.1647 231.392 92.7587 231.49 92.4507 231.686C92.1427 231.873 91.9187 232.157 91.7787 232.54C91.6387 232.923 91.564 233.408 91.5547 233.996V234.234C91.5547 234.85 91.62 235.373 91.7507 235.802C91.8813 236.231 92.1007 236.558 92.4087 236.782C92.726 237.006 93.1553 237.118 93.6967 237.118C94.154 237.118 94.5273 236.992 94.8167 236.74C95.1153 236.488 95.3347 236.147 95.4747 235.718C95.624 235.279 95.6987 234.78 95.6987 234.22C95.6987 233.361 95.5307 232.675 95.1947 232.162C94.868 231.649 94.3593 231.392 93.6687 231.392ZM101.568 230.37C102.483 230.37 103.159 230.571 103.598 230.972C104.037 231.373 104.256 232.013 104.256 232.89V238H103.36L103.122 236.936H103.066C102.851 237.207 102.627 237.435 102.394 237.622C102.17 237.799 101.909 237.93 101.61 238.014C101.321 238.098 100.966 238.14 100.546 238.14C100.098 238.14 99.6919 238.061 99.3279 237.902C98.9733 237.743 98.6933 237.501 98.4879 237.174C98.2826 236.838 98.1799 236.418 98.1799 235.914C98.1799 235.167 98.4739 234.593 99.0619 234.192C99.6499 233.781 100.555 233.557 101.778 233.52L103.052 233.478V233.03C103.052 232.405 102.917 231.971 102.646 231.728C102.375 231.485 101.993 231.364 101.498 231.364C101.106 231.364 100.733 231.425 100.378 231.546C100.023 231.658 99.6919 231.789 99.3839 231.938L99.0059 231.014C99.3326 230.837 99.7199 230.687 100.168 230.566C100.616 230.435 101.083 230.37 101.568 230.37ZM101.932 234.374C100.999 234.411 100.35 234.561 99.9859 234.822C99.6313 235.083 99.4539 235.452 99.4539 235.928C99.4539 236.348 99.5799 236.656 99.8319 236.852C100.093 237.048 100.425 237.146 100.826 237.146C101.461 237.146 101.988 236.973 102.408 236.628C102.828 236.273 103.038 235.732 103.038 235.004V234.332L101.932 234.374ZM112.398 232.386C112.398 232.853 112.258 233.217 111.978 233.478C111.698 233.739 111.338 233.917 110.9 234.01V234.066C111.366 234.131 111.772 234.299 112.118 234.57C112.463 234.831 112.636 235.242 112.636 235.802C112.636 236.119 112.575 236.413 112.454 236.684C112.342 236.955 112.164 237.188 111.922 237.384C111.679 237.58 111.366 237.734 110.984 237.846C110.601 237.949 110.139 238 109.598 238H106.364V230.496H109.584C110.116 230.496 110.592 230.557 111.012 230.678C111.441 230.79 111.777 230.986 112.02 231.266C112.272 231.537 112.398 231.91 112.398 232.386ZM111.362 235.802C111.362 235.373 111.198 235.065 110.872 234.878C110.545 234.691 110.064 234.598 109.43 234.598H107.596V237.006H109.458C110.074 237.006 110.545 236.917 110.872 236.74C111.198 236.553 111.362 236.241 111.362 235.802ZM111.152 232.54C111.152 232.185 111.021 231.929 110.76 231.77C110.508 231.602 110.092 231.518 109.514 231.518H107.596V233.576H109.29C109.896 233.576 110.358 233.492 110.676 233.324C110.993 233.156 111.152 232.895 111.152 232.54ZM115.382 235.074C115.382 235.158 115.377 235.279 115.368 235.438C115.368 235.587 115.363 235.751 115.354 235.928C115.345 236.096 115.335 236.259 115.326 236.418C115.317 236.567 115.307 236.689 115.298 236.782L119.316 230.496H120.828V238H119.68V233.576C119.68 233.427 119.68 233.231 119.68 232.988C119.689 232.745 119.699 232.507 119.708 232.274C119.717 232.031 119.727 231.849 119.736 231.728L115.746 238H114.22V230.496H115.382V235.074ZM128.718 238H127.472V231.518H125.26C125.167 232.703 125.05 233.716 124.91 234.556C124.77 235.387 124.593 236.063 124.378 236.586C124.163 237.109 123.907 237.491 123.608 237.734C123.309 237.977 122.959 238.098 122.558 238.098C122.437 238.098 122.315 238.089 122.194 238.07C122.082 238.061 121.989 238.037 121.914 238V237.076C121.97 237.095 122.031 237.109 122.096 237.118C122.161 237.127 122.227 237.132 122.292 237.132C122.497 237.132 122.684 237.048 122.852 236.88C123.02 236.712 123.169 236.455 123.3 236.11C123.44 235.765 123.566 235.331 123.678 234.808C123.79 234.276 123.888 233.651 123.972 232.932C124.056 232.213 124.131 231.401 124.196 230.496H128.718V238ZM134.348 233.576C135.001 233.576 135.543 233.655 135.972 233.814C136.401 233.973 136.723 234.211 136.938 234.528C137.162 234.836 137.274 235.228 137.274 235.704C137.274 236.171 137.167 236.577 136.952 236.922C136.747 237.267 136.425 237.533 135.986 237.72C135.547 237.907 134.983 238 134.292 238H130.89V230.496H132.122V233.576H134.348ZM136.042 235.774C136.042 235.317 135.879 235.009 135.552 234.85C135.235 234.682 134.787 234.598 134.208 234.598H132.122V237.006H134.236C134.759 237.006 135.188 236.913 135.524 236.726C135.869 236.539 136.042 236.222 136.042 235.774ZM140.224 230.496V233.618H144.298V230.496H145.53V238H144.298V234.654H140.224V238H138.992V230.496H140.224ZM154.22 234.234C154.22 234.859 154.136 235.415 153.968 235.9C153.81 236.376 153.576 236.782 153.268 237.118C152.97 237.454 152.601 237.711 152.162 237.888C151.733 238.056 151.252 238.14 150.72 238.14C150.226 238.14 149.768 238.056 149.348 237.888C148.928 237.711 148.564 237.454 148.256 237.118C147.948 236.782 147.706 236.376 147.528 235.9C147.36 235.415 147.276 234.859 147.276 234.234C147.276 233.403 147.416 232.703 147.696 232.134C147.976 231.555 148.378 231.117 148.9 230.818C149.423 230.51 150.044 230.356 150.762 230.356C151.444 230.356 152.041 230.51 152.554 230.818C153.077 231.117 153.483 231.555 153.772 232.134C154.071 232.703 154.22 233.403 154.22 234.234ZM148.55 234.234C148.55 234.822 148.625 235.335 148.774 235.774C148.933 236.203 149.176 236.535 149.502 236.768C149.829 237.001 150.244 237.118 150.748 237.118C151.252 237.118 151.668 237.001 151.994 236.768C152.321 236.535 152.559 236.203 152.708 235.774C152.867 235.335 152.946 234.822 152.946 234.234C152.946 233.637 152.867 233.128 152.708 232.708C152.55 232.288 152.307 231.966 151.98 231.742C151.663 231.509 151.248 231.392 150.734 231.392C149.969 231.392 149.414 231.644 149.068 232.148C148.723 232.652 148.55 233.347 148.55 234.234ZM165.984 232.386C165.984 232.853 165.844 233.217 165.564 233.478C165.284 233.739 164.925 233.917 164.486 234.01V234.066C164.953 234.131 165.359 234.299 165.704 234.57C166.05 234.831 166.222 235.242 166.222 235.802C166.222 236.119 166.162 236.413 166.04 236.684C165.928 236.955 165.751 237.188 165.508 237.384C165.266 237.58 164.953 237.734 164.57 237.846C164.188 237.949 163.726 238 163.184 238H159.95V230.496H163.17C163.702 230.496 164.178 230.557 164.598 230.678C165.028 230.79 165.364 230.986 165.606 231.266C165.858 231.537 165.984 231.91 165.984 232.386ZM164.948 235.802C164.948 235.373 164.785 235.065 164.458 234.878C164.132 234.691 163.651 234.598 163.016 234.598H161.182V237.006H163.044C163.66 237.006 164.132 236.917 164.458 236.74C164.785 236.553 164.948 236.241 164.948 235.802ZM164.738 232.54C164.738 232.185 164.608 231.929 164.346 231.77C164.094 231.602 163.679 231.518 163.1 231.518H161.182V233.576H162.876C163.483 233.576 163.945 233.492 164.262 233.324C164.58 233.156 164.738 232.895 164.738 232.54ZM173.841 232.386C173.841 232.853 173.701 233.217 173.421 233.478C173.141 233.739 172.781 233.917 172.343 234.01V234.066C172.809 234.131 173.215 234.299 173.561 234.57C173.906 234.831 174.079 235.242 174.079 235.802C174.079 236.119 174.018 236.413 173.897 236.684C173.785 236.955 173.607 237.188 173.365 237.384C173.122 237.58 172.809 237.734 172.427 237.846C172.044 237.949 171.582 238 171.041 238H167.807V230.496H171.027C171.559 230.496 172.035 230.557 172.455 230.678C172.884 230.79 173.22 230.986 173.463 231.266C173.715 231.537 173.841 231.91 173.841 232.386ZM172.805 235.802C172.805 235.373 172.641 235.065 172.315 234.878C171.988 234.691 171.507 234.598 170.873 234.598H169.039V237.006H170.901C171.517 237.006 171.988 236.917 172.315 236.74C172.641 236.553 172.805 236.241 172.805 235.802ZM172.595 232.54C172.595 232.185 172.464 231.929 172.203 231.77C171.951 231.602 171.535 231.518 170.957 231.518H169.039V233.576H170.733C171.339 233.576 171.801 233.492 172.119 233.324C172.436 233.156 172.595 232.895 172.595 232.54ZM178.561 230.356C179.205 230.356 179.756 230.496 180.213 230.776C180.68 231.056 181.034 231.453 181.277 231.966C181.529 232.47 181.655 233.063 181.655 233.744V234.486H176.517C176.536 235.335 176.75 235.984 177.161 236.432C177.581 236.871 178.164 237.09 178.911 237.09C179.387 237.09 179.807 237.048 180.171 236.964C180.544 236.871 180.927 236.74 181.319 236.572V237.65C180.936 237.818 180.558 237.939 180.185 238.014C179.812 238.098 179.368 238.14 178.855 238.14C178.146 238.14 177.516 237.995 176.965 237.706C176.424 237.417 175.999 236.987 175.691 236.418C175.392 235.839 175.243 235.135 175.243 234.304C175.243 233.483 175.378 232.778 175.649 232.19C175.929 231.602 176.316 231.149 176.811 230.832C177.315 230.515 177.898 230.356 178.561 230.356ZM178.547 231.364C177.959 231.364 177.492 231.555 177.147 231.938C176.811 232.311 176.61 232.834 176.545 233.506H180.367C180.367 233.077 180.302 232.703 180.171 232.386C180.04 232.069 179.84 231.821 179.569 231.644C179.308 231.457 178.967 231.364 178.547 231.364ZM189.067 238H187.821V231.518H185.609C185.516 232.703 185.399 233.716 185.259 234.556C185.119 235.387 184.942 236.063 184.727 236.586C184.513 237.109 184.256 237.491 183.957 237.734C183.659 237.977 183.309 238.098 182.907 238.098C182.786 238.098 182.665 238.089 182.543 238.07C182.431 238.061 182.338 238.037 182.263 238V237.076C182.319 237.095 182.38 237.109 182.445 237.118C182.511 237.127 182.576 237.132 182.641 237.132C182.847 237.132 183.033 237.048 183.201 236.88C183.369 236.712 183.519 236.455 183.649 236.11C183.789 235.765 183.915 235.331 184.027 234.808C184.139 234.276 184.237 233.651 184.321 232.932C184.405 232.213 184.48 231.401 184.545 230.496H189.067V238ZM192.401 235.074C192.401 235.158 192.396 235.279 192.387 235.438C192.387 235.587 192.382 235.751 192.373 235.928C192.364 236.096 192.354 236.259 192.345 236.418C192.336 236.567 192.326 236.689 192.317 236.782L196.335 230.496H197.847V238H196.699V233.576C196.699 233.427 196.699 233.231 196.699 232.988C196.708 232.745 196.718 232.507 196.727 232.274C196.736 232.031 196.746 231.849 196.755 231.728L192.765 238H191.239V230.496H192.401V235.074ZM211.993 238H209.879V229.768H207.429C207.373 230.197 207.312 230.664 207.247 231.168C207.191 231.672 207.125 232.185 207.051 232.708C206.985 233.221 206.915 233.711 206.841 234.178C206.766 234.635 206.691 235.041 206.617 235.396C206.495 235.975 206.332 236.469 206.127 236.88C205.931 237.291 205.655 237.603 205.301 237.818C204.955 238.033 204.503 238.14 203.943 238.14C203.756 238.14 203.579 238.126 203.411 238.098C203.243 238.07 203.084 238.033 202.935 237.986V236.25C203.056 236.287 203.173 236.32 203.285 236.348C203.406 236.376 203.537 236.39 203.677 236.39C203.863 236.39 204.017 236.329 204.139 236.208C204.26 236.087 204.367 235.881 204.461 235.592C204.554 235.293 204.647 234.883 204.741 234.36C204.787 234.136 204.843 233.819 204.909 233.408C204.974 232.988 205.049 232.498 205.133 231.938C205.226 231.369 205.319 230.753 205.413 230.09C205.506 229.418 205.595 228.723 205.679 228.004H211.993V238ZM221.08 234.164C221.08 234.799 220.991 235.363 220.814 235.858C220.646 236.353 220.399 236.773 220.072 237.118C219.755 237.454 219.367 237.711 218.91 237.888C218.453 238.056 217.935 238.14 217.356 238.14C216.824 238.14 216.329 238.056 215.872 237.888C215.424 237.711 215.037 237.454 214.71 237.118C214.383 236.773 214.127 236.353 213.94 235.858C213.763 235.363 213.674 234.799 213.674 234.164C213.674 233.315 213.823 232.601 214.122 232.022C214.421 231.434 214.85 230.986 215.41 230.678C215.97 230.37 216.633 230.216 217.398 230.216C218.117 230.216 218.751 230.37 219.302 230.678C219.853 230.986 220.287 231.434 220.604 232.022C220.921 232.601 221.08 233.315 221.08 234.164ZM215.802 234.164C215.802 234.668 215.853 235.093 215.956 235.438C216.068 235.774 216.241 236.031 216.474 236.208C216.707 236.376 217.011 236.46 217.384 236.46C217.757 236.46 218.056 236.376 218.28 236.208C218.513 236.031 218.681 235.774 218.784 235.438C218.896 235.093 218.952 234.668 218.952 234.164C218.952 233.66 218.896 233.24 218.784 232.904C218.681 232.568 218.513 232.316 218.28 232.148C218.047 231.98 217.743 231.896 217.37 231.896C216.819 231.896 216.418 232.087 216.166 232.47C215.923 232.843 215.802 233.408 215.802 234.164ZM227.872 230.356V231.924H224.68V238H222.594V230.356H227.872ZM231.086 233.38C231.086 233.539 231.076 233.735 231.058 233.968C231.048 234.201 231.034 234.439 231.016 234.682C231.006 234.925 230.992 235.139 230.974 235.326C230.955 235.513 230.941 235.643 230.932 235.718L234.46 230.356H236.966V238H234.95V234.948C234.95 234.696 234.959 234.421 234.978 234.122C234.996 233.814 235.015 233.529 235.034 233.268C235.062 232.997 235.08 232.792 235.09 232.652L231.576 238H229.07V230.356H231.086V233.38ZM241.022 230.356V233.296H243.934V230.356H246.02V238H243.934V234.85H241.022V238H238.936V230.356H241.022ZM253.243 235.074C253.243 235.158 253.238 235.279 253.229 235.438C253.229 235.587 253.224 235.751 253.215 235.928C253.205 236.096 253.196 236.259 253.187 236.418C253.177 236.567 253.168 236.689 253.159 236.782L257.177 230.496H258.689V238H257.541V233.576C257.541 233.427 257.541 233.231 257.541 232.988C257.55 232.745 257.559 232.507 257.569 232.274C257.578 232.031 257.587 231.849 257.597 231.728L253.607 238H252.081V230.496H253.243V235.074ZM266.579 238H265.333V231.518H263.121C263.027 232.703 262.911 233.716 262.771 234.556C262.631 235.387 262.453 236.063 262.239 236.586C262.024 237.109 261.767 237.491 261.469 237.734C261.17 237.977 260.82 238.098 260.419 238.098C260.297 238.098 260.176 238.089 260.055 238.07C259.943 238.061 259.849 238.037 259.775 238V237.076C259.831 237.095 259.891 237.109 259.957 237.118C260.022 237.127 260.087 237.132 260.153 237.132C260.358 237.132 260.545 237.048 260.713 236.88C260.881 236.712 261.03 236.455 261.161 236.11C261.301 235.765 261.427 235.331 261.539 234.808C261.651 234.276 261.749 233.651 261.833 232.932C261.917 232.213 261.991 231.401 262.057 230.496H266.579V238ZM269.912 235.074C269.912 235.158 269.908 235.279 269.898 235.438C269.898 235.587 269.894 235.751 269.884 235.928C269.875 236.096 269.866 236.259 269.856 236.418C269.847 236.567 269.838 236.689 269.828 236.782L273.846 230.496H275.358V238H274.21V233.576C274.21 233.427 274.21 233.231 274.21 232.988C274.22 232.745 274.229 232.507 274.238 232.274C274.248 232.031 274.257 231.849 274.266 231.728L270.276 238H268.75V230.496H269.912V235.074ZM59.8103 259V249.004H67.7203V259H65.6063V250.768H61.9243V259H59.8103ZM73 251.202C74.0266 251.202 74.8106 251.426 75.352 251.874C75.9026 252.313 76.178 252.989 76.178 253.904V259H74.722L74.316 257.964H74.26C74.0453 258.235 73.8213 258.459 73.588 258.636C73.364 258.813 73.1026 258.939 72.804 259.014C72.5146 259.098 72.1553 259.14 71.726 259.14C71.278 259.14 70.872 259.056 70.508 258.888C70.1533 258.711 69.8733 258.445 69.668 258.09C69.4626 257.726 69.36 257.269 69.36 256.718C69.36 255.906 69.6446 255.309 70.214 254.926C70.7833 254.534 71.6373 254.319 72.776 254.282L74.106 254.24V253.904C74.106 253.503 73.9986 253.209 73.784 253.022C73.5786 252.835 73.2893 252.742 72.916 252.742C72.5426 252.742 72.1786 252.798 71.824 252.91C71.4693 253.013 71.1146 253.143 70.76 253.302L70.074 251.888C70.4846 251.673 70.9373 251.505 71.432 251.384C71.936 251.263 72.4586 251.202 73 251.202ZM73.294 255.486C72.622 255.505 72.1553 255.626 71.894 255.85C71.6326 256.074 71.502 256.368 71.502 256.732C71.502 257.049 71.5953 257.278 71.782 257.418C71.9686 257.549 72.2113 257.614 72.51 257.614C72.958 257.614 73.336 257.483 73.644 257.222C73.952 256.951 74.106 256.573 74.106 256.088V255.458L73.294 255.486ZM82.3592 251.216C83.2178 251.216 83.9132 251.552 84.4452 252.224C84.9772 252.887 85.2432 253.867 85.2432 255.164C85.2432 256.032 85.1172 256.765 84.8652 257.362C84.6132 257.95 84.2678 258.393 83.8292 258.692C83.3905 258.991 82.8818 259.14 82.3032 259.14C81.9392 259.14 81.6218 259.093 81.3512 259C81.0898 258.907 80.8658 258.785 80.6792 258.636C80.4925 258.487 80.3292 258.328 80.1892 258.16H80.0772C80.1145 258.337 80.1425 258.524 80.1612 258.72C80.1798 258.907 80.1892 259.093 80.1892 259.28V262.36H78.1032V251.356H79.7972L80.0912 252.35H80.1892C80.3292 252.145 80.4972 251.958 80.6932 251.79C80.8892 251.613 81.1225 251.473 81.3932 251.37C81.6732 251.267 81.9952 251.216 82.3592 251.216ZM81.6872 252.882C81.3232 252.882 81.0338 252.957 80.8192 253.106C80.6045 253.255 80.4458 253.484 80.3432 253.792C80.2498 254.091 80.1985 254.469 80.1892 254.926V255.15C80.1892 255.645 80.2358 256.065 80.3292 256.41C80.4225 256.746 80.5812 257.003 80.8052 257.18C81.0292 257.357 81.3325 257.446 81.7152 257.446C82.0325 257.446 82.2938 257.357 82.4992 257.18C82.7045 257.003 82.8585 256.741 82.9612 256.396C83.0638 256.051 83.1152 255.631 83.1152 255.136C83.1152 254.389 82.9985 253.829 82.7652 253.456C82.5412 253.073 82.1818 252.882 81.6872 252.882ZM93.6966 255.164C93.6966 255.799 93.6079 256.363 93.4306 256.858C93.2626 257.353 93.0152 257.773 92.6886 258.118C92.3712 258.454 91.9839 258.711 91.5266 258.888C91.0692 259.056 90.5512 259.14 89.9726 259.14C89.4406 259.14 88.9459 259.056 88.4886 258.888C88.0406 258.711 87.6532 258.454 87.3266 258.118C86.9999 257.773 86.7432 257.353 86.5566 256.858C86.3792 256.363 86.2906 255.799 86.2906 255.164C86.2906 254.315 86.4399 253.601 86.7386 253.022C87.0372 252.434 87.4666 251.986 88.0266 251.678C88.5866 251.37 89.2492 251.216 90.0146 251.216C90.7332 251.216 91.3679 251.37 91.9186 251.678C92.4692 251.986 92.9032 252.434 93.2206 253.022C93.5379 253.601 93.6966 254.315 93.6966 255.164ZM88.4186 255.164C88.4186 255.668 88.4699 256.093 88.5726 256.438C88.6846 256.774 88.8572 257.031 89.0906 257.208C89.3239 257.376 89.6272 257.46 90.0006 257.46C90.3739 257.46 90.6726 257.376 90.8966 257.208C91.1299 257.031 91.2979 256.774 91.4006 256.438C91.5126 256.093 91.5686 255.668 91.5686 255.164C91.5686 254.66 91.5126 254.24 91.4006 253.904C91.2979 253.568 91.1299 253.316 90.8966 253.148C90.6632 252.98 90.3599 252.896 89.9866 252.896C89.4359 252.896 89.0346 253.087 88.7826 253.47C88.5399 253.843 88.4186 254.408 88.4186 255.164ZM102.057 259H99.9705V252.924H98.0525C97.9592 254.044 97.8425 255.001 97.7025 255.794C97.5718 256.578 97.4038 257.217 97.1985 257.712C97.0025 258.207 96.7505 258.571 96.4425 258.804C96.1345 259.028 95.7565 259.14 95.3085 259.14C95.0658 259.14 94.8465 259.121 94.6505 259.084C94.4545 259.047 94.2772 258.991 94.1185 258.916V257.25C94.2212 257.287 94.3285 257.32 94.4405 257.348C94.5525 257.376 94.6692 257.39 94.7905 257.39C94.9212 257.39 95.0425 257.339 95.1545 257.236C95.2758 257.133 95.3878 256.951 95.4905 256.69C95.6025 256.429 95.7052 256.069 95.7985 255.612C95.8918 255.155 95.9758 254.581 96.0505 253.89C96.1345 253.19 96.2092 252.345 96.2745 251.356H102.057V259ZM107.58 254.31C108.364 254.31 109.013 254.394 109.526 254.562C110.039 254.721 110.417 254.968 110.66 255.304C110.912 255.64 111.038 256.06 111.038 256.564C111.038 257.059 110.921 257.488 110.688 257.852C110.464 258.216 110.105 258.501 109.61 258.706C109.115 258.902 108.467 259 107.664 259H104.024V251.356H106.11V254.31H107.58ZM108.952 256.592C108.952 256.293 108.831 256.079 108.588 255.948C108.355 255.817 108.005 255.752 107.538 255.752H106.11V257.558H107.566C107.977 257.558 108.308 257.483 108.56 257.334C108.821 257.185 108.952 256.937 108.952 256.592ZM113.17 258.062C113.291 258.557 113.352 259.009 113.352 259.42C113.352 260.475 112.871 261.002 111.91 261.002V260.386C112.143 260.386 112.311 260.33 112.414 260.218C112.526 260.106 112.582 259.929 112.582 259.686V259.364H111.868V258.062H113.17ZM125.228 251.496V259H123.996V252.546H120.118V259H118.886V251.496H125.228ZM133.937 255.234C133.937 255.859 133.853 256.415 133.685 256.9C133.526 257.376 133.293 257.782 132.985 258.118C132.686 258.454 132.317 258.711 131.879 258.888C131.449 259.056 130.969 259.14 130.437 259.14C129.942 259.14 129.485 259.056 129.065 258.888C128.645 258.711 128.281 258.454 127.973 258.118C127.665 257.782 127.422 257.376 127.245 256.9C127.077 256.415 126.993 255.859 126.993 255.234C126.993 254.403 127.133 253.703 127.413 253.134C127.693 252.555 128.094 252.117 128.617 251.818C129.139 251.51 129.76 251.356 130.479 251.356C131.16 251.356 131.757 251.51 132.271 251.818C132.793 252.117 133.199 252.555 133.489 253.134C133.787 253.703 133.937 254.403 133.937 255.234ZM128.267 255.234C128.267 255.822 128.341 256.335 128.491 256.774C128.649 257.203 128.892 257.535 129.219 257.768C129.545 258.001 129.961 258.118 130.465 258.118C130.969 258.118 131.384 258.001 131.711 257.768C132.037 257.535 132.275 257.203 132.425 256.774C132.583 256.335 132.663 255.822 132.663 255.234C132.663 254.637 132.583 254.128 132.425 253.708C132.266 253.288 132.023 252.966 131.697 252.742C131.379 252.509 130.964 252.392 130.451 252.392C129.685 252.392 129.13 252.644 128.785 253.148C128.439 253.652 128.267 254.347 128.267 255.234ZM144.408 251.496L141.314 255.136L144.674 259H143.274L140.026 255.192V259H138.878V255.192L135.63 259H134.23L137.59 255.136L134.496 251.496H135.84L138.878 255.136V251.496H140.026V255.136L143.078 251.496H144.408ZM148.538 251.37C149.453 251.37 150.129 251.571 150.568 251.972C151.007 252.373 151.226 253.013 151.226 253.89V259H150.33L150.092 257.936H150.036C149.821 258.207 149.597 258.435 149.364 258.622C149.14 258.799 148.879 258.93 148.58 259.014C148.291 259.098 147.936 259.14 147.516 259.14C147.068 259.14 146.662 259.061 146.298 258.902C145.943 258.743 145.663 258.501 145.458 258.174C145.253 257.838 145.15 257.418 145.15 256.914C145.15 256.167 145.444 255.593 146.032 255.192C146.62 254.781 147.525 254.557 148.748 254.52L150.022 254.478V254.03C150.022 253.405 149.887 252.971 149.616 252.728C149.345 252.485 148.963 252.364 148.468 252.364C148.076 252.364 147.703 252.425 147.348 252.546C146.993 252.658 146.662 252.789 146.354 252.938L145.976 252.014C146.303 251.837 146.69 251.687 147.138 251.566C147.586 251.435 148.053 251.37 148.538 251.37ZM148.902 255.374C147.969 255.411 147.32 255.561 146.956 255.822C146.601 256.083 146.424 256.452 146.424 256.928C146.424 257.348 146.55 257.656 146.802 257.852C147.063 258.048 147.395 258.146 147.796 258.146C148.431 258.146 148.958 257.973 149.378 257.628C149.798 257.273 150.008 256.732 150.008 256.004V255.332L148.902 255.374ZM159.046 259H157.8V252.518H155.588C155.494 253.703 155.378 254.716 155.238 255.556C155.098 256.387 154.92 257.063 154.706 257.586C154.491 258.109 154.234 258.491 153.936 258.734C153.637 258.977 153.287 259.098 152.886 259.098C152.764 259.098 152.643 259.089 152.522 259.07C152.41 259.061 152.316 259.037 152.242 259V258.076C152.298 258.095 152.358 258.109 152.424 258.118C152.489 258.127 152.554 258.132 152.62 258.132C152.825 258.132 153.012 258.048 153.18 257.88C153.348 257.712 153.497 257.455 153.628 257.11C153.768 256.765 153.894 256.331 154.006 255.808C154.118 255.276 154.216 254.651 154.3 253.932C154.384 253.213 154.458 252.401 154.524 251.496H159.046V259ZM160.041 251.496H161.357L162.981 255.766C163.075 256.018 163.159 256.261 163.233 256.494C163.317 256.727 163.392 256.956 163.457 257.18C163.523 257.395 163.574 257.605 163.611 257.81H163.667C163.723 257.577 163.812 257.273 163.933 256.9C164.055 256.517 164.181 256.135 164.311 255.752L165.837 251.496H167.167L163.933 260.036C163.756 260.503 163.546 260.909 163.303 261.254C163.07 261.609 162.781 261.879 162.435 262.066C162.099 262.262 161.689 262.36 161.203 262.36C160.979 262.36 160.783 262.346 160.615 262.318C160.447 262.299 160.303 262.276 160.181 262.248V261.268C160.284 261.287 160.405 261.305 160.545 261.324C160.695 261.343 160.849 261.352 161.007 261.352C161.297 261.352 161.544 261.296 161.749 261.184C161.964 261.081 162.146 260.927 162.295 260.722C162.445 260.526 162.571 260.293 162.673 260.022L163.065 259.028L160.041 251.496ZM174.22 248.388C174.183 248.855 174.066 249.247 173.87 249.564C173.683 249.881 173.403 250.119 173.03 250.278C172.657 250.437 172.171 250.516 171.574 250.516C170.967 250.516 170.477 250.437 170.104 250.278C169.74 250.119 169.474 249.886 169.306 249.578C169.138 249.261 169.035 248.864 168.998 248.388H170.146C170.193 248.892 170.323 249.233 170.538 249.41C170.762 249.578 171.117 249.662 171.602 249.662C172.031 249.662 172.367 249.573 172.61 249.396C172.862 249.209 173.011 248.873 173.058 248.388H174.22ZM169.306 256.074C169.306 256.158 169.301 256.279 169.292 256.438C169.292 256.587 169.287 256.751 169.278 256.928C169.269 257.096 169.259 257.259 169.25 257.418C169.241 257.567 169.231 257.689 169.222 257.782L173.24 251.496H174.752V259H173.604V254.576C173.604 254.427 173.604 254.231 173.604 253.988C173.613 253.745 173.623 253.507 173.632 253.274C173.641 253.031 173.651 252.849 173.66 252.728L169.67 259H168.144V251.496H169.306V256.074ZM179.94 259.14C179.277 259.14 178.685 259.005 178.162 258.734C177.649 258.463 177.243 258.043 176.944 257.474C176.655 256.905 176.51 256.177 176.51 255.29C176.51 254.366 176.664 253.615 176.972 253.036C177.28 252.457 177.695 252.033 178.218 251.762C178.75 251.491 179.352 251.356 180.024 251.356C180.407 251.356 180.775 251.398 181.13 251.482C181.485 251.557 181.774 251.65 181.998 251.762L181.62 252.784C181.396 252.7 181.135 252.621 180.836 252.546C180.537 252.471 180.257 252.434 179.996 252.434C179.492 252.434 179.077 252.541 178.75 252.756C178.423 252.971 178.181 253.288 178.022 253.708C177.863 254.128 177.784 254.651 177.784 255.276C177.784 255.873 177.863 256.382 178.022 256.802C178.181 257.222 178.419 257.539 178.736 257.754C179.053 257.969 179.45 258.076 179.926 258.076C180.337 258.076 180.696 258.034 181.004 257.95C181.321 257.866 181.611 257.763 181.872 257.642V258.734C181.62 258.865 181.34 258.963 181.032 259.028C180.733 259.103 180.369 259.14 179.94 259.14ZM188.627 252.532H186.177V259H184.959V252.532H182.537V251.496H188.627V252.532ZM192.737 251.37C193.652 251.37 194.328 251.571 194.767 251.972C195.206 252.373 195.425 253.013 195.425 253.89V259H194.529L194.291 257.936H194.235C194.02 258.207 193.796 258.435 193.563 258.622C193.339 258.799 193.078 258.93 192.779 259.014C192.49 259.098 192.135 259.14 191.715 259.14C191.267 259.14 190.861 259.061 190.497 258.902C190.142 258.743 189.862 258.501 189.657 258.174C189.452 257.838 189.349 257.418 189.349 256.914C189.349 256.167 189.643 255.593 190.231 255.192C190.819 254.781 191.724 254.557 192.947 254.52L194.221 254.478V254.03C194.221 253.405 194.086 252.971 193.815 252.728C193.544 252.485 193.162 252.364 192.667 252.364C192.275 252.364 191.902 252.425 191.547 252.546C191.192 252.658 190.861 252.789 190.553 252.938L190.175 252.014C190.502 251.837 190.889 251.687 191.337 251.566C191.785 251.435 192.252 251.37 192.737 251.37ZM193.101 255.374C192.168 255.411 191.519 255.561 191.155 255.822C190.8 256.083 190.623 256.452 190.623 256.928C190.623 257.348 190.749 257.656 191.001 257.852C191.262 258.048 191.594 258.146 191.995 258.146C192.63 258.146 193.157 257.973 193.577 257.628C193.997 257.273 194.207 256.732 194.207 256.004V255.332L193.101 255.374ZM207.554 253.386C207.554 253.853 207.414 254.217 207.134 254.478C206.854 254.739 206.495 254.917 206.056 255.01V255.066C206.523 255.131 206.929 255.299 207.274 255.57C207.619 255.831 207.792 256.242 207.792 256.802C207.792 257.119 207.731 257.413 207.61 257.684C207.498 257.955 207.321 258.188 207.078 258.384C206.835 258.58 206.523 258.734 206.14 258.846C205.757 258.949 205.295 259 204.754 259H201.52V251.496H204.74C205.272 251.496 205.748 251.557 206.168 251.678C206.597 251.79 206.933 251.986 207.176 252.266C207.428 252.537 207.554 252.91 207.554 253.386ZM206.518 256.802C206.518 256.373 206.355 256.065 206.028 255.878C205.701 255.691 205.221 255.598 204.586 255.598H202.752V258.006H204.614C205.23 258.006 205.701 257.917 206.028 257.74C206.355 257.553 206.518 257.241 206.518 256.802ZM206.308 253.54C206.308 253.185 206.177 252.929 205.916 252.77C205.664 252.602 205.249 252.518 204.67 252.518H202.752V254.576H204.446C205.053 254.576 205.515 254.492 205.832 254.324C206.149 254.156 206.308 253.895 206.308 253.54ZM215.41 253.386C215.41 253.853 215.27 254.217 214.99 254.478C214.71 254.739 214.351 254.917 213.912 255.01V255.066C214.379 255.131 214.785 255.299 215.13 255.57C215.476 255.831 215.648 256.242 215.648 256.802C215.648 257.119 215.588 257.413 215.466 257.684C215.354 257.955 215.177 258.188 214.934 258.384C214.692 258.58 214.379 258.734 213.996 258.846C213.614 258.949 213.152 259 212.61 259H209.376V251.496H212.596C213.128 251.496 213.604 251.557 214.024 251.678C214.454 251.79 214.79 251.986 215.032 252.266C215.284 252.537 215.41 252.91 215.41 253.386ZM214.374 256.802C214.374 256.373 214.211 256.065 213.884 255.878C213.558 255.691 213.077 255.598 212.442 255.598H210.608V258.006H212.47C213.086 258.006 213.558 257.917 213.884 257.74C214.211 257.553 214.374 257.241 214.374 256.802ZM214.164 253.54C214.164 253.185 214.034 252.929 213.772 252.77C213.52 252.602 213.105 252.518 212.526 252.518H210.608V254.576H212.302C212.909 254.576 213.371 254.492 213.688 254.324C214.006 254.156 214.164 253.895 214.164 253.54ZM220.131 251.356C220.775 251.356 221.325 251.496 221.783 251.776C222.249 252.056 222.604 252.453 222.847 252.966C223.099 253.47 223.225 254.063 223.225 254.744V255.486H218.087C218.105 256.335 218.32 256.984 218.731 257.432C219.151 257.871 219.734 258.09 220.481 258.09C220.957 258.09 221.377 258.048 221.741 257.964C222.114 257.871 222.497 257.74 222.889 257.572V258.65C222.506 258.818 222.128 258.939 221.755 259.014C221.381 259.098 220.938 259.14 220.425 259.14C219.715 259.14 219.085 258.995 218.535 258.706C217.993 258.417 217.569 257.987 217.261 257.418C216.962 256.839 216.813 256.135 216.813 255.304C216.813 254.483 216.948 253.778 217.219 253.19C217.499 252.602 217.886 252.149 218.381 251.832C218.885 251.515 219.468 251.356 220.131 251.356ZM220.117 252.364C219.529 252.364 219.062 252.555 218.717 252.938C218.381 253.311 218.18 253.834 218.115 254.506H221.937C221.937 254.077 221.871 253.703 221.741 253.386C221.61 253.069 221.409 252.821 221.139 252.644C220.877 252.457 220.537 252.364 220.117 252.364ZM230.497 251.496V257.964H231.589V261.604H230.399V259H225.177V261.604H224.001V257.964H224.603C225.032 257.367 225.387 256.718 225.667 256.018C225.956 255.309 226.171 254.571 226.311 253.806C226.46 253.031 226.54 252.261 226.549 251.496H230.497ZM227.641 252.462C227.604 253.097 227.506 253.755 227.347 254.436C227.188 255.108 226.983 255.752 226.731 256.368C226.488 256.984 226.204 257.516 225.877 257.964H229.307V252.462H227.641ZM234.012 256.074C234.012 256.158 234.007 256.279 233.998 256.438C233.998 256.587 233.993 256.751 233.984 256.928C233.974 257.096 233.965 257.259 233.956 257.418C233.946 257.567 233.937 257.689 233.928 257.782L237.946 251.496H239.458V259H238.31V254.576C238.31 254.427 238.31 254.231 238.31 253.988C238.319 253.745 238.328 253.507 238.338 253.274C238.347 253.031 238.356 252.849 238.366 252.728L234.376 259H232.85V251.496H234.012V256.074ZM246.816 252.532H244.366V259H243.148V252.532H240.726V251.496H246.816V252.532ZM250.845 251.356C251.489 251.356 252.04 251.496 252.497 251.776C252.964 252.056 253.319 252.453 253.561 252.966C253.813 253.47 253.939 254.063 253.939 254.744V255.486H248.801C248.82 256.335 249.035 256.984 249.445 257.432C249.865 257.871 250.449 258.09 251.195 258.09C251.671 258.09 252.091 258.048 252.455 257.964C252.829 257.871 253.211 257.74 253.603 257.572V258.65C253.221 258.818 252.843 258.939 252.469 259.014C252.096 259.098 251.653 259.14 251.139 259.14C250.43 259.14 249.8 258.995 249.249 258.706C248.708 258.417 248.283 257.987 247.975 257.418C247.677 256.839 247.527 256.135 247.527 255.304C247.527 254.483 247.663 253.778 247.933 253.19C248.213 252.602 248.601 252.149 249.095 251.832C249.599 251.515 250.183 251.356 250.845 251.356ZM250.831 252.364C250.243 252.364 249.777 252.555 249.431 252.938C249.095 253.311 248.895 253.834 248.829 254.506H252.651C252.651 254.077 252.586 253.703 252.455 253.386C252.325 253.069 252.124 252.821 251.853 252.644C251.592 252.457 251.251 252.364 250.831 252.364ZM94.143 272.496H95.487L92.281 276.108L95.753 280H94.325L90.937 276.192V280H89.705V272.496H90.937V276.136L94.143 272.496ZM103.156 276.234C103.156 276.859 103.072 277.415 102.904 277.9C102.745 278.376 102.512 278.782 102.204 279.118C101.905 279.454 101.536 279.711 101.098 279.888C100.668 280.056 100.188 280.14 99.6557 280.14C99.161 280.14 98.7037 280.056 98.2837 279.888C97.8637 279.711 97.4997 279.454 97.1917 279.118C96.8837 278.782 96.641 278.376 96.4637 277.9C96.2957 277.415 96.2117 276.859 96.2117 276.234C96.2117 275.403 96.3517 274.703 96.6317 274.134C96.9117 273.555 97.313 273.117 97.8357 272.818C98.3583 272.51 98.979 272.356 99.6977 272.356C100.379 272.356 100.976 272.51 101.49 272.818C102.012 273.117 102.418 273.555 102.708 274.134C103.006 274.703 103.156 275.403 103.156 276.234ZM97.4857 276.234C97.4857 276.822 97.5603 277.335 97.7097 277.774C97.8683 278.203 98.111 278.535 98.4377 278.768C98.7643 279.001 99.1797 279.118 99.6837 279.118C100.188 279.118 100.603 279.001 100.93 278.768C101.256 278.535 101.494 278.203 101.644 277.774C101.802 277.335 101.882 276.822 101.882 276.234C101.882 275.637 101.802 275.128 101.644 274.708C101.485 274.288 101.242 273.966 100.916 273.742C100.598 273.509 100.183 273.392 99.6697 273.392C98.9043 273.392 98.349 273.644 98.0037 274.148C97.6583 274.652 97.4857 275.347 97.4857 276.234ZM108.468 272.356C109.392 272.356 110.134 272.678 110.694 273.322C111.264 273.966 111.548 274.937 111.548 276.234C111.548 277.083 111.418 277.802 111.156 278.39C110.904 278.969 110.545 279.407 110.078 279.706C109.621 279.995 109.08 280.14 108.454 280.14C108.072 280.14 107.731 280.089 107.432 279.986C107.134 279.883 106.877 279.753 106.662 279.594C106.457 279.426 106.28 279.244 106.13 279.048H106.046C106.065 279.207 106.084 279.407 106.102 279.65C106.121 279.893 106.13 280.103 106.13 280.28V283.36H104.898V272.496H105.906L106.074 273.518H106.13C106.28 273.303 106.457 273.107 106.662 272.93C106.877 272.753 107.129 272.613 107.418 272.51C107.717 272.407 108.067 272.356 108.468 272.356ZM108.244 273.392C107.74 273.392 107.334 273.49 107.026 273.686C106.718 273.873 106.494 274.157 106.354 274.54C106.214 274.923 106.14 275.408 106.13 275.996V276.234C106.13 276.85 106.196 277.373 106.326 277.802C106.457 278.231 106.676 278.558 106.984 278.782C107.302 279.006 107.731 279.118 108.272 279.118C108.73 279.118 109.103 278.992 109.392 278.74C109.691 278.488 109.91 278.147 110.05 277.718C110.2 277.279 110.274 276.78 110.274 276.22C110.274 275.361 110.106 274.675 109.77 274.162C109.444 273.649 108.935 273.392 108.244 273.392ZM116.872 272.356C117.796 272.356 118.538 272.678 119.098 273.322C119.667 273.966 119.952 274.937 119.952 276.234C119.952 277.083 119.821 277.802 119.56 278.39C119.308 278.969 118.948 279.407 118.482 279.706C118.024 279.995 117.483 280.14 116.858 280.14C116.475 280.14 116.134 280.089 115.836 279.986C115.537 279.883 115.28 279.753 115.066 279.594C114.86 279.426 114.683 279.244 114.534 279.048H114.45C114.468 279.207 114.487 279.407 114.506 279.65C114.524 279.893 114.534 280.103 114.534 280.28V283.36H113.302V272.496H114.31L114.478 273.518H114.534C114.683 273.303 114.86 273.107 115.066 272.93C115.28 272.753 115.532 272.613 115.822 272.51C116.12 272.407 116.47 272.356 116.872 272.356ZM116.648 273.392C116.144 273.392 115.738 273.49 115.43 273.686C115.122 273.873 114.898 274.157 114.758 274.54C114.618 274.923 114.543 275.408 114.534 275.996V276.234C114.534 276.85 114.599 277.373 114.73 277.802C114.86 278.231 115.08 278.558 115.388 278.782C115.705 279.006 116.134 279.118 116.676 279.118C117.133 279.118 117.506 278.992 117.796 278.74C118.094 278.488 118.314 278.147 118.454 277.718C118.603 277.279 118.678 276.78 118.678 276.22C118.678 275.361 118.51 274.675 118.174 274.162C117.847 273.649 117.338 273.392 116.648 273.392ZM124.603 272.356C125.247 272.356 125.797 272.496 126.255 272.776C126.721 273.056 127.076 273.453 127.319 273.966C127.571 274.47 127.697 275.063 127.697 275.744V276.486H122.559C122.577 277.335 122.792 277.984 123.203 278.432C123.623 278.871 124.206 279.09 124.953 279.09C125.429 279.09 125.849 279.048 126.213 278.964C126.586 278.871 126.969 278.74 127.361 278.572V279.65C126.978 279.818 126.6 279.939 126.227 280.014C125.853 280.098 125.41 280.14 124.897 280.14C124.187 280.14 123.557 279.995 123.007 279.706C122.465 279.417 122.041 278.987 121.733 278.418C121.434 277.839 121.285 277.135 121.285 276.304C121.285 275.483 121.42 274.778 121.691 274.19C121.971 273.602 122.358 273.149 122.853 272.832C123.357 272.515 123.94 272.356 124.603 272.356ZM124.589 273.364C124.001 273.364 123.534 273.555 123.189 273.938C122.853 274.311 122.652 274.834 122.587 275.506H126.409C126.409 275.077 126.343 274.703 126.213 274.386C126.082 274.069 125.881 273.821 125.611 273.644C125.349 273.457 125.009 273.364 124.589 273.364ZM133.835 272.496H135.179L131.973 276.108L135.445 280H134.017L130.629 276.192V280H129.397V272.496H130.629V276.136L133.835 272.496ZM141.777 273.532H139.327V280H138.109V273.532H135.687V272.496H141.777V273.532ZM144.278 272.496V275.618H148.352V272.496H149.584V280H148.352V276.654H144.278V280H143.046V272.496H144.278ZM151.75 280V272.496H152.982V275.576H154.928C155.581 275.576 156.118 275.655 156.538 275.814C156.958 275.973 157.27 276.211 157.476 276.528C157.681 276.836 157.784 277.228 157.784 277.704C157.784 278.171 157.681 278.577 157.476 278.922C157.28 279.267 156.967 279.533 156.538 279.72C156.118 279.907 155.562 280 154.872 280H151.75ZM154.76 279.006C155.292 279.006 155.726 278.917 156.062 278.74C156.398 278.553 156.566 278.231 156.566 277.774C156.566 277.317 156.412 277.009 156.104 276.85C155.796 276.682 155.352 276.598 154.774 276.598H152.982V279.006H154.76ZM159.03 280V272.496H160.262V280H159.03ZM165.334 272.356C165.978 272.356 166.529 272.496 166.986 272.776C167.453 273.056 167.807 273.453 168.05 273.966C168.302 274.47 168.428 275.063 168.428 275.744V276.486H163.29C163.309 277.335 163.523 277.984 163.934 278.432C164.354 278.871 164.937 279.09 165.684 279.09C166.16 279.09 166.58 279.048 166.944 278.964C167.317 278.871 167.7 278.74 168.092 278.572V279.65C167.709 279.818 167.331 279.939 166.958 280.014C166.585 280.098 166.141 280.14 165.628 280.14C164.919 280.14 164.289 279.995 163.738 279.706C163.197 279.417 162.772 278.987 162.464 278.418C162.165 277.839 162.016 277.135 162.016 276.304C162.016 275.483 162.151 274.778 162.422 274.19C162.702 273.602 163.089 273.149 163.584 272.832C164.088 272.515 164.671 272.356 165.334 272.356ZM165.32 273.364C164.732 273.364 164.265 273.555 163.92 273.938C163.584 274.311 163.383 274.834 163.318 275.506H167.14C167.14 275.077 167.075 274.703 166.944 274.386C166.813 274.069 166.613 273.821 166.342 273.644C166.081 273.457 165.74 273.364 165.32 273.364ZM179.688 272.496V278.964H180.78V282.604H179.59V280H174.368V282.604H173.192V278.964H173.794C174.223 278.367 174.578 277.718 174.858 277.018C175.147 276.309 175.362 275.571 175.502 274.806C175.651 274.031 175.73 273.261 175.74 272.496H179.688ZM176.832 273.462C176.794 274.097 176.696 274.755 176.538 275.436C176.379 276.108 176.174 276.752 175.922 277.368C175.679 277.984 175.394 278.516 175.068 278.964H178.498V273.462H176.832ZM184.882 272.37C185.797 272.37 186.474 272.571 186.912 272.972C187.351 273.373 187.57 274.013 187.57 274.89V280H186.674L186.436 278.936H186.38C186.166 279.207 185.942 279.435 185.708 279.622C185.484 279.799 185.223 279.93 184.924 280.014C184.635 280.098 184.28 280.14 183.86 280.14C183.412 280.14 183.006 280.061 182.642 279.902C182.288 279.743 182.008 279.501 181.802 279.174C181.597 278.838 181.494 278.418 181.494 277.914C181.494 277.167 181.788 276.593 182.376 276.192C182.964 275.781 183.87 275.557 185.092 275.52L186.366 275.478V275.03C186.366 274.405 186.231 273.971 185.96 273.728C185.69 273.485 185.307 273.364 184.812 273.364C184.42 273.364 184.047 273.425 183.692 273.546C183.338 273.658 183.006 273.789 182.698 273.938L182.32 273.014C182.647 272.837 183.034 272.687 183.482 272.566C183.93 272.435 184.397 272.37 184.882 272.37ZM185.246 276.374C184.313 276.411 183.664 276.561 183.3 276.822C182.946 277.083 182.768 277.452 182.768 277.928C182.768 278.348 182.894 278.656 183.146 278.852C183.408 279.048 183.739 279.146 184.14 279.146C184.775 279.146 185.302 278.973 185.722 278.628C186.142 278.273 186.352 277.732 186.352 277.004V276.332L185.246 276.374ZM190.91 272.496V275.618H194.984V272.496H196.216V280H194.984V276.654H190.91V280H189.678V272.496H190.91ZM199.614 272.496V275.618H203.688V272.496H204.92V280H203.688V276.654H199.614V280H198.382V272.496H199.614ZM207.086 280V272.496H208.318V275.576H210.264C210.918 275.576 211.454 275.655 211.874 275.814C212.294 275.973 212.607 276.211 212.812 276.528C213.018 276.836 213.12 277.228 213.12 277.704C213.12 278.171 213.018 278.577 212.812 278.922C212.616 279.267 212.304 279.533 211.874 279.72C211.454 279.907 210.899 280 210.208 280H207.086ZM210.096 279.006C210.628 279.006 211.062 278.917 211.398 278.74C211.734 278.553 211.902 278.231 211.902 277.774C211.902 277.317 211.748 277.009 211.44 276.85C211.132 276.682 210.689 276.598 210.11 276.598H208.318V279.006H210.096ZM214.366 280V272.496H215.598V280H214.366ZM220.671 272.356C221.315 272.356 221.865 272.496 222.323 272.776C222.789 273.056 223.144 273.453 223.387 273.966C223.639 274.47 223.765 275.063 223.765 275.744V276.486H218.627C218.645 277.335 218.86 277.984 219.271 278.432C219.691 278.871 220.274 279.09 221.021 279.09C221.497 279.09 221.917 279.048 222.281 278.964C222.654 278.871 223.037 278.74 223.429 278.572V279.65C223.046 279.818 222.668 279.939 222.295 280.014C221.921 280.098 221.478 280.14 220.965 280.14C220.255 280.14 219.625 279.995 219.075 279.706C218.533 279.417 218.109 278.987 217.801 278.418C217.502 277.839 217.353 277.135 217.353 276.304C217.353 275.483 217.488 274.778 217.759 274.19C218.039 273.602 218.426 273.149 218.921 272.832C219.425 272.515 220.008 272.356 220.671 272.356ZM220.657 273.364C220.069 273.364 219.602 273.555 219.257 273.938C218.921 274.311 218.72 274.834 218.655 275.506H222.477C222.477 275.077 222.411 274.703 222.281 274.386C222.15 274.069 221.949 273.821 221.679 273.644C221.417 273.457 221.077 273.364 220.657 273.364Z" fill="black"/>
<path d="M193.506 93.0001C193.506 71.1814 175.818 53.4939 153.999 53.4939C132.181 53.4939 114.493 71.1814 114.493 93.0001C114.493 114.819 132.181 132.506 153.999 132.506C175.818 132.506 193.506 114.819 193.506 93.0001Z" stroke="#E41717" stroke-width="3" stroke-miterlimit="10"/>
<path d="M140.562 79.5625L167.437 106.438" stroke="#E41717" stroke-width="3" stroke-linecap="round"/>
<path d="M167.438 79.5625L140.562 106.438" stroke="#E41717" stroke-width="3" stroke-linecap="round"/>
<defs>
<filter id="filter0_d_1383_2448" x="0" y="0" width="313" height="340" filterUnits="userSpaceOnUse" color-interpolation-filters="sRGB">
<feFlood flood-opacity="0" result="BackgroundImageFix"/>
<feColorMatrix in="SourceAlpha" type="matrix" values="0 0 0 0 0 0 0 0 0 0 0 0 0 0 0 0 0 0 127 0" result="hardAlpha"/>
<feOffset dy="4"/>
<feGaussianBlur stdDeviation="2"/>
<feComposite in2="hardAlpha" operator="out"/>
<feColorMatrix type="matrix" values="0 0 0 0 0 0 0 0 0 0 0 0 0 0 0 0 0 0 0.05 0"/>
<feBlend mode="normal" in2="BackgroundImageFix" result="effect1_dropShadow_1383_2448"/>
<feBlend mode="normal" in="SourceGraphic" in2="effect1_dropShadow_1383_2448" result="shape"/>
</filter>
<filter id="filter1_d_1383_2448" x="104.464" y="173.64" width="99.6607" height="26.6001" filterUnits="userSpaceOnUse" color-interpolation-filters="sRGB">
<feFlood flood-opacity="0" result="BackgroundImageFix"/>
<feColorMatrix in="SourceAlpha" type="matrix" values="0 0 0 0 0 0 0 0 0 0 0 0 0 0 0 0 0 0 127 0" result="hardAlpha"/>
<feOffset dy="4"/>
<feGaussianBlur stdDeviation="2"/>
<feComposite in2="hardAlpha" operator="out"/>
<feColorMatrix type="matrix" values="0 0 0 0 0 0 0 0 0 0 0 0 0 0 0 0 0 0 0.08 0"/>
<feBlend mode="normal" in2="BackgroundImageFix" result="effect1_dropShadow_1383_2448"/>
<feBlend mode="normal" in="SourceGraphic" in2="effect1_dropShadow_1383_2448" result="shape"/>
</filter>
</defs>
</svg>
