<svg width="313" height="43" viewBox="0 0 313 43" fill="none" xmlns="http://www.w3.org/2000/svg">
<rect width="313" height="43" rx="8" fill="#C192EE"/>
<path d="M27.746 28V15.148H37.394V28H35.792V16.57H29.366V28H27.746ZM44.422 18.172C45.25 18.172 45.958 18.352 46.546 18.712C47.146 19.072 47.602 19.582 47.914 20.242C48.238 20.89 48.4 21.652 48.4 22.528V23.482H41.794C41.818 24.574 42.094 25.408 42.622 25.984C43.162 26.548 43.912 26.83 44.872 26.83C45.484 26.83 46.024 26.776 46.492 26.668C46.972 26.548 47.464 26.38 47.968 26.164V27.55C47.476 27.766 46.99 27.922 46.51 28.018C46.03 28.126 45.46 28.18 44.8 28.18C43.888 28.18 43.078 27.994 42.37 27.622C41.674 27.25 41.128 26.698 40.732 25.966C40.348 25.222 40.156 24.316 40.156 23.248C40.156 22.192 40.33 21.286 40.678 20.53C41.038 19.774 41.536 19.192 42.172 18.784C42.82 18.376 43.57 18.172 44.422 18.172ZM44.404 19.468C43.648 19.468 43.048 19.714 42.604 20.206C42.172 20.686 41.914 21.358 41.83 22.222H46.744C46.744 21.67 46.66 21.19 46.492 20.782C46.324 20.374 46.066 20.056 45.718 19.828C45.382 19.588 44.944 19.468 44.404 19.468ZM55.4462 18.172C56.6342 18.172 57.5882 18.586 58.3082 19.414C59.0402 20.242 59.4062 21.49 59.4062 23.158C59.4062 24.25 59.2382 25.174 58.9022 25.93C58.5782 26.674 58.1162 27.238 57.5162 27.622C56.9282 27.994 56.2322 28.18 55.4282 28.18C54.9362 28.18 54.4982 28.114 54.1142 27.982C53.7302 27.85 53.4002 27.682 53.1242 27.478C52.8602 27.262 52.6322 27.028 52.4402 26.776H52.3322C52.3562 26.98 52.3802 27.238 52.4042 27.55C52.4282 27.862 52.4402 28.132 52.4402 28.36V32.32H50.8562V18.352H52.1522L52.3682 19.666H52.4402C52.6322 19.39 52.8602 19.138 53.1242 18.91C53.4002 18.682 53.7242 18.502 54.0962 18.37C54.4802 18.238 54.9302 18.172 55.4462 18.172ZM55.1582 19.504C54.5102 19.504 53.9882 19.63 53.5922 19.882C53.1962 20.122 52.9082 20.488 52.7282 20.98C52.5482 21.472 52.4522 22.096 52.4402 22.852V23.158C52.4402 23.95 52.5242 24.622 52.6922 25.174C52.8602 25.726 53.1422 26.146 53.5382 26.434C53.9462 26.722 54.4982 26.866 55.1942 26.866C55.7822 26.866 56.2622 26.704 56.6342 26.38C57.0182 26.056 57.3002 25.618 57.4802 25.066C57.6722 24.502 57.7682 23.86 57.7682 23.14C57.7682 22.036 57.5522 21.154 57.1202 20.494C56.7002 19.834 56.0462 19.504 55.1582 19.504ZM65.6564 18.172C66.4844 18.172 67.1924 18.352 67.7804 18.712C68.3804 19.072 68.8364 19.582 69.1484 20.242C69.4724 20.89 69.6344 21.652 69.6344 22.528V23.482H63.0284C63.0524 24.574 63.3284 25.408 63.8564 25.984C64.3964 26.548 65.1464 26.83 66.1064 26.83C66.7184 26.83 67.2584 26.776 67.7264 26.668C68.2064 26.548 68.6984 26.38 69.2024 26.164V27.55C68.7104 27.766 68.2244 27.922 67.7444 28.018C67.2644 28.126 66.6944 28.18 66.0344 28.18C65.1224 28.18 64.3124 27.994 63.6044 27.622C62.9084 27.25 62.3624 26.698 61.9664 25.966C61.5824 25.222 61.3904 24.316 61.3904 23.248C61.3904 22.192 61.5644 21.286 61.9124 20.53C62.2724 19.774 62.7704 19.192 63.4064 18.784C64.0544 18.376 64.8044 18.172 65.6564 18.172ZM65.6384 19.468C64.8824 19.468 64.2824 19.714 63.8384 20.206C63.4064 20.686 63.1484 21.358 63.0644 22.222H67.9784C67.9784 21.67 67.8944 21.19 67.7264 20.782C67.5584 20.374 67.3004 20.056 66.9524 19.828C66.6164 19.588 66.1784 19.468 65.6384 19.468ZM79.9025 14.356C79.8545 14.956 79.7045 15.46 79.4525 15.868C79.2125 16.276 78.8525 16.582 78.3725 16.786C77.8925 16.99 77.2685 17.092 76.5005 17.092C75.7205 17.092 75.0905 16.99 74.6105 16.786C74.1425 16.582 73.8005 16.282 73.5845 15.886C73.3685 15.478 73.2365 14.968 73.1885 14.356H74.6645C74.7245 15.004 74.8925 15.442 75.1685 15.67C75.4565 15.886 75.9125 15.994 76.5365 15.994C77.0885 15.994 77.5205 15.88 77.8325 15.652C78.1565 15.412 78.3485 14.98 78.4085 14.356H79.9025ZM73.5845 24.238C73.5845 24.346 73.5785 24.502 73.5665 24.706C73.5665 24.898 73.5605 25.108 73.5485 25.336C73.5365 25.552 73.5245 25.762 73.5125 25.966C73.5005 26.158 73.4885 26.314 73.4765 26.434L78.6425 18.352H80.5865V28H79.1105V22.312C79.1105 22.12 79.1105 21.868 79.1105 21.556C79.1225 21.244 79.1345 20.938 79.1465 20.638C79.1585 20.326 79.1705 20.092 79.1825 19.936L74.0525 28H72.0905V18.352H73.5845V24.238ZM90.317 19.684H87.167V28H85.601V19.684H82.487V18.352H90.317V19.684ZM93.7115 24.238C93.7115 24.346 93.7055 24.502 93.6935 24.706C93.6935 24.898 93.6875 25.108 93.6755 25.336C93.6635 25.552 93.6515 25.762 93.6395 25.966C93.6275 26.158 93.6155 26.314 93.6035 26.434L98.7695 18.352H100.714V28H99.2375V22.312C99.2375 22.12 99.2375 21.868 99.2375 21.556C99.2495 21.244 99.2615 20.938 99.2735 20.638C99.2855 20.326 99.2975 20.092 99.3095 19.936L94.1795 28H92.2175V18.352H93.7115V24.238ZM116.218 20.782C116.218 21.382 116.038 21.85 115.678 22.186C115.318 22.522 114.856 22.75 114.292 22.87V22.942C114.892 23.026 115.414 23.242 115.858 23.59C116.302 23.926 116.524 24.454 116.524 25.174C116.524 25.582 116.446 25.96 116.29 26.308C116.146 26.656 115.918 26.956 115.606 27.208C115.294 27.46 114.892 27.658 114.4 27.802C113.908 27.934 113.314 28 112.618 28H108.46V18.352H112.6C113.284 18.352 113.896 18.43 114.436 18.586C114.988 18.73 115.42 18.982 115.732 19.342C116.056 19.69 116.218 20.17 116.218 20.782ZM114.886 25.174C114.886 24.622 114.676 24.226 114.256 23.986C113.836 23.746 113.218 23.626 112.402 23.626H110.044V26.722H112.438C113.23 26.722 113.836 26.608 114.256 26.38C114.676 26.14 114.886 25.738 114.886 25.174ZM114.616 20.98C114.616 20.524 114.448 20.194 114.112 19.99C113.788 19.774 113.254 19.666 112.51 19.666H110.044V22.312H112.222C113.002 22.312 113.596 22.204 114.004 21.988C114.412 21.772 114.616 21.436 114.616 20.98ZM126.927 28.162C126.147 28.162 125.445 28.024 124.821 27.748C124.209 27.46 123.723 27.076 123.363 26.596C123.003 26.104 122.811 25.558 122.787 24.958H124.911C124.947 25.378 125.145 25.732 125.505 26.02C125.877 26.296 126.339 26.434 126.891 26.434C127.467 26.434 127.911 26.326 128.223 26.11C128.547 25.882 128.709 25.594 128.709 25.246C128.709 24.874 128.529 24.598 128.169 24.418C127.821 24.238 127.263 24.04 126.495 23.824C125.751 23.62 125.145 23.422 124.677 23.23C124.209 23.038 123.801 22.744 123.453 22.348C123.117 21.952 122.949 21.43 122.949 20.782C122.949 20.254 123.105 19.774 123.417 19.342C123.729 18.898 124.173 18.55 124.749 18.298C125.337 18.046 126.009 17.92 126.765 17.92C127.893 17.92 128.799 18.208 129.483 18.784C130.179 19.348 130.551 20.122 130.599 21.106H128.547C128.511 20.662 128.331 20.308 128.007 20.044C127.683 19.78 127.245 19.648 126.693 19.648C126.153 19.648 125.739 19.75 125.451 19.954C125.163 20.158 125.019 20.428 125.019 20.764C125.019 21.028 125.115 21.25 125.307 21.43C125.499 21.61 125.733 21.754 126.009 21.862C126.285 21.958 126.693 22.084 127.233 22.24C127.953 22.432 128.541 22.63 128.997 22.834C129.465 23.026 129.867 23.314 130.203 23.698C130.539 24.082 130.713 24.592 130.725 25.228C130.725 25.792 130.569 26.296 130.257 26.74C129.945 27.184 129.501 27.532 128.925 27.784C128.361 28.036 127.695 28.162 126.927 28.162ZM135.336 19.756V25.246C135.336 25.618 135.42 25.888 135.588 26.056C135.768 26.212 136.068 26.29 136.488 26.29H137.748V28H136.128C135.204 28 134.496 27.784 134.004 27.352C133.512 26.92 133.266 26.218 133.266 25.246V19.756H132.096V18.082H133.266V15.616H135.336V18.082H137.748V19.756H135.336ZM148.621 18.082V28H146.569V26.83C146.245 27.238 145.819 27.562 145.291 27.802C144.775 28.03 144.223 28.144 143.635 28.144C142.855 28.144 142.153 27.982 141.529 27.658C140.917 27.334 140.431 26.854 140.071 26.218C139.723 25.582 139.549 24.814 139.549 23.914V18.082H141.583V23.608C141.583 24.496 141.805 25.18 142.249 25.66C142.693 26.128 143.299 26.362 144.067 26.362C144.835 26.362 145.441 26.128 145.885 25.66C146.341 25.18 146.569 24.496 146.569 23.608V18.082H148.621ZM150.645 22.996C150.645 22 150.849 21.118 151.257 20.35C151.677 19.582 152.241 18.988 152.949 18.568C153.669 18.136 154.467 17.92 155.343 17.92C155.991 17.92 156.627 18.064 157.251 18.352C157.887 18.628 158.391 19 158.763 19.468V14.68H160.833V28H158.763V26.506C158.427 26.986 157.959 27.382 157.359 27.694C156.771 28.006 156.093 28.162 155.325 28.162C154.461 28.162 153.669 27.946 152.949 27.514C152.241 27.07 151.677 26.458 151.257 25.678C150.849 24.886 150.645 23.992 150.645 22.996ZM158.763 23.032C158.763 22.348 158.619 21.754 158.331 21.25C158.055 20.746 157.689 20.362 157.233 20.098C156.777 19.834 156.285 19.702 155.757 19.702C155.229 19.702 154.737 19.834 154.281 20.098C153.825 20.35 153.453 20.728 153.165 21.232C152.889 21.724 152.751 22.312 152.751 22.996C152.751 23.68 152.889 24.28 153.165 24.796C153.453 25.312 153.825 25.708 154.281 25.984C154.749 26.248 155.241 26.38 155.757 26.38C156.285 26.38 156.777 26.248 157.233 25.984C157.689 25.72 158.055 25.336 158.331 24.832C158.619 24.316 158.763 23.716 158.763 23.032ZM172.456 18.082L166.372 32.662H164.248L166.264 27.838L162.358 18.082H164.644L167.434 25.642L170.332 18.082H172.456ZM180.732 19.54C181.08 19.084 181.554 18.7 182.154 18.388C182.754 18.076 183.432 17.92 184.188 17.92C185.052 17.92 185.838 18.136 186.546 18.568C187.266 18.988 187.83 19.582 188.238 20.35C188.646 21.118 188.85 22 188.85 22.996C188.85 23.992 188.646 24.886 188.238 25.678C187.83 26.458 187.266 27.07 186.546 27.514C185.838 27.946 185.052 28.162 184.188 28.162C183.432 28.162 182.76 28.012 182.172 27.712C181.584 27.4 181.104 27.016 180.732 26.56V32.716H178.68V18.082H180.732V19.54ZM186.762 22.996C186.762 22.312 186.618 21.724 186.33 21.232C186.054 20.728 185.682 20.35 185.214 20.098C184.758 19.834 184.266 19.702 183.738 19.702C183.222 19.702 182.73 19.834 182.262 20.098C181.806 20.362 181.434 20.746 181.146 21.25C180.87 21.754 180.732 22.348 180.732 23.032C180.732 23.716 180.87 24.316 181.146 24.832C181.434 25.336 181.806 25.72 182.262 25.984C182.73 26.248 183.222 26.38 183.738 26.38C184.266 26.38 184.758 26.248 185.214 25.984C185.682 25.708 186.054 25.312 186.33 24.796C186.618 24.28 186.762 23.68 186.762 22.996ZM192.931 14.68V28H190.879V14.68H192.931ZM194.941 22.996C194.941 22 195.145 21.118 195.553 20.35C195.973 19.582 196.537 18.988 197.245 18.568C197.965 18.136 198.757 17.92 199.621 17.92C200.401 17.92 201.079 18.076 201.655 18.388C202.243 18.688 202.711 19.066 203.059 19.522V18.082H205.129V28H203.059V26.524C202.711 26.992 202.237 27.382 201.637 27.694C201.037 28.006 200.353 28.162 199.585 28.162C198.733 28.162 197.953 27.946 197.245 27.514C196.537 27.07 195.973 26.458 195.553 25.678C195.145 24.886 194.941 23.992 194.941 22.996ZM203.059 23.032C203.059 22.348 202.915 21.754 202.627 21.25C202.351 20.746 201.985 20.362 201.529 20.098C201.073 19.834 200.581 19.702 200.053 19.702C199.525 19.702 199.033 19.834 198.577 20.098C198.121 20.35 197.749 20.728 197.461 21.232C197.185 21.724 197.047 22.312 197.047 22.996C197.047 23.68 197.185 24.28 197.461 24.796C197.749 25.312 198.121 25.708 198.577 25.984C199.045 26.248 199.537 26.38 200.053 26.38C200.581 26.38 201.073 26.248 201.529 25.984C201.985 25.72 202.351 25.336 202.627 24.832C202.915 24.316 203.059 23.716 203.059 23.032ZM212.829 17.92C213.609 17.92 214.305 18.082 214.917 18.406C215.541 18.73 216.027 19.21 216.375 19.846C216.723 20.482 216.897 21.25 216.897 22.15V28H214.863V22.456C214.863 21.568 214.641 20.89 214.197 20.422C213.753 19.942 213.147 19.702 212.379 19.702C211.611 19.702 210.999 19.942 210.543 20.422C210.099 20.89 209.877 21.568 209.877 22.456V28H207.825V18.082H209.877V19.216C210.213 18.808 210.639 18.49 211.155 18.262C211.683 18.034 212.241 17.92 212.829 17.92Z" fill="#FBFBFB"/>
<path d="M266.5 28.25C266.09 28.25 265.75 27.91 265.75 27.5V16.5C265.75 12.09 267.09 10.75 271.5 10.75H278.5C282.91 10.75 284.25 12.09 284.25 16.5V26.5C284.25 26.66 284.25 26.81 284.24 26.97C284.21 27.38 283.84 27.7 283.44 27.67C283.03 27.64 282.71 27.28 282.74 26.87C282.75 26.75 282.75 26.62 282.75 26.5V16.5C282.75 12.93 282.08 12.25 278.5 12.25H271.5C267.92 12.25 267.25 12.93 267.25 16.5V27.5C267.25 27.91 266.91 28.25 266.5 28.25Z" fill="#FBFBFB"/>
<path d="M280 32.25H270C267.66 32.25 265.75 30.34 265.75 28V27.35C265.75 25.36 267.37 23.75 269.35 23.75H283.5C283.91 23.75 284.25 24.09 284.25 24.5V28C284.25 30.34 282.34 32.25 280 32.25ZM269.35 25.25C268.19 25.25 267.25 26.19 267.25 27.35V28C267.25 29.52 268.48 30.75 270 30.75H280C281.52 30.75 282.75 29.52 282.75 28V25.25H269.35Z" fill="#FBFBFB"/>
<path d="M279 17.25H271C270.59 17.25 270.25 16.91 270.25 16.5C270.25 16.09 270.59 15.75 271 15.75H279C279.41 15.75 279.75 16.09 279.75 16.5C279.75 16.91 279.41 17.25 279 17.25Z" fill="#FBFBFB"/>
<path d="M276 20.75H271C270.59 20.75 270.25 20.41 270.25 20C270.25 19.59 270.59 19.25 271 19.25H276C276.41 19.25 276.75 19.59 276.75 20C276.75 20.41 276.41 20.75 276 20.75Z" fill="#FBFBFB"/>
</svg>
