<svg width="21" height="20" viewBox="0 0 21 20" fill="none" xmlns="http://www.w3.org/2000/svg">
<path d="M6.5 20C5.95 20 5.479 19.804 5.087 19.412C4.695 19.02 4.49933 18.5493 4.5 18C4.5 17.45 4.696 16.979 5.088 16.587C5.48 16.195 5.95067 15.9993 6.5 16C7.05 16 7.521 16.196 7.913 16.588C8.305 16.98 8.50067 17.4507 8.5 18C8.5 18.55 8.304 19.021 7.912 19.413C7.52 19.805 7.04933 20.0007 6.5 20ZM16.5 20C15.95 20 15.479 19.804 15.087 19.412C14.695 19.02 14.4993 18.5493 14.5 18C14.5 17.45 14.696 16.979 15.088 16.587C15.48 16.195 15.9507 15.9993 16.5 16C17.05 16 17.521 16.196 17.913 16.588C18.305 16.98 18.5007 17.4507 18.5 18C18.5 18.55 18.304 19.021 17.912 19.413C17.52 19.805 17.0493 20.0007 16.5 20ZM4.7 2H19.45C19.8333 2 20.125 2.171 20.325 2.513C20.525 2.855 20.5333 3.20067 20.35 3.55L16.8 9.95C16.6167 10.2833 16.3707 10.5417 16.062 10.725C15.7533 10.9083 15.416 11 15.05 11H7.6L6.5 13H18.5V15H6.5C5.75 15 5.18333 14.6707 4.8 14.012C4.41667 13.3533 4.4 12.6993 4.75 12.05L6.1 9.6L2.5 2H0.5V0H3.75L4.7 2Z" fill="black"/>
</svg>
